<svg xmlns="http://www.w3.org/2000/svg" xmlns:xlink="http://www.w3.org/1999/xlink" width="500" zoomAndPan="magnify" viewBox="0 0 375 374.999991" height="500" preserveAspectRatio="xMidYMid meet" version="1.0"><defs><g/><clipPath id="dea60eeec9"><path d="M 136 69.113281 L 246.820312 69.113281 L 246.820312 206.363281 L 136 206.363281 Z M 136 69.113281 " clip-rule="nonzero"/></clipPath><clipPath id="94ff4a5421"><path d="M 133 65 L 191 65 L 191 74 L 133 74 Z M 133 65 " clip-rule="nonzero"/></clipPath><clipPath id="d31e999f09"><path d="M 141.597656 24.699219 L 190.574219 35.933594 L 182.019531 73.214844 L 133.042969 61.980469 Z M 141.597656 24.699219 " clip-rule="nonzero"/></clipPath><clipPath id="38e4c8fa98"><path d="M 181.40625 125.3125 L 121.464844 111.5625 L 141.421875 24.570312 L 201.367188 38.324219 Z M 181.40625 125.3125 " clip-rule="nonzero"/></clipPath><clipPath id="c77a19a819"><path d="M 133 65 L 188 65 L 188 74 L 133 74 Z M 133 65 " clip-rule="nonzero"/></clipPath><clipPath id="adf5b62ec3"><path d="M 141.597656 24.699219 L 190.574219 35.933594 L 182.019531 73.214844 L 133.042969 61.980469 Z M 141.597656 24.699219 " clip-rule="nonzero"/></clipPath><clipPath id="6771e36666"><path d="M 181.40625 125.3125 L 121.464844 111.5625 L 141.421875 24.570312 L 201.367188 38.324219 Z M 181.40625 125.3125 " clip-rule="nonzero"/></clipPath><clipPath id="cbc8aedd45"><path d="M 137 65 L 186 65 L 186 74 L 137 74 Z M 137 65 " clip-rule="nonzero"/></clipPath><clipPath id="7d3de0bccb"><path d="M 141.597656 24.699219 L 190.574219 35.933594 L 182.019531 73.214844 L 133.042969 61.980469 Z M 141.597656 24.699219 " clip-rule="nonzero"/></clipPath><clipPath id="0d4163fdfb"><path d="M 181.40625 125.3125 L 121.464844 111.5625 L 141.421875 24.570312 L 201.367188 38.324219 Z M 181.40625 125.3125 " clip-rule="nonzero"/></clipPath><clipPath id="416e588bf9"><path d="M 137 38 L 185 38 L 185 63 L 137 63 Z M 137 38 " clip-rule="nonzero"/></clipPath><clipPath id="13abe846b9"><path d="M 141.597656 24.699219 L 190.574219 35.933594 L 182.019531 73.214844 L 133.042969 61.980469 Z M 141.597656 24.699219 " clip-rule="nonzero"/></clipPath><clipPath id="fb8b779c23"><path d="M 181.40625 125.3125 L 121.464844 111.5625 L 141.421875 24.570312 L 201.367188 38.324219 Z M 181.40625 125.3125 " clip-rule="nonzero"/></clipPath><clipPath id="ef932aa39f"><path d="M 154 60 L 173 60 L 173 65 L 154 65 Z M 154 60 " clip-rule="nonzero"/></clipPath><clipPath id="eedde1bde2"><path d="M 141.597656 24.699219 L 190.574219 35.933594 L 182.019531 73.214844 L 133.042969 61.980469 Z M 141.597656 24.699219 " clip-rule="nonzero"/></clipPath><clipPath id="a5a767212a"><path d="M 181.40625 125.3125 L 121.464844 111.5625 L 141.421875 24.570312 L 201.367188 38.324219 Z M 181.40625 125.3125 " clip-rule="nonzero"/></clipPath><clipPath id="f5a733e96b"><path d="M 148 29 L 163 29 L 163 41 L 148 41 Z M 148 29 " clip-rule="nonzero"/></clipPath><clipPath id="8545b95832"><path d="M 141.597656 24.699219 L 190.574219 35.933594 L 182.019531 73.214844 L 133.042969 61.980469 Z M 141.597656 24.699219 " clip-rule="nonzero"/></clipPath><clipPath id="63fb621494"><path d="M 181.40625 125.3125 L 121.464844 111.5625 L 141.421875 24.570312 L 201.367188 38.324219 Z M 181.40625 125.3125 " clip-rule="nonzero"/></clipPath></defs><g clip-path="url(#dea60eeec9)"><path fill="#ffffff" d="M 136.917969 84.050781 L 136.917969 152.175781 C 142.164062 139.042969 150.167969 128.203125 160.136719 118.992188 C 160.824219 118.367188 161.511719 117.738281 162.21875 117.132812 C 175.449219 105.527344 193.792969 97.21875 190.902344 76.210938 C 203.347656 87.242188 199.515625 100.804688 190.960938 112.25 C 190.511719 112.859375 190.058594 113.464844 189.625 114.09375 C 188.445312 115.699219 187.324219 117.347656 186.242188 118.992188 C 184.238281 122.050781 182.371094 125.148438 180.679688 128.363281 C 173.070312 142.726562 167.015625 161.855469 185.613281 171.300781 C 198.789062 177.984375 214.222656 168.597656 214.96875 154.191406 C 215.398438 145.921875 211.054688 138.769531 202.328125 132.671875 C 229.144531 133.046875 238.933594 161.050781 222.714844 180.003906 C 219.15625 184.160156 214.890625 187.234375 209.992188 189.390625 C 173.957031 205.285156 143.660156 167.597656 167.015625 129.636719 C 133.613281 155.566406 153.726562 206.363281 197.882812 206.363281 C 224.894531 206.363281 246.777344 185.550781 246.777344 159.894531 C 246.777344 141.042969 234.960938 124.8125 217.996094 117.523438 C 227.648438 114.054688 234.589844 104.824219 234.589844 94.0625 C 234.589844 80.34375 223.324219 69.113281 209.5625 69.113281 L 149.675781 69.113281 C 138.765625 69.113281 136.917969 75.015625 136.917969 84.050781 Z M 136.917969 84.050781 " fill-opacity="1" fill-rule="evenodd"/></g><g clip-path="url(#94ff4a5421)"><g clip-path="url(#d31e999f09)"><g clip-path="url(#38e4c8fa98)"><path fill="#ffffff" d="M 185.75 65.453125 C 185.75 65.453125 185.960938 65.808594 186.347656 66.484375 C 186.371094 66.523438 186.398438 66.566406 186.421875 66.613281 C 186.449219 66.65625 186.476562 66.703125 186.5 66.75 C 186.550781 66.847656 186.601562 66.949219 186.65625 67.054688 C 186.769531 67.269531 186.886719 67.503906 187.019531 67.757812 C 187.050781 67.820312 187.082031 67.886719 187.117188 67.953125 C 187.148438 68.019531 187.179688 68.085938 187.210938 68.15625 C 187.273438 68.292969 187.339844 68.4375 187.410156 68.585938 C 187.476562 68.734375 187.546875 68.886719 187.617188 69.046875 C 187.652344 69.125 187.6875 69.207031 187.726562 69.285156 C 187.757812 69.371094 187.792969 69.453125 187.828125 69.539062 C 187.964844 69.878906 188.109375 70.238281 188.257812 70.617188 C 188.394531 71 188.535156 71.398438 188.679688 71.820312 C 188.699219 71.875 188.714844 71.925781 188.734375 71.980469 C 188.753906 72.03125 188.765625 72.085938 188.785156 72.140625 C 188.816406 72.25 188.851562 72.359375 188.882812 72.46875 C 188.949219 72.691406 189.015625 72.917969 189.085938 73.148438 C 189.160156 73.378906 189.214844 73.617188 189.277344 73.859375 C 189.339844 74.101562 189.398438 74.347656 189.460938 74.597656 C 189.527344 74.847656 189.574219 75.105469 189.632812 75.367188 C 189.683594 75.628906 189.738281 75.894531 189.792969 76.164062 C 189.820312 76.300781 189.839844 76.4375 189.863281 76.574219 C 189.886719 76.714844 189.90625 76.851562 189.929688 76.992188 C 189.953125 77.132812 189.972656 77.273438 189.996094 77.414062 C 190.007812 77.484375 190.019531 77.558594 190.027344 77.628906 C 190.039062 77.699219 190.050781 77.773438 190.058594 77.84375 C 190.09375 78.132812 190.125 78.429688 190.160156 78.726562 C 190.175781 78.875 190.191406 79.023438 190.207031 79.175781 C 190.21875 79.25 190.222656 79.324219 190.226562 79.402344 C 190.234375 79.476562 190.238281 79.554688 190.242188 79.628906 C 190.265625 79.9375 190.285156 80.246094 190.304688 80.5625 C 190.308594 80.640625 190.316406 80.71875 190.320312 80.796875 C 190.320312 80.875 190.324219 80.957031 190.324219 81.035156 C 190.328125 81.195312 190.332031 81.351562 190.335938 81.511719 C 190.339844 81.675781 190.34375 81.835938 190.347656 82 C 190.351562 82.160156 190.355469 82.324219 190.351562 82.488281 C 190.34375 82.816406 190.335938 83.148438 190.328125 83.484375 C 190.324219 83.570312 190.324219 83.652344 190.320312 83.738281 L 190.316406 83.863281 L 190.308594 83.992188 C 190.300781 84.160156 190.289062 84.328125 190.277344 84.5 C 190.265625 84.671875 190.253906 84.84375 190.242188 85.015625 C 190.234375 85.101562 190.230469 85.1875 190.222656 85.273438 L 190.214844 85.402344 L 190.199219 85.535156 C 190.160156 85.878906 190.121094 86.230469 190.082031 86.582031 C 190.074219 86.667969 190.0625 86.757812 190.050781 86.847656 L 190.035156 86.980469 L 190.015625 87.109375 C 189.988281 87.289062 189.960938 87.464844 189.933594 87.644531 C 189.902344 87.820312 189.875 88 189.847656 88.179688 C 189.832031 88.269531 189.820312 88.359375 189.804688 88.449219 L 189.792969 88.519531 C 189.789062 88.539062 189.796875 88.519531 189.78125 88.574219 L 189.777344 88.605469 L 189.75 88.734375 C 189.71875 88.90625 189.6875 89.078125 189.652344 89.25 L 189.625 89.378906 C 189.617188 89.421875 189.609375 89.464844 189.601562 89.511719 C 189.578125 89.605469 189.558594 89.695312 189.539062 89.789062 C 189.496094 89.976562 189.453125 90.164062 189.414062 90.351562 C 189.390625 90.445312 189.367188 90.535156 189.347656 90.625 C 189.324219 90.71875 189.300781 90.808594 189.277344 90.898438 C 189.230469 91.082031 189.1875 91.265625 189.136719 91.449219 C 189.082031 91.632812 189.03125 91.816406 188.980469 92 C 188.953125 92.09375 188.929688 92.183594 188.902344 92.277344 C 188.875 92.371094 188.84375 92.460938 188.816406 92.554688 C 188.761719 92.738281 188.703125 92.921875 188.644531 93.109375 C 188.589844 93.292969 188.523438 93.476562 188.460938 93.660156 C 188.394531 93.847656 188.335938 94.03125 188.265625 94.214844 C 188.199219 94.402344 188.128906 94.585938 188.0625 94.769531 C 188.027344 94.863281 187.996094 94.957031 187.957031 95.046875 C 187.921875 95.140625 187.882812 95.234375 187.847656 95.324219 C 187.773438 95.507812 187.699219 95.695312 187.625 95.878906 C 187.542969 96.0625 187.464844 96.246094 187.386719 96.429688 C 187.34375 96.523438 187.304688 96.617188 187.265625 96.707031 C 187.222656 96.800781 187.179688 96.890625 187.140625 96.984375 C 187.054688 97.167969 186.96875 97.351562 186.882812 97.535156 C 186.796875 97.71875 186.703125 97.898438 186.613281 98.082031 C 186.523438 98.265625 186.433594 98.449219 186.335938 98.628906 C 184.824219 101.539062 182.835938 104.339844 180.445312 106.839844 C 180.292969 106.996094 180.144531 107.152344 179.992188 107.308594 C 179.917969 107.386719 179.839844 107.460938 179.761719 107.535156 L 179.527344 107.765625 L 179.292969 107.992188 C 179.21875 108.066406 179.136719 108.140625 179.058594 108.214844 C 178.898438 108.363281 178.738281 108.511719 178.578125 108.660156 C 177.929688 109.242188 177.261719 109.808594 176.570312 110.347656 C 175.191406 111.429688 173.726562 112.417969 172.199219 113.292969 L 171.910156 113.457031 L 171.621094 113.613281 C 171.429688 113.71875 171.234375 113.824219 171.039062 113.929688 C 170.648438 114.128906 170.257812 114.335938 169.859375 114.523438 C 169.464844 114.714844 169.0625 114.894531 168.664062 115.074219 C 168.460938 115.160156 168.257812 115.246094 168.054688 115.332031 L 167.753906 115.457031 L 167.445312 115.578125 C 165.8125 116.226562 164.140625 116.746094 162.457031 117.152344 C 159.082031 117.953125 155.652344 118.242188 152.371094 118.082031 C 152.167969 118.074219 151.960938 118.054688 151.757812 118.042969 C 151.554688 118.03125 151.351562 118.023438 151.148438 118 C 150.742188 117.960938 150.339844 117.929688 149.941406 117.875 C 149.140625 117.789062 148.351562 117.660156 147.578125 117.519531 C 147.382812 117.484375 147.191406 117.445312 147 117.40625 C 146.90625 117.386719 146.808594 117.367188 146.714844 117.347656 L 146.570312 117.320312 L 146.425781 117.285156 C 146.238281 117.242188 146.050781 117.199219 145.859375 117.15625 C 145.765625 117.132812 145.671875 117.113281 145.578125 117.089844 C 145.484375 117.066406 145.394531 117.042969 145.300781 117.019531 C 145.117188 116.96875 144.929688 116.921875 144.746094 116.875 L 144.65625 116.851562 L 144.589844 116.832031 L 144.457031 116.796875 C 144.371094 116.769531 144.285156 116.746094 144.199219 116.71875 C 144.113281 116.695312 144.027344 116.671875 143.941406 116.644531 C 143.898438 116.632812 143.855469 116.621094 143.808594 116.609375 L 143.671875 116.566406 C 143.488281 116.507812 143.304688 116.449219 143.121094 116.394531 C 142.9375 116.335938 142.765625 116.273438 142.589844 116.214844 C 142.414062 116.15625 142.238281 116.097656 142.066406 116.035156 C 141.894531 115.972656 141.722656 115.910156 141.550781 115.847656 C 141.464844 115.816406 141.378906 115.785156 141.296875 115.753906 C 141.210938 115.71875 141.128906 115.683594 141.042969 115.652344 C 140.875 115.585938 140.707031 115.519531 140.539062 115.453125 C 140.375 115.382812 140.210938 115.3125 140.046875 115.242188 C 139.964844 115.207031 139.882812 115.175781 139.800781 115.140625 C 139.71875 115.105469 139.640625 115.070312 139.558594 115.03125 C 139.398438 114.960938 139.238281 114.886719 139.082031 114.8125 C 137.8125 114.226562 136.625 113.582031 135.527344 112.90625 C 133.328125 111.558594 131.484375 110.082031 129.984375 108.660156 C 128.480469 107.234375 127.3125 105.867188 126.429688 104.699219 C 125.542969 103.527344 124.929688 102.554688 124.53125 101.882812 C 124.328125 101.550781 124.1875 101.285156 124.085938 101.113281 C 123.992188 100.9375 123.941406 100.84375 123.941406 100.84375 C 123.941406 100.84375 124.011719 100.921875 124.152344 101.066406 C 124.289062 101.214844 124.492188 101.429688 124.761719 101.707031 C 125.300781 102.265625 126.101562 103.066406 127.167969 104.015625 C 128.234375 104.964844 129.578125 106.054688 131.199219 107.160156 C 132.820312 108.265625 134.726562 109.378906 136.894531 110.355469 C 137.976562 110.847656 139.121094 111.308594 140.332031 111.710938 C 140.480469 111.761719 140.632812 111.8125 140.785156 111.863281 C 140.9375 111.914062 141.09375 111.957031 141.246094 112.007812 C 141.398438 112.054688 141.554688 112.105469 141.710938 112.148438 C 141.867188 112.191406 142.023438 112.238281 142.183594 112.28125 C 142.261719 112.304688 142.339844 112.328125 142.417969 112.351562 C 142.5 112.371094 142.578125 112.390625 142.65625 112.410156 C 142.816406 112.453125 142.976562 112.496094 143.136719 112.539062 C 143.296875 112.578125 143.460938 112.613281 143.625 112.65625 C 143.785156 112.691406 143.953125 112.734375 144.109375 112.765625 C 144.269531 112.800781 144.429688 112.835938 144.589844 112.871094 L 144.710938 112.894531 L 144.839844 112.921875 C 144.929688 112.9375 145.015625 112.957031 145.105469 112.972656 C 145.195312 112.992188 145.28125 113.007812 145.371094 113.027344 L 145.503906 113.050781 L 145.570312 113.066406 C 145.535156 113.058594 145.578125 113.066406 145.578125 113.066406 L 145.609375 113.070312 C 145.78125 113.097656 145.949219 113.128906 146.117188 113.15625 C 146.203125 113.171875 146.289062 113.1875 146.371094 113.199219 C 146.457031 113.214844 146.542969 113.226562 146.628906 113.238281 C 146.800781 113.261719 146.972656 113.289062 147.144531 113.3125 L 147.273438 113.332031 L 147.402344 113.347656 C 147.488281 113.359375 147.578125 113.371094 147.664062 113.378906 C 147.835938 113.402344 148.011719 113.421875 148.183594 113.441406 C 148.359375 113.460938 148.535156 113.476562 148.710938 113.492188 C 148.796875 113.503906 148.886719 113.511719 148.972656 113.519531 C 149.0625 113.527344 149.148438 113.53125 149.238281 113.539062 C 149.414062 113.550781 149.589844 113.566406 149.769531 113.578125 C 149.945312 113.589844 150.125 113.597656 150.300781 113.609375 C 151.015625 113.648438 151.734375 113.652344 152.460938 113.652344 C 155.363281 113.621094 158.339844 113.226562 161.265625 112.449219 C 161.992188 112.246094 162.722656 112.035156 163.441406 111.789062 C 163.625 111.730469 163.800781 111.664062 163.980469 111.601562 C 164.160156 111.535156 164.339844 111.472656 164.515625 111.40625 C 164.695312 111.335938 164.875 111.269531 165.050781 111.199219 C 165.230469 111.132812 165.40625 111.058594 165.582031 110.984375 L 165.847656 110.878906 L 166.109375 110.761719 C 166.285156 110.6875 166.460938 110.613281 166.636719 110.535156 C 166.984375 110.371094 167.332031 110.214844 167.675781 110.042969 C 168.023438 109.878906 168.359375 109.699219 168.699219 109.523438 C 168.871094 109.433594 169.035156 109.339844 169.207031 109.25 L 169.457031 109.109375 L 169.707031 108.964844 C 171.039062 108.207031 172.316406 107.355469 173.535156 106.433594 C 173.6875 106.316406 173.835938 106.199219 173.988281 106.082031 C 174.140625 105.96875 174.285156 105.84375 174.433594 105.726562 C 174.734375 105.488281 175.019531 105.238281 175.3125 104.996094 C 175.453125 104.867188 175.597656 104.742188 175.738281 104.617188 C 175.808594 104.554688 175.878906 104.492188 175.949219 104.425781 L 176.15625 104.234375 C 176.296875 104.101562 176.4375 103.976562 176.574219 103.84375 C 176.707031 103.710938 176.84375 103.582031 176.980469 103.449219 C 177.515625 102.917969 178.039062 102.375 178.535156 101.8125 L 178.722656 101.605469 L 178.90625 101.390625 C 179.027344 101.25 179.148438 101.109375 179.269531 100.96875 C 179.390625 100.824219 179.507812 100.679688 179.625 100.535156 C 179.683594 100.460938 179.742188 100.390625 179.800781 100.316406 L 179.972656 100.097656 C 180.433594 99.515625 180.863281 98.917969 181.285156 98.316406 C 181.488281 98.007812 181.695312 97.710938 181.890625 97.402344 C 181.988281 97.246094 182.089844 97.097656 182.183594 96.941406 C 182.277344 96.785156 182.371094 96.632812 182.464844 96.476562 C 183.214844 95.238281 183.863281 93.964844 184.441406 92.6875 C 184.515625 92.53125 184.582031 92.367188 184.652344 92.207031 C 184.71875 92.046875 184.792969 91.890625 184.855469 91.730469 C 184.921875 91.570312 184.984375 91.40625 185.050781 91.25 C 185.082031 91.167969 185.113281 91.085938 185.144531 91.007812 C 185.175781 90.925781 185.207031 90.847656 185.238281 90.765625 C 185.296875 90.605469 185.355469 90.445312 185.417969 90.285156 C 185.476562 90.125 185.53125 89.964844 185.585938 89.804688 C 185.640625 89.644531 185.699219 89.484375 185.75 89.328125 C 185.800781 89.171875 185.851562 89.015625 185.902344 88.859375 C 185.929688 88.78125 185.953125 88.703125 185.980469 88.625 C 185.992188 88.589844 186.003906 88.542969 186.015625 88.503906 L 186.054688 88.375 C 186.101562 88.207031 186.152344 88.039062 186.203125 87.871094 L 186.238281 87.746094 L 186.246094 87.714844 C 186.238281 87.75 186.25 87.707031 186.25 87.707031 L 186.265625 87.648438 C 186.285156 87.566406 186.308594 87.488281 186.328125 87.40625 C 186.371094 87.25 186.414062 87.089844 186.453125 86.933594 C 186.496094 86.773438 186.539062 86.617188 186.578125 86.460938 L 186.609375 86.339844 L 186.636719 86.222656 C 186.652344 86.144531 186.671875 86.066406 186.6875 85.984375 C 186.757812 85.671875 186.828125 85.359375 186.898438 85.046875 C 187.136719 83.800781 187.34375 82.585938 187.453125 81.402344 C 187.46875 81.253906 187.484375 81.109375 187.5 80.960938 C 187.507812 80.890625 187.515625 80.816406 187.523438 80.742188 C 187.527344 80.671875 187.53125 80.597656 187.539062 80.527344 C 187.554688 80.234375 187.574219 79.949219 187.59375 79.664062 C 187.597656 79.59375 187.605469 79.523438 187.609375 79.449219 C 187.613281 79.378906 187.621094 79.308594 187.621094 79.238281 C 187.625 79.097656 187.628906 78.957031 187.628906 78.820312 C 187.640625 78.539062 187.648438 78.265625 187.65625 77.992188 C 187.660156 77.921875 187.65625 77.855469 187.65625 77.789062 C 187.65625 77.71875 187.65625 77.652344 187.652344 77.585938 C 187.652344 77.453125 187.652344 77.316406 187.648438 77.183594 C 187.648438 77.050781 187.648438 76.917969 187.644531 76.789062 C 187.644531 76.65625 187.648438 76.527344 187.640625 76.398438 C 187.625 76.140625 187.613281 75.882812 187.601562 75.632812 C 187.589844 75.378906 187.585938 75.128906 187.5625 74.886719 C 187.539062 74.644531 187.519531 74.402344 187.5 74.167969 C 187.480469 73.929688 187.464844 73.699219 187.433594 73.46875 C 187.40625 73.242188 187.378906 73.019531 187.351562 72.796875 C 187.339844 72.6875 187.328125 72.578125 187.316406 72.472656 C 187.308594 72.417969 187.304688 72.363281 187.296875 72.308594 C 187.289062 72.257812 187.277344 72.203125 187.269531 72.152344 C 187.203125 71.730469 187.140625 71.324219 187.082031 70.933594 C 187.007812 70.546875 186.9375 70.179688 186.871094 69.832031 C 186.851562 69.742188 186.835938 69.65625 186.820312 69.570312 C 186.800781 69.488281 186.78125 69.402344 186.761719 69.320312 C 186.726562 69.15625 186.6875 68.996094 186.652344 68.839844 C 186.617188 68.683594 186.585938 68.535156 186.550781 68.386719 C 186.535156 68.316406 186.519531 68.242188 186.503906 68.171875 C 186.484375 68.101562 186.464844 68.035156 186.449219 67.96875 C 186.378906 67.699219 186.3125 67.449219 186.253906 67.222656 C 186.222656 67.105469 186.195312 66.996094 186.167969 66.890625 C 186.15625 66.839844 186.140625 66.789062 186.125 66.738281 C 186.113281 66.691406 186.097656 66.640625 186.082031 66.597656 C 185.859375 65.851562 185.75 65.453125 185.75 65.453125 " fill-opacity="1" fill-rule="nonzero"/></g></g></g><g clip-path="url(#c77a19a819)"><g clip-path="url(#adf5b62ec3)"><g clip-path="url(#6771e36666)"><path fill="#ffffff" d="M 185.179688 65.320312 C 185.179688 65.320312 185.320312 65.648438 185.570312 66.261719 C 185.601562 66.339844 185.636719 66.417969 185.667969 66.507812 C 185.699219 66.59375 185.730469 66.6875 185.765625 66.78125 C 185.835938 66.976562 185.910156 67.191406 185.988281 67.417969 C 186.007812 67.476562 186.03125 67.535156 186.050781 67.597656 C 186.070312 67.65625 186.085938 67.714844 186.105469 67.777344 C 186.144531 67.902344 186.183594 68.03125 186.222656 68.164062 C 186.261719 68.300781 186.300781 68.4375 186.34375 68.578125 C 186.367188 68.652344 186.386719 68.722656 186.410156 68.796875 C 186.425781 68.871094 186.445312 68.945312 186.464844 69.019531 C 186.539062 69.324219 186.621094 69.648438 186.703125 69.984375 C 186.769531 70.324219 186.84375 70.683594 186.914062 71.054688 C 186.925781 71.101562 186.933594 71.152344 186.941406 71.199219 C 186.949219 71.246094 186.957031 71.292969 186.964844 71.339844 C 186.980469 71.4375 186.996094 71.53125 187.011719 71.628906 C 187.039062 71.828125 187.070312 72.027344 187.101562 72.230469 C 187.132812 72.433594 187.152344 72.644531 187.175781 72.855469 C 187.199219 73.066406 187.21875 73.285156 187.242188 73.503906 C 187.269531 73.726562 187.277344 73.949219 187.292969 74.175781 C 187.304688 74.40625 187.320312 74.636719 187.332031 74.875 C 187.339844 74.992188 187.339844 75.109375 187.34375 75.230469 C 187.34375 75.347656 187.34375 75.46875 187.347656 75.589844 C 187.347656 75.832031 187.355469 76.082031 187.351562 76.332031 C 187.34375 76.578125 187.335938 76.832031 187.328125 77.089844 C 187.324219 77.21875 187.320312 77.347656 187.316406 77.476562 C 187.3125 77.542969 187.308594 77.605469 187.304688 77.671875 C 187.296875 77.738281 187.292969 77.804688 187.289062 77.867188 C 187.269531 78.128906 187.246094 78.394531 187.226562 78.664062 C 187.222656 78.730469 187.214844 78.800781 187.210938 78.867188 C 187.203125 78.933594 187.191406 79.003906 187.183594 79.070312 C 187.167969 79.203125 187.152344 79.339844 187.132812 79.476562 C 187.117188 79.613281 187.101562 79.753906 187.082031 79.890625 C 187.066406 80.03125 187.050781 80.167969 187.023438 80.308594 C 186.976562 80.585938 186.929688 80.867188 186.882812 81.148438 C 186.867188 81.222656 186.855469 81.292969 186.84375 81.363281 L 186.824219 81.472656 L 186.804688 81.578125 C 186.773438 81.71875 186.742188 81.863281 186.710938 82.007812 C 186.679688 82.148438 186.648438 82.292969 186.617188 82.4375 C 186.601562 82.511719 186.585938 82.582031 186.566406 82.65625 L 186.542969 82.765625 L 186.515625 82.875 C 186.441406 83.164062 186.363281 83.457031 186.285156 83.75 C 186.265625 83.824219 186.246094 83.894531 186.226562 83.96875 L 186.195312 84.082031 L 186.160156 84.191406 C 186.113281 84.335938 186.070312 84.484375 186.023438 84.632812 C 185.976562 84.78125 185.929688 84.929688 185.882812 85.078125 C 185.859375 85.152344 185.835938 85.226562 185.8125 85.300781 L 185.792969 85.359375 C 185.789062 85.375 185.796875 85.355469 185.777344 85.40625 L 185.769531 85.433594 L 185.730469 85.539062 C 185.679688 85.679688 185.632812 85.820312 185.582031 85.960938 L 185.542969 86.066406 C 185.53125 86.101562 185.519531 86.132812 185.503906 86.175781 C 185.476562 86.25 185.445312 86.328125 185.417969 86.402344 C 185.359375 86.558594 185.296875 86.710938 185.238281 86.867188 C 185.210938 86.945312 185.175781 87.015625 185.148438 87.09375 C 185.117188 87.167969 185.085938 87.242188 185.054688 87.316406 C 184.988281 87.464844 184.929688 87.617188 184.863281 87.765625 C 184.796875 87.914062 184.726562 88.066406 184.660156 88.214844 C 184.625 88.289062 184.59375 88.363281 184.558594 88.441406 C 184.523438 88.515625 184.488281 88.589844 184.453125 88.664062 C 184.378906 88.8125 184.308594 88.964844 184.234375 89.113281 C 184.160156 89.265625 184.082031 89.410156 184.003906 89.5625 C 183.925781 89.707031 183.851562 89.859375 183.769531 90.007812 C 183.605469 90.300781 183.449219 90.605469 183.273438 90.898438 C 183.183594 91.042969 183.097656 91.191406 183.011719 91.339844 C 182.917969 91.484375 182.828125 91.632812 182.738281 91.777344 C 182.691406 91.851562 182.644531 91.925781 182.597656 92 C 182.550781 92.070312 182.503906 92.144531 182.457031 92.214844 C 182.359375 92.359375 182.261719 92.507812 182.167969 92.652344 C 182.070312 92.796875 181.96875 92.941406 181.867188 93.082031 C 181.765625 93.226562 181.664062 93.371094 181.558594 93.511719 C 179.898438 95.792969 177.839844 97.917969 175.476562 99.734375 C 175.328125 99.847656 175.179688 99.957031 175.03125 100.070312 C 174.878906 100.183594 174.726562 100.289062 174.574219 100.398438 L 174.34375 100.5625 C 174.269531 100.617188 174.191406 100.667969 174.113281 100.71875 C 173.957031 100.824219 173.800781 100.929688 173.648438 101.035156 C 173.019531 101.445312 172.375 101.84375 171.714844 102.210938 C 170.398438 102.945312 169.023438 103.59375 167.601562 104.136719 L 167.335938 104.238281 L 167.070312 104.332031 C 166.890625 104.398438 166.710938 104.460938 166.535156 104.523438 C 166.171875 104.644531 165.8125 104.765625 165.449219 104.871094 C 165.085938 104.984375 164.722656 105.082031 164.355469 105.179688 C 164.171875 105.230469 163.988281 105.273438 163.804688 105.320312 L 163.53125 105.386719 L 163.253906 105.449219 C 161.777344 105.78125 160.285156 105.996094 158.796875 106.117188 C 155.816406 106.34375 152.863281 106.125 150.09375 105.539062 C 149.921875 105.503906 149.75 105.464844 149.578125 105.425781 C 149.410156 105.386719 149.238281 105.351562 149.066406 105.304688 C 148.726562 105.214844 148.390625 105.132812 148.058594 105.035156 C 147.390625 104.847656 146.738281 104.632812 146.101562 104.40625 C 145.941406 104.351562 145.785156 104.289062 145.628906 104.230469 C 145.546875 104.203125 145.46875 104.171875 145.390625 104.140625 L 145.273438 104.097656 L 145.15625 104.050781 C 145.003906 103.988281 144.847656 103.925781 144.695312 103.863281 C 144.617188 103.832031 144.542969 103.800781 144.464844 103.765625 C 144.390625 103.734375 144.316406 103.699219 144.238281 103.667969 C 144.085938 103.601562 143.9375 103.535156 143.789062 103.46875 L 143.757812 103.457031 C 143.742188 103.449219 143.761719 103.457031 143.710938 103.433594 L 143.65625 103.410156 L 143.554688 103.363281 C 143.484375 103.328125 143.414062 103.296875 143.347656 103.261719 C 143.277344 103.230469 143.207031 103.199219 143.140625 103.164062 L 143.035156 103.113281 L 142.921875 103.058594 C 142.773438 102.984375 142.625 102.910156 142.480469 102.835938 C 142.328125 102.761719 142.191406 102.6875 142.050781 102.613281 C 141.910156 102.535156 141.769531 102.464844 141.632812 102.386719 C 141.496094 102.308594 141.359375 102.230469 141.222656 102.15625 C 141.152344 102.117188 141.085938 102.078125 141.019531 102.039062 C 140.953125 102 140.882812 101.957031 140.816406 101.917969 C 140.683594 101.839844 140.550781 101.757812 140.421875 101.679688 C 140.289062 101.597656 140.160156 101.515625 140.03125 101.433594 C 139.902344 101.351562 139.773438 101.273438 139.648438 101.1875 C 139.523438 101.105469 139.394531 101.019531 139.269531 100.933594 C 138.277344 100.261719 137.367188 99.550781 136.53125 98.824219 C 134.859375 97.371094 133.511719 95.863281 132.449219 94.445312 C 131.386719 93.027344 130.597656 91.707031 130.023438 90.59375 C 129.445312 89.476562 129.074219 88.570312 128.839844 87.945312 C 128.71875 87.636719 128.640625 87.390625 128.582031 87.230469 C 128.527344 87.066406 128.5 86.984375 128.5 86.984375 C 128.5 86.984375 128.550781 87.054688 128.652344 87.195312 C 128.75 87.335938 128.898438 87.542969 129.09375 87.808594 C 129.488281 88.339844 130.070312 89.109375 130.859375 90.035156 C 131.648438 90.960938 132.652344 92.035156 133.882812 93.15625 C 135.113281 94.273438 136.578125 95.433594 138.273438 96.515625 C 139.121094 97.054688 140.027344 97.578125 140.988281 98.0625 C 141.226562 98.183594 141.46875 98.304688 141.714844 98.421875 C 141.839844 98.480469 141.960938 98.539062 142.089844 98.597656 C 142.214844 98.652344 142.339844 98.710938 142.464844 98.765625 C 142.527344 98.792969 142.589844 98.824219 142.65625 98.851562 C 142.71875 98.878906 142.78125 98.90625 142.847656 98.933594 C 142.976562 98.988281 143.105469 99.042969 143.230469 99.097656 C 143.363281 99.152344 143.492188 99.199219 143.625 99.253906 C 143.753906 99.304688 143.886719 99.359375 144.015625 99.40625 C 144.144531 99.453125 144.273438 99.503906 144.402344 99.550781 L 144.5 99.585938 L 144.605469 99.625 C 144.675781 99.652344 144.75 99.675781 144.820312 99.703125 C 144.894531 99.726562 144.964844 99.753906 145.039062 99.777344 L 145.148438 99.816406 L 145.199219 99.835938 C 145.167969 99.824219 145.207031 99.835938 145.207031 99.835938 L 145.230469 99.84375 C 145.367188 99.890625 145.507812 99.933594 145.644531 99.980469 C 145.917969 100.074219 146.203125 100.148438 146.480469 100.234375 L 146.585938 100.269531 L 146.691406 100.296875 C 146.761719 100.316406 146.835938 100.335938 146.90625 100.355469 C 147.046875 100.394531 147.191406 100.433594 147.332031 100.472656 C 147.476562 100.507812 147.621094 100.542969 147.765625 100.578125 C 147.835938 100.597656 147.90625 100.617188 147.980469 100.632812 C 148.054688 100.648438 148.125 100.667969 148.199219 100.683594 C 148.34375 100.714844 148.492188 100.75 148.636719 100.78125 C 148.78125 100.816406 148.929688 100.84375 149.078125 100.875 C 149.667969 100.996094 150.265625 101.089844 150.871094 101.179688 C 153.289062 101.515625 155.816406 101.5625 158.347656 101.289062 C 158.976562 101.210938 159.609375 101.132812 160.242188 101.015625 C 160.398438 100.992188 160.554688 100.957031 160.710938 100.929688 C 160.871094 100.898438 161.027344 100.871094 161.183594 100.835938 C 161.339844 100.800781 161.496094 100.769531 161.65625 100.734375 C 161.8125 100.699219 161.96875 100.660156 162.125 100.625 L 162.359375 100.566406 L 162.589844 100.507812 C 162.746094 100.464844 162.902344 100.425781 163.058594 100.382812 C 163.367188 100.292969 163.675781 100.210938 163.984375 100.109375 C 164.292969 100.019531 164.597656 99.910156 164.902344 99.8125 L 165.359375 99.648438 L 165.585938 99.566406 L 165.8125 99.480469 C 167.015625 99.019531 168.1875 98.480469 169.320312 97.875 L 169.742188 97.644531 C 169.886719 97.566406 170.023438 97.484375 170.160156 97.40625 C 170.441406 97.246094 170.710938 97.078125 170.988281 96.914062 C 171.527344 96.570312 172.058594 96.21875 172.578125 95.851562 C 173.09375 95.480469 173.601562 95.097656 174.085938 94.695312 L 174.269531 94.550781 L 174.449219 94.398438 C 174.570312 94.292969 174.691406 94.191406 174.8125 94.09375 C 174.929688 93.988281 175.046875 93.882812 175.164062 93.777344 C 175.21875 93.726562 175.28125 93.675781 175.335938 93.625 L 175.507812 93.464844 C 175.972656 93.042969 176.410156 92.601562 176.839844 92.160156 C 177.046875 91.929688 177.265625 91.710938 177.464844 91.480469 C 177.566406 91.367188 177.671875 91.253906 177.773438 91.136719 C 177.871094 91.019531 177.972656 90.90625 178.070312 90.789062 C 178.859375 89.863281 179.574219 88.890625 180.226562 87.910156 C 180.3125 87.789062 180.386719 87.660156 180.46875 87.539062 C 180.546875 87.414062 180.628906 87.292969 180.703125 87.167969 C 180.777344 87.042969 180.855469 86.917969 180.929688 86.792969 C 180.96875 86.730469 181.007812 86.667969 181.042969 86.605469 C 181.082031 86.542969 181.117188 86.480469 181.152344 86.417969 C 181.226562 86.292969 181.296875 86.167969 181.367188 86.042969 C 181.441406 85.917969 181.507812 85.789062 181.574219 85.664062 C 181.640625 85.539062 181.714844 85.414062 181.78125 85.289062 C 181.84375 85.167969 181.90625 85.046875 181.96875 84.925781 C 182 84.863281 182.03125 84.804688 182.066406 84.742188 C 182.078125 84.714844 182.097656 84.675781 182.113281 84.644531 L 182.160156 84.542969 C 182.226562 84.40625 182.292969 84.273438 182.355469 84.140625 L 182.402344 84.039062 L 182.417969 84.011719 C 182.402344 84.046875 182.417969 84.007812 182.417969 84.011719 L 182.441406 83.964844 C 182.46875 83.898438 182.496094 83.835938 182.523438 83.773438 C 182.582031 83.644531 182.640625 83.519531 182.695312 83.394531 C 182.753906 83.269531 182.808594 83.140625 182.867188 83.015625 L 182.910156 82.921875 L 182.945312 82.828125 C 182.972656 82.765625 182.996094 82.703125 183.023438 82.636719 C 183.125 82.386719 183.226562 82.136719 183.328125 81.886719 C 183.703125 80.882812 184.046875 79.894531 184.304688 78.925781 C 184.335938 78.804688 184.371094 78.683594 184.402344 78.5625 C 184.421875 78.503906 184.4375 78.441406 184.453125 78.382812 C 184.46875 78.324219 184.480469 78.261719 184.496094 78.203125 C 184.554688 77.964844 184.609375 77.726562 184.667969 77.492188 C 184.679688 77.433594 184.695312 77.375 184.707031 77.316406 C 184.722656 77.257812 184.738281 77.199219 184.746094 77.140625 C 184.769531 77.023438 184.792969 76.910156 184.816406 76.792969 C 184.863281 76.558594 184.910156 76.332031 184.953125 76.105469 C 184.996094 75.878906 185.027344 75.652344 185.0625 75.429688 C 185.082031 75.320312 185.101562 75.207031 185.117188 75.097656 C 185.136719 74.988281 185.15625 74.878906 185.167969 74.769531 C 185.195312 74.554688 185.222656 74.335938 185.246094 74.125 C 185.273438 73.914062 185.304688 73.703125 185.320312 73.496094 C 185.335938 73.289062 185.355469 73.085938 185.371094 72.886719 C 185.390625 72.6875 185.410156 72.488281 185.417969 72.292969 C 185.425781 72.097656 185.4375 71.90625 185.445312 71.71875 C 185.453125 71.625 185.457031 71.53125 185.460938 71.441406 C 185.464844 71.394531 185.46875 71.347656 185.46875 71.300781 C 185.46875 71.257812 185.46875 71.210938 185.472656 71.164062 C 185.476562 70.800781 185.484375 70.453125 185.488281 70.121094 C 185.484375 69.785156 185.476562 69.464844 185.472656 69.164062 C 185.472656 69.085938 185.472656 69.011719 185.46875 68.9375 C 185.464844 68.863281 185.460938 68.792969 185.457031 68.71875 C 185.453125 68.578125 185.445312 68.4375 185.4375 68.300781 C 185.429688 68.164062 185.425781 68.035156 185.417969 67.90625 C 185.414062 67.84375 185.414062 67.78125 185.410156 67.71875 C 185.402344 67.65625 185.398438 67.597656 185.394531 67.539062 C 185.375 67.300781 185.355469 67.082031 185.339844 66.882812 C 185.332031 66.78125 185.324219 66.6875 185.320312 66.59375 C 185.3125 66.503906 185.300781 66.414062 185.289062 66.332031 C 185.214844 65.675781 185.179688 65.320312 185.179688 65.320312 " fill-opacity="1" fill-rule="nonzero"/></g></g></g><g clip-path="url(#cbc8aedd45)"><g clip-path="url(#7d3de0bccb)"><g clip-path="url(#0d4163fdfb)"><path fill="#ffffff" d="M 184.71875 65.152344 C 184.71875 65.152344 184.78125 65.421875 184.882812 65.933594 C 184.914062 66.058594 184.933594 66.203125 184.957031 66.363281 C 184.984375 66.523438 185.007812 66.695312 185.035156 66.886719 C 185.042969 66.933594 185.050781 66.980469 185.058594 67.03125 C 185.0625 67.078125 185.066406 67.128906 185.074219 67.179688 C 185.082031 67.28125 185.09375 67.386719 185.105469 67.496094 C 185.117188 67.605469 185.125 67.71875 185.136719 67.832031 C 185.144531 67.890625 185.148438 67.949219 185.152344 68.007812 C 185.15625 68.070312 185.160156 68.128906 185.164062 68.191406 C 185.175781 68.4375 185.1875 68.695312 185.199219 68.96875 C 185.199219 69.242188 185.203125 69.527344 185.199219 69.828125 C 185.203125 69.980469 185.191406 70.128906 185.183594 70.285156 C 185.175781 70.441406 185.167969 70.601562 185.160156 70.761719 C 185.15625 70.925781 185.136719 71.089844 185.121094 71.257812 C 185.105469 71.425781 185.089844 71.59375 185.074219 71.769531 C 185.058594 71.941406 185.03125 72.117188 185.003906 72.296875 C 184.980469 72.472656 184.953125 72.65625 184.925781 72.839844 C 184.914062 72.929688 184.894531 73.023438 184.878906 73.113281 C 184.859375 73.207031 184.84375 73.300781 184.824219 73.394531 C 184.789062 73.582031 184.753906 73.773438 184.710938 73.964844 C 184.664062 74.160156 184.621094 74.351562 184.570312 74.550781 C 184.546875 74.648438 184.523438 74.746094 184.5 74.847656 C 184.476562 74.945312 184.445312 75.042969 184.417969 75.144531 C 184.359375 75.34375 184.300781 75.546875 184.242188 75.75 C 184.226562 75.800781 184.210938 75.851562 184.195312 75.90625 C 184.175781 75.957031 184.160156 76.007812 184.140625 76.058594 C 184.109375 76.160156 184.074219 76.261719 184.039062 76.363281 C 184.003906 76.46875 183.96875 76.570312 183.933594 76.675781 C 183.894531 76.78125 183.859375 76.886719 183.820312 76.988281 C 183.738281 77.195312 183.652344 77.40625 183.570312 77.617188 C 183.488281 77.832031 183.394531 78.039062 183.300781 78.25 C 183.25 78.359375 183.203125 78.464844 183.15625 78.570312 C 183.128906 78.625 183.105469 78.675781 183.082031 78.730469 L 183.046875 78.8125 L 183.007812 78.890625 C 182.792969 79.3125 182.582031 79.75 182.335938 80.171875 C 182.273438 80.277344 182.214844 80.386719 182.152344 80.492188 C 182.121094 80.546875 182.09375 80.601562 182.0625 80.65625 L 182.039062 80.695312 C 182.027344 80.710938 182.042969 80.691406 182.015625 80.734375 L 182.003906 80.753906 L 181.957031 80.828125 C 181.898438 80.925781 181.835938 81.023438 181.777344 81.125 L 181.730469 81.199219 C 181.714844 81.226562 181.699219 81.246094 181.683594 81.277344 C 181.644531 81.332031 181.609375 81.386719 181.574219 81.441406 C 181.503906 81.550781 181.429688 81.660156 181.359375 81.769531 C 181.320312 81.828125 181.285156 81.878906 181.25 81.933594 C 181.210938 81.984375 181.175781 82.035156 181.140625 82.089844 C 181.066406 82.195312 180.992188 82.300781 180.914062 82.40625 C 180.839844 82.511719 180.761719 82.613281 180.683594 82.71875 C 180.644531 82.773438 180.605469 82.824219 180.566406 82.878906 C 180.527344 82.929688 180.488281 82.980469 180.445312 83.03125 C 180.367188 83.136719 180.285156 83.242188 180.203125 83.34375 C 180.121094 83.449219 180.035156 83.550781 179.949219 83.652344 C 179.867188 83.753906 179.78125 83.859375 179.695312 83.960938 C 179.515625 84.160156 179.34375 84.367188 179.15625 84.566406 C 179.0625 84.664062 178.972656 84.765625 178.878906 84.863281 C 178.785156 84.960938 178.6875 85.0625 178.59375 85.160156 L 178.449219 85.304688 L 178.300781 85.449219 C 178.203125 85.546875 178.101562 85.644531 178.003906 85.738281 C 177.902344 85.835938 177.800781 85.929688 177.695312 86.023438 C 177.59375 86.117188 177.492188 86.210938 177.382812 86.304688 C 175.707031 87.789062 173.742188 89.085938 171.589844 90.085938 C 171.457031 90.148438 171.320312 90.207031 171.1875 90.269531 C 171.050781 90.332031 170.914062 90.386719 170.777344 90.445312 C 170.503906 90.5625 170.222656 90.667969 169.945312 90.777344 C 169.386719 90.988281 168.820312 91.183594 168.242188 91.351562 C 167.089844 91.691406 165.90625 91.953125 164.710938 92.121094 L 164.484375 92.15625 L 164.261719 92.183594 L 163.8125 92.234375 C 163.511719 92.261719 163.210938 92.292969 162.910156 92.3125 C 162.609375 92.335938 162.308594 92.347656 162.007812 92.359375 C 161.855469 92.363281 161.703125 92.363281 161.554688 92.367188 L 161.328125 92.371094 L 161.101562 92.367188 C 159.898438 92.363281 158.703125 92.261719 157.527344 92.089844 C 155.179688 91.730469 152.929688 91.023438 150.902344 90.066406 C 150.773438 90.007812 150.648438 89.945312 150.523438 89.882812 C 150.398438 89.820312 150.273438 89.761719 150.148438 89.695312 C 149.902344 89.566406 149.65625 89.441406 149.417969 89.300781 C 148.9375 89.039062 148.476562 88.75 148.023438 88.460938 C 147.914062 88.386719 147.804688 88.308594 147.691406 88.234375 C 147.582031 88.160156 147.46875 88.089844 147.363281 88.011719 C 147.257812 87.933594 147.148438 87.855469 147.042969 87.78125 C 146.933594 87.703125 146.828125 87.625 146.726562 87.542969 C 146.621094 87.464844 146.519531 87.386719 146.414062 87.308594 L 146.375 87.277344 C 146.296875 87.222656 146.34375 87.253906 146.324219 87.238281 L 146.304688 87.222656 L 146.234375 87.167969 C 146.191406 87.128906 146.144531 87.089844 146.097656 87.050781 C 145.914062 86.902344 145.734375 86.746094 145.550781 86.597656 L 145.484375 86.539062 C 145.460938 86.523438 145.4375 86.496094 145.414062 86.476562 C 145.363281 86.433594 145.316406 86.386719 145.265625 86.34375 C 145.167969 86.257812 145.074219 86.167969 144.976562 86.082031 C 144.882812 85.996094 144.785156 85.910156 144.691406 85.824219 C 144.644531 85.78125 144.597656 85.734375 144.550781 85.691406 C 144.507812 85.648438 144.464844 85.605469 144.417969 85.5625 C 144.246094 85.386719 144.078125 85.210938 143.90625 85.039062 C 143.863281 84.996094 143.820312 84.953125 143.78125 84.914062 C 143.738281 84.867188 143.695312 84.828125 143.65625 84.78125 C 143.578125 84.691406 143.496094 84.601562 143.417969 84.511719 C 143.261719 84.335938 143.105469 84.160156 142.949219 83.984375 C 142.800781 83.808594 142.660156 83.625 142.515625 83.449219 C 142.445312 83.359375 142.375 83.269531 142.304688 83.183594 C 142.269531 83.136719 142.234375 83.09375 142.199219 83.050781 C 142.167969 83.003906 142.132812 82.960938 142.101562 82.914062 C 141.96875 82.734375 141.839844 82.554688 141.714844 82.375 C 140.707031 80.949219 139.964844 79.535156 139.429688 78.246094 C 138.894531 76.957031 138.5625 75.796875 138.339844 74.835938 C 138.238281 74.351562 138.144531 73.925781 138.097656 73.546875 C 138.042969 73.171875 137.992188 72.855469 137.976562 72.589844 C 137.929688 72.070312 137.910156 71.792969 137.910156 71.792969 C 137.910156 71.792969 138.035156 72.046875 138.253906 72.515625 C 138.308594 72.628906 138.367188 72.761719 138.441406 72.902344 C 138.515625 73.042969 138.59375 73.195312 138.679688 73.363281 C 138.761719 73.527344 138.847656 73.707031 138.957031 73.890625 C 139.058594 74.074219 139.164062 74.273438 139.28125 74.480469 C 139.753906 75.300781 140.351562 76.269531 141.117188 77.304688 C 141.882812 78.339844 142.816406 79.4375 143.929688 80.511719 C 144.070312 80.644531 144.210938 80.78125 144.351562 80.917969 C 144.386719 80.949219 144.425781 80.984375 144.457031 81.019531 C 144.496094 81.050781 144.535156 81.082031 144.570312 81.117188 C 144.648438 81.179688 144.722656 81.246094 144.796875 81.3125 C 144.949219 81.445312 145.097656 81.574219 145.253906 81.710938 C 145.410156 81.835938 145.570312 81.964844 145.730469 82.09375 C 145.8125 82.160156 145.890625 82.222656 145.972656 82.289062 C 146.011719 82.324219 146.054688 82.355469 146.097656 82.386719 C 146.136719 82.414062 146.179688 82.445312 146.222656 82.476562 C 146.390625 82.601562 146.558594 82.726562 146.730469 82.855469 C 146.773438 82.886719 146.8125 82.917969 146.855469 82.949219 C 146.898438 82.976562 146.941406 83.003906 146.984375 83.03125 C 147.070312 83.089844 147.15625 83.148438 147.238281 83.207031 C 147.324219 83.261719 147.410156 83.320312 147.496094 83.378906 C 147.539062 83.410156 147.582031 83.4375 147.625 83.464844 C 147.644531 83.480469 147.664062 83.496094 147.691406 83.511719 L 147.765625 83.558594 C 147.964844 83.683594 148.167969 83.804688 148.367188 83.933594 C 148.417969 83.964844 148.46875 84 148.519531 84.03125 L 148.59375 84.078125 L 148.613281 84.089844 C 148.605469 84.082031 148.664062 84.125 148.597656 84.078125 L 148.632812 84.097656 C 148.726562 84.152344 148.824219 84.207031 148.917969 84.261719 C 149.109375 84.375 149.308594 84.476562 149.503906 84.585938 C 149.601562 84.640625 149.703125 84.691406 149.804688 84.742188 C 149.902344 84.792969 150 84.847656 150.101562 84.898438 C 150.203125 84.945312 150.304688 84.996094 150.410156 85.046875 L 150.5625 85.121094 L 150.71875 85.191406 C 150.820312 85.238281 150.921875 85.289062 151.027344 85.335938 C 151.128906 85.382812 151.234375 85.429688 151.34375 85.472656 C 151.761719 85.65625 152.195312 85.824219 152.628906 85.988281 C 154.375 86.625 156.246094 87.070312 158.167969 87.28125 C 158.648438 87.328125 159.128906 87.375 159.617188 87.394531 C 159.738281 87.402344 159.859375 87.402344 159.980469 87.40625 C 160.101562 87.410156 160.222656 87.417969 160.347656 87.414062 L 160.710938 87.417969 C 160.832031 87.417969 160.953125 87.417969 161.078125 87.414062 L 161.261719 87.414062 L 161.441406 87.40625 C 161.566406 87.402344 161.6875 87.398438 161.808594 87.394531 C 162.054688 87.378906 162.296875 87.367188 162.542969 87.347656 C 162.785156 87.332031 163.027344 87.300781 163.273438 87.277344 L 163.636719 87.234375 L 163.820312 87.210938 L 164 87.1875 C 164.96875 87.050781 165.929688 86.851562 166.871094 86.59375 L 167.226562 86.496094 C 167.34375 86.464844 167.457031 86.425781 167.574219 86.390625 C 167.808594 86.324219 168.039062 86.242188 168.269531 86.167969 C 168.730469 86.011719 169.183594 85.839844 169.632812 85.65625 C 170.078125 85.472656 170.519531 85.277344 170.949219 85.066406 L 171.109375 84.988281 L 171.269531 84.90625 C 171.378906 84.855469 171.484375 84.800781 171.589844 84.746094 C 171.695312 84.6875 171.800781 84.632812 171.90625 84.574219 C 171.957031 84.546875 172.011719 84.519531 172.0625 84.492188 L 172.21875 84.402344 C 173.046875 83.9375 173.839844 83.421875 174.589844 82.875 C 175.339844 82.328125 176.042969 81.738281 176.707031 81.128906 C 177.035156 80.820312 177.355469 80.507812 177.664062 80.191406 C 177.742188 80.109375 177.816406 80.03125 177.894531 79.949219 C 177.96875 79.871094 178.042969 79.789062 178.117188 79.707031 C 178.1875 79.625 178.265625 79.546875 178.335938 79.46875 C 178.40625 79.390625 178.472656 79.3125 178.542969 79.234375 C 178.578125 79.195312 178.613281 79.15625 178.644531 79.117188 C 178.664062 79.097656 178.683594 79.074219 178.699219 79.050781 L 178.757812 78.984375 C 178.832031 78.894531 178.902344 78.804688 178.976562 78.714844 L 179.03125 78.648438 L 179.046875 78.628906 C 179.023438 78.660156 179.046875 78.628906 179.046875 78.632812 L 179.070312 78.601562 C 179.105469 78.558594 179.136719 78.515625 179.167969 78.476562 C 179.234375 78.390625 179.300781 78.308594 179.367188 78.226562 C 179.433594 78.140625 179.5 78.058594 179.5625 77.976562 L 179.613281 77.914062 L 179.660156 77.851562 C 179.6875 77.808594 179.71875 77.765625 179.75 77.722656 C 179.871094 77.554688 179.996094 77.386719 180.117188 77.21875 C 180.582031 76.542969 181.023438 75.871094 181.398438 75.195312 C 181.449219 75.113281 181.496094 75.03125 181.542969 74.945312 C 181.566406 74.90625 181.589844 74.863281 181.613281 74.820312 C 181.636719 74.78125 181.660156 74.738281 181.679688 74.695312 C 181.765625 74.527344 181.855469 74.359375 181.941406 74.195312 C 181.984375 74.113281 182.03125 74.035156 182.070312 73.949219 C 182.109375 73.867188 182.148438 73.785156 182.1875 73.703125 C 182.265625 73.539062 182.34375 73.375 182.421875 73.214844 C 182.496094 73.054688 182.5625 72.890625 182.632812 72.730469 C 182.703125 72.570312 182.777344 72.417969 182.839844 72.257812 C 182.902344 72.101562 182.960938 71.945312 183.023438 71.789062 C 183.082031 71.636719 183.148438 71.484375 183.199219 71.332031 C 183.25 71.183594 183.304688 71.03125 183.355469 70.886719 C 183.410156 70.738281 183.464844 70.59375 183.507812 70.449219 C 183.550781 70.304688 183.597656 70.164062 183.640625 70.023438 C 183.683594 69.886719 183.734375 69.75 183.769531 69.613281 C 183.84375 69.34375 183.917969 69.082031 183.988281 68.832031 C 184.050781 68.578125 184.109375 68.339844 184.164062 68.109375 C 184.179688 68.050781 184.191406 67.996094 184.207031 67.9375 C 184.21875 67.882812 184.230469 67.828125 184.242188 67.773438 C 184.265625 67.664062 184.289062 67.554688 184.308594 67.453125 C 184.332031 67.351562 184.355469 67.25 184.375 67.152344 C 184.386719 67.101562 184.394531 67.054688 184.40625 67.007812 C 184.414062 66.960938 184.421875 66.914062 184.429688 66.871094 C 184.464844 66.6875 184.492188 66.519531 184.523438 66.367188 C 184.550781 66.210938 184.578125 66.066406 184.597656 65.9375 C 184.671875 65.425781 184.71875 65.152344 184.71875 65.152344 " fill-opacity="1" fill-rule="nonzero"/></g></g></g><g clip-path="url(#416e588bf9)"><g clip-path="url(#13abe846b9)"><g clip-path="url(#fb8b779c23)"><path fill="#ffffff" d="M 148.25 58.007812 C 148.859375 57.605469 149.550781 57.574219 149.792969 57.9375 C 150.035156 58.304688 149.738281 58.925781 149.128906 59.328125 C 148.523438 59.730469 147.832031 59.761719 147.589844 59.398438 C 147.347656 59.03125 147.644531 58.410156 148.25 58.007812 Z M 137.558594 58.316406 C 137.554688 59.699219 138.414062 60.945312 139.707031 61.445312 C 142.816406 62.652344 149.019531 63.242188 158.972656 56.644531 C 164.898438 52.71875 171.273438 52.421875 177.246094 56.332031 C 177.316406 56.378906 177.382812 56.421875 177.453125 56.464844 C 177.519531 56.511719 177.589844 56.550781 177.652344 56.597656 C 177.785156 56.6875 177.917969 56.777344 178.046875 56.867188 C 178.113281 56.914062 178.179688 56.957031 178.242188 57 C 178.308594 57.046875 178.371094 57.09375 178.433594 57.136719 C 178.5625 57.226562 178.6875 57.316406 178.8125 57.40625 C 178.9375 57.496094 179.058594 57.589844 179.179688 57.675781 C 179.296875 57.769531 179.421875 57.855469 179.539062 57.945312 C 179.652344 58.035156 179.769531 58.125 179.886719 58.214844 C 180 58.304688 180.117188 58.390625 180.226562 58.480469 C 180.335938 58.570312 180.445312 58.660156 180.550781 58.746094 C 180.605469 58.789062 180.660156 58.832031 180.714844 58.875 C 180.769531 58.917969 180.820312 58.960938 180.871094 59.003906 C 180.972656 59.09375 181.074219 59.179688 181.175781 59.261719 C 181.277344 59.347656 181.378906 59.429688 181.472656 59.511719 C 181.566406 59.597656 181.660156 59.679688 181.753906 59.761719 C 181.847656 59.839844 181.941406 59.921875 182.027344 60 C 182.199219 60.160156 182.375 60.3125 182.535156 60.457031 C 182.699219 60.605469 182.847656 60.75 182.992188 60.882812 C 183.136719 61.019531 183.28125 61.144531 183.402344 61.265625 C 183.53125 61.390625 183.648438 61.503906 183.757812 61.605469 C 183.8125 61.65625 183.867188 61.707031 183.917969 61.753906 C 183.964844 61.800781 184.011719 61.847656 184.058594 61.890625 C 184.234375 62.066406 184.378906 62.199219 184.472656 62.289062 C 184.519531 62.335938 184.558594 62.367188 184.582031 62.390625 C 184.609375 62.414062 184.621094 62.425781 184.621094 62.425781 C 184.621094 62.425781 184.625 62.410156 184.628906 62.375 C 184.636719 62.34375 184.644531 62.292969 184.65625 62.230469 C 184.675781 62.101562 184.707031 61.90625 184.738281 61.652344 C 184.773438 61.398438 184.789062 61.089844 184.8125 60.71875 C 184.824219 60.535156 184.824219 60.339844 184.828125 60.128906 C 184.828125 60.023438 184.828125 59.914062 184.828125 59.800781 C 184.828125 59.742188 184.828125 59.6875 184.824219 59.628906 C 184.824219 59.570312 184.820312 59.511719 184.816406 59.453125 C 184.804688 59.21875 184.792969 58.96875 184.773438 58.703125 C 184.75 58.441406 184.71875 58.167969 184.683594 57.882812 C 184.648438 57.59375 184.597656 57.300781 184.542969 56.992188 C 184.492188 56.683594 184.414062 56.371094 184.339844 56.039062 C 184.304688 55.875 184.261719 55.710938 184.214844 55.542969 C 184.167969 55.378906 184.125 55.207031 184.074219 55.03125 C 184.050781 54.945312 184.019531 54.859375 183.992188 54.773438 C 183.964844 54.6875 183.9375 54.601562 183.90625 54.511719 C 183.847656 54.335938 183.792969 54.15625 183.726562 53.976562 C 183.660156 53.800781 183.59375 53.621094 183.519531 53.4375 C 183.484375 53.347656 183.449219 53.253906 183.414062 53.160156 C 183.375 53.070312 183.335938 52.976562 183.296875 52.886719 C 183.214844 52.703125 183.132812 52.515625 183.046875 52.328125 C 182.960938 52.136719 182.867188 51.953125 182.773438 51.761719 C 182.023438 50.246094 181 48.679688 179.699219 47.175781 C 179.535156 46.992188 179.367188 46.804688 179.195312 46.617188 C 179.113281 46.519531 179.023438 46.433594 178.933594 46.339844 C 178.863281 46.269531 178.792969 46.195312 178.71875 46.121094 C 178.628906 46.039062 178.53125 45.957031 178.433594 45.867188 C 178.300781 45.757812 178.160156 45.648438 178.015625 45.527344 C 177.445312 45.054688 176.769531 44.566406 176.007812 44.066406 C 175.8125 43.949219 175.617188 43.824219 175.417969 43.699219 C 175.210938 43.582031 175.003906 43.464844 174.789062 43.34375 C 174.734375 43.3125 174.683594 43.28125 174.628906 43.253906 C 174.574219 43.222656 174.519531 43.195312 174.464844 43.167969 C 174.351562 43.109375 174.242188 43.054688 174.128906 42.996094 C 173.90625 42.875 173.667969 42.777344 173.433594 42.667969 C 172.484375 42.238281 171.449219 41.867188 170.34375 41.589844 C 170.273438 41.570312 170.203125 41.554688 170.132812 41.535156 C 170.0625 41.519531 169.992188 41.503906 169.925781 41.492188 C 169.78125 41.460938 169.640625 41.429688 169.5 41.398438 L 169.394531 41.375 L 169.285156 41.359375 C 169.214844 41.347656 169.140625 41.332031 169.070312 41.320312 C 168.925781 41.296875 168.78125 41.273438 168.636719 41.246094 C 168.488281 41.230469 168.34375 41.210938 168.195312 41.191406 C 168.046875 41.171875 167.898438 41.148438 167.75 41.140625 C 167.453125 41.117188 167.152344 41.082031 166.851562 41.074219 C 166.699219 41.066406 166.546875 41.058594 166.394531 41.054688 C 166.242188 41.050781 166.089844 41.050781 165.9375 41.050781 L 165.707031 41.046875 C 165.632812 41.046875 165.554688 41.050781 165.476562 41.054688 C 165.324219 41.058594 165.171875 41.0625 165.015625 41.066406 C 164.9375 41.066406 164.863281 41.074219 164.785156 41.078125 L 164.554688 41.09375 L 164.320312 41.109375 L 164.207031 41.117188 L 164.089844 41.128906 C 163.78125 41.160156 163.46875 41.1875 163.160156 41.234375 C 162.542969 41.3125 161.925781 41.433594 161.3125 41.558594 C 161.160156 41.59375 161.007812 41.628906 160.855469 41.664062 L 160.628906 41.71875 L 160.402344 41.78125 C 160.25 41.820312 160.101562 41.859375 159.949219 41.898438 C 159.796875 41.945312 159.648438 41.988281 159.5 42.03125 L 159.277344 42.097656 L 159.054688 42.167969 C 158.90625 42.214844 158.757812 42.265625 158.613281 42.3125 C 158.464844 42.363281 158.320312 42.414062 158.175781 42.464844 C 158.03125 42.515625 157.882812 42.566406 157.742188 42.621094 C 157.597656 42.675781 157.457031 42.730469 157.3125 42.785156 C 157.171875 42.839844 157.03125 42.898438 156.890625 42.953125 C 156.609375 43.066406 156.332031 43.191406 156.058594 43.308594 C 154.964844 43.792969 153.929688 44.328125 152.96875 44.871094 C 152.011719 45.417969 151.121094 45.976562 150.324219 46.519531 C 149.523438 47.0625 148.804688 47.589844 148.183594 48.074219 C 147.5625 48.558594 147.03125 48.996094 146.601562 49.367188 C 145.742188 50.105469 145.285156 50.570312 145.285156 50.570312 C 145.285156 50.570312 145.699219 50.070312 146.492188 49.253906 C 146.890625 48.84375 147.382812 48.359375 147.964844 47.816406 C 148.546875 47.277344 149.222656 46.6875 149.980469 46.066406 C 150.742188 45.445312 151.589844 44.800781 152.519531 44.15625 C 153.449219 43.515625 154.457031 42.878906 155.542969 42.277344 C 155.816406 42.132812 156.089844 41.980469 156.371094 41.839844 C 156.511719 41.765625 156.652344 41.691406 156.792969 41.621094 C 156.9375 41.554688 157.082031 41.484375 157.226562 41.414062 C 157.371094 41.34375 157.515625 41.277344 157.664062 41.210938 C 157.808594 41.144531 157.957031 41.074219 158.105469 41.011719 C 158.253906 40.949219 158.40625 40.882812 158.554688 40.820312 L 158.78125 40.726562 L 159.011719 40.636719 C 159.164062 40.574219 159.316406 40.515625 159.472656 40.453125 C 159.625 40.398438 159.78125 40.34375 159.9375 40.285156 L 160.171875 40.203125 L 160.410156 40.125 C 160.566406 40.070312 160.726562 40.019531 160.886719 39.96875 C 161.527344 39.773438 162.171875 39.589844 162.835938 39.445312 C 163.164062 39.367188 163.496094 39.308594 163.832031 39.246094 L 163.957031 39.21875 L 164.582031 39.121094 C 164.636719 39.117188 164.6875 39.105469 164.738281 39.097656 L 164.449219 39.058594 C 164.15625 39.019531 163.859375 38.980469 163.558594 38.945312 C 163.261719 38.917969 162.964844 38.894531 162.664062 38.871094 L 162.214844 38.839844 C 162.066406 38.832031 161.917969 38.828125 161.765625 38.824219 L 160.867188 38.800781 C 160.566406 38.804688 160.265625 38.816406 159.964844 38.824219 L 159.515625 38.835938 C 159.367188 38.84375 159.214844 38.855469 159.066406 38.867188 C 158.769531 38.890625 158.46875 38.914062 158.171875 38.941406 C 158.097656 38.945312 158.023438 38.957031 157.949219 38.964844 L 157.726562 38.996094 C 157.578125 39.015625 157.429688 39.035156 157.285156 39.054688 C 157.136719 39.074219 156.988281 39.09375 156.839844 39.117188 L 156.730469 39.132812 L 156.402344 39.191406 C 156.109375 39.246094 155.816406 39.300781 155.527344 39.359375 L 155.417969 39.378906 L 155.3125 39.402344 L 155.09375 39.457031 C 154.953125 39.492188 154.808594 39.527344 154.664062 39.558594 C 154.523438 39.59375 154.378906 39.628906 154.238281 39.664062 C 154.09375 39.699219 153.957031 39.746094 153.816406 39.785156 C 153.535156 39.871094 153.253906 39.953125 152.976562 40.039062 C 152.828125 40.082031 152.683594 40.136719 152.535156 40.1875 C 152.414062 40.230469 152.292969 40.273438 152.171875 40.316406 C 151.898438 40.421875 151.617188 40.515625 151.347656 40.628906 C 151.082031 40.738281 150.820312 40.851562 150.558594 40.964844 L 150.363281 41.046875 L 150.171875 41.140625 C 150.042969 41.199219 149.917969 41.261719 149.789062 41.324219 C 149.664062 41.382812 149.535156 41.445312 149.410156 41.507812 L 149.222656 41.601562 C 149.160156 41.632812 149.101562 41.667969 149.039062 41.699219 C 148.914062 41.765625 148.792969 41.832031 148.671875 41.898438 C 148.550781 41.964844 148.429688 42.035156 148.308594 42.101562 C 148.066406 42.234375 147.832031 42.378906 147.601562 42.523438 C 147.484375 42.597656 147.371094 42.667969 147.253906 42.742188 C 147.140625 42.8125 147.023438 42.882812 146.914062 42.960938 C 146.691406 43.113281 146.46875 43.265625 146.253906 43.421875 C 146.144531 43.496094 146.035156 43.574219 145.929688 43.652344 C 145.820312 43.730469 145.71875 43.8125 145.613281 43.890625 C 145.40625 44.054688 145.203125 44.21875 144.996094 44.378906 C 144.894531 44.457031 144.800781 44.542969 144.699219 44.628906 C 144.605469 44.710938 144.507812 44.796875 144.410156 44.882812 C 144.316406 44.964844 144.21875 45.050781 144.125 45.132812 C 144.03125 45.21875 143.933594 45.300781 143.84375 45.390625 C 143.664062 45.566406 143.484375 45.742188 143.308594 45.914062 C 143.21875 46 143.132812 46.085938 143.046875 46.175781 C 142.960938 46.261719 142.878906 46.355469 142.792969 46.441406 C 142.628906 46.621094 142.464844 46.800781 142.304688 46.980469 C 142.265625 47.023438 142.226562 47.066406 142.1875 47.109375 C 142.148438 47.15625 142.109375 47.203125 142.070312 47.25 C 141.996094 47.339844 141.921875 47.433594 141.847656 47.523438 C 141.695312 47.703125 141.550781 47.886719 141.40625 48.066406 C 141.265625 48.246094 141.132812 48.433594 141 48.617188 C 140.867188 48.800781 140.738281 48.980469 140.613281 49.164062 C 140.488281 49.347656 140.371094 49.535156 140.257812 49.714844 C 140.199219 49.808594 140.140625 49.898438 140.082031 49.988281 C 140.027344 50.078125 139.96875 50.167969 139.917969 50.257812 C 139.8125 50.441406 139.710938 50.628906 139.609375 50.808594 C 139.558594 50.898438 139.511719 50.988281 139.460938 51.074219 C 139.414062 51.164062 139.363281 51.25 139.320312 51.34375 C 139.140625 51.707031 138.972656 52.058594 138.8125 52.402344 C 138.664062 52.753906 138.523438 53.097656 138.394531 53.429688 C 137.734375 55.453125 137.5625 57.117188 137.558594 58.316406 " fill-opacity="1" fill-rule="nonzero"/></g></g></g><g clip-path="url(#ef932aa39f)"><g clip-path="url(#eedde1bde2)"><g clip-path="url(#a5a767212a)"><path fill="#ffffff" d="M 154.800781 60.214844 C 154.800781 60.214844 154.875 60.238281 155.011719 60.292969 C 155.046875 60.308594 155.082031 60.324219 155.125 60.339844 C 155.167969 60.355469 155.210938 60.375 155.261719 60.394531 C 155.355469 60.429688 155.464844 60.472656 155.585938 60.515625 C 155.828125 60.609375 156.125 60.710938 156.449219 60.820312 C 156.777344 60.929688 157.144531 61.035156 157.539062 61.136719 C 157.933594 61.234375 158.355469 61.328125 158.796875 61.402344 C 159.238281 61.476562 159.699219 61.535156 160.171875 61.570312 C 160.644531 61.605469 161.125 61.621094 161.609375 61.605469 C 162.089844 61.59375 162.578125 61.554688 163.054688 61.484375 C 163.292969 61.449219 163.53125 61.402344 163.765625 61.359375 L 163.941406 61.320312 L 163.984375 61.308594 L 163.996094 61.308594 C 163.988281 61.308594 164.015625 61.300781 163.980469 61.3125 L 163.988281 61.308594 L 164.015625 61.304688 L 164.121094 61.277344 L 164.222656 61.253906 L 164.308594 61.230469 C 164.363281 61.214844 164.421875 61.199219 164.480469 61.1875 C 164.96875 61.054688 165.484375 60.898438 166.019531 60.753906 C 166.152344 60.714844 166.285156 60.679688 166.421875 60.644531 C 166.488281 60.628906 166.558594 60.613281 166.625 60.59375 C 166.691406 60.578125 166.761719 60.5625 166.828125 60.546875 C 166.96875 60.515625 167.101562 60.488281 167.242188 60.460938 C 167.378906 60.4375 167.515625 60.414062 167.652344 60.390625 C 167.722656 60.382812 167.789062 60.375 167.859375 60.363281 L 167.910156 60.359375 L 167.921875 60.355469 C 167.910156 60.359375 167.945312 60.351562 167.945312 60.351562 L 167.949219 60.351562 L 167.972656 60.347656 C 168.003906 60.347656 168.035156 60.34375 168.066406 60.339844 C 168.132812 60.335938 168.195312 60.332031 168.257812 60.328125 C 168.332031 60.320312 168.402344 60.316406 168.472656 60.3125 C 168.746094 60.300781 169.003906 60.304688 169.257812 60.324219 C 169.761719 60.363281 170.21875 60.460938 170.605469 60.605469 C 170.992188 60.742188 171.304688 60.917969 171.539062 61.089844 C 171.769531 61.261719 171.925781 61.421875 172.023438 61.535156 C 172.117188 61.652344 172.164062 61.714844 172.164062 61.714844 C 172.164062 61.714844 172.082031 61.710938 171.9375 61.695312 C 171.902344 61.691406 171.863281 61.6875 171.820312 61.6875 C 171.777344 61.6875 171.730469 61.683594 171.679688 61.683594 C 171.632812 61.679688 171.574219 61.683594 171.519531 61.683594 C 171.460938 61.683594 171.40625 61.679688 171.34375 61.6875 C 171.09375 61.695312 170.804688 61.738281 170.488281 61.804688 C 170.171875 61.875 169.832031 61.984375 169.472656 62.125 C 169.292969 62.191406 169.105469 62.273438 168.921875 62.359375 C 168.878906 62.382812 168.835938 62.402344 168.789062 62.421875 C 168.738281 62.445312 168.6875 62.472656 168.632812 62.496094 C 168.605469 62.507812 168.578125 62.523438 168.550781 62.535156 L 168.53125 62.542969 L 168.523438 62.546875 C 168.519531 62.550781 168.554688 62.539062 168.535156 62.542969 L 168.527344 62.550781 L 168.488281 62.570312 C 168.441406 62.59375 168.390625 62.617188 168.339844 62.644531 C 168.136719 62.753906 167.925781 62.863281 167.714844 62.972656 C 167.660156 63.003906 167.605469 63.035156 167.546875 63.0625 C 167.492188 63.09375 167.4375 63.121094 167.378906 63.152344 C 167.265625 63.210938 167.148438 63.277344 167.03125 63.335938 C 166.792969 63.460938 166.539062 63.585938 166.277344 63.710938 C 166.144531 63.773438 166.007812 63.832031 165.867188 63.894531 C 165.796875 63.921875 165.726562 63.953125 165.65625 63.984375 C 165.582031 64.011719 165.507812 64.039062 165.4375 64.070312 C 165.363281 64.097656 165.28125 64.125 165.199219 64.15625 L 165.078125 64.195312 L 164.875 64.265625 L 164.847656 64.273438 L 164.84375 64.273438 L 164.816406 64.28125 L 164.800781 64.285156 L 164.742188 64.304688 C 164.660156 64.328125 164.578125 64.347656 164.496094 64.371094 C 164.171875 64.457031 163.839844 64.527344 163.507812 64.574219 C 162.839844 64.671875 162.164062 64.683594 161.507812 64.636719 C 160.851562 64.585938 160.21875 64.460938 159.625 64.28125 C 159.03125 64.101562 158.484375 63.871094 157.988281 63.601562 C 157.496094 63.335938 157.0625 63.035156 156.691406 62.726562 C 156.316406 62.417969 156.007812 62.101562 155.761719 61.804688 C 155.511719 61.507812 155.320312 61.230469 155.179688 60.992188 C 155.144531 60.933594 155.109375 60.878906 155.082031 60.824219 C 155.054688 60.769531 155.027344 60.714844 155 60.667969 C 154.976562 60.621094 154.953125 60.578125 154.933594 60.535156 C 154.914062 60.496094 154.898438 60.457031 154.886719 60.421875 C 154.828125 60.289062 154.800781 60.214844 154.800781 60.214844 " fill-opacity="1" fill-rule="nonzero"/></g></g></g><g clip-path="url(#f5a733e96b)"><g clip-path="url(#8545b95832)"><g clip-path="url(#63fb621494)"><path fill="#ffffff" d="M 148.859375 40.519531 C 148.859375 40.519531 148.90625 40.453125 148.988281 40.332031 C 149.007812 40.300781 149.027344 40.265625 149.054688 40.230469 C 149.078125 40.191406 149.105469 40.152344 149.132812 40.109375 C 149.191406 40.023438 149.253906 39.929688 149.328125 39.820312 C 149.472656 39.605469 149.65625 39.355469 149.859375 39.078125 C 150.066406 38.800781 150.304688 38.503906 150.566406 38.195312 C 150.832031 37.886719 151.125 37.570312 151.441406 37.253906 C 151.761719 36.941406 152.105469 36.628906 152.46875 36.328125 C 152.835938 36.03125 153.21875 35.742188 153.621094 35.476562 C 154.027344 35.210938 154.445312 34.960938 154.875 34.746094 C 155.089844 34.636719 155.3125 34.539062 155.53125 34.441406 L 155.695312 34.371094 L 155.738281 34.355469 L 155.746094 34.351562 C 155.742188 34.351562 155.769531 34.34375 155.734375 34.355469 L 155.742188 34.351562 L 155.765625 34.34375 L 155.867188 34.304688 L 155.964844 34.265625 L 156.046875 34.234375 C 156.101562 34.214844 156.160156 34.191406 156.214844 34.171875 C 156.6875 34 157.203125 33.832031 157.722656 33.644531 C 157.855469 33.597656 157.984375 33.550781 158.113281 33.5 C 158.179688 33.472656 158.246094 33.449219 158.308594 33.425781 C 158.375 33.398438 158.4375 33.371094 158.503906 33.347656 C 158.632812 33.292969 158.761719 33.238281 158.890625 33.179688 C 159.015625 33.121094 159.144531 33.0625 159.265625 33 C 159.328125 32.96875 159.390625 32.9375 159.453125 32.90625 L 159.496094 32.882812 L 159.507812 32.875 C 159.496094 32.878906 159.53125 32.867188 159.53125 32.867188 L 159.535156 32.863281 L 159.554688 32.851562 C 159.582031 32.835938 159.609375 32.820312 159.632812 32.804688 C 159.691406 32.773438 159.746094 32.738281 159.800781 32.707031 C 159.863281 32.671875 159.921875 32.632812 159.984375 32.59375 C 160.214844 32.445312 160.421875 32.296875 160.617188 32.132812 C 161.007812 31.816406 161.324219 31.472656 161.558594 31.132812 C 161.792969 30.796875 161.949219 30.476562 162.042969 30.203125 C 162.132812 29.929688 162.167969 29.707031 162.179688 29.558594 C 162.191406 29.40625 162.191406 29.332031 162.191406 29.332031 C 162.191406 29.332031 162.125 29.382812 162.019531 29.476562 C 161.992188 29.5 161.960938 29.523438 161.925781 29.550781 C 161.890625 29.578125 161.855469 29.605469 161.8125 29.636719 C 161.777344 29.667969 161.730469 29.695312 161.683594 29.726562 C 161.636719 29.757812 161.589844 29.792969 161.535156 29.824219 C 161.328125 29.960938 161.066406 30.09375 160.769531 30.21875 C 160.472656 30.339844 160.128906 30.449219 159.753906 30.542969 C 159.566406 30.589844 159.367188 30.628906 159.167969 30.664062 C 159.121094 30.671875 159.070312 30.679688 159.023438 30.6875 C 158.96875 30.699219 158.910156 30.707031 158.855469 30.71875 C 158.824219 30.722656 158.792969 30.726562 158.761719 30.734375 L 158.738281 30.738281 L 158.734375 30.738281 C 158.730469 30.738281 158.761719 30.726562 158.746094 30.734375 L 158.734375 30.734375 L 158.695312 30.742188 C 158.640625 30.75 158.582031 30.757812 158.527344 30.765625 C 158.300781 30.792969 158.0625 30.824219 157.824219 30.855469 C 157.761719 30.859375 157.699219 30.867188 157.636719 30.875 C 157.574219 30.882812 157.511719 30.890625 157.449219 30.898438 C 157.320312 30.914062 157.191406 30.929688 157.058594 30.949219 C 156.789062 30.984375 156.511719 31.027344 156.222656 31.078125 C 156.082031 31.101562 155.933594 31.132812 155.785156 31.160156 C 155.710938 31.175781 155.632812 31.195312 155.558594 31.210938 C 155.484375 31.230469 155.40625 31.25 155.328125 31.265625 C 155.253906 31.28125 155.167969 31.308594 155.085938 31.332031 L 154.964844 31.367188 L 154.859375 31.398438 L 154.757812 31.429688 L 154.730469 31.4375 L 154.726562 31.4375 L 154.699219 31.445312 L 154.6875 31.453125 L 154.625 31.472656 C 154.546875 31.5 154.46875 31.527344 154.386719 31.554688 C 154.074219 31.675781 153.761719 31.808594 153.460938 31.960938 C 152.859375 32.265625 152.296875 32.640625 151.789062 33.054688 C 151.285156 33.472656 150.835938 33.941406 150.457031 34.425781 C 150.074219 34.910156 149.761719 35.417969 149.511719 35.917969 C 149.261719 36.417969 149.082031 36.914062 148.953125 37.382812 C 148.828125 37.847656 148.757812 38.28125 148.726562 38.667969 C 148.695312 39.054688 148.699219 39.390625 148.722656 39.664062 C 148.726562 39.734375 148.730469 39.796875 148.738281 39.859375 C 148.746094 39.921875 148.753906 39.980469 148.761719 40.035156 C 148.769531 40.085938 148.777344 40.136719 148.785156 40.179688 C 148.792969 40.222656 148.800781 40.261719 148.808594 40.300781 C 148.839844 40.441406 148.859375 40.519531 148.859375 40.519531 " fill-opacity="1" fill-rule="nonzero"/></g></g></g><g fill="#ffffff" fill-opacity="1"><g transform="translate(43.51464, 298.436673)"><g><path d="M 5.390625 0 L 5.390625 -62.921875 L 28.1875 -62.921875 C 30.039062 -62.921875 31.59375 -62.273438 32.84375 -60.984375 C 34.101562 -59.703125 34.734375 -58.191406 34.734375 -56.453125 L 34.734375 -38.59375 C 35.929688 -38.175781 36.914062 -37.394531 37.6875 -36.25 C 38.46875 -35.113281 38.859375 -33.890625 38.859375 -32.578125 L 38.859375 -6.546875 C 38.859375 -4.691406 38.226562 -3.132812 36.96875 -1.875 C 35.71875 -0.625 34.195312 0 32.40625 0 Z M 13.828125 -38.953125 L 23.0625 -38.953125 C 23.957031 -38.953125 24.734375 -39.28125 25.390625 -39.9375 C 26.054688 -40.59375 26.390625 -41.34375 26.390625 -42.1875 L 26.390625 -51.34375 C 26.390625 -52.238281 26.054688 -53 25.390625 -53.625 C 24.734375 -54.25 23.957031 -54.5625 23.0625 -54.5625 L 13.828125 -54.5625 Z M 13.828125 -8.34375 L 27.375 -8.34375 C 28.207031 -8.34375 28.9375 -8.65625 29.5625 -9.28125 C 30.195312 -9.914062 30.515625 -10.710938 30.515625 -11.671875 L 30.515625 -27.46875 C 30.515625 -28.300781 30.195312 -29.046875 29.5625 -29.703125 C 28.9375 -30.359375 28.207031 -30.6875 27.375 -30.6875 L 13.828125 -30.6875 Z M 13.828125 -8.34375 "/></g></g></g><g fill="#ffffff" fill-opacity="1"><g transform="translate(85.50974, 298.436673)"><g><path d="M 10.140625 0 C 8.347656 0 6.804688 -0.640625 5.515625 -1.921875 C 4.234375 -3.210938 3.59375 -4.753906 3.59375 -6.546875 L 3.59375 -38.40625 C 3.59375 -40.207031 4.234375 -41.734375 5.515625 -42.984375 C 6.804688 -44.242188 8.347656 -44.875 10.140625 -44.875 L 22.34375 -44.875 C 24.195312 -44.875 25.753906 -44.242188 27.015625 -42.984375 C 28.273438 -41.734375 28.90625 -40.207031 28.90625 -38.40625 L 28.90625 -24.765625 C 28.90625 -22.972656 28.273438 -21.429688 27.015625 -20.140625 C 25.753906 -18.859375 24.195312 -18.21875 22.34375 -18.21875 L 12.03125 -18.21875 L 12.03125 -11.671875 C 12.03125 -10.773438 12.34375 -10.007812 12.96875 -9.375 C 13.59375 -8.75 14.382812 -8.4375 15.34375 -8.4375 L 27.015625 -8.4375 L 28.90625 0 Z M 12.03125 -26.65625 L 17.234375 -26.65625 C 18.128906 -26.65625 18.890625 -26.96875 19.515625 -27.59375 C 20.148438 -28.226562 20.46875 -28.992188 20.46875 -29.890625 L 20.46875 -33.203125 C 20.46875 -34.097656 20.148438 -34.859375 19.515625 -35.484375 C 18.890625 -36.117188 18.128906 -36.4375 17.234375 -36.4375 L 15.34375 -36.4375 C 14.382812 -36.4375 13.59375 -36.117188 12.96875 -35.484375 C 12.34375 -34.859375 12.03125 -34.097656 12.03125 -33.203125 Z M 12.03125 -26.65625 "/></g></g></g><g fill="#ffffff" fill-opacity="1"><g transform="translate(115.749637, 298.436673)"><g><path d="M 3.59375 0 L 3.59375 -65.34375 L 12.03125 -67.21875 L 12.03125 -44.875 L 22.703125 -44.875 L 20.734375 -36.4375 L 12.03125 -36.4375 L 12.03125 0 Z M 3.59375 0 "/></g></g></g><g fill="#ffffff" fill-opacity="1"><g transform="translate(137.105816, 298.436673)"><g><path d="M 3.59375 0 L 3.59375 -65.34375 L 12.03125 -67.21875 L 12.03125 -44.875 L 22.703125 -44.875 L 20.734375 -36.4375 L 12.03125 -36.4375 L 12.03125 0 Z M 3.59375 0 "/></g></g></g><g fill="#ffffff" fill-opacity="1"><g transform="translate(158.461995, 298.436673)"><g><path d="M 10.140625 0 C 8.347656 0 6.804688 -0.625 5.515625 -1.875 C 4.234375 -3.132812 3.59375 -4.691406 3.59375 -6.546875 L 3.59375 -20.109375 C 3.59375 -21.898438 4.234375 -23.4375 5.515625 -24.71875 C 6.804688 -26.007812 8.347656 -26.65625 10.140625 -26.65625 L 17.140625 -26.65625 C 18.097656 -26.65625 18.890625 -26.96875 19.515625 -27.59375 C 20.148438 -28.226562 20.46875 -28.992188 20.46875 -29.890625 L 20.46875 -33.203125 C 20.46875 -34.097656 20.148438 -34.859375 19.515625 -35.484375 C 18.890625 -36.117188 18.097656 -36.4375 17.140625 -36.4375 L 7.453125 -36.4375 L 9.328125 -44.875 L 22.34375 -44.875 C 24.144531 -44.875 25.6875 -44.226562 26.96875 -42.9375 C 28.257812 -41.65625 28.90625 -40.117188 28.90625 -38.328125 L 28.90625 0 Z M 15.25 -8.4375 L 20.46875 -8.4375 L 20.46875 -18.21875 L 15.25 -18.21875 C 14.351562 -18.21875 13.59375 -17.898438 12.96875 -17.265625 C 12.34375 -16.640625 12.03125 -15.878906 12.03125 -14.984375 L 12.03125 -11.671875 C 12.03125 -10.773438 12.34375 -10.007812 12.96875 -9.375 C 13.59375 -8.75 14.351562 -8.4375 15.25 -8.4375 Z M 15.25 -8.4375 "/></g></g></g><g fill="#ffffff" fill-opacity="1"><g transform="translate(188.749685, 298.436673)"><g><path d="M 11.84375 0 C 10.050781 0 8.523438 -0.625 7.265625 -1.875 C 6.015625 -3.132812 5.390625 -4.664062 5.390625 -6.46875 L 5.390625 -20.375 L 13.734375 -18.484375 L 13.734375 -11.578125 C 13.734375 -10.679688 14.046875 -9.914062 14.671875 -9.28125 C 15.296875 -8.65625 16.03125 -8.34375 16.875 -8.34375 L 27.109375 -8.34375 C 28.003906 -8.34375 28.765625 -8.65625 29.390625 -9.28125 C 30.015625 -9.914062 30.328125 -10.679688 30.328125 -11.578125 L 30.328125 -27.375 C 30.328125 -28.269531 30.015625 -29.03125 29.390625 -29.65625 C 28.765625 -30.289062 28.003906 -30.609375 27.109375 -30.609375 L 11.84375 -30.609375 C 10.050781 -30.609375 8.523438 -31.234375 7.265625 -32.484375 C 6.015625 -33.742188 5.390625 -35.269531 5.390625 -37.0625 L 5.390625 -56.359375 C 5.390625 -58.160156 6.015625 -59.6875 7.265625 -60.9375 C 8.523438 -62.195312 10.050781 -62.828125 11.84375 -62.828125 L 32.21875 -62.828125 C 34.007812 -62.828125 35.535156 -62.195312 36.796875 -60.9375 C 38.054688 -59.6875 38.6875 -58.160156 38.6875 -56.359375 L 38.6875 -46.671875 L 30.328125 -48.640625 L 30.328125 -51.25 C 30.328125 -52.144531 30.015625 -52.90625 29.390625 -53.53125 C 28.765625 -54.164062 28.003906 -54.484375 27.109375 -54.484375 L 16.875 -54.484375 C 16.03125 -54.484375 15.296875 -54.164062 14.671875 -53.53125 C 14.046875 -52.90625 13.734375 -52.144531 13.734375 -51.25 L 13.734375 -42.1875 C 13.734375 -41.289062 14.046875 -40.523438 14.671875 -39.890625 C 15.296875 -39.265625 16.03125 -38.953125 16.875 -38.953125 L 32.21875 -38.953125 C 34.007812 -38.953125 35.535156 -38.320312 36.796875 -37.0625 C 38.054688 -35.8125 38.6875 -34.285156 38.6875 -32.484375 L 38.6875 -6.46875 C 38.6875 -4.664062 38.054688 -3.132812 36.796875 -1.875 C 35.535156 -0.625 34.007812 0 32.21875 0 Z M 11.84375 0 "/></g></g></g><g fill="#ffffff" fill-opacity="1"><g transform="translate(230.565318, 298.436673)"><g><path d="M 3.59375 0 L 3.59375 -65.34375 L 12.03125 -67.21875 L 12.03125 -44.875 L 22.703125 -44.875 L 20.734375 -36.4375 L 12.03125 -36.4375 L 12.03125 0 Z M 3.59375 0 "/></g></g></g><g fill="#ffffff" fill-opacity="1"><g transform="translate(251.9215, 298.436673)"><g><path d="M 10.859375 0 C 9.003906 0 7.445312 -0.640625 6.1875 -1.921875 C 4.9375 -3.210938 4.3125 -4.753906 4.3125 -6.546875 L 4.3125 -38.328125 C 4.3125 -40.117188 4.9375 -41.65625 6.1875 -42.9375 C 7.445312 -44.226562 9.003906 -44.875 10.859375 -44.875 L 23.0625 -44.875 C 24.863281 -44.875 26.390625 -44.226562 27.640625 -42.9375 C 28.898438 -41.65625 29.53125 -40.117188 29.53125 -38.328125 L 29.53125 -6.546875 C 29.53125 -4.753906 28.898438 -3.210938 27.640625 -1.921875 C 26.390625 -0.640625 24.863281 0 23.0625 0 Z M 15.96875 -8.4375 L 17.859375 -8.4375 C 18.753906 -8.4375 19.53125 -8.75 20.1875 -9.375 C 20.851562 -10.007812 21.1875 -10.773438 21.1875 -11.671875 L 21.1875 -33.203125 C 21.1875 -34.097656 20.851562 -34.859375 20.1875 -35.484375 C 19.53125 -36.117188 18.753906 -36.4375 17.859375 -36.4375 L 15.96875 -36.4375 C 15.070312 -36.4375 14.3125 -36.117188 13.6875 -35.484375 C 13.0625 -34.859375 12.75 -34.097656 12.75 -33.203125 L 12.75 -11.671875 C 12.75 -10.773438 13.0625 -10.007812 13.6875 -9.375 C 14.3125 -8.75 15.070312 -8.4375 15.96875 -8.4375 Z M 15.96875 -8.4375 "/></g></g></g><g fill="#ffffff" fill-opacity="1"><g transform="translate(282.879265, 298.436673)"><g><path d="M 3.59375 0 L 3.59375 -44.875 L 22.34375 -44.875 C 24.144531 -44.875 25.6875 -44.226562 26.96875 -42.9375 C 28.257812 -41.65625 28.90625 -40.117188 28.90625 -38.328125 L 28.90625 -28.546875 L 20.46875 -30.421875 L 20.46875 -33.125 C 20.46875 -34.019531 20.148438 -34.796875 19.515625 -35.453125 C 18.890625 -36.109375 18.128906 -36.4375 17.234375 -36.4375 L 12.03125 -36.4375 L 12.03125 0 Z M 3.59375 0 "/></g></g></g><g fill="#ffffff" fill-opacity="1"><g transform="translate(313.119156, 298.436673)"><g><path d="M 10.140625 0 C 8.347656 0 6.804688 -0.640625 5.515625 -1.921875 C 4.234375 -3.210938 3.59375 -4.753906 3.59375 -6.546875 L 3.59375 -38.40625 C 3.59375 -40.207031 4.234375 -41.734375 5.515625 -42.984375 C 6.804688 -44.242188 8.347656 -44.875 10.140625 -44.875 L 22.34375 -44.875 C 24.195312 -44.875 25.753906 -44.242188 27.015625 -42.984375 C 28.273438 -41.734375 28.90625 -40.207031 28.90625 -38.40625 L 28.90625 -24.765625 C 28.90625 -22.972656 28.273438 -21.429688 27.015625 -20.140625 C 25.753906 -18.859375 24.195312 -18.21875 22.34375 -18.21875 L 12.03125 -18.21875 L 12.03125 -11.671875 C 12.03125 -10.773438 12.34375 -10.007812 12.96875 -9.375 C 13.59375 -8.75 14.382812 -8.4375 15.34375 -8.4375 L 27.015625 -8.4375 L 28.90625 0 Z M 12.03125 -26.65625 L 17.234375 -26.65625 C 18.128906 -26.65625 18.890625 -26.96875 19.515625 -27.59375 C 20.148438 -28.226562 20.46875 -28.992188 20.46875 -29.890625 L 20.46875 -33.203125 C 20.46875 -34.097656 20.148438 -34.859375 19.515625 -35.484375 C 18.890625 -36.117188 18.128906 -36.4375 17.234375 -36.4375 L 15.34375 -36.4375 C 14.382812 -36.4375 13.59375 -36.117188 12.96875 -35.484375 C 12.34375 -34.859375 12.03125 -34.097656 12.03125 -33.203125 Z M 12.03125 -26.65625 "/></g></g></g><g fill="#ffffff" fill-opacity="1"><g transform="translate(51.500605, 327.182494)"><g><path d="M 8.5625 -6.40625 L 8.5625 0 L 6.421875 0 L 6.421875 -6.375 L 0.609375 -15.765625 L 2.9375 -15.765625 L 7.515625 -8.0625 L 12.078125 -15.765625 L 14.40625 -15.765625 Z M 8.5625 -6.40625 "/></g></g></g><g fill="#ffffff" fill-opacity="1"><g transform="translate(68.298341, 327.182494)"><g><path d="M 9.015625 0.375 C 7.378906 0.375 5.976562 0.0078125 4.8125 -0.71875 C 3.644531 -1.457031 2.765625 -2.453125 2.171875 -3.703125 C 1.585938 -4.960938 1.296875 -6.347656 1.296875 -7.859375 C 1.296875 -9.378906 1.585938 -10.757812 2.171875 -12 C 2.765625 -13.238281 3.644531 -14.222656 4.8125 -14.953125 C 5.976562 -15.691406 7.378906 -16.0625 9.015625 -16.0625 C 10.660156 -16.0625 12.066406 -15.691406 13.234375 -14.953125 C 14.398438 -14.222656 15.273438 -13.238281 15.859375 -12 C 16.441406 -10.757812 16.734375 -9.390625 16.734375 -7.890625 C 16.734375 -6.359375 16.441406 -4.960938 15.859375 -3.703125 C 15.273438 -2.453125 14.398438 -1.457031 13.234375 -0.71875 C 12.066406 0.0078125 10.660156 0.375 9.015625 0.375 Z M 9.015625 -1.296875 C 10.191406 -1.296875 11.195312 -1.578125 12.03125 -2.140625 C 12.863281 -2.703125 13.492188 -3.484375 13.921875 -4.484375 C 14.359375 -5.484375 14.578125 -6.609375 14.578125 -7.859375 C 14.578125 -9.109375 14.359375 -10.226562 13.921875 -11.21875 C 13.492188 -12.207031 12.859375 -12.988281 12.015625 -13.5625 C 11.179688 -14.132812 10.179688 -14.421875 9.015625 -14.421875 C 7.835938 -14.421875 6.828125 -14.132812 5.984375 -13.5625 C 5.148438 -12.988281 4.515625 -12.207031 4.078125 -11.21875 C 3.648438 -10.226562 3.4375 -9.109375 3.4375 -7.859375 C 3.4375 -6.609375 3.648438 -5.484375 4.078125 -4.484375 C 4.515625 -3.484375 5.148438 -2.703125 5.984375 -2.140625 C 6.828125 -1.578125 7.835938 -1.296875 9.015625 -1.296875 Z M 9.015625 -1.296875 "/></g></g></g><g fill="#ffffff" fill-opacity="1"><g transform="translate(88.107772, 327.182494)"><g><path d="M 8.734375 0.375 C 6.679688 0.375 5.101562 -0.195312 4 -1.34375 C 2.894531 -2.488281 2.34375 -4.003906 2.34375 -5.890625 L 2.34375 -15.765625 L 4.46875 -15.765625 L 4.46875 -5.90625 C 4.46875 -4.4375 4.835938 -3.300781 5.578125 -2.5 C 6.328125 -1.695312 7.378906 -1.296875 8.734375 -1.296875 C 10.097656 -1.296875 11.144531 -1.695312 11.875 -2.5 C 12.613281 -3.300781 12.984375 -4.4375 12.984375 -5.90625 L 12.984375 -15.765625 L 15.125 -15.765625 L 15.125 -5.9375 C 15.125 -4.019531 14.570312 -2.488281 13.46875 -1.34375 C 12.375 -0.195312 10.796875 0.375 8.734375 0.375 Z M 8.734375 0.375 "/></g></g></g><g fill="#ffffff" fill-opacity="1"><g transform="translate(107.384363, 327.182494)"><g><path d="M 7.578125 -6.9375 L 4.703125 -6.9375 L 4.703125 0 L 2.578125 0 L 2.578125 -15.765625 L 7.859375 -15.765625 C 9.648438 -15.765625 11.007812 -15.378906 11.9375 -14.609375 C 12.863281 -13.835938 13.328125 -12.78125 13.328125 -11.4375 C 13.328125 -10.300781 13.023438 -9.375 12.421875 -8.65625 C 11.828125 -7.9375 10.941406 -7.460938 9.765625 -7.234375 L 14.90625 0 L 12.421875 0 Z M 4.703125 -8.5625 L 7.859375 -8.5625 C 10.085938 -8.5625 11.203125 -9.492188 11.203125 -11.359375 C 11.203125 -12.242188 10.914062 -12.929688 10.34375 -13.421875 C 9.769531 -13.921875 8.941406 -14.171875 7.859375 -14.171875 L 4.703125 -14.171875 Z M 4.703125 -8.5625 "/></g></g></g><g fill="#ffffff" fill-opacity="1"><g transform="translate(124.969779, 327.182494)"><g/></g></g><g fill="#ffffff" fill-opacity="1"><g transform="translate(132.570298, 327.182494)"><g><path d="M 10.6875 -4.890625 L 4.359375 -4.890625 L 2.578125 0 L 0.4375 0 L 6.5625 -15.96875 L 8.53125 -15.96875 L 14.671875 0 L 12.5 0 Z M 10.109375 -6.5 L 7.53125 -13.5 L 4.96875 -6.5 Z M 10.109375 -6.5 "/></g></g></g><g fill="#ffffff" fill-opacity="1"><g transform="translate(149.483871, 327.182494)"><g><path d="M 19.9375 4.546875 C 19.476562 4.890625 19.023438 5.140625 18.578125 5.296875 C 18.140625 5.460938 17.691406 5.546875 17.234375 5.546875 C 15.609375 5.546875 14.128906 4.765625 12.796875 3.203125 L 10.34375 0.28125 C 9.96875 0.34375 9.523438 0.375 9.015625 0.375 C 7.378906 0.375 5.976562 0.0078125 4.8125 -0.71875 C 3.644531 -1.457031 2.765625 -2.453125 2.171875 -3.703125 C 1.585938 -4.960938 1.296875 -6.347656 1.296875 -7.859375 C 1.296875 -9.378906 1.585938 -10.757812 2.171875 -12 C 2.765625 -13.238281 3.644531 -14.222656 4.8125 -14.953125 C 5.976562 -15.691406 7.378906 -16.0625 9.015625 -16.0625 C 10.660156 -16.0625 12.066406 -15.691406 13.234375 -14.953125 C 14.398438 -14.222656 15.273438 -13.238281 15.859375 -12 C 16.441406 -10.757812 16.734375 -9.390625 16.734375 -7.890625 C 16.734375 -6.148438 16.359375 -4.601562 15.609375 -3.25 C 14.859375 -1.90625 13.78125 -0.921875 12.375 -0.296875 L 14.171875 1.8125 C 15.296875 3.125 16.351562 3.78125 17.34375 3.78125 C 18.132812 3.78125 18.875 3.523438 19.5625 3.015625 Z M 3.4375 -7.859375 C 3.4375 -6.609375 3.648438 -5.484375 4.078125 -4.484375 C 4.515625 -3.484375 5.148438 -2.703125 5.984375 -2.140625 C 6.828125 -1.578125 7.835938 -1.296875 9.015625 -1.296875 C 10.191406 -1.296875 11.195312 -1.578125 12.03125 -2.140625 C 12.863281 -2.703125 13.492188 -3.484375 13.921875 -4.484375 C 14.359375 -5.484375 14.578125 -6.609375 14.578125 -7.859375 C 14.578125 -9.109375 14.359375 -10.226562 13.921875 -11.21875 C 13.492188 -12.207031 12.859375 -12.988281 12.015625 -13.5625 C 11.179688 -14.132812 10.179688 -14.421875 9.015625 -14.421875 C 7.835938 -14.421875 6.828125 -14.132812 5.984375 -13.5625 C 5.148438 -12.988281 4.515625 -12.207031 4.078125 -11.21875 C 3.648438 -10.226562 3.4375 -9.109375 3.4375 -7.859375 Z M 3.4375 -7.859375 "/></g></g></g><g fill="#ffffff" fill-opacity="1"><g transform="translate(169.293298, 327.182494)"><g><path d="M 8.734375 0.375 C 6.679688 0.375 5.101562 -0.195312 4 -1.34375 C 2.894531 -2.488281 2.34375 -4.003906 2.34375 -5.890625 L 2.34375 -15.765625 L 4.46875 -15.765625 L 4.46875 -5.90625 C 4.46875 -4.4375 4.835938 -3.300781 5.578125 -2.5 C 6.328125 -1.695312 7.378906 -1.296875 8.734375 -1.296875 C 10.097656 -1.296875 11.144531 -1.695312 11.875 -2.5 C 12.613281 -3.300781 12.984375 -4.4375 12.984375 -5.90625 L 12.984375 -15.765625 L 15.125 -15.765625 L 15.125 -5.9375 C 15.125 -4.019531 14.570312 -2.488281 13.46875 -1.34375 C 12.375 -0.195312 10.796875 0.375 8.734375 0.375 Z M 8.734375 0.375 "/></g></g></g><g fill="#ffffff" fill-opacity="1"><g transform="translate(188.569885, 327.182494)"><g><path d="M 10.6875 -4.890625 L 4.359375 -4.890625 L 2.578125 0 L 0.4375 0 L 6.5625 -15.96875 L 8.53125 -15.96875 L 14.671875 0 L 12.5 0 Z M 10.109375 -6.5 L 7.53125 -13.5 L 4.96875 -6.5 Z M 10.109375 -6.5 "/></g></g></g><g fill="#ffffff" fill-opacity="1"><g transform="translate(205.483458, 327.182494)"><g><path d="M 13.546875 -14.140625 L 8.234375 -14.140625 L 8.234375 0 L 6.09375 0 L 6.09375 -14.140625 L 0.78125 -14.140625 L 0.78125 -15.765625 L 13.546875 -15.765625 Z M 13.546875 -14.140625 "/></g></g></g><g fill="#ffffff" fill-opacity="1"><g transform="translate(221.609352, 327.182494)"><g><path d="M 2.578125 -15.765625 L 4.703125 -15.765625 L 4.703125 0 L 2.578125 0 Z M 2.578125 -15.765625 "/></g></g></g><g fill="#ffffff" fill-opacity="1"><g transform="translate(230.715702, 327.182494)"><g><path d="M 9.25 0.34375 C 7.519531 0.34375 6.054688 -0.03125 4.859375 -0.78125 C 3.671875 -1.539062 2.78125 -2.546875 2.1875 -3.796875 C 1.59375 -5.054688 1.296875 -6.425781 1.296875 -7.90625 C 1.296875 -9.394531 1.601562 -10.753906 2.21875 -11.984375 C 2.84375 -13.222656 3.769531 -14.210938 5 -14.953125 C 6.238281 -15.691406 7.75 -16.0625 9.53125 -16.0625 C 10.5625 -16.0625 11.53125 -15.894531 12.4375 -15.5625 C 13.34375 -15.238281 14.113281 -14.773438 14.75 -14.171875 L 13.859375 -12.75 C 13.367188 -13.257812 12.738281 -13.664062 11.96875 -13.96875 C 11.195312 -14.269531 10.382812 -14.421875 9.53125 -14.421875 C 8.226562 -14.421875 7.117188 -14.132812 6.203125 -13.5625 C 5.296875 -12.988281 4.609375 -12.207031 4.140625 -11.21875 C 3.671875 -10.226562 3.4375 -9.117188 3.4375 -7.890625 C 3.4375 -6.617188 3.660156 -5.488281 4.109375 -4.5 C 4.554688 -3.507812 5.210938 -2.726562 6.078125 -2.15625 C 6.953125 -1.582031 8.007812 -1.296875 9.25 -1.296875 C 11.15625 -1.296875 12.800781 -2.023438 14.1875 -3.484375 L 14.984375 -2.09375 C 14.285156 -1.375 13.445312 -0.785156 12.46875 -0.328125 C 11.5 0.117188 10.425781 0.34375 9.25 0.34375 Z M 9.25 0.34375 "/></g></g></g><g fill="#ffffff" fill-opacity="1"><g transform="translate(248.579112, 327.182494)"><g/></g></g><g fill="#ffffff" fill-opacity="1"><g transform="translate(256.179636, 327.182494)"><g><path d="M 15.34375 -15.765625 L 15.34375 0 L 13.21875 0 L 13.21875 -7.53125 L 4.703125 -7.53125 L 4.703125 0 L 2.578125 0 L 2.578125 -15.765625 L 4.703125 -15.765625 L 4.703125 -9.15625 L 13.21875 -9.15625 L 13.21875 -15.765625 Z M 15.34375 -15.765625 "/></g></g></g><g fill="#ffffff" fill-opacity="1"><g transform="translate(275.919574, 327.182494)"><g><path d="M 10.6875 -4.890625 L 4.359375 -4.890625 L 2.578125 0 L 0.4375 0 L 6.5625 -15.96875 L 8.53125 -15.96875 L 14.671875 0 L 12.5 0 Z M 10.109375 -6.5 L 7.53125 -13.5 L 4.96875 -6.5 Z M 10.109375 -6.5 "/></g></g></g><g fill="#ffffff" fill-opacity="1"><g transform="translate(292.833157, 327.182494)"><g><path d="M 14.9375 -15.765625 L 8.828125 0.1875 L 6.765625 0.1875 L 0.65625 -15.765625 L 2.828125 -15.765625 L 7.8125 -2.203125 L 12.796875 -15.765625 Z M 14.9375 -15.765625 "/></g></g></g><g fill="#ffffff" fill-opacity="1"><g transform="translate(310.186921, 327.182494)"><g><path d="M 12.25 -1.59375 L 12.25 0 L 2.578125 0 L 2.578125 -15.765625 L 11.78125 -15.765625 L 11.78125 -14.171875 L 4.703125 -14.171875 L 4.703125 -9.140625 L 10.859375 -9.140625 L 10.859375 -7.53125 L 4.703125 -7.53125 L 4.703125 -1.59375 Z M 12.25 -1.59375 "/></g></g></g><g fill="#ffffff" fill-opacity="1"><g transform="translate(325.548327, 327.182494)"><g><path d="M 15.34375 -15.765625 L 15.34375 0 L 13.5 0.015625 L 4.59375 -12.359375 L 4.703125 -6.859375 L 4.703125 0 L 2.578125 0 L 2.578125 -15.765625 L 4.421875 -15.765625 L 13.328125 -3.359375 L 13.21875 -9.5 L 13.21875 -15.765625 Z M 15.34375 -15.765625 "/></g></g></g></svg>