<svg xmlns="http://www.w3.org/2000/svg" xmlns:xlink="http://www.w3.org/1999/xlink" width="500" zoomAndPan="magnify" viewBox="0 0 375 149.999998" height="200" preserveAspectRatio="xMidYMid meet" version="1.0"><defs><g/><clipPath id="c9ab621b14"><path d="M 24 26.414062 L 90.046875 26.414062 L 90.046875 108.164062 L 24 108.164062 Z M 24 26.414062 " clip-rule="nonzero"/></clipPath><clipPath id="bf7c69b98a"><path d="M 22 24 L 57 24 L 57 29 L 22 29 Z M 22 24 " clip-rule="nonzero"/></clipPath><clipPath id="65daea6030"><path d="M 27.320312 0 L 56.558594 6.710938 L 51.527344 28.640625 L 22.289062 21.929688 Z M 27.320312 0 " clip-rule="nonzero"/></clipPath><clipPath id="b759cf463e"><path d="M 50.992188 59.839844 L 15.171875 51.621094 L 27.082031 -0.28125 L 62.898438 7.9375 Z M 50.992188 59.839844 " clip-rule="nonzero"/></clipPath><clipPath id="aed69c0b11"><path d="M 22 24 L 55 24 L 55 29 L 22 29 Z M 22 24 " clip-rule="nonzero"/></clipPath><clipPath id="97456ffb05"><path d="M 27.320312 0 L 56.558594 6.710938 L 51.527344 28.640625 L 22.289062 21.929688 Z M 27.320312 0 " clip-rule="nonzero"/></clipPath><clipPath id="c201f0adec"><path d="M 50.992188 59.839844 L 15.171875 51.621094 L 27.082031 -0.28125 L 62.898438 7.9375 Z M 50.992188 59.839844 " clip-rule="nonzero"/></clipPath><clipPath id="5a0019c9b8"><path d="M 24 23 L 54 23 L 54 29 L 24 29 Z M 24 23 " clip-rule="nonzero"/></clipPath><clipPath id="f9c8d03934"><path d="M 27.320312 0 L 56.558594 6.710938 L 51.527344 28.640625 L 22.289062 21.929688 Z M 27.320312 0 " clip-rule="nonzero"/></clipPath><clipPath id="56b42f4bf7"><path d="M 50.992188 59.839844 L 15.171875 51.621094 L 27.082031 -0.28125 L 62.898438 7.9375 Z M 50.992188 59.839844 " clip-rule="nonzero"/></clipPath><clipPath id="f233c66430"><path d="M 24 8 L 54 8 L 54 23 L 24 23 Z M 24 8 " clip-rule="nonzero"/></clipPath><clipPath id="d6ed719858"><path d="M 27.320312 0 L 56.558594 6.710938 L 51.527344 28.640625 L 22.289062 21.929688 Z M 27.320312 0 " clip-rule="nonzero"/></clipPath><clipPath id="f48f2ee49d"><path d="M 50.992188 59.839844 L 15.171875 51.621094 L 27.082031 -0.28125 L 62.898438 7.9375 Z M 50.992188 59.839844 " clip-rule="nonzero"/></clipPath><clipPath id="dde038a162"><path d="M 35 20 L 46 20 L 46 24 L 35 24 Z M 35 20 " clip-rule="nonzero"/></clipPath><clipPath id="89f584a7c5"><path d="M 27.320312 0 L 56.558594 6.710938 L 51.527344 28.640625 L 22.289062 21.929688 Z M 27.320312 0 " clip-rule="nonzero"/></clipPath><clipPath id="dd47761bc1"><path d="M 50.992188 59.839844 L 15.171875 51.621094 L 27.082031 -0.28125 L 62.898438 7.9375 Z M 50.992188 59.839844 " clip-rule="nonzero"/></clipPath><clipPath id="d38160bdad"><path d="M 31 2 L 40 2 L 40 10 L 31 10 Z M 31 2 " clip-rule="nonzero"/></clipPath><clipPath id="0221051908"><path d="M 27.320312 0 L 56.558594 6.710938 L 51.527344 28.640625 L 22.289062 21.929688 Z M 27.320312 0 " clip-rule="nonzero"/></clipPath><clipPath id="9fa0c95f0a"><path d="M 50.992188 59.839844 L 15.171875 51.621094 L 27.082031 -0.28125 L 62.898438 7.9375 Z M 50.992188 59.839844 " clip-rule="nonzero"/></clipPath></defs><g clip-path="url(#c9ab621b14)"><path fill="#000000" d="M 24.535156 35.3125 L 24.535156 75.886719 C 27.664062 68.066406 32.433594 61.613281 38.375 56.125 C 38.785156 55.75 39.195312 55.378906 39.617188 55.015625 C 47.507812 48.105469 58.441406 43.15625 56.71875 30.640625 C 64.136719 37.214844 61.851562 45.292969 56.753906 52.109375 C 56.484375 52.472656 56.214844 52.832031 55.957031 53.207031 C 55.253906 54.164062 54.585938 55.144531 53.941406 56.125 C 52.746094 57.945312 51.632812 59.789062 50.625 61.703125 C 46.089844 70.261719 42.480469 81.65625 53.566406 87.28125 C 61.417969 91.261719 70.617188 85.671875 71.0625 77.089844 C 71.320312 72.164062 68.730469 67.902344 63.527344 64.273438 C 79.511719 64.496094 85.347656 81.175781 75.679688 92.464844 C 73.558594 94.941406 71.015625 96.773438 68.097656 98.054688 C 46.617188 107.523438 28.554688 85.074219 42.480469 62.464844 C 22.566406 77.90625 34.554688 108.164062 60.878906 108.164062 C 76.980469 108.164062 90.023438 95.769531 90.023438 80.488281 C 90.023438 69.257812 82.980469 59.59375 72.867188 55.25 C 78.621094 53.183594 82.757812 47.683594 82.757812 41.277344 C 82.757812 33.105469 76.042969 26.414062 67.839844 26.414062 L 32.140625 26.414062 C 25.636719 26.414062 24.535156 29.929688 24.535156 35.3125 Z M 24.535156 35.3125 " fill-opacity="1" fill-rule="evenodd"/></g><g clip-path="url(#bf7c69b98a)"><g clip-path="url(#65daea6030)"><g clip-path="url(#b759cf463e)"><path fill="#000000" d="M 53.574219 24.121094 C 53.574219 24.121094 53.699219 24.332031 53.929688 24.734375 C 53.945312 24.761719 53.960938 24.785156 53.976562 24.8125 C 53.992188 24.839844 54.007812 24.867188 54.023438 24.894531 C 54.050781 24.953125 54.082031 25.015625 54.117188 25.078125 C 54.183594 25.207031 54.253906 25.347656 54.332031 25.496094 C 54.351562 25.535156 54.371094 25.574219 54.390625 25.613281 C 54.410156 25.652344 54.429688 25.695312 54.445312 25.734375 C 54.484375 25.816406 54.523438 25.902344 54.566406 25.992188 C 54.605469 26.078125 54.648438 26.171875 54.691406 26.265625 C 54.710938 26.3125 54.734375 26.359375 54.753906 26.410156 C 54.773438 26.457031 54.796875 26.507812 54.816406 26.558594 C 54.898438 26.761719 54.984375 26.976562 55.074219 27.203125 C 55.152344 27.429688 55.238281 27.671875 55.324219 27.921875 C 55.335938 27.953125 55.347656 27.984375 55.359375 28.015625 C 55.367188 28.046875 55.378906 28.082031 55.386719 28.113281 C 55.40625 28.175781 55.425781 28.242188 55.449219 28.308594 C 55.488281 28.441406 55.527344 28.578125 55.570312 28.714844 C 55.613281 28.851562 55.644531 28.992188 55.683594 29.136719 C 55.71875 29.28125 55.757812 29.429688 55.792969 29.578125 C 55.832031 29.726562 55.863281 29.882812 55.894531 30.039062 C 55.925781 30.195312 55.957031 30.351562 55.992188 30.515625 C 56.007812 30.59375 56.019531 30.675781 56.035156 30.757812 C 56.046875 30.839844 56.058594 30.921875 56.074219 31.007812 C 56.085938 31.089844 56.097656 31.175781 56.113281 31.257812 C 56.121094 31.300781 56.125 31.34375 56.132812 31.386719 C 56.140625 31.429688 56.148438 31.472656 56.152344 31.515625 C 56.171875 31.6875 56.191406 31.863281 56.210938 32.042969 C 56.21875 32.128906 56.230469 32.21875 56.238281 32.308594 C 56.246094 32.355469 56.25 32.398438 56.25 32.445312 C 56.253906 32.492188 56.257812 32.535156 56.261719 32.582031 C 56.273438 32.765625 56.285156 32.949219 56.296875 33.136719 C 56.300781 33.183594 56.304688 33.230469 56.308594 33.277344 C 56.308594 33.324219 56.308594 33.371094 56.3125 33.417969 C 56.3125 33.515625 56.316406 33.609375 56.316406 33.707031 C 56.320312 33.800781 56.320312 33.898438 56.324219 33.996094 C 56.328125 34.09375 56.328125 34.191406 56.324219 34.289062 C 56.320312 34.484375 56.316406 34.683594 56.3125 34.882812 C 56.3125 34.933594 56.308594 34.980469 56.308594 35.03125 L 56.308594 35.109375 L 56.300781 35.183594 C 56.296875 35.285156 56.289062 35.386719 56.28125 35.488281 C 56.273438 35.589844 56.269531 35.691406 56.261719 35.792969 C 56.257812 35.84375 56.253906 35.898438 56.25 35.949219 L 56.246094 36.027344 L 56.234375 36.105469 C 56.214844 36.3125 56.191406 36.519531 56.167969 36.730469 C 56.160156 36.78125 56.15625 36.835938 56.148438 36.886719 L 56.140625 36.964844 L 56.125 37.046875 C 56.109375 37.152344 56.09375 37.257812 56.078125 37.363281 C 56.058594 37.46875 56.042969 37.574219 56.027344 37.683594 C 56.019531 37.738281 56.007812 37.789062 56 37.84375 L 55.996094 37.882812 C 55.992188 37.898438 55.996094 37.882812 55.988281 37.917969 L 55.984375 37.9375 L 55.96875 38.011719 C 55.949219 38.117188 55.929688 38.21875 55.910156 38.320312 L 55.894531 38.398438 C 55.890625 38.425781 55.886719 38.449219 55.878906 38.476562 C 55.867188 38.53125 55.855469 38.589844 55.839844 38.644531 C 55.816406 38.753906 55.792969 38.867188 55.765625 38.976562 C 55.753906 39.035156 55.742188 39.085938 55.726562 39.140625 C 55.714844 39.195312 55.699219 39.25 55.6875 39.304688 C 55.65625 39.414062 55.632812 39.523438 55.601562 39.632812 C 55.570312 39.742188 55.539062 39.851562 55.507812 39.964844 C 55.492188 40.019531 55.476562 40.074219 55.460938 40.128906 C 55.445312 40.183594 55.429688 40.238281 55.410156 40.292969 C 55.378906 40.402344 55.34375 40.511719 55.308594 40.625 C 55.273438 40.734375 55.234375 40.84375 55.199219 40.953125 C 55.160156 41.0625 55.125 41.175781 55.082031 41.285156 C 55.042969 41.394531 55 41.503906 54.960938 41.617188 C 54.941406 41.671875 54.921875 41.726562 54.898438 41.78125 C 54.875 41.835938 54.855469 41.890625 54.832031 41.945312 C 54.789062 42.054688 54.742188 42.167969 54.699219 42.277344 C 54.652344 42.386719 54.605469 42.496094 54.558594 42.605469 C 54.53125 42.660156 54.507812 42.714844 54.484375 42.769531 C 54.460938 42.824219 54.433594 42.878906 54.410156 42.933594 C 54.359375 43.042969 54.308594 43.152344 54.257812 43.265625 C 54.203125 43.375 54.152344 43.480469 54.097656 43.589844 C 54.042969 43.699219 53.988281 43.808594 53.929688 43.917969 C 53.027344 45.652344 51.839844 47.324219 50.410156 48.816406 C 50.320312 48.910156 50.230469 49 50.140625 49.09375 C 50.097656 49.140625 50.050781 49.1875 50.003906 49.230469 L 49.863281 49.367188 L 49.726562 49.503906 C 49.679688 49.546875 49.628906 49.589844 49.582031 49.636719 C 49.488281 49.722656 49.390625 49.8125 49.296875 49.902344 C 48.910156 50.246094 48.511719 50.585938 48.097656 50.910156 C 47.273438 51.550781 46.398438 52.140625 45.484375 52.664062 L 45.316406 52.761719 L 45.140625 52.855469 C 45.027344 52.917969 44.910156 52.980469 44.792969 53.042969 C 44.558594 53.164062 44.328125 53.285156 44.089844 53.398438 C 43.855469 53.511719 43.613281 53.617188 43.375 53.726562 C 43.253906 53.777344 43.132812 53.828125 43.011719 53.878906 L 42.828125 53.957031 L 42.648438 54.027344 C 41.671875 54.414062 40.671875 54.722656 39.664062 54.964844 C 37.648438 55.441406 35.601562 55.613281 33.640625 55.515625 C 33.519531 55.511719 33.394531 55.503906 33.273438 55.496094 C 33.152344 55.488281 33.03125 55.480469 32.910156 55.46875 C 32.667969 55.445312 32.425781 55.425781 32.1875 55.394531 C 31.710938 55.34375 31.238281 55.265625 30.777344 55.183594 C 30.660156 55.160156 30.546875 55.136719 30.429688 55.113281 C 30.375 55.101562 30.316406 55.089844 30.261719 55.078125 L 30.175781 55.0625 L 30.089844 55.042969 C 29.976562 55.015625 29.863281 54.988281 29.75 54.964844 C 29.695312 54.949219 29.636719 54.9375 29.582031 54.925781 C 29.527344 54.910156 29.472656 54.894531 29.414062 54.882812 C 29.304688 54.851562 29.195312 54.824219 29.085938 54.796875 L 29.03125 54.78125 L 28.992188 54.769531 L 28.914062 54.75 C 28.859375 54.734375 28.808594 54.71875 28.757812 54.703125 C 28.707031 54.6875 28.65625 54.675781 28.601562 54.660156 C 28.578125 54.652344 28.554688 54.644531 28.527344 54.636719 L 28.441406 54.609375 C 28.332031 54.578125 28.222656 54.542969 28.113281 54.507812 C 28.003906 54.476562 27.902344 54.4375 27.796875 54.402344 C 27.691406 54.367188 27.585938 54.332031 27.484375 54.296875 C 27.378906 54.257812 27.277344 54.21875 27.175781 54.183594 C 27.125 54.164062 27.074219 54.144531 27.023438 54.125 C 26.972656 54.105469 26.921875 54.085938 26.871094 54.066406 C 26.769531 54.023438 26.671875 53.984375 26.570312 53.945312 C 26.472656 53.90625 26.375 53.863281 26.277344 53.820312 C 26.226562 53.800781 26.179688 53.78125 26.128906 53.757812 C 26.082031 53.738281 26.03125 53.71875 25.984375 53.695312 C 25.890625 53.652344 25.792969 53.609375 25.699219 53.566406 C 24.941406 53.214844 24.234375 52.828125 23.574219 52.425781 C 22.261719 51.621094 21.160156 50.742188 20.261719 49.890625 C 19.363281 49.039062 18.667969 48.226562 18.136719 47.527344 C 17.609375 46.828125 17.242188 46.246094 17.003906 45.847656 C 16.882812 45.648438 16.796875 45.492188 16.738281 45.386719 C 16.679688 45.28125 16.652344 45.226562 16.652344 45.226562 C 16.652344 45.226562 16.695312 45.273438 16.777344 45.359375 C 16.859375 45.445312 16.980469 45.578125 17.140625 45.742188 C 17.464844 46.074219 17.941406 46.554688 18.582031 47.121094 C 19.21875 47.6875 20.019531 48.335938 20.988281 48.996094 C 21.957031 49.65625 23.097656 50.320312 24.390625 50.90625 C 25.039062 51.199219 25.722656 51.472656 26.445312 51.714844 C 26.535156 51.742188 26.625 51.773438 26.71875 51.804688 C 26.808594 51.835938 26.902344 51.859375 26.992188 51.890625 C 27.085938 51.917969 27.175781 51.949219 27.269531 51.976562 C 27.363281 52 27.457031 52.027344 27.550781 52.054688 C 27.597656 52.070312 27.644531 52.082031 27.691406 52.09375 C 27.742188 52.109375 27.789062 52.121094 27.835938 52.132812 C 27.929688 52.15625 28.027344 52.183594 28.121094 52.207031 C 28.21875 52.230469 28.316406 52.253906 28.414062 52.277344 C 28.511719 52.300781 28.609375 52.324219 28.703125 52.34375 C 28.800781 52.367188 28.894531 52.386719 28.992188 52.40625 L 29.0625 52.421875 L 29.140625 52.4375 C 29.191406 52.449219 29.246094 52.457031 29.296875 52.46875 C 29.351562 52.480469 29.402344 52.488281 29.457031 52.5 L 29.574219 52.523438 C 29.554688 52.519531 29.582031 52.523438 29.582031 52.523438 L 29.601562 52.527344 C 29.703125 52.542969 29.800781 52.558594 29.902344 52.578125 C 29.953125 52.585938 30.003906 52.59375 30.054688 52.605469 C 30.105469 52.613281 30.15625 52.617188 30.210938 52.625 C 30.3125 52.640625 30.414062 52.65625 30.515625 52.671875 L 30.59375 52.683594 L 30.671875 52.691406 C 30.722656 52.699219 30.773438 52.703125 30.828125 52.710938 C 30.929688 52.722656 31.035156 52.738281 31.136719 52.75 C 31.242188 52.757812 31.347656 52.769531 31.453125 52.777344 C 31.503906 52.785156 31.558594 52.789062 31.609375 52.792969 C 31.664062 52.796875 31.714844 52.800781 31.769531 52.804688 C 31.875 52.8125 31.980469 52.820312 32.085938 52.832031 C 32.191406 52.835938 32.296875 52.84375 32.402344 52.847656 C 32.828125 52.871094 33.261719 52.875 33.691406 52.875 C 35.425781 52.855469 37.207031 52.621094 38.953125 52.15625 C 39.386719 52.039062 39.824219 51.914062 40.253906 51.765625 C 40.363281 51.730469 40.46875 51.691406 40.574219 51.652344 C 40.683594 51.613281 40.789062 51.578125 40.898438 51.535156 C 41.003906 51.496094 41.109375 51.453125 41.214844 51.414062 C 41.320312 51.371094 41.425781 51.328125 41.53125 51.285156 L 41.691406 51.222656 L 41.847656 51.152344 C 41.953125 51.109375 42.058594 51.0625 42.164062 51.015625 C 42.371094 50.917969 42.578125 50.828125 42.785156 50.722656 C 42.988281 50.625 43.191406 50.519531 43.394531 50.414062 C 43.496094 50.359375 43.597656 50.304688 43.695312 50.25 L 43.847656 50.167969 L 43.996094 50.082031 C 44.792969 49.628906 45.554688 49.121094 46.285156 48.570312 C 46.375 48.5 46.464844 48.433594 46.554688 48.363281 C 46.644531 48.292969 46.730469 48.21875 46.820312 48.148438 C 47 48.007812 47.171875 47.859375 47.34375 47.714844 C 47.429688 47.636719 47.515625 47.5625 47.597656 47.488281 C 47.640625 47.449219 47.683594 47.414062 47.726562 47.375 L 47.851562 47.257812 C 47.933594 47.179688 48.015625 47.105469 48.097656 47.027344 C 48.179688 46.949219 48.261719 46.871094 48.339844 46.792969 C 48.660156 46.472656 48.972656 46.152344 49.269531 45.816406 L 49.382812 45.691406 L 49.492188 45.566406 C 49.566406 45.480469 49.636719 45.394531 49.710938 45.3125 C 49.78125 45.222656 49.851562 45.136719 49.921875 45.050781 C 49.957031 45.007812 49.992188 44.96875 50.027344 44.921875 L 50.128906 44.792969 C 50.402344 44.445312 50.660156 44.089844 50.910156 43.730469 C 51.03125 43.546875 51.160156 43.367188 51.273438 43.183594 C 51.332031 43.09375 51.394531 43 51.449219 42.910156 C 51.503906 42.816406 51.5625 42.722656 51.617188 42.632812 C 52.066406 41.890625 52.453125 41.132812 52.796875 40.371094 C 52.84375 40.277344 52.882812 40.179688 52.921875 40.085938 C 52.964844 39.988281 53.007812 39.894531 53.042969 39.800781 C 53.082031 39.703125 53.121094 39.609375 53.160156 39.511719 C 53.179688 39.464844 53.199219 39.417969 53.21875 39.371094 C 53.234375 39.320312 53.253906 39.273438 53.273438 39.226562 C 53.308594 39.128906 53.34375 39.035156 53.378906 38.9375 C 53.414062 38.84375 53.445312 38.746094 53.480469 38.652344 C 53.511719 38.554688 53.550781 38.460938 53.578125 38.367188 C 53.609375 38.273438 53.640625 38.179688 53.667969 38.085938 C 53.683594 38.042969 53.699219 37.996094 53.714844 37.949219 C 53.722656 37.925781 53.730469 37.898438 53.738281 37.875 L 53.757812 37.800781 C 53.789062 37.699219 53.820312 37.597656 53.847656 37.5 L 53.871094 37.421875 L 53.875 37.40625 C 53.871094 37.425781 53.875 37.398438 53.875 37.398438 L 53.886719 37.363281 C 53.898438 37.316406 53.910156 37.269531 53.921875 37.222656 C 53.949219 37.125 53.972656 37.03125 54 36.9375 C 54.023438 36.84375 54.046875 36.75 54.074219 36.65625 L 54.09375 36.585938 L 54.109375 36.515625 C 54.117188 36.46875 54.128906 36.421875 54.136719 36.375 C 54.179688 36.1875 54.222656 36 54.261719 35.8125 C 54.40625 35.070312 54.53125 34.34375 54.59375 33.640625 C 54.605469 33.550781 54.613281 33.464844 54.621094 33.375 C 54.628906 33.332031 54.632812 33.289062 54.636719 33.246094 C 54.640625 33.203125 54.640625 33.160156 54.644531 33.113281 C 54.65625 32.941406 54.667969 32.769531 54.679688 32.601562 C 54.679688 32.558594 54.683594 32.515625 54.6875 32.472656 C 54.691406 32.433594 54.691406 32.390625 54.695312 32.347656 C 54.695312 32.265625 54.699219 32.179688 54.699219 32.097656 C 54.703125 31.929688 54.710938 31.765625 54.714844 31.605469 C 54.714844 31.5625 54.714844 31.523438 54.714844 31.480469 C 54.714844 31.441406 54.714844 31.402344 54.714844 31.363281 C 54.710938 31.28125 54.710938 31.203125 54.710938 31.121094 C 54.710938 31.042969 54.710938 30.964844 54.707031 30.886719 C 54.707031 30.808594 54.710938 30.730469 54.703125 30.652344 C 54.695312 30.496094 54.691406 30.34375 54.683594 30.195312 C 54.675781 30.046875 54.671875 29.894531 54.65625 29.75 C 54.644531 29.605469 54.632812 29.460938 54.621094 29.320312 C 54.609375 29.179688 54.601562 29.039062 54.582031 28.90625 C 54.566406 28.769531 54.550781 28.636719 54.53125 28.503906 C 54.523438 28.4375 54.519531 28.375 54.511719 28.308594 C 54.507812 28.277344 54.503906 28.246094 54.5 28.210938 C 54.492188 28.179688 54.488281 28.148438 54.484375 28.117188 C 54.445312 27.867188 54.40625 27.625 54.371094 27.394531 C 54.324219 27.164062 54.285156 26.941406 54.242188 26.734375 C 54.234375 26.683594 54.222656 26.628906 54.214844 26.578125 C 54.203125 26.527344 54.191406 26.476562 54.179688 26.429688 C 54.15625 26.332031 54.136719 26.234375 54.113281 26.144531 C 54.09375 26.050781 54.074219 25.960938 54.054688 25.871094 C 54.042969 25.828125 54.035156 25.785156 54.023438 25.746094 C 54.011719 25.703125 54.003906 25.660156 53.992188 25.621094 C 53.949219 25.460938 53.910156 25.3125 53.875 25.175781 C 53.855469 25.109375 53.839844 25.042969 53.824219 24.980469 C 53.816406 24.949219 53.808594 24.917969 53.796875 24.890625 C 53.789062 24.859375 53.78125 24.832031 53.773438 24.804688 C 53.640625 24.359375 53.574219 24.121094 53.574219 24.121094 " fill-opacity="1" fill-rule="nonzero"/></g></g></g><g clip-path="url(#aed69c0b11)"><g clip-path="url(#97456ffb05)"><g clip-path="url(#c201f0adec)"><path fill="#000000" d="M 53.234375 24.042969 C 53.234375 24.042969 53.316406 24.238281 53.464844 24.605469 C 53.484375 24.652344 53.507812 24.699219 53.523438 24.75 C 53.542969 24.800781 53.5625 24.859375 53.582031 24.914062 C 53.625 25.03125 53.667969 25.15625 53.71875 25.292969 C 53.730469 25.328125 53.742188 25.363281 53.753906 25.398438 C 53.765625 25.4375 53.777344 25.472656 53.785156 25.507812 C 53.808594 25.582031 53.832031 25.660156 53.855469 25.738281 C 53.878906 25.820312 53.90625 25.902344 53.929688 25.988281 C 53.941406 26.03125 53.953125 26.074219 53.96875 26.117188 C 53.980469 26.160156 53.988281 26.207031 54 26.25 C 54.046875 26.433594 54.09375 26.625 54.144531 26.828125 C 54.183594 27.027344 54.226562 27.242188 54.269531 27.464844 C 54.277344 27.492188 54.28125 27.519531 54.289062 27.550781 C 54.292969 27.578125 54.296875 27.605469 54.300781 27.632812 C 54.308594 27.691406 54.320312 27.75 54.328125 27.808594 C 54.34375 27.925781 54.363281 28.042969 54.382812 28.164062 C 54.402344 28.289062 54.414062 28.410156 54.425781 28.539062 C 54.441406 28.664062 54.453125 28.792969 54.46875 28.925781 C 54.484375 29.058594 54.488281 29.191406 54.496094 29.328125 C 54.503906 29.464844 54.511719 29.601562 54.519531 29.742188 C 54.527344 29.8125 54.523438 29.882812 54.527344 29.953125 C 54.527344 30.027344 54.527344 30.097656 54.53125 30.171875 C 54.53125 30.316406 54.535156 30.460938 54.535156 30.613281 C 54.527344 30.761719 54.523438 30.910156 54.519531 31.066406 C 54.515625 31.140625 54.515625 31.21875 54.511719 31.296875 C 54.511719 31.335938 54.507812 31.375 54.503906 31.414062 C 54.5 31.453125 54.5 31.492188 54.496094 31.53125 C 54.484375 31.6875 54.472656 31.84375 54.457031 32.003906 C 54.457031 32.042969 54.453125 32.085938 54.449219 32.125 C 54.445312 32.164062 54.4375 32.207031 54.433594 32.246094 C 54.421875 32.328125 54.414062 32.410156 54.402344 32.488281 C 54.394531 32.570312 54.382812 32.652344 54.375 32.738281 C 54.363281 32.820312 54.351562 32.902344 54.339844 32.984375 C 54.308594 33.152344 54.28125 33.320312 54.253906 33.488281 C 54.246094 33.53125 54.238281 33.574219 54.230469 33.617188 L 54.207031 33.742188 C 54.1875 33.828125 54.167969 33.914062 54.152344 34 C 54.132812 34.085938 54.113281 34.171875 54.09375 34.257812 C 54.085938 34.300781 54.074219 34.34375 54.066406 34.386719 L 54.050781 34.453125 L 54.035156 34.515625 C 53.988281 34.6875 53.945312 34.863281 53.898438 35.039062 C 53.886719 35.082031 53.875 35.125 53.863281 35.171875 L 53.84375 35.238281 L 53.824219 35.300781 C 53.796875 35.390625 53.769531 35.476562 53.742188 35.566406 C 53.710938 35.652344 53.683594 35.742188 53.65625 35.832031 C 53.644531 35.875 53.628906 35.917969 53.613281 35.964844 L 53.605469 36 C 53.601562 36.007812 53.605469 35.996094 53.59375 36.027344 L 53.589844 36.042969 L 53.566406 36.105469 C 53.535156 36.1875 53.507812 36.273438 53.476562 36.359375 L 53.453125 36.421875 C 53.445312 36.441406 53.441406 36.460938 53.429688 36.484375 C 53.414062 36.53125 53.398438 36.578125 53.378906 36.621094 C 53.34375 36.714844 53.308594 36.804688 53.273438 36.898438 C 53.253906 36.945312 53.234375 36.988281 53.21875 37.03125 C 53.199219 37.078125 53.179688 37.121094 53.160156 37.167969 C 53.125 37.253906 53.085938 37.347656 53.046875 37.433594 C 53.007812 37.523438 52.96875 37.613281 52.925781 37.703125 C 52.90625 37.746094 52.886719 37.792969 52.867188 37.835938 C 52.84375 37.882812 52.824219 37.925781 52.800781 37.972656 C 52.757812 38.058594 52.714844 38.148438 52.671875 38.238281 C 52.628906 38.328125 52.582031 38.417969 52.535156 38.503906 C 52.488281 38.59375 52.445312 38.683594 52.394531 38.773438 C 52.296875 38.949219 52.203125 39.128906 52.097656 39.304688 C 52.046875 39.390625 51.992188 39.480469 51.941406 39.566406 C 51.886719 39.652344 51.832031 39.742188 51.777344 39.828125 C 51.75 39.871094 51.722656 39.914062 51.695312 39.960938 C 51.667969 40.003906 51.640625 40.046875 51.609375 40.089844 C 51.554688 40.175781 51.496094 40.261719 51.4375 40.347656 C 51.378906 40.4375 51.320312 40.523438 51.257812 40.605469 C 51.199219 40.691406 51.140625 40.777344 51.074219 40.863281 C 50.082031 42.222656 48.855469 43.492188 47.441406 44.574219 C 47.351562 44.640625 47.265625 44.707031 47.175781 44.777344 C 47.085938 44.84375 46.992188 44.90625 46.902344 44.972656 L 46.765625 45.066406 C 46.722656 45.101562 46.675781 45.132812 46.628906 45.164062 C 46.535156 45.226562 46.441406 45.289062 46.347656 45.351562 C 45.972656 45.597656 45.589844 45.832031 45.195312 46.050781 C 44.40625 46.488281 43.585938 46.875 42.738281 47.199219 L 42.578125 47.261719 L 42.421875 47.316406 C 42.3125 47.355469 42.207031 47.394531 42.097656 47.429688 C 41.882812 47.5 41.667969 47.574219 41.453125 47.636719 C 41.234375 47.703125 41.015625 47.761719 40.800781 47.824219 C 40.691406 47.851562 40.578125 47.878906 40.46875 47.90625 L 40.304688 47.945312 L 40.140625 47.980469 C 39.257812 48.179688 38.367188 48.308594 37.476562 48.378906 C 35.699219 48.515625 33.929688 48.382812 32.277344 48.035156 C 32.175781 48.011719 32.074219 47.988281 31.96875 47.964844 C 31.867188 47.941406 31.765625 47.921875 31.664062 47.894531 C 31.460938 47.839844 31.257812 47.789062 31.0625 47.730469 C 30.664062 47.621094 30.273438 47.492188 29.890625 47.355469 C 29.796875 47.324219 29.703125 47.285156 29.609375 47.25 C 29.5625 47.234375 29.515625 47.214844 29.46875 47.199219 L 29.328125 47.144531 C 29.234375 47.105469 29.144531 47.070312 29.050781 47.03125 C 29.007812 47.011719 28.960938 46.996094 28.914062 46.976562 C 28.867188 46.953125 28.824219 46.933594 28.777344 46.914062 C 28.6875 46.875 28.597656 46.835938 28.507812 46.796875 L 28.492188 46.789062 C 28.480469 46.785156 28.492188 46.789062 28.464844 46.777344 L 28.433594 46.761719 L 28.371094 46.734375 C 28.328125 46.714844 28.285156 46.695312 28.246094 46.675781 C 28.203125 46.652344 28.164062 46.636719 28.121094 46.617188 L 28.058594 46.585938 L 27.992188 46.550781 C 27.902344 46.507812 27.816406 46.464844 27.726562 46.417969 C 27.636719 46.375 27.554688 46.328125 27.472656 46.285156 C 27.386719 46.242188 27.304688 46.195312 27.222656 46.152344 C 27.140625 46.105469 27.058594 46.058594 26.976562 46.011719 C 26.933594 45.988281 26.894531 45.964844 26.855469 45.941406 C 26.8125 45.917969 26.773438 45.894531 26.734375 45.871094 C 26.65625 45.824219 26.574219 45.777344 26.496094 45.726562 C 26.417969 45.679688 26.339844 45.628906 26.265625 45.582031 C 26.1875 45.53125 26.109375 45.484375 26.035156 45.433594 C 25.960938 45.382812 25.886719 45.335938 25.808594 45.285156 C 25.21875 44.882812 24.671875 44.457031 24.171875 44.023438 C 23.175781 43.15625 22.367188 42.257812 21.734375 41.410156 C 21.097656 40.566406 20.625 39.777344 20.28125 39.109375 C 19.9375 38.445312 19.714844 37.902344 19.574219 37.53125 C 19.503906 37.347656 19.457031 37.199219 19.421875 37.105469 C 19.390625 37.007812 19.371094 36.957031 19.371094 36.957031 C 19.371094 36.957031 19.402344 37 19.460938 37.082031 C 19.523438 37.167969 19.609375 37.289062 19.726562 37.449219 C 19.960938 37.765625 20.3125 38.226562 20.78125 38.777344 C 21.253906 39.328125 21.855469 39.972656 22.589844 40.640625 C 23.324219 41.308594 24.199219 42 25.214844 42.648438 C 25.722656 42.96875 26.261719 43.28125 26.835938 43.570312 C 26.980469 43.644531 27.125 43.714844 27.269531 43.785156 C 27.34375 43.820312 27.417969 43.855469 27.492188 43.890625 C 27.566406 43.921875 27.644531 43.957031 27.71875 43.992188 C 27.757812 44.007812 27.792969 44.023438 27.832031 44.042969 C 27.871094 44.058594 27.910156 44.074219 27.945312 44.089844 C 28.023438 44.121094 28.101562 44.15625 28.175781 44.1875 C 28.253906 44.21875 28.332031 44.25 28.410156 44.28125 C 28.488281 44.3125 28.570312 44.347656 28.644531 44.375 C 28.722656 44.402344 28.796875 44.429688 28.875 44.460938 L 28.933594 44.480469 L 28.996094 44.503906 C 29.039062 44.519531 29.082031 44.535156 29.125 44.550781 C 29.167969 44.5625 29.210938 44.578125 29.257812 44.59375 L 29.351562 44.628906 C 29.332031 44.621094 29.355469 44.628906 29.355469 44.628906 L 29.371094 44.632812 C 29.453125 44.660156 29.535156 44.6875 29.617188 44.714844 C 29.78125 44.769531 29.949219 44.816406 30.117188 44.867188 L 30.179688 44.886719 L 30.246094 44.90625 C 30.285156 44.917969 30.328125 44.929688 30.371094 44.941406 C 30.457031 44.960938 30.542969 44.988281 30.625 45.007812 C 30.710938 45.03125 30.796875 45.050781 30.886719 45.074219 C 30.925781 45.085938 30.96875 45.09375 31.015625 45.105469 C 31.058594 45.117188 31.101562 45.125 31.144531 45.136719 C 31.230469 45.15625 31.320312 45.175781 31.40625 45.195312 C 31.492188 45.214844 31.582031 45.230469 31.667969 45.25 C 32.023438 45.320312 32.378906 45.378906 32.742188 45.429688 C 34.1875 45.632812 35.695312 45.660156 37.207031 45.496094 C 37.585938 45.453125 37.964844 45.40625 38.339844 45.335938 C 38.433594 45.320312 38.527344 45.300781 38.621094 45.285156 C 38.714844 45.265625 38.808594 45.25 38.902344 45.230469 C 38.996094 45.207031 39.089844 45.1875 39.183594 45.167969 C 39.277344 45.148438 39.371094 45.125 39.464844 45.101562 L 39.605469 45.070312 L 39.742188 45.03125 C 39.835938 45.007812 39.929688 44.984375 40.023438 44.960938 C 40.207031 44.90625 40.390625 44.855469 40.574219 44.796875 C 40.761719 44.742188 40.941406 44.679688 41.125 44.617188 L 41.394531 44.519531 L 41.53125 44.472656 L 41.667969 44.421875 C 42.386719 44.148438 43.085938 43.824219 43.765625 43.464844 L 44.015625 43.324219 C 44.101562 43.28125 44.183594 43.230469 44.265625 43.183594 C 44.433594 43.089844 44.59375 42.988281 44.757812 42.890625 C 45.082031 42.6875 45.398438 42.476562 45.707031 42.257812 C 46.015625 42.035156 46.320312 41.808594 46.609375 41.570312 L 46.828125 41.390625 C 46.898438 41.328125 46.972656 41.269531 47.042969 41.207031 C 47.113281 41.144531 47.183594 41.082031 47.253906 41.019531 C 47.289062 40.988281 47.324219 40.960938 47.359375 40.929688 L 47.460938 40.832031 C 47.738281 40.582031 48 40.320312 48.253906 40.054688 C 48.378906 39.917969 48.507812 39.789062 48.628906 39.648438 C 48.691406 39.582031 48.753906 39.515625 48.8125 39.445312 C 48.871094 39.375 48.929688 39.308594 48.988281 39.238281 C 49.460938 38.683594 49.886719 38.105469 50.277344 37.519531 C 50.328125 37.445312 50.375 37.371094 50.421875 37.296875 C 50.46875 37.222656 50.515625 37.152344 50.5625 37.078125 C 50.609375 37 50.652344 36.929688 50.699219 36.855469 C 50.722656 36.816406 50.742188 36.78125 50.765625 36.742188 C 50.789062 36.707031 50.808594 36.667969 50.832031 36.628906 C 50.875 36.554688 50.917969 36.480469 50.960938 36.40625 C 51.003906 36.332031 51.042969 36.253906 51.082031 36.179688 C 51.125 36.105469 51.167969 36.03125 51.207031 35.957031 C 51.242188 35.882812 51.28125 35.8125 51.320312 35.738281 C 51.335938 35.703125 51.355469 35.667969 51.375 35.628906 C 51.382812 35.613281 51.394531 35.589844 51.40625 35.570312 L 51.433594 35.511719 C 51.472656 35.429688 51.511719 35.351562 51.550781 35.269531 L 51.578125 35.210938 L 51.585938 35.195312 C 51.578125 35.214844 51.585938 35.191406 51.585938 35.195312 L 51.597656 35.164062 C 51.617188 35.128906 51.632812 35.089844 51.652344 35.050781 C 51.683594 34.976562 51.71875 34.902344 51.753906 34.824219 C 51.785156 34.75 51.820312 34.675781 51.855469 34.601562 L 51.878906 34.542969 L 51.902344 34.488281 C 51.917969 34.449219 51.933594 34.414062 51.949219 34.375 C 52.007812 34.222656 52.070312 34.074219 52.128906 33.925781 C 52.351562 33.328125 52.558594 32.738281 52.710938 32.160156 C 52.730469 32.085938 52.75 32.015625 52.773438 31.945312 C 52.78125 31.90625 52.792969 31.871094 52.800781 31.835938 C 52.8125 31.800781 52.820312 31.765625 52.828125 31.730469 C 52.863281 31.585938 52.894531 31.445312 52.929688 31.304688 C 52.9375 31.269531 52.945312 31.234375 52.953125 31.199219 C 52.960938 31.164062 52.972656 31.128906 52.976562 31.09375 C 52.992188 31.027344 53.003906 30.957031 53.019531 30.886719 C 53.046875 30.75 53.074219 30.613281 53.101562 30.476562 C 53.125 30.339844 53.144531 30.207031 53.164062 30.074219 C 53.175781 30.007812 53.1875 29.941406 53.199219 29.875 C 53.207031 29.8125 53.222656 29.746094 53.226562 29.679688 C 53.242188 29.550781 53.257812 29.421875 53.273438 29.296875 C 53.289062 29.167969 53.308594 29.042969 53.316406 28.921875 C 53.328125 28.796875 53.339844 28.675781 53.347656 28.554688 C 53.359375 28.4375 53.371094 28.320312 53.375 28.203125 C 53.382812 28.085938 53.386719 27.972656 53.394531 27.859375 C 53.398438 27.804688 53.398438 27.75 53.402344 27.695312 C 53.40625 27.664062 53.40625 27.636719 53.40625 27.609375 C 53.40625 27.582031 53.40625 27.558594 53.410156 27.53125 C 53.414062 27.3125 53.414062 27.105469 53.417969 26.90625 C 53.414062 26.707031 53.414062 26.515625 53.410156 26.335938 C 53.410156 26.289062 53.40625 26.246094 53.40625 26.199219 C 53.40625 26.15625 53.402344 26.113281 53.402344 26.070312 C 53.394531 25.984375 53.390625 25.902344 53.386719 25.820312 C 53.382812 25.738281 53.378906 25.660156 53.375 25.585938 C 53.375 25.546875 53.371094 25.511719 53.371094 25.472656 C 53.367188 25.4375 53.363281 25.402344 53.359375 25.367188 C 53.351562 25.226562 53.339844 25.09375 53.328125 24.976562 C 53.324219 24.914062 53.320312 24.855469 53.316406 24.800781 C 53.3125 24.746094 53.304688 24.695312 53.300781 24.644531 C 53.253906 24.253906 53.234375 24.042969 53.234375 24.042969 " fill-opacity="1" fill-rule="nonzero"/></g></g></g><g clip-path="url(#5a0019c9b8)"><g clip-path="url(#f9c8d03934)"><g clip-path="url(#56b42f4bf7)"><path fill="#000000" d="M 52.957031 23.941406 C 52.957031 23.941406 52.996094 24.101562 53.058594 24.40625 C 53.074219 24.484375 53.085938 24.570312 53.101562 24.664062 C 53.117188 24.757812 53.132812 24.863281 53.148438 24.976562 C 53.152344 25.003906 53.15625 25.035156 53.160156 25.0625 C 53.164062 25.089844 53.167969 25.121094 53.167969 25.152344 C 53.175781 25.210938 53.183594 25.277344 53.1875 25.339844 C 53.195312 25.40625 53.203125 25.472656 53.207031 25.542969 C 53.210938 25.574219 53.214844 25.609375 53.21875 25.648438 C 53.21875 25.683594 53.222656 25.71875 53.222656 25.753906 C 53.230469 25.902344 53.238281 26.058594 53.246094 26.21875 C 53.246094 26.382812 53.246094 26.554688 53.246094 26.730469 C 53.246094 26.820312 53.238281 26.910156 53.238281 27.003906 C 53.230469 27.097656 53.226562 27.191406 53.222656 27.289062 C 53.21875 27.386719 53.210938 27.484375 53.199219 27.585938 C 53.191406 27.683594 53.179688 27.785156 53.171875 27.890625 C 53.160156 27.992188 53.144531 28.097656 53.128906 28.203125 C 53.113281 28.308594 53.097656 28.417969 53.082031 28.527344 C 53.074219 28.582031 53.0625 28.636719 53.054688 28.691406 C 53.042969 28.75 53.03125 28.804688 53.023438 28.859375 C 53 28.972656 52.980469 29.085938 52.953125 29.199219 C 52.925781 29.316406 52.902344 29.433594 52.871094 29.550781 C 52.855469 29.609375 52.84375 29.667969 52.828125 29.726562 C 52.8125 29.785156 52.796875 29.84375 52.777344 29.902344 C 52.746094 30.023438 52.710938 30.144531 52.671875 30.265625 C 52.664062 30.296875 52.65625 30.328125 52.644531 30.359375 C 52.636719 30.386719 52.625 30.417969 52.617188 30.449219 C 52.59375 30.507812 52.574219 30.570312 52.554688 30.632812 C 52.53125 30.691406 52.511719 30.753906 52.488281 30.816406 C 52.46875 30.878906 52.445312 30.941406 52.421875 31.003906 C 52.375 31.128906 52.324219 31.253906 52.273438 31.378906 C 52.226562 31.507812 52.167969 31.632812 52.113281 31.757812 C 52.082031 31.820312 52.054688 31.882812 52.027344 31.949219 C 52.011719 31.980469 51.996094 32.011719 51.980469 32.042969 L 51.960938 32.09375 L 51.9375 32.140625 C 51.808594 32.390625 51.683594 32.652344 51.535156 32.902344 C 51.5 32.964844 51.464844 33.03125 51.425781 33.09375 C 51.410156 33.128906 51.390625 33.160156 51.371094 33.191406 L 51.359375 33.214844 C 51.351562 33.222656 51.363281 33.210938 51.34375 33.238281 L 51.335938 33.25 L 51.3125 33.292969 C 51.273438 33.351562 51.238281 33.410156 51.203125 33.472656 L 51.175781 33.515625 C 51.164062 33.53125 51.15625 33.546875 51.144531 33.5625 C 51.125 33.59375 51.101562 33.628906 51.082031 33.660156 C 51.039062 33.726562 50.996094 33.789062 50.953125 33.855469 C 50.929688 33.890625 50.910156 33.921875 50.886719 33.953125 C 50.867188 33.984375 50.84375 34.015625 50.820312 34.046875 C 50.777344 34.109375 50.734375 34.171875 50.6875 34.234375 C 50.640625 34.296875 50.597656 34.359375 50.550781 34.421875 C 50.527344 34.453125 50.503906 34.484375 50.480469 34.515625 C 50.457031 34.546875 50.433594 34.578125 50.410156 34.609375 C 50.359375 34.671875 50.3125 34.734375 50.261719 34.796875 C 50.214844 34.859375 50.164062 34.917969 50.113281 34.980469 C 50.0625 35.039062 50.011719 35.101562 49.957031 35.164062 C 49.851562 35.28125 49.75 35.40625 49.636719 35.523438 C 49.582031 35.582031 49.527344 35.644531 49.472656 35.703125 C 49.414062 35.761719 49.359375 35.820312 49.300781 35.878906 L 49.214844 35.964844 L 49.125 36.050781 C 49.066406 36.109375 49.007812 36.167969 48.949219 36.222656 C 48.890625 36.28125 48.828125 36.335938 48.765625 36.394531 C 48.703125 36.449219 48.644531 36.507812 48.578125 36.5625 C 47.578125 37.449219 46.40625 38.222656 45.117188 38.816406 C 45.039062 38.851562 44.957031 38.890625 44.878906 38.925781 C 44.796875 38.964844 44.714844 38.996094 44.632812 39.03125 C 44.46875 39.101562 44.300781 39.164062 44.136719 39.230469 C 43.800781 39.355469 43.460938 39.46875 43.117188 39.570312 C 42.429688 39.773438 41.722656 39.929688 41.007812 40.03125 L 40.875 40.050781 L 40.738281 40.066406 L 40.472656 40.097656 C 40.292969 40.113281 40.113281 40.132812 39.933594 40.144531 C 39.753906 40.15625 39.570312 40.164062 39.390625 40.171875 C 39.300781 40.171875 39.210938 40.175781 39.121094 40.175781 L 38.988281 40.179688 L 38.851562 40.175781 C 38.132812 40.175781 37.417969 40.113281 36.71875 40.007812 C 35.3125 39.792969 33.96875 39.371094 32.757812 38.800781 C 32.679688 38.765625 32.605469 38.730469 32.53125 38.691406 C 32.457031 38.65625 32.378906 38.621094 32.308594 38.582031 C 32.160156 38.503906 32.015625 38.425781 31.871094 38.34375 C 31.582031 38.1875 31.308594 38.015625 31.039062 37.839844 C 30.972656 37.796875 30.90625 37.753906 30.839844 37.707031 C 30.773438 37.664062 30.707031 37.621094 30.644531 37.574219 C 30.578125 37.527344 30.515625 37.480469 30.449219 37.4375 C 30.386719 37.390625 30.324219 37.34375 30.261719 37.296875 C 30.199219 37.25 30.136719 37.203125 30.078125 37.15625 L 30.054688 37.136719 C 30.003906 37.101562 30.035156 37.121094 30.019531 37.113281 L 30.011719 37.105469 L 29.96875 37.070312 C 29.941406 37.046875 29.914062 37.023438 29.886719 37 C 29.777344 36.910156 29.667969 36.820312 29.558594 36.730469 L 29.519531 36.695312 C 29.507812 36.683594 29.492188 36.671875 29.476562 36.65625 C 29.449219 36.632812 29.417969 36.605469 29.390625 36.578125 C 29.332031 36.527344 29.273438 36.476562 29.214844 36.421875 C 29.160156 36.371094 29.101562 36.320312 29.046875 36.269531 C 29.019531 36.242188 28.988281 36.214844 28.960938 36.191406 C 28.933594 36.164062 28.910156 36.136719 28.882812 36.113281 C 28.78125 36.007812 28.679688 35.902344 28.578125 35.800781 C 28.550781 35.773438 28.527344 35.75 28.5 35.722656 C 28.476562 35.699219 28.449219 35.671875 28.425781 35.644531 C 28.378906 35.59375 28.332031 35.539062 28.285156 35.484375 C 28.191406 35.378906 28.097656 35.273438 28.003906 35.171875 C 27.917969 35.066406 27.832031 34.957031 27.746094 34.851562 C 27.703125 34.796875 27.660156 34.746094 27.621094 34.691406 C 27.597656 34.664062 27.578125 34.640625 27.554688 34.613281 C 27.535156 34.585938 27.515625 34.558594 27.496094 34.53125 C 27.417969 34.425781 27.339844 34.316406 27.265625 34.210938 C 26.664062 33.359375 26.21875 32.515625 25.902344 31.746094 C 25.578125 30.976562 25.382812 30.285156 25.25 29.710938 C 25.1875 29.421875 25.132812 29.167969 25.101562 28.941406 C 25.070312 28.71875 25.039062 28.527344 25.03125 28.371094 C 25.003906 28.0625 24.992188 27.894531 24.992188 27.894531 C 24.992188 27.894531 25.066406 28.046875 25.199219 28.324219 C 25.230469 28.394531 25.265625 28.472656 25.308594 28.558594 C 25.351562 28.640625 25.398438 28.730469 25.449219 28.832031 C 25.5 28.929688 25.550781 29.035156 25.617188 29.144531 C 25.675781 29.257812 25.742188 29.375 25.8125 29.5 C 26.09375 29.988281 26.449219 30.566406 26.910156 31.183594 C 27.367188 31.804688 27.921875 32.457031 28.589844 33.097656 C 28.671875 33.179688 28.757812 33.257812 28.84375 33.339844 C 28.863281 33.359375 28.886719 33.378906 28.90625 33.402344 C 28.929688 33.421875 28.949219 33.441406 28.972656 33.460938 C 29.019531 33.5 29.0625 33.539062 29.109375 33.578125 C 29.199219 33.65625 29.289062 33.734375 29.378906 33.8125 C 29.476562 33.890625 29.570312 33.964844 29.667969 34.042969 C 29.714844 34.082031 29.761719 34.121094 29.8125 34.160156 C 29.835938 34.179688 29.859375 34.199219 29.882812 34.214844 C 29.910156 34.234375 29.933594 34.253906 29.960938 34.273438 C 30.058594 34.347656 30.160156 34.421875 30.261719 34.496094 C 30.289062 34.515625 30.3125 34.535156 30.339844 34.554688 C 30.363281 34.570312 30.390625 34.585938 30.414062 34.601562 C 30.464844 34.636719 30.515625 34.671875 30.566406 34.707031 C 30.617188 34.742188 30.667969 34.777344 30.722656 34.808594 C 30.746094 34.828125 30.773438 34.84375 30.796875 34.863281 C 30.808594 34.871094 30.820312 34.878906 30.835938 34.886719 L 30.882812 34.917969 C 31 34.992188 31.121094 35.066406 31.242188 35.140625 C 31.273438 35.160156 31.300781 35.179688 31.332031 35.199219 L 31.378906 35.226562 L 31.390625 35.234375 C 31.382812 35.230469 31.417969 35.253906 31.378906 35.226562 L 31.398438 35.238281 C 31.457031 35.269531 31.515625 35.304688 31.570312 35.335938 C 31.6875 35.40625 31.804688 35.464844 31.921875 35.53125 C 31.980469 35.5625 32.039062 35.59375 32.101562 35.625 C 32.160156 35.65625 32.21875 35.6875 32.277344 35.714844 C 32.339844 35.746094 32.398438 35.777344 32.460938 35.804688 L 32.554688 35.851562 L 32.644531 35.894531 C 32.707031 35.921875 32.769531 35.949219 32.832031 35.980469 C 32.894531 36.007812 32.957031 36.035156 33.019531 36.0625 C 33.269531 36.171875 33.527344 36.269531 33.789062 36.367188 C 34.832031 36.75 35.949219 37.015625 37.097656 37.140625 C 37.386719 37.167969 37.671875 37.195312 37.964844 37.207031 C 38.035156 37.214844 38.109375 37.214844 38.179688 37.214844 C 38.253906 37.21875 38.328125 37.222656 38.398438 37.222656 L 38.617188 37.222656 C 38.691406 37.222656 38.761719 37.222656 38.835938 37.222656 L 39.054688 37.214844 C 39.128906 37.214844 39.199219 37.210938 39.273438 37.207031 C 39.417969 37.199219 39.566406 37.195312 39.710938 37.179688 C 39.855469 37.171875 40.003906 37.152344 40.148438 37.140625 L 40.367188 37.113281 L 40.472656 37.101562 L 40.582031 37.085938 C 41.164062 37.003906 41.734375 36.882812 42.300781 36.734375 L 42.507812 36.671875 C 42.578125 36.65625 42.648438 36.632812 42.71875 36.609375 C 42.859375 36.570312 42.996094 36.523438 43.132812 36.480469 C 43.410156 36.382812 43.679688 36.28125 43.945312 36.171875 C 44.214844 36.0625 44.476562 35.949219 44.734375 35.820312 L 44.832031 35.773438 L 44.925781 35.726562 C 44.992188 35.695312 45.054688 35.664062 45.117188 35.628906 C 45.179688 35.597656 45.242188 35.5625 45.304688 35.527344 C 45.335938 35.511719 45.367188 35.496094 45.398438 35.476562 L 45.492188 35.425781 C 45.988281 35.148438 46.460938 34.84375 46.910156 34.515625 C 47.355469 34.1875 47.777344 33.835938 48.171875 33.472656 C 48.371094 33.289062 48.5625 33.101562 48.746094 32.914062 C 48.789062 32.867188 48.835938 32.816406 48.882812 32.769531 C 48.925781 32.722656 48.972656 32.671875 49.015625 32.625 C 49.058594 32.578125 49.105469 32.527344 49.144531 32.480469 C 49.1875 32.433594 49.230469 32.386719 49.269531 32.34375 C 49.289062 32.320312 49.3125 32.296875 49.332031 32.273438 C 49.339844 32.261719 49.351562 32.246094 49.363281 32.234375 L 49.398438 32.195312 C 49.441406 32.140625 49.484375 32.085938 49.53125 32.03125 L 49.5625 31.992188 L 49.570312 31.984375 C 49.558594 32 49.570312 31.984375 49.570312 31.984375 L 49.585938 31.964844 C 49.605469 31.941406 49.625 31.914062 49.644531 31.890625 C 49.683594 31.839844 49.722656 31.789062 49.761719 31.742188 C 49.800781 31.691406 49.839844 31.640625 49.878906 31.59375 L 49.910156 31.554688 L 49.9375 31.519531 C 49.953125 31.492188 49.972656 31.46875 49.992188 31.441406 C 50.0625 31.339844 50.136719 31.242188 50.210938 31.140625 C 50.488281 30.738281 50.753906 30.335938 50.976562 29.933594 C 51.003906 29.882812 51.035156 29.835938 51.0625 29.785156 C 51.078125 29.761719 51.089844 29.734375 51.105469 29.710938 C 51.117188 29.683594 51.132812 29.660156 51.144531 29.636719 C 51.195312 29.535156 51.25 29.4375 51.300781 29.339844 C 51.324219 29.289062 51.355469 29.242188 51.375 29.191406 C 51.398438 29.140625 51.421875 29.089844 51.445312 29.042969 C 51.492188 28.945312 51.539062 28.847656 51.585938 28.753906 C 51.632812 28.65625 51.671875 28.558594 51.714844 28.464844 C 51.753906 28.367188 51.796875 28.277344 51.835938 28.179688 C 51.871094 28.085938 51.910156 27.996094 51.945312 27.902344 C 51.980469 27.808594 52.019531 27.71875 52.050781 27.628906 C 52.082031 27.539062 52.113281 27.449219 52.144531 27.363281 C 52.175781 27.273438 52.207031 27.1875 52.234375 27.101562 C 52.261719 27.015625 52.289062 26.933594 52.3125 26.847656 C 52.339844 26.765625 52.371094 26.683594 52.390625 26.605469 C 52.4375 26.441406 52.480469 26.285156 52.519531 26.136719 C 52.558594 25.988281 52.59375 25.84375 52.628906 25.707031 C 52.636719 25.671875 52.644531 25.636719 52.652344 25.605469 C 52.660156 25.570312 52.667969 25.539062 52.671875 25.503906 C 52.6875 25.441406 52.699219 25.375 52.714844 25.316406 C 52.726562 25.253906 52.738281 25.191406 52.753906 25.136719 C 52.757812 25.105469 52.765625 25.078125 52.769531 25.050781 C 52.777344 25.019531 52.78125 24.992188 52.785156 24.964844 C 52.804688 24.859375 52.824219 24.757812 52.839844 24.664062 C 52.859375 24.574219 52.875 24.488281 52.882812 24.410156 C 52.929688 24.105469 52.957031 23.941406 52.957031 23.941406 " fill-opacity="1" fill-rule="nonzero"/></g></g></g><g clip-path="url(#f233c66430)"><g clip-path="url(#d6ed719858)"><g clip-path="url(#f48f2ee49d)"><path fill="#000000" d="M 31.167969 19.671875 C 31.53125 19.433594 31.941406 19.414062 32.085938 19.632812 C 32.234375 19.847656 32.054688 20.21875 31.691406 20.460938 C 31.328125 20.699219 30.917969 20.71875 30.773438 20.5 C 30.628906 20.28125 30.804688 19.910156 31.167969 19.671875 Z M 24.777344 19.851562 C 24.777344 20.679688 25.289062 21.421875 26.0625 21.722656 C 27.921875 22.441406 31.625 22.792969 37.570312 18.859375 C 41.113281 16.519531 44.921875 16.34375 48.492188 18.679688 C 48.53125 18.703125 48.574219 18.730469 48.613281 18.757812 C 48.652344 18.785156 48.695312 18.808594 48.734375 18.835938 C 48.8125 18.890625 48.890625 18.945312 48.96875 18.996094 C 49.007812 19.023438 49.046875 19.050781 49.085938 19.078125 C 49.125 19.105469 49.164062 19.132812 49.199219 19.15625 C 49.277344 19.210938 49.351562 19.265625 49.425781 19.320312 C 49.5 19.375 49.574219 19.425781 49.644531 19.480469 C 49.71875 19.535156 49.792969 19.585938 49.859375 19.640625 C 49.929688 19.695312 50 19.75 50.066406 19.800781 C 50.136719 19.855469 50.207031 19.90625 50.273438 19.960938 C 50.335938 20.011719 50.402344 20.066406 50.464844 20.117188 C 50.5 20.144531 50.53125 20.167969 50.5625 20.195312 C 50.597656 20.222656 50.625 20.246094 50.65625 20.273438 C 50.71875 20.324219 50.78125 20.375 50.839844 20.425781 C 50.898438 20.476562 50.960938 20.527344 51.015625 20.578125 C 51.074219 20.625 51.128906 20.675781 51.183594 20.722656 C 51.242188 20.773438 51.296875 20.820312 51.347656 20.867188 C 51.453125 20.960938 51.554688 21.054688 51.652344 21.140625 C 51.75 21.226562 51.839844 21.3125 51.925781 21.394531 C 52.011719 21.476562 52.097656 21.550781 52.171875 21.625 C 52.246094 21.695312 52.316406 21.761719 52.382812 21.824219 C 52.414062 21.855469 52.449219 21.886719 52.476562 21.914062 C 52.507812 21.941406 52.535156 21.96875 52.5625 21.996094 C 52.667969 22.101562 52.753906 22.179688 52.808594 22.234375 C 52.835938 22.261719 52.859375 22.28125 52.875 22.292969 C 52.890625 22.308594 52.898438 22.316406 52.898438 22.316406 C 52.898438 22.316406 52.898438 22.304688 52.902344 22.285156 C 52.90625 22.265625 52.914062 22.234375 52.917969 22.199219 C 52.929688 22.121094 52.949219 22.003906 52.96875 21.855469 C 52.988281 21.703125 53 21.519531 53.011719 21.296875 C 53.019531 21.1875 53.019531 21.070312 53.023438 20.945312 C 53.019531 20.878906 53.019531 20.816406 53.019531 20.75 C 53.019531 20.714844 53.019531 20.679688 53.019531 20.644531 C 53.019531 20.613281 53.015625 20.578125 53.015625 20.542969 C 53.007812 20.402344 53 20.25 52.988281 20.09375 C 52.972656 19.9375 52.957031 19.773438 52.933594 19.605469 C 52.914062 19.433594 52.882812 19.257812 52.851562 19.074219 C 52.820312 18.886719 52.773438 18.703125 52.730469 18.503906 C 52.707031 18.40625 52.683594 18.308594 52.65625 18.207031 C 52.628906 18.109375 52.601562 18.007812 52.570312 17.902344 C 52.554688 17.851562 52.539062 17.800781 52.523438 17.75 C 52.503906 17.699219 52.488281 17.644531 52.472656 17.59375 C 52.4375 17.488281 52.402344 17.378906 52.363281 17.273438 C 52.324219 17.167969 52.28125 17.058594 52.238281 16.953125 C 52.21875 16.898438 52.195312 16.839844 52.175781 16.785156 C 52.152344 16.730469 52.128906 16.675781 52.105469 16.621094 C 52.054688 16.511719 52.007812 16.402344 51.957031 16.289062 C 51.90625 16.175781 51.847656 16.066406 51.792969 15.953125 C 51.34375 15.046875 50.734375 14.113281 49.953125 13.214844 C 49.855469 13.105469 49.757812 12.992188 49.652344 12.882812 C 49.605469 12.824219 49.550781 12.769531 49.496094 12.714844 C 49.457031 12.671875 49.414062 12.628906 49.371094 12.585938 C 49.3125 12.535156 49.257812 12.488281 49.199219 12.433594 C 49.117188 12.367188 49.035156 12.300781 48.949219 12.230469 C 48.609375 11.949219 48.203125 11.65625 47.75 11.359375 C 47.632812 11.289062 47.515625 11.214844 47.394531 11.140625 C 47.273438 11.070312 47.148438 11 47.019531 10.925781 C 46.988281 10.910156 46.957031 10.890625 46.925781 10.871094 C 46.890625 10.855469 46.859375 10.839844 46.824219 10.820312 C 46.757812 10.789062 46.691406 10.753906 46.625 10.71875 C 46.492188 10.648438 46.351562 10.589844 46.210938 10.523438 C 45.644531 10.265625 45.023438 10.042969 44.363281 9.878906 C 44.320312 9.867188 44.28125 9.859375 44.238281 9.847656 C 44.195312 9.839844 44.15625 9.828125 44.113281 9.820312 C 44.027344 9.800781 43.945312 9.785156 43.859375 9.765625 L 43.796875 9.75 L 43.730469 9.742188 C 43.6875 9.734375 43.644531 9.726562 43.601562 9.71875 C 43.515625 9.703125 43.429688 9.691406 43.34375 9.675781 C 43.257812 9.664062 43.167969 9.652344 43.082031 9.640625 C 42.992188 9.628906 42.902344 9.617188 42.816406 9.609375 C 42.636719 9.597656 42.457031 9.578125 42.277344 9.570312 C 42.1875 9.566406 42.097656 9.5625 42.003906 9.558594 C 41.914062 9.558594 41.824219 9.558594 41.730469 9.554688 L 41.59375 9.554688 C 41.546875 9.554688 41.503906 9.558594 41.457031 9.558594 C 41.363281 9.5625 41.273438 9.5625 41.179688 9.566406 C 41.132812 9.566406 41.089844 9.570312 41.042969 9.574219 L 40.90625 9.582031 L 40.765625 9.59375 L 40.695312 9.597656 L 40.628906 9.605469 C 40.441406 9.621094 40.257812 9.636719 40.074219 9.667969 C 39.703125 9.710938 39.335938 9.785156 38.96875 9.859375 C 38.878906 9.878906 38.785156 9.902344 38.695312 9.921875 L 38.421875 9.992188 C 38.332031 10.015625 38.242188 10.039062 38.152344 10.0625 C 38.0625 10.089844 37.972656 10.113281 37.886719 10.140625 L 37.75 10.179688 L 37.621094 10.222656 C 37.53125 10.25 37.441406 10.28125 37.355469 10.308594 C 37.269531 10.335938 37.179688 10.367188 37.09375 10.398438 C 37.007812 10.429688 36.921875 10.460938 36.835938 10.492188 C 36.75 10.527344 36.664062 10.558594 36.578125 10.589844 C 36.492188 10.621094 36.410156 10.65625 36.324219 10.691406 C 36.15625 10.757812 35.992188 10.832031 35.828125 10.902344 C 35.175781 11.191406 34.558594 11.507812 33.984375 11.832031 C 33.410156 12.160156 32.882812 12.492188 32.402344 12.816406 C 31.925781 13.140625 31.496094 13.457031 31.125 13.746094 C 30.753906 14.03125 30.4375 14.292969 30.179688 14.515625 C 29.667969 14.957031 29.394531 15.230469 29.394531 15.230469 C 29.394531 15.230469 29.640625 14.933594 30.117188 14.445312 C 30.351562 14.203125 30.648438 13.914062 30.996094 13.589844 C 31.34375 13.269531 31.746094 12.917969 32.199219 12.546875 C 32.652344 12.175781 33.160156 11.792969 33.714844 11.40625 C 34.269531 11.027344 34.871094 10.644531 35.519531 10.289062 C 35.683594 10.199219 35.847656 10.109375 36.015625 10.023438 C 36.101562 9.984375 36.183594 9.9375 36.269531 9.898438 C 36.355469 9.855469 36.441406 9.8125 36.527344 9.773438 C 36.613281 9.730469 36.699219 9.691406 36.789062 9.652344 C 36.875 9.613281 36.964844 9.570312 37.050781 9.53125 C 37.140625 9.492188 37.230469 9.457031 37.320312 9.417969 L 37.457031 9.359375 L 37.59375 9.308594 C 37.683594 9.273438 37.777344 9.234375 37.867188 9.199219 C 37.960938 9.167969 38.054688 9.132812 38.148438 9.101562 L 38.285156 9.050781 L 38.429688 9.003906 C 38.523438 8.972656 38.617188 8.941406 38.710938 8.910156 C 39.09375 8.792969 39.480469 8.683594 39.878906 8.597656 C 40.074219 8.550781 40.273438 8.515625 40.472656 8.480469 L 40.546875 8.464844 L 40.621094 8.453125 L 40.921875 8.40625 C 40.953125 8.402344 40.984375 8.398438 41.015625 8.394531 L 40.84375 8.367188 C 40.664062 8.34375 40.488281 8.320312 40.3125 8.300781 C 40.132812 8.285156 39.953125 8.269531 39.773438 8.257812 L 39.507812 8.234375 C 39.417969 8.234375 39.328125 8.230469 39.238281 8.226562 L 38.699219 8.214844 C 38.519531 8.214844 38.339844 8.222656 38.164062 8.226562 L 37.894531 8.234375 C 37.804688 8.238281 37.714844 8.246094 37.625 8.253906 C 37.445312 8.265625 37.269531 8.28125 37.089844 8.296875 C 37.046875 8.300781 37.003906 8.304688 36.957031 8.3125 L 36.824219 8.328125 C 36.738281 8.339844 36.648438 8.351562 36.558594 8.363281 C 36.472656 8.375 36.382812 8.386719 36.296875 8.402344 L 36.230469 8.410156 L 36.164062 8.421875 L 36.035156 8.445312 C 35.859375 8.476562 35.683594 8.511719 35.511719 8.546875 L 35.445312 8.558594 L 35.382812 8.574219 L 35.253906 8.601562 C 35.167969 8.625 35.082031 8.644531 34.996094 8.664062 C 34.910156 8.6875 34.824219 8.707031 34.742188 8.726562 C 34.65625 8.75 34.570312 8.777344 34.488281 8.800781 C 34.320312 8.851562 34.152344 8.898438 33.988281 8.949219 C 33.898438 8.976562 33.8125 9.007812 33.722656 9.039062 C 33.652344 9.066406 33.578125 9.089844 33.507812 9.117188 C 33.34375 9.179688 33.175781 9.234375 33.015625 9.304688 C 32.855469 9.367188 32.699219 9.433594 32.542969 9.5 L 32.425781 9.550781 L 32.3125 9.605469 C 32.234375 9.644531 32.160156 9.679688 32.082031 9.714844 C 32.007812 9.753906 31.933594 9.789062 31.855469 9.828125 L 31.746094 9.882812 C 31.707031 9.902344 31.671875 9.921875 31.632812 9.941406 C 31.5625 9.980469 31.488281 10.019531 31.414062 10.058594 C 31.34375 10.101562 31.269531 10.140625 31.199219 10.179688 C 31.054688 10.257812 30.914062 10.347656 30.777344 10.433594 C 30.707031 10.476562 30.636719 10.519531 30.570312 10.5625 C 30.5 10.605469 30.433594 10.648438 30.363281 10.691406 C 30.230469 10.785156 30.101562 10.875 29.96875 10.96875 C 29.90625 11.011719 29.839844 11.058594 29.777344 11.105469 C 29.714844 11.152344 29.652344 11.199219 29.589844 11.25 C 29.464844 11.347656 29.34375 11.441406 29.222656 11.539062 C 29.160156 11.585938 29.101562 11.636719 29.042969 11.6875 C 28.984375 11.738281 28.929688 11.789062 28.871094 11.839844 C 28.8125 11.890625 28.757812 11.9375 28.699219 11.988281 C 28.644531 12.039062 28.585938 12.089844 28.53125 12.140625 C 28.421875 12.246094 28.316406 12.351562 28.210938 12.453125 C 28.160156 12.507812 28.105469 12.558594 28.054688 12.609375 C 28.003906 12.664062 27.953125 12.71875 27.90625 12.769531 C 27.804688 12.875 27.707031 12.984375 27.613281 13.089844 C 27.589844 13.117188 27.566406 13.140625 27.542969 13.167969 C 27.519531 13.195312 27.496094 13.222656 27.472656 13.25 C 27.429688 13.304688 27.382812 13.359375 27.339844 13.414062 C 27.25 13.523438 27.164062 13.632812 27.078125 13.738281 C 26.992188 13.847656 26.914062 13.957031 26.832031 14.066406 C 26.753906 14.175781 26.675781 14.285156 26.601562 14.394531 C 26.527344 14.503906 26.457031 14.613281 26.390625 14.722656 C 26.355469 14.777344 26.320312 14.832031 26.285156 14.886719 C 26.253906 14.9375 26.21875 14.992188 26.1875 15.046875 C 26.125 15.15625 26.0625 15.265625 26.003906 15.375 C 25.972656 15.425781 25.945312 15.480469 25.914062 15.535156 C 25.886719 15.585938 25.855469 15.640625 25.828125 15.695312 C 25.722656 15.910156 25.621094 16.121094 25.527344 16.324219 C 25.4375 16.535156 25.355469 16.742188 25.277344 16.9375 C 24.882812 18.144531 24.78125 19.140625 24.777344 19.851562 " fill-opacity="1" fill-rule="nonzero"/></g></g></g><g clip-path="url(#dde038a162)"><g clip-path="url(#89f584a7c5)"><g clip-path="url(#dd47761bc1)"><path fill="#000000" d="M 35.082031 20.988281 C 35.082031 20.988281 35.125 21.003906 35.207031 21.039062 C 35.226562 21.046875 35.25 21.054688 35.273438 21.066406 C 35.300781 21.074219 35.328125 21.085938 35.355469 21.097656 C 35.414062 21.117188 35.476562 21.144531 35.550781 21.171875 C 35.695312 21.226562 35.871094 21.285156 36.066406 21.351562 C 36.261719 21.417969 36.480469 21.480469 36.71875 21.539062 C 36.953125 21.601562 37.203125 21.65625 37.46875 21.699219 C 37.734375 21.742188 38.007812 21.777344 38.289062 21.800781 C 38.570312 21.820312 38.859375 21.828125 39.148438 21.820312 C 39.4375 21.8125 39.726562 21.789062 40.011719 21.75 C 40.15625 21.730469 40.296875 21.699219 40.4375 21.675781 L 40.542969 21.652344 L 40.566406 21.644531 L 40.574219 21.644531 C 40.570312 21.644531 40.585938 21.640625 40.566406 21.644531 L 40.570312 21.644531 L 40.710938 21.609375 L 40.761719 21.597656 C 40.796875 21.589844 40.828125 21.578125 40.863281 21.570312 C 41.15625 21.492188 41.464844 21.398438 41.785156 21.3125 C 41.863281 21.289062 41.941406 21.269531 42.023438 21.25 C 42.066406 21.238281 42.105469 21.230469 42.144531 21.21875 C 42.1875 21.210938 42.226562 21.199219 42.269531 21.191406 C 42.351562 21.171875 42.429688 21.15625 42.515625 21.140625 C 42.59375 21.125 42.679688 21.109375 42.761719 21.097656 C 42.800781 21.09375 42.84375 21.085938 42.882812 21.082031 L 42.914062 21.078125 L 42.921875 21.078125 C 42.914062 21.078125 42.9375 21.074219 42.933594 21.074219 L 42.953125 21.074219 C 42.96875 21.070312 42.988281 21.070312 43.007812 21.066406 C 43.046875 21.066406 43.082031 21.0625 43.121094 21.058594 C 43.164062 21.054688 43.207031 21.054688 43.25 21.050781 C 43.414062 21.042969 43.566406 21.046875 43.71875 21.058594 C 44.019531 21.082031 44.292969 21.140625 44.523438 21.226562 C 44.753906 21.308594 44.941406 21.410156 45.082031 21.515625 C 45.222656 21.617188 45.3125 21.710938 45.371094 21.78125 C 45.429688 21.851562 45.453125 21.890625 45.453125 21.890625 C 45.453125 21.890625 45.40625 21.886719 45.320312 21.875 C 45.300781 21.875 45.277344 21.871094 45.25 21.871094 C 45.222656 21.871094 45.195312 21.871094 45.167969 21.867188 C 45.136719 21.867188 45.105469 21.867188 45.070312 21.867188 C 45.035156 21.871094 45.003906 21.867188 44.964844 21.871094 C 44.816406 21.878906 44.644531 21.902344 44.453125 21.941406 C 44.265625 21.984375 44.0625 22.046875 43.847656 22.132812 C 43.738281 22.171875 43.628906 22.222656 43.519531 22.273438 C 43.492188 22.285156 43.464844 22.296875 43.441406 22.308594 C 43.410156 22.324219 43.378906 22.339844 43.347656 22.351562 C 43.332031 22.363281 43.3125 22.367188 43.296875 22.378906 L 43.285156 22.382812 L 43.28125 22.382812 C 43.277344 22.386719 43.296875 22.378906 43.289062 22.382812 L 43.28125 22.386719 L 43.261719 22.398438 C 43.230469 22.410156 43.199219 22.425781 43.171875 22.441406 C 43.050781 22.507812 42.925781 22.570312 42.796875 22.640625 C 42.765625 22.65625 42.730469 22.675781 42.699219 22.691406 C 42.664062 22.710938 42.632812 22.726562 42.597656 22.746094 C 42.53125 22.78125 42.460938 22.820312 42.386719 22.855469 C 42.246094 22.929688 42.097656 23.003906 41.9375 23.078125 C 41.859375 23.113281 41.777344 23.152344 41.695312 23.1875 C 41.652344 23.203125 41.609375 23.222656 41.566406 23.238281 C 41.523438 23.257812 41.480469 23.273438 41.4375 23.292969 C 41.394531 23.308594 41.34375 23.324219 41.296875 23.34375 L 41.222656 23.367188 L 41.160156 23.386719 L 41.101562 23.410156 L 41.085938 23.414062 L 41.082031 23.414062 L 41.066406 23.417969 L 41.058594 23.421875 L 41.019531 23.433594 C 40.972656 23.445312 40.925781 23.457031 40.875 23.472656 C 40.679688 23.523438 40.484375 23.566406 40.28125 23.59375 C 39.882812 23.652344 39.480469 23.660156 39.089844 23.628906 C 38.699219 23.597656 38.316406 23.523438 37.964844 23.417969 C 37.609375 23.308594 37.28125 23.171875 36.988281 23.011719 C 36.691406 22.851562 36.433594 22.671875 36.210938 22.488281 C 35.988281 22.304688 35.804688 22.117188 35.65625 21.9375 C 35.507812 21.761719 35.390625 21.597656 35.308594 21.453125 C 35.285156 21.417969 35.265625 21.386719 35.25 21.351562 C 35.230469 21.320312 35.214844 21.289062 35.199219 21.261719 C 35.1875 21.230469 35.171875 21.207031 35.160156 21.183594 C 35.148438 21.15625 35.140625 21.132812 35.132812 21.113281 C 35.097656 21.035156 35.082031 20.988281 35.082031 20.988281 " fill-opacity="1" fill-rule="nonzero"/></g></g></g><g clip-path="url(#d38160bdad)"><g clip-path="url(#0221051908)"><g clip-path="url(#9fa0c95f0a)"><path fill="#000000" d="M 31.527344 9.238281 C 31.527344 9.238281 31.554688 9.199219 31.605469 9.125 C 31.617188 9.105469 31.628906 9.085938 31.644531 9.0625 C 31.65625 9.042969 31.671875 9.019531 31.691406 8.992188 C 31.726562 8.941406 31.761719 8.882812 31.808594 8.820312 C 31.894531 8.691406 32.003906 8.542969 32.125 8.375 C 32.246094 8.210938 32.390625 8.035156 32.546875 7.851562 C 32.707031 7.667969 32.878906 7.476562 33.070312 7.289062 C 33.261719 7.101562 33.464844 6.917969 33.683594 6.738281 C 33.902344 6.558594 34.132812 6.386719 34.371094 6.226562 C 34.613281 6.070312 34.863281 5.921875 35.121094 5.792969 C 35.25 5.726562 35.382812 5.667969 35.511719 5.609375 L 35.609375 5.570312 L 35.636719 5.558594 L 35.640625 5.558594 C 35.636719 5.558594 35.652344 5.554688 35.632812 5.558594 L 35.636719 5.558594 L 35.652344 5.550781 L 35.710938 5.53125 L 35.773438 5.507812 L 35.820312 5.488281 C 35.855469 5.476562 35.886719 5.464844 35.921875 5.449219 C 36.203125 5.347656 36.511719 5.246094 36.820312 5.136719 C 36.898438 5.109375 36.976562 5.078125 37.054688 5.050781 C 37.09375 5.035156 37.132812 5.019531 37.171875 5.003906 C 37.210938 4.988281 37.25 4.972656 37.289062 4.957031 C 37.367188 4.925781 37.441406 4.894531 37.519531 4.859375 C 37.59375 4.824219 37.671875 4.789062 37.746094 4.753906 C 37.78125 4.734375 37.816406 4.714844 37.855469 4.695312 L 37.882812 4.679688 L 37.886719 4.679688 C 37.882812 4.679688 37.902344 4.671875 37.902344 4.671875 L 37.90625 4.671875 L 37.917969 4.664062 C 37.933594 4.652344 37.949219 4.644531 37.964844 4.636719 C 37.996094 4.617188 38.03125 4.597656 38.0625 4.578125 C 38.101562 4.554688 38.136719 4.535156 38.171875 4.511719 C 38.308594 4.421875 38.433594 4.332031 38.550781 4.234375 C 38.785156 4.046875 38.972656 3.839844 39.113281 3.640625 C 39.253906 3.4375 39.347656 3.246094 39.402344 3.082031 C 39.457031 2.917969 39.476562 2.789062 39.484375 2.699219 C 39.492188 2.609375 39.488281 2.5625 39.488281 2.5625 C 39.488281 2.5625 39.453125 2.59375 39.386719 2.648438 C 39.371094 2.664062 39.351562 2.679688 39.332031 2.695312 C 39.3125 2.710938 39.289062 2.726562 39.265625 2.746094 C 39.242188 2.765625 39.214844 2.78125 39.1875 2.800781 C 39.160156 2.820312 39.132812 2.839844 39.097656 2.859375 C 38.976562 2.9375 38.820312 3.019531 38.640625 3.09375 C 38.464844 3.164062 38.257812 3.230469 38.035156 3.285156 C 37.921875 3.3125 37.804688 3.335938 37.683594 3.359375 C 37.65625 3.363281 37.628906 3.367188 37.597656 3.371094 C 37.566406 3.378906 37.53125 3.382812 37.496094 3.390625 C 37.480469 3.394531 37.460938 3.394531 37.441406 3.398438 L 37.429688 3.402344 L 37.425781 3.402344 C 37.421875 3.402344 37.441406 3.394531 37.433594 3.398438 L 37.425781 3.398438 L 37.402344 3.402344 C 37.367188 3.410156 37.335938 3.414062 37.300781 3.417969 C 37.164062 3.4375 37.023438 3.453125 36.882812 3.472656 C 36.84375 3.476562 36.808594 3.480469 36.769531 3.484375 C 36.734375 3.488281 36.695312 3.492188 36.65625 3.5 C 36.582031 3.507812 36.503906 3.515625 36.421875 3.527344 C 36.265625 3.550781 36.097656 3.574219 35.925781 3.605469 C 35.839844 3.621094 35.753906 3.636719 35.664062 3.652344 C 35.617188 3.664062 35.574219 3.675781 35.527344 3.683594 C 35.484375 3.695312 35.4375 3.707031 35.390625 3.71875 C 35.347656 3.726562 35.296875 3.742188 35.246094 3.753906 L 35.171875 3.777344 L 35.113281 3.796875 L 35.035156 3.816406 L 35.03125 3.820312 L 35.015625 3.824219 L 35.007812 3.828125 L 34.972656 3.839844 C 34.921875 3.855469 34.875 3.875 34.828125 3.890625 C 34.640625 3.960938 34.453125 4.039062 34.273438 4.132812 C 33.914062 4.3125 33.582031 4.535156 33.277344 4.785156 C 32.976562 5.035156 32.707031 5.3125 32.480469 5.601562 C 32.253906 5.890625 32.066406 6.191406 31.917969 6.492188 C 31.765625 6.789062 31.660156 7.085938 31.582031 7.363281 C 31.507812 7.640625 31.464844 7.902344 31.449219 8.132812 C 31.429688 8.363281 31.429688 8.5625 31.445312 8.726562 C 31.449219 8.769531 31.449219 8.804688 31.457031 8.84375 C 31.460938 8.878906 31.464844 8.914062 31.46875 8.945312 C 31.472656 8.976562 31.476562 9.007812 31.480469 9.035156 C 31.488281 9.058594 31.492188 9.085938 31.496094 9.105469 C 31.515625 9.191406 31.527344 9.238281 31.527344 9.238281 " fill-opacity="1" fill-rule="nonzero"/></g></g></g><g fill="#000000" fill-opacity="1"><g transform="translate(91.192594, 104.472867)"><g><path d="M 10.140625 0 C 8.347656 0 6.804688 -0.640625 5.515625 -1.921875 C 4.234375 -3.210938 3.59375 -4.753906 3.59375 -6.546875 L 3.59375 -38.421875 C 3.59375 -40.222656 4.234375 -41.75 5.515625 -43 C 6.804688 -44.257812 8.347656 -44.890625 10.140625 -44.890625 L 22.359375 -44.890625 C 24.210938 -44.890625 25.765625 -44.257812 27.015625 -43 C 28.273438 -41.75 28.90625 -40.222656 28.90625 -38.421875 L 28.90625 -24.78125 C 28.90625 -22.988281 28.273438 -21.445312 27.015625 -20.15625 C 25.765625 -18.863281 24.210938 -18.21875 22.359375 -18.21875 L 12.03125 -18.21875 L 12.03125 -11.671875 C 12.03125 -10.773438 12.34375 -10.007812 12.96875 -9.375 C 13.601562 -8.75 14.398438 -8.4375 15.359375 -8.4375 L 27.03125 -8.4375 L 28.90625 0 Z M 12.03125 -26.671875 L 17.234375 -26.671875 C 18.128906 -26.671875 18.890625 -26.984375 19.515625 -27.609375 C 20.148438 -28.234375 20.46875 -28.992188 20.46875 -29.890625 L 20.46875 -33.21875 C 20.46875 -34.113281 20.148438 -34.875 19.515625 -35.5 C 18.890625 -36.132812 18.128906 -36.453125 17.234375 -36.453125 L 15.359375 -36.453125 C 14.398438 -36.453125 13.601562 -36.132812 12.96875 -35.5 C 12.34375 -34.875 12.03125 -34.113281 12.03125 -33.21875 Z M 12.03125 -26.671875 "/></g></g></g><g fill="#000000" fill-opacity="1"><g transform="translate(121.442601, 104.472867)"><g><path d="M 3.59375 0 L 3.59375 -65.359375 L 12.03125 -67.25 L 12.03125 -44.890625 L 22.71875 -44.890625 L 20.734375 -36.453125 L 12.03125 -36.453125 L 12.03125 0 Z M 3.59375 0 "/></g></g></g><g fill="#000000" fill-opacity="1"><g transform="translate(142.805924, 104.472867)"><g><path d="M 3.59375 0 L 3.59375 -65.359375 L 12.03125 -67.25 L 12.03125 -44.890625 L 22.71875 -44.890625 L 20.734375 -36.453125 L 12.03125 -36.453125 L 12.03125 0 Z M 3.59375 0 "/></g></g></g><g fill="#000000" fill-opacity="1"><g transform="translate(164.169249, 104.472867)"><g><path d="M 10.140625 0 C 8.347656 0 6.804688 -0.625 5.515625 -1.875 C 4.234375 -3.132812 3.59375 -4.691406 3.59375 -6.546875 L 3.59375 -20.109375 C 3.59375 -21.898438 4.234375 -23.441406 5.515625 -24.734375 C 6.804688 -26.023438 8.347656 -26.671875 10.140625 -26.671875 L 17.140625 -26.671875 C 18.097656 -26.671875 18.890625 -26.984375 19.515625 -27.609375 C 20.148438 -28.234375 20.46875 -28.992188 20.46875 -29.890625 L 20.46875 -33.21875 C 20.46875 -34.113281 20.148438 -34.875 19.515625 -35.5 C 18.890625 -36.132812 18.097656 -36.453125 17.140625 -36.453125 L 7.453125 -36.453125 L 9.34375 -44.890625 L 22.359375 -44.890625 C 24.148438 -44.890625 25.6875 -44.242188 26.96875 -42.953125 C 28.257812 -41.671875 28.90625 -40.132812 28.90625 -38.34375 L 28.90625 0 Z M 15.265625 -8.4375 L 20.46875 -8.4375 L 20.46875 -18.21875 L 15.265625 -18.21875 C 14.367188 -18.21875 13.601562 -17.90625 12.96875 -17.28125 C 12.34375 -16.65625 12.03125 -15.894531 12.03125 -15 L 12.03125 -11.671875 C 12.03125 -10.773438 12.34375 -10.007812 12.96875 -9.375 C 13.601562 -8.75 14.367188 -8.4375 15.265625 -8.4375 Z M 15.265625 -8.4375 "/></g></g></g><g fill="#000000" fill-opacity="1"><g transform="translate(196.971273, 104.472867)"><g><path d="M 11.84375 0 C 10.050781 0 8.523438 -0.625 7.265625 -1.875 C 6.015625 -3.132812 5.390625 -4.664062 5.390625 -6.46875 L 5.390625 -20.375 L 13.734375 -18.5 L 13.734375 -11.578125 C 13.734375 -10.679688 14.046875 -9.914062 14.671875 -9.28125 C 15.304688 -8.65625 16.039062 -8.34375 16.875 -8.34375 L 27.109375 -8.34375 C 28.003906 -8.34375 28.765625 -8.65625 29.390625 -9.28125 C 30.023438 -9.914062 30.34375 -10.679688 30.34375 -11.578125 L 30.34375 -27.390625 C 30.34375 -28.285156 30.023438 -29.046875 29.390625 -29.671875 C 28.765625 -30.296875 28.003906 -30.609375 27.109375 -30.609375 L 11.84375 -30.609375 C 10.050781 -30.609375 8.523438 -31.238281 7.265625 -32.5 C 6.015625 -33.757812 5.390625 -35.285156 5.390625 -37.078125 L 5.390625 -56.375 C 5.390625 -58.175781 6.015625 -59.703125 7.265625 -60.953125 C 8.523438 -62.210938 10.050781 -62.84375 11.84375 -62.84375 L 32.234375 -62.84375 C 34.023438 -62.84375 35.550781 -62.210938 36.8125 -60.953125 C 38.070312 -59.703125 38.703125 -58.175781 38.703125 -56.375 L 38.703125 -46.6875 L 30.34375 -48.65625 L 30.34375 -51.265625 C 30.34375 -52.160156 30.023438 -52.921875 29.390625 -53.546875 C 28.765625 -54.179688 28.003906 -54.5 27.109375 -54.5 L 16.875 -54.5 C 16.039062 -54.5 15.304688 -54.179688 14.671875 -53.546875 C 14.046875 -52.921875 13.734375 -52.160156 13.734375 -51.265625 L 13.734375 -42.203125 C 13.734375 -41.296875 14.046875 -40.53125 14.671875 -39.90625 C 15.304688 -39.28125 16.039062 -38.96875 16.875 -38.96875 L 32.234375 -38.96875 C 34.023438 -38.96875 35.550781 -38.335938 36.8125 -37.078125 C 38.070312 -35.816406 38.703125 -34.289062 38.703125 -32.5 L 38.703125 -6.46875 C 38.703125 -4.664062 38.070312 -3.132812 36.8125 -1.875 C 35.550781 -0.625 34.023438 0 32.234375 0 Z M 11.84375 0 "/></g></g></g><g fill="#000000" fill-opacity="1"><g transform="translate(238.80089, 104.472867)"><g><path d="M 3.59375 0 L 3.59375 -65.359375 L 12.03125 -67.25 L 12.03125 -44.890625 L 22.71875 -44.890625 L 20.734375 -36.453125 L 12.03125 -36.453125 L 12.03125 0 Z M 3.59375 0 "/></g></g></g><g fill="#000000" fill-opacity="1"><g transform="translate(260.164214, 104.472867)"><g><path d="M 10.859375 0 C 9.003906 0 7.445312 -0.640625 6.1875 -1.921875 C 4.9375 -3.210938 4.3125 -4.753906 4.3125 -6.546875 L 4.3125 -38.34375 C 4.3125 -40.132812 4.9375 -41.671875 6.1875 -42.953125 C 7.445312 -44.242188 9.003906 -44.890625 10.859375 -44.890625 L 23.078125 -44.890625 C 24.867188 -44.890625 26.390625 -44.242188 27.640625 -42.953125 C 28.898438 -41.671875 29.53125 -40.132812 29.53125 -38.34375 L 29.53125 -6.546875 C 29.53125 -4.753906 28.898438 -3.210938 27.640625 -1.921875 C 26.390625 -0.640625 24.867188 0 23.078125 0 Z M 15.984375 -8.4375 L 17.859375 -8.4375 C 18.765625 -8.4375 19.546875 -8.75 20.203125 -9.375 C 20.859375 -10.007812 21.1875 -10.773438 21.1875 -11.671875 L 21.1875 -33.21875 C 21.1875 -34.113281 20.859375 -34.875 20.203125 -35.5 C 19.546875 -36.132812 18.765625 -36.453125 17.859375 -36.453125 L 15.984375 -36.453125 C 15.085938 -36.453125 14.320312 -36.132812 13.6875 -35.5 C 13.0625 -34.875 12.75 -34.113281 12.75 -33.21875 L 12.75 -11.671875 C 12.75 -10.773438 13.0625 -10.007812 13.6875 -9.375 C 14.320312 -8.75 15.085938 -8.4375 15.984375 -8.4375 Z M 15.984375 -8.4375 "/></g></g></g><g fill="#000000" fill-opacity="1"><g transform="translate(291.132331, 104.472867)"><g><path d="M 3.59375 0 L 3.59375 -44.890625 L 22.359375 -44.890625 C 24.148438 -44.890625 25.6875 -44.242188 26.96875 -42.953125 C 28.257812 -41.671875 28.90625 -40.132812 28.90625 -38.34375 L 28.90625 -28.546875 L 20.46875 -30.4375 L 20.46875 -33.125 C 20.46875 -34.019531 20.148438 -34.796875 19.515625 -35.453125 C 18.890625 -36.117188 18.128906 -36.453125 17.234375 -36.453125 L 12.03125 -36.453125 L 12.03125 0 Z M 3.59375 0 "/></g></g></g><g fill="#000000" fill-opacity="1"><g transform="translate(321.382336, 104.472867)"><g><path d="M 10.140625 0 C 8.347656 0 6.804688 -0.640625 5.515625 -1.921875 C 4.234375 -3.210938 3.59375 -4.753906 3.59375 -6.546875 L 3.59375 -38.421875 C 3.59375 -40.222656 4.234375 -41.75 5.515625 -43 C 6.804688 -44.257812 8.347656 -44.890625 10.140625 -44.890625 L 22.359375 -44.890625 C 24.210938 -44.890625 25.765625 -44.257812 27.015625 -43 C 28.273438 -41.75 28.90625 -40.222656 28.90625 -38.421875 L 28.90625 -24.78125 C 28.90625 -22.988281 28.273438 -21.445312 27.015625 -20.15625 C 25.765625 -18.863281 24.210938 -18.21875 22.359375 -18.21875 L 12.03125 -18.21875 L 12.03125 -11.671875 C 12.03125 -10.773438 12.34375 -10.007812 12.96875 -9.375 C 13.601562 -8.75 14.398438 -8.4375 15.359375 -8.4375 L 27.03125 -8.4375 L 28.90625 0 Z M 12.03125 -26.671875 L 17.234375 -26.671875 C 18.128906 -26.671875 18.890625 -26.984375 19.515625 -27.609375 C 20.148438 -28.234375 20.46875 -28.992188 20.46875 -29.890625 L 20.46875 -33.21875 C 20.46875 -34.113281 20.148438 -34.875 19.515625 -35.5 C 18.890625 -36.132812 18.128906 -36.453125 17.234375 -36.453125 L 15.359375 -36.453125 C 14.398438 -36.453125 13.601562 -36.132812 12.96875 -35.5 C 12.34375 -34.875 12.03125 -34.113281 12.03125 -33.21875 Z M 12.03125 -26.671875 "/></g></g></g><g fill="#000000" fill-opacity="1"><g transform="translate(93.19394, 134.408583)"><g><path d="M 7.578125 -5.671875 L 7.578125 0 L 5.6875 0 L 5.6875 -5.640625 L 0.53125 -13.96875 L 2.609375 -13.96875 L 6.65625 -7.140625 L 10.703125 -13.96875 L 12.75 -13.96875 Z M 7.578125 -5.671875 "/></g></g></g><g fill="#000000" fill-opacity="1"><g transform="translate(108.075714, 134.408583)"><g><path d="M 7.984375 0.328125 C 6.535156 0.328125 5.289062 0.00390625 4.25 -0.640625 C 3.21875 -1.296875 2.441406 -2.175781 1.921875 -3.28125 C 1.410156 -4.394531 1.15625 -5.617188 1.15625 -6.953125 C 1.15625 -8.296875 1.410156 -9.519531 1.921875 -10.625 C 2.441406 -11.726562 3.21875 -12.601562 4.25 -13.25 C 5.289062 -13.90625 6.535156 -14.234375 7.984375 -14.234375 C 9.429688 -14.234375 10.671875 -13.90625 11.703125 -13.25 C 12.742188 -12.601562 13.523438 -11.726562 14.046875 -10.625 C 14.566406 -9.519531 14.828125 -8.304688 14.828125 -6.984375 C 14.828125 -5.628906 14.566406 -4.394531 14.046875 -3.28125 C 13.523438 -2.175781 12.742188 -1.296875 11.703125 -0.640625 C 10.671875 0.00390625 9.429688 0.328125 7.984375 0.328125 Z M 7.984375 -1.15625 C 9.023438 -1.15625 9.914062 -1.40625 10.65625 -1.90625 C 11.394531 -2.40625 11.957031 -3.09375 12.34375 -3.96875 C 12.726562 -4.851562 12.921875 -5.847656 12.921875 -6.953125 C 12.921875 -8.066406 12.726562 -9.0625 12.34375 -9.9375 C 11.957031 -10.8125 11.390625 -11.5 10.640625 -12 C 9.898438 -12.507812 9.015625 -12.765625 7.984375 -12.765625 C 6.941406 -12.765625 6.046875 -12.507812 5.296875 -12 C 4.554688 -11.5 3.992188 -10.8125 3.609375 -9.9375 C 3.222656 -9.0625 3.03125 -8.066406 3.03125 -6.953125 C 3.03125 -5.847656 3.222656 -4.851562 3.609375 -3.96875 C 3.992188 -3.09375 4.554688 -2.40625 5.296875 -1.90625 C 6.046875 -1.40625 6.941406 -1.15625 7.984375 -1.15625 Z M 7.984375 -1.15625 "/></g></g></g><g fill="#000000" fill-opacity="1"><g transform="translate(125.625665, 134.408583)"><g><path d="M 7.734375 0.328125 C 5.921875 0.328125 4.523438 -0.175781 3.546875 -1.1875 C 2.566406 -2.195312 2.078125 -3.539062 2.078125 -5.21875 L 2.078125 -13.96875 L 3.96875 -13.96875 L 3.96875 -5.234375 C 3.96875 -3.929688 4.296875 -2.925781 4.953125 -2.21875 C 5.609375 -1.507812 6.535156 -1.15625 7.734375 -1.15625 C 8.941406 -1.15625 9.867188 -1.507812 10.515625 -2.21875 C 11.171875 -2.925781 11.5 -3.929688 11.5 -5.234375 L 11.5 -13.96875 L 13.390625 -13.96875 L 13.390625 -5.25 C 13.390625 -3.550781 12.898438 -2.195312 11.921875 -1.1875 C 10.953125 -0.175781 9.554688 0.328125 7.734375 0.328125 Z M 7.734375 0.328125 "/></g></g></g><g fill="#000000" fill-opacity="1"><g transform="translate(142.703552, 134.408583)"><g><path d="M 6.71875 -6.140625 L 4.171875 -6.140625 L 4.171875 0 L 2.28125 0 L 2.28125 -13.96875 L 6.953125 -13.96875 C 8.546875 -13.96875 9.753906 -13.625 10.578125 -12.9375 C 11.398438 -12.25 11.8125 -11.3125 11.8125 -10.125 C 11.8125 -9.125 11.539062 -8.304688 11 -7.671875 C 10.46875 -7.035156 9.679688 -6.613281 8.640625 -6.40625 L 13.203125 0 L 11 0 Z M 4.171875 -7.578125 L 6.953125 -7.578125 C 8.929688 -7.578125 9.921875 -8.40625 9.921875 -10.0625 C 9.921875 -10.84375 9.664062 -11.453125 9.15625 -11.890625 C 8.644531 -12.328125 7.910156 -12.546875 6.953125 -12.546875 L 4.171875 -12.546875 Z M 4.171875 -7.578125 "/></g></g></g><g fill="#000000" fill-opacity="1"><g transform="translate(158.283162, 134.408583)"><g/></g></g><g fill="#000000" fill-opacity="1"><g transform="translate(165.016759, 134.408583)"><g><path d="M 9.46875 -4.328125 L 3.859375 -4.328125 L 2.28125 0 L 0.390625 0 L 5.8125 -14.140625 L 7.5625 -14.140625 L 13 0 L 11.0625 0 Z M 8.953125 -5.75 L 6.671875 -11.953125 L 4.390625 -5.75 Z M 8.953125 -5.75 "/></g></g></g><g fill="#000000" fill-opacity="1"><g transform="translate(180.001156, 134.408583)"><g><path d="M 17.65625 4.03125 C 17.25 4.320312 16.847656 4.539062 16.453125 4.6875 C 16.066406 4.832031 15.664062 4.90625 15.25 4.90625 C 13.8125 4.90625 12.503906 4.210938 11.328125 2.828125 L 9.15625 0.25 C 8.832031 0.300781 8.441406 0.328125 7.984375 0.328125 C 6.535156 0.328125 5.289062 0.00390625 4.25 -0.640625 C 3.21875 -1.296875 2.441406 -2.175781 1.921875 -3.28125 C 1.410156 -4.394531 1.15625 -5.617188 1.15625 -6.953125 C 1.15625 -8.296875 1.410156 -9.519531 1.921875 -10.625 C 2.441406 -11.726562 3.21875 -12.601562 4.25 -13.25 C 5.289062 -13.90625 6.535156 -14.234375 7.984375 -14.234375 C 9.429688 -14.234375 10.671875 -13.90625 11.703125 -13.25 C 12.742188 -12.601562 13.523438 -11.726562 14.046875 -10.625 C 14.566406 -9.519531 14.828125 -8.304688 14.828125 -6.984375 C 14.828125 -5.453125 14.492188 -4.085938 13.828125 -2.890625 C 13.160156 -1.691406 12.207031 -0.816406 10.96875 -0.265625 L 12.546875 1.59375 C 13.546875 2.757812 14.484375 3.34375 15.359375 3.34375 C 16.054688 3.34375 16.710938 3.117188 17.328125 2.671875 Z M 3.03125 -6.953125 C 3.03125 -5.847656 3.222656 -4.851562 3.609375 -3.96875 C 3.992188 -3.09375 4.554688 -2.40625 5.296875 -1.90625 C 6.046875 -1.40625 6.941406 -1.15625 7.984375 -1.15625 C 9.023438 -1.15625 9.914062 -1.40625 10.65625 -1.90625 C 11.394531 -2.40625 11.957031 -3.09375 12.34375 -3.96875 C 12.726562 -4.851562 12.921875 -5.847656 12.921875 -6.953125 C 12.921875 -8.066406 12.726562 -9.0625 12.34375 -9.9375 C 11.957031 -10.8125 11.390625 -11.5 10.640625 -12 C 9.898438 -12.507812 9.015625 -12.765625 7.984375 -12.765625 C 6.941406 -12.765625 6.046875 -12.507812 5.296875 -12 C 4.554688 -11.5 3.992188 -10.8125 3.609375 -9.9375 C 3.222656 -9.0625 3.03125 -8.066406 3.03125 -6.953125 Z M 3.03125 -6.953125 "/></g></g></g><g fill="#000000" fill-opacity="1"><g transform="translate(197.551104, 134.408583)"><g><path d="M 7.734375 0.328125 C 5.921875 0.328125 4.523438 -0.175781 3.546875 -1.1875 C 2.566406 -2.195312 2.078125 -3.539062 2.078125 -5.21875 L 2.078125 -13.96875 L 3.96875 -13.96875 L 3.96875 -5.234375 C 3.96875 -3.929688 4.296875 -2.925781 4.953125 -2.21875 C 5.609375 -1.507812 6.535156 -1.15625 7.734375 -1.15625 C 8.941406 -1.15625 9.867188 -1.507812 10.515625 -2.21875 C 11.171875 -2.925781 11.5 -3.929688 11.5 -5.234375 L 11.5 -13.96875 L 13.390625 -13.96875 L 13.390625 -5.25 C 13.390625 -3.550781 12.898438 -2.195312 11.921875 -1.1875 C 10.953125 -0.175781 9.554688 0.328125 7.734375 0.328125 Z M 7.734375 0.328125 "/></g></g></g><g fill="#000000" fill-opacity="1"><g transform="translate(214.628989, 134.408583)"><g><path d="M 9.46875 -4.328125 L 3.859375 -4.328125 L 2.28125 0 L 0.390625 0 L 5.8125 -14.140625 L 7.5625 -14.140625 L 13 0 L 11.0625 0 Z M 8.953125 -5.75 L 6.671875 -11.953125 L 4.390625 -5.75 Z M 8.953125 -5.75 "/></g></g></g><g fill="#000000" fill-opacity="1"><g transform="translate(229.613386, 134.408583)"><g><path d="M 11.984375 -12.53125 L 7.28125 -12.53125 L 7.28125 0 L 5.40625 0 L 5.40625 -12.53125 L 0.703125 -12.53125 L 0.703125 -13.96875 L 11.984375 -13.96875 Z M 11.984375 -12.53125 "/></g></g></g><g fill="#000000" fill-opacity="1"><g transform="translate(243.899948, 134.408583)"><g><path d="M 2.28125 -13.96875 L 4.171875 -13.96875 L 4.171875 0 L 2.28125 0 Z M 2.28125 -13.96875 "/></g></g></g><g fill="#000000" fill-opacity="1"><g transform="translate(251.967619, 134.408583)"><g><path d="M 8.1875 0.3125 C 6.65625 0.3125 5.363281 -0.0195312 4.3125 -0.6875 C 3.257812 -1.363281 2.46875 -2.253906 1.9375 -3.359375 C 1.414062 -4.472656 1.15625 -5.6875 1.15625 -7 C 1.15625 -8.3125 1.425781 -9.515625 1.96875 -10.609375 C 2.519531 -11.703125 3.34375 -12.578125 4.4375 -13.234375 C 5.53125 -13.898438 6.863281 -14.234375 8.4375 -14.234375 C 9.351562 -14.234375 10.210938 -14.082031 11.015625 -13.78125 C 11.816406 -13.488281 12.5 -13.078125 13.0625 -12.546875 L 12.28125 -11.296875 C 11.84375 -11.742188 11.28125 -12.097656 10.59375 -12.359375 C 9.90625 -12.628906 9.1875 -12.765625 8.4375 -12.765625 C 7.289062 -12.765625 6.3125 -12.507812 5.5 -12 C 4.695312 -11.5 4.082031 -10.8125 3.65625 -9.9375 C 3.238281 -9.0625 3.03125 -8.078125 3.03125 -6.984375 C 3.03125 -5.859375 3.226562 -4.859375 3.625 -3.984375 C 4.03125 -3.109375 4.617188 -2.414062 5.390625 -1.90625 C 6.160156 -1.40625 7.09375 -1.15625 8.1875 -1.15625 C 9.875 -1.15625 11.332031 -1.796875 12.5625 -3.078125 L 13.265625 -1.84375 C 12.648438 -1.21875 11.910156 -0.703125 11.046875 -0.296875 C 10.179688 0.109375 9.226562 0.3125 8.1875 0.3125 Z M 8.1875 0.3125 "/></g></g></g><g fill="#000000" fill-opacity="1"><g transform="translate(267.793515, 134.408583)"><g/></g></g><g fill="#000000" fill-opacity="1"><g transform="translate(274.527117, 134.408583)"><g><path d="M 13.59375 -13.96875 L 13.59375 0 L 11.703125 0 L 11.703125 -6.671875 L 4.171875 -6.671875 L 4.171875 0 L 2.28125 0 L 2.28125 -13.96875 L 4.171875 -13.96875 L 4.171875 -8.109375 L 11.703125 -8.109375 L 11.703125 -13.96875 Z M 13.59375 -13.96875 "/></g></g></g><g fill="#000000" fill-opacity="1"><g transform="translate(292.015502, 134.408583)"><g><path d="M 9.46875 -4.328125 L 3.859375 -4.328125 L 2.28125 0 L 0.390625 0 L 5.8125 -14.140625 L 7.5625 -14.140625 L 13 0 L 11.0625 0 Z M 8.953125 -5.75 L 6.671875 -11.953125 L 4.390625 -5.75 Z M 8.953125 -5.75 "/></g></g></g><g fill="#000000" fill-opacity="1"><g transform="translate(306.999908, 134.408583)"><g><path d="M 13.21875 -13.96875 L 7.828125 0.171875 L 6 0.171875 L 0.578125 -13.96875 L 2.5 -13.96875 L 6.921875 -1.953125 L 11.328125 -13.96875 Z M 13.21875 -13.96875 "/></g></g></g><g fill="#000000" fill-opacity="1"><g transform="translate(322.374288, 134.408583)"><g><path d="M 10.84375 -1.421875 L 10.84375 0 L 2.28125 0 L 2.28125 -13.96875 L 10.4375 -13.96875 L 10.4375 -12.546875 L 4.171875 -12.546875 L 4.171875 -8.09375 L 9.609375 -8.09375 L 9.609375 -6.671875 L 4.171875 -6.671875 L 4.171875 -1.421875 Z M 10.84375 -1.421875 "/></g></g></g><g fill="#000000" fill-opacity="1"><g transform="translate(335.98356, 134.408583)"><g><path d="M 13.59375 -13.96875 L 13.59375 0 L 11.953125 0.015625 L 4.0625 -10.9375 L 4.171875 -6.078125 L 4.171875 0 L 2.28125 0 L 2.28125 -13.96875 L 3.921875 -13.96875 L 11.8125 -2.984375 L 11.703125 -8.421875 L 11.703125 -13.96875 Z M 13.59375 -13.96875 "/></g></g></g></svg>