<svg xmlns="http://www.w3.org/2000/svg" xmlns:xlink="http://www.w3.org/1999/xlink" width="500" zoomAndPan="magnify" viewBox="0 0 375 149.999998" height="200" preserveAspectRatio="xMidYMid meet" version="1.0"><defs><g/><clipPath id="52eb1b9a9b"><path d="M 21 35.496094 L 86.546875 35.496094 L 86.546875 117.246094 L 21 117.246094 Z M 21 35.496094 " clip-rule="nonzero"/></clipPath><clipPath id="ad06d5502b"><path d="M 18 33 L 53 33 L 53 38 L 18 38 Z M 18 33 " clip-rule="nonzero"/></clipPath><clipPath id="183b964c42"><path d="M 23.820312 9.082031 L 53.0625 15.789062 L 48.03125 37.71875 L 18.789062 31.011719 Z M 23.820312 9.082031 " clip-rule="nonzero"/></clipPath><clipPath id="041ac0c298"><path d="M 47.496094 68.917969 L 11.675781 60.703125 L 23.582031 8.800781 L 59.402344 17.019531 Z M 47.496094 68.917969 " clip-rule="nonzero"/></clipPath><clipPath id="ad27c61f2c"><path d="M 18 33 L 52 33 L 52 38 L 18 38 Z M 18 33 " clip-rule="nonzero"/></clipPath><clipPath id="6237c4c8da"><path d="M 23.820312 9.082031 L 53.0625 15.789062 L 48.03125 37.71875 L 18.789062 31.011719 Z M 23.820312 9.082031 " clip-rule="nonzero"/></clipPath><clipPath id="c6b9addc3f"><path d="M 47.496094 68.917969 L 11.675781 60.703125 L 23.582031 8.800781 L 59.402344 17.019531 Z M 47.496094 68.917969 " clip-rule="nonzero"/></clipPath><clipPath id="83ecd548fb"><path d="M 21 33 L 50 33 L 50 38 L 21 38 Z M 21 33 " clip-rule="nonzero"/></clipPath><clipPath id="c41b690d7f"><path d="M 23.820312 9.082031 L 53.0625 15.789062 L 48.03125 37.71875 L 18.789062 31.011719 Z M 23.820312 9.082031 " clip-rule="nonzero"/></clipPath><clipPath id="e82e50a6af"><path d="M 47.496094 68.917969 L 11.675781 60.703125 L 23.582031 8.800781 L 59.402344 17.019531 Z M 47.496094 68.917969 " clip-rule="nonzero"/></clipPath><clipPath id="336069905d"><path d="M 21 17 L 50 17 L 50 32 L 21 32 Z M 21 17 " clip-rule="nonzero"/></clipPath><clipPath id="ec4a27349b"><path d="M 23.820312 9.082031 L 53.0625 15.789062 L 48.03125 37.71875 L 18.789062 31.011719 Z M 23.820312 9.082031 " clip-rule="nonzero"/></clipPath><clipPath id="bbcaf9ff4f"><path d="M 47.496094 68.917969 L 11.675781 60.703125 L 23.582031 8.800781 L 59.402344 17.019531 Z M 47.496094 68.917969 " clip-rule="nonzero"/></clipPath><clipPath id="5424950144"><path d="M 31 30 L 42 30 L 42 33 L 31 33 Z M 31 30 " clip-rule="nonzero"/></clipPath><clipPath id="3e58d65749"><path d="M 23.820312 9.082031 L 53.0625 15.789062 L 48.03125 37.71875 L 18.789062 31.011719 Z M 23.820312 9.082031 " clip-rule="nonzero"/></clipPath><clipPath id="a2ad7a476a"><path d="M 47.496094 68.917969 L 11.675781 60.703125 L 23.582031 8.800781 L 59.402344 17.019531 Z M 47.496094 68.917969 " clip-rule="nonzero"/></clipPath><clipPath id="32f353b689"><path d="M 27 11 L 36 11 L 36 19 L 27 19 Z M 27 11 " clip-rule="nonzero"/></clipPath><clipPath id="596b05d504"><path d="M 23.820312 9.082031 L 53.0625 15.789062 L 48.03125 37.71875 L 18.789062 31.011719 Z M 23.820312 9.082031 " clip-rule="nonzero"/></clipPath><clipPath id="dc05ff8549"><path d="M 47.496094 68.917969 L 11.675781 60.703125 L 23.582031 8.800781 L 59.402344 17.019531 Z M 47.496094 68.917969 " clip-rule="nonzero"/></clipPath></defs><g clip-path="url(#52eb1b9a9b)"><path fill="#ffffff" d="M 21.039062 44.390625 L 21.039062 84.96875 C 24.167969 77.148438 28.9375 70.691406 34.878906 65.207031 C 35.289062 64.832031 35.699219 64.457031 36.121094 64.097656 C 44.007812 57.1875 54.941406 52.238281 53.21875 39.722656 C 60.640625 46.292969 58.355469 54.371094 53.253906 61.191406 C 52.984375 61.550781 52.714844 61.914062 52.457031 62.289062 C 51.753906 63.246094 51.085938 64.226562 50.441406 65.207031 C 49.246094 67.027344 48.132812 68.871094 47.125 70.785156 C 42.589844 79.34375 38.980469 90.734375 50.066406 96.363281 C 57.921875 100.34375 67.121094 94.75 67.566406 86.171875 C 67.824219 81.246094 65.234375 76.984375 60.03125 73.355469 C 76.015625 73.574219 81.851562 90.257812 72.183594 101.546875 C 70.0625 104.019531 67.519531 105.851562 64.601562 107.136719 C 43.117188 116.605469 25.058594 94.15625 38.980469 71.542969 C 19.070312 86.988281 31.058594 117.246094 57.382812 117.246094 C 73.484375 117.246094 86.527344 104.847656 86.527344 89.570312 C 86.527344 78.339844 79.484375 68.671875 69.371094 64.332031 C 75.125 62.265625 79.261719 56.765625 79.261719 50.355469 C 79.261719 42.183594 72.546875 35.496094 64.34375 35.496094 L 28.644531 35.496094 C 22.140625 35.496094 21.039062 39.011719 21.039062 44.390625 Z M 21.039062 44.390625 " fill-opacity="1" fill-rule="evenodd"/></g><g clip-path="url(#ad06d5502b)"><g clip-path="url(#183b964c42)"><g clip-path="url(#041ac0c298)"><path fill="#ffffff" d="M 50.074219 33.203125 C 50.074219 33.203125 50.203125 33.414062 50.433594 33.816406 C 50.449219 33.84375 50.464844 33.867188 50.476562 33.894531 C 50.492188 33.921875 50.507812 33.949219 50.523438 33.976562 C 50.554688 34.035156 50.585938 34.09375 50.617188 34.160156 C 50.683594 34.285156 50.757812 34.425781 50.835938 34.578125 C 50.855469 34.617188 50.875 34.652344 50.894531 34.695312 C 50.910156 34.734375 50.929688 34.773438 50.949219 34.816406 C 50.988281 34.898438 51.027344 34.984375 51.066406 35.070312 C 51.109375 35.160156 51.148438 35.253906 51.191406 35.347656 C 51.214844 35.394531 51.234375 35.441406 51.257812 35.488281 C 51.277344 35.539062 51.296875 35.589844 51.316406 35.640625 C 51.398438 35.84375 51.484375 36.058594 51.574219 36.285156 C 51.65625 36.511719 51.742188 36.75 51.828125 37.003906 C 51.839844 37.035156 51.851562 37.066406 51.859375 37.097656 C 51.871094 37.128906 51.878906 37.160156 51.890625 37.191406 C 51.910156 37.257812 51.929688 37.324219 51.949219 37.390625 C 51.988281 37.523438 52.03125 37.65625 52.070312 37.792969 C 52.113281 37.933594 52.148438 38.074219 52.183594 38.21875 C 52.222656 38.363281 52.257812 38.511719 52.296875 38.660156 C 52.335938 38.808594 52.363281 38.964844 52.398438 39.117188 C 52.429688 39.273438 52.460938 39.433594 52.492188 39.59375 C 52.511719 39.675781 52.523438 39.757812 52.535156 39.839844 C 52.550781 39.921875 52.5625 40.003906 52.574219 40.089844 C 52.589844 40.171875 52.601562 40.253906 52.613281 40.339844 C 52.621094 40.382812 52.628906 40.425781 52.636719 40.46875 C 52.640625 40.511719 52.648438 40.554688 52.652344 40.597656 C 52.671875 40.769531 52.691406 40.945312 52.714844 41.121094 C 52.722656 41.210938 52.734375 41.300781 52.742188 41.390625 C 52.75 41.4375 52.75 41.480469 52.753906 41.527344 C 52.757812 41.570312 52.761719 41.617188 52.761719 41.664062 C 52.777344 41.84375 52.789062 42.03125 52.800781 42.21875 C 52.804688 42.265625 52.808594 42.3125 52.808594 42.359375 C 52.8125 42.40625 52.8125 42.453125 52.8125 42.5 C 52.816406 42.59375 52.816406 42.691406 52.820312 42.785156 C 52.820312 42.882812 52.824219 42.980469 52.828125 43.074219 C 52.828125 43.171875 52.832031 43.269531 52.828125 43.367188 C 52.824219 43.5625 52.820312 43.761719 52.816406 43.960938 C 52.8125 44.011719 52.8125 44.0625 52.8125 44.113281 L 52.808594 44.1875 L 52.804688 44.265625 C 52.796875 44.363281 52.789062 44.464844 52.785156 44.566406 C 52.777344 44.667969 52.769531 44.773438 52.761719 44.875 C 52.757812 44.925781 52.757812 44.976562 52.753906 45.03125 L 52.746094 45.105469 L 52.738281 45.183594 C 52.714844 45.390625 52.691406 45.601562 52.667969 45.808594 C 52.664062 45.863281 52.65625 45.914062 52.652344 45.96875 L 52.628906 46.125 C 52.613281 46.230469 52.597656 46.335938 52.578125 46.445312 C 52.5625 46.550781 52.546875 46.65625 52.527344 46.765625 C 52.519531 46.816406 52.511719 46.871094 52.503906 46.925781 L 52.496094 46.964844 C 52.496094 46.976562 52.496094 46.964844 52.492188 47 L 52.488281 47.015625 L 52.472656 47.09375 C 52.453125 47.195312 52.433594 47.300781 52.410156 47.402344 L 52.398438 47.480469 C 52.390625 47.503906 52.386719 47.53125 52.382812 47.558594 C 52.367188 47.613281 52.355469 47.667969 52.34375 47.722656 C 52.320312 47.835938 52.292969 47.945312 52.269531 48.058594 C 52.257812 48.113281 52.242188 48.167969 52.230469 48.222656 C 52.214844 48.277344 52.203125 48.332031 52.1875 48.386719 C 52.160156 48.496094 52.132812 48.605469 52.105469 48.714844 C 52.074219 48.824219 52.042969 48.933594 52.011719 49.042969 C 51.996094 49.097656 51.980469 49.152344 51.964844 49.207031 C 51.949219 49.261719 51.929688 49.320312 51.914062 49.375 C 51.878906 49.484375 51.847656 49.59375 51.8125 49.703125 C 51.777344 49.816406 51.738281 49.925781 51.699219 50.035156 C 51.664062 50.144531 51.625 50.253906 51.585938 50.367188 C 51.542969 50.476562 51.503906 50.585938 51.464844 50.695312 C 51.441406 50.75 51.421875 50.808594 51.402344 50.863281 C 51.378906 50.917969 51.355469 50.972656 51.335938 51.027344 C 51.289062 51.136719 51.246094 51.246094 51.203125 51.359375 C 51.15625 51.46875 51.105469 51.578125 51.058594 51.6875 C 51.035156 51.742188 51.011719 51.796875 50.988281 51.851562 C 50.964844 51.90625 50.9375 51.960938 50.910156 52.015625 C 50.859375 52.125 50.808594 52.234375 50.757812 52.34375 C 50.707031 52.453125 50.652344 52.5625 50.597656 52.671875 C 50.542969 52.78125 50.492188 52.890625 50.433594 52.996094 C 49.53125 54.734375 48.34375 56.402344 46.914062 57.898438 C 46.824219 57.988281 46.734375 58.082031 46.644531 58.175781 C 46.597656 58.222656 46.550781 58.265625 46.507812 58.3125 L 46.367188 58.449219 L 46.226562 58.582031 C 46.179688 58.628906 46.132812 58.671875 46.085938 58.714844 C 45.988281 58.804688 45.894531 58.890625 45.800781 58.980469 C 45.410156 59.328125 45.015625 59.667969 44.601562 59.988281 C 43.777344 60.632812 42.902344 61.222656 41.988281 61.742188 L 41.816406 61.84375 L 41.644531 61.9375 C 41.527344 62 41.414062 62.0625 41.296875 62.125 C 41.0625 62.246094 40.828125 62.367188 40.59375 62.476562 C 40.355469 62.59375 40.117188 62.699219 39.875 62.808594 C 39.757812 62.859375 39.632812 62.910156 39.511719 62.960938 L 39.332031 63.035156 L 39.148438 63.109375 C 38.175781 63.496094 37.175781 63.800781 36.167969 64.042969 C 34.152344 64.523438 32.105469 64.695312 30.144531 64.597656 C 30.019531 64.59375 29.898438 64.582031 29.777344 64.574219 C 29.65625 64.566406 29.53125 64.5625 29.410156 64.550781 C 29.167969 64.527344 28.929688 64.507812 28.691406 64.476562 C 28.210938 64.421875 27.742188 64.34375 27.277344 64.261719 C 27.164062 64.242188 27.046875 64.214844 26.933594 64.195312 C 26.875 64.183594 26.820312 64.171875 26.761719 64.160156 L 26.589844 64.121094 C 26.480469 64.097656 26.367188 64.070312 26.253906 64.046875 C 26.195312 64.03125 26.140625 64.019531 26.085938 64.003906 C 26.027344 63.992188 25.972656 63.976562 25.917969 63.960938 C 25.808594 63.933594 25.695312 63.90625 25.585938 63.875 L 25.53125 63.863281 L 25.414062 63.828125 C 25.363281 63.816406 25.3125 63.800781 25.261719 63.785156 C 25.207031 63.769531 25.15625 63.753906 25.105469 63.742188 C 25.078125 63.734375 25.054688 63.726562 25.027344 63.71875 L 24.945312 63.691406 C 24.835938 63.65625 24.726562 63.625 24.617188 63.589844 C 24.507812 63.554688 24.402344 63.519531 24.296875 63.484375 C 24.195312 63.445312 24.089844 63.414062 23.984375 63.375 C 23.882812 63.339844 23.78125 63.300781 23.675781 63.261719 C 23.625 63.242188 23.574219 63.226562 23.523438 63.207031 C 23.472656 63.1875 23.425781 63.167969 23.375 63.144531 C 23.273438 63.105469 23.171875 63.066406 23.074219 63.027344 C 22.972656 62.988281 22.875 62.941406 22.777344 62.902344 C 22.730469 62.882812 22.679688 62.859375 22.632812 62.839844 C 22.582031 62.820312 22.535156 62.800781 22.488281 62.777344 C 22.390625 62.734375 22.296875 62.6875 22.203125 62.644531 C 21.441406 62.296875 20.734375 61.910156 20.078125 61.507812 C 18.765625 60.703125 17.664062 59.820312 16.765625 58.972656 C 15.867188 58.121094 15.167969 57.304688 14.640625 56.609375 C 14.109375 55.910156 13.742188 55.328125 13.503906 54.929688 C 13.382812 54.730469 13.300781 54.570312 13.242188 54.46875 C 13.183594 54.363281 13.152344 54.308594 13.152344 54.308594 C 13.152344 54.308594 13.195312 54.351562 13.277344 54.441406 C 13.359375 54.527344 13.480469 54.65625 13.644531 54.824219 C 13.964844 55.15625 14.445312 55.632812 15.082031 56.203125 C 15.71875 56.769531 16.523438 57.417969 17.492188 58.078125 C 18.460938 58.738281 19.597656 59.402344 20.894531 59.984375 C 21.542969 60.277344 22.226562 60.554688 22.949219 60.792969 C 23.039062 60.824219 23.128906 60.855469 23.21875 60.886719 C 23.308594 60.914062 23.402344 60.941406 23.496094 60.972656 C 23.585938 61 23.679688 61.03125 23.773438 61.054688 C 23.867188 61.082031 23.960938 61.109375 24.054688 61.136719 C 24.101562 61.148438 24.148438 61.164062 24.195312 61.175781 C 24.242188 61.1875 24.292969 61.199219 24.339844 61.214844 C 24.433594 61.238281 24.53125 61.261719 24.625 61.289062 C 24.722656 61.3125 24.820312 61.335938 24.914062 61.359375 C 25.011719 61.382812 25.113281 61.40625 25.207031 61.425781 C 25.300781 61.445312 25.398438 61.464844 25.492188 61.488281 L 25.566406 61.503906 L 25.644531 61.519531 C 25.695312 61.527344 25.75 61.539062 25.800781 61.550781 C 25.855469 61.558594 25.90625 61.570312 25.960938 61.582031 L 26.078125 61.605469 C 26.058594 61.597656 26.082031 61.605469 26.085938 61.605469 L 26.101562 61.605469 C 26.203125 61.625 26.304688 61.640625 26.40625 61.660156 C 26.457031 61.667969 26.507812 61.675781 26.558594 61.683594 C 26.609375 61.691406 26.660156 61.699219 26.710938 61.707031 C 26.8125 61.722656 26.917969 61.738281 27.019531 61.75 L 27.175781 61.773438 C 27.226562 61.777344 27.277344 61.785156 27.328125 61.792969 C 27.433594 61.804688 27.535156 61.816406 27.640625 61.828125 C 27.746094 61.839844 27.847656 61.851562 27.953125 61.859375 C 28.007812 61.863281 28.058594 61.871094 28.113281 61.875 C 28.164062 61.878906 28.21875 61.882812 28.269531 61.886719 C 28.375 61.894531 28.480469 61.902344 28.585938 61.910156 C 28.695312 61.917969 28.800781 61.921875 28.90625 61.929688 C 29.332031 61.953125 29.761719 61.957031 30.195312 61.953125 C 31.929688 61.9375 33.707031 61.703125 35.457031 61.238281 C 35.890625 61.117188 36.328125 60.992188 36.757812 60.84375 C 36.863281 60.8125 36.972656 60.769531 37.078125 60.734375 C 37.183594 60.695312 37.292969 60.660156 37.398438 60.617188 C 37.503906 60.578125 37.613281 60.535156 37.71875 60.496094 C 37.824219 60.453125 37.929688 60.410156 38.035156 60.367188 L 38.195312 60.300781 L 38.351562 60.234375 C 38.457031 60.1875 38.5625 60.144531 38.664062 60.097656 C 38.871094 60 39.082031 59.90625 39.285156 59.804688 C 39.492188 59.707031 39.695312 59.597656 39.898438 59.496094 C 40 59.441406 40.097656 59.386719 40.199219 59.332031 L 40.351562 59.25 L 40.5 59.164062 C 41.292969 58.710938 42.058594 58.203125 42.785156 57.652344 C 42.875 57.582031 42.964844 57.511719 43.054688 57.445312 C 43.148438 57.375 43.234375 57.300781 43.324219 57.230469 C 43.503906 57.089844 43.671875 56.9375 43.847656 56.792969 C 43.933594 56.71875 44.015625 56.644531 44.101562 56.570312 C 44.144531 56.53125 44.1875 56.492188 44.226562 56.457031 L 44.351562 56.339844 C 44.433594 56.261719 44.519531 56.1875 44.601562 56.109375 C 44.679688 56.03125 44.761719 55.949219 44.84375 55.871094 C 45.164062 55.554688 45.476562 55.230469 45.773438 54.898438 L 45.886719 54.773438 L 45.996094 54.644531 C 46.066406 54.558594 46.140625 54.476562 46.210938 54.390625 C 46.28125 54.304688 46.351562 54.21875 46.421875 54.132812 C 46.457031 54.089844 46.492188 54.046875 46.527344 54.003906 L 46.628906 53.871094 C 46.90625 53.527344 47.164062 53.167969 47.414062 52.808594 C 47.535156 52.628906 47.660156 52.449219 47.777344 52.265625 C 47.835938 52.171875 47.894531 52.082031 47.953125 51.988281 C 48.007812 51.898438 48.0625 51.804688 48.121094 51.710938 C 48.566406 50.972656 48.957031 50.214844 49.300781 49.453125 C 49.34375 49.359375 49.382812 49.261719 49.425781 49.167969 C 49.464844 49.070312 49.507812 48.976562 49.546875 48.878906 C 49.585938 48.785156 49.625 48.6875 49.664062 48.59375 C 49.683594 48.546875 49.703125 48.496094 49.71875 48.449219 C 49.738281 48.402344 49.757812 48.355469 49.773438 48.304688 C 49.808594 48.210938 49.847656 48.113281 49.882812 48.019531 C 49.917969 47.925781 49.949219 47.828125 49.984375 47.730469 C 50.015625 47.636719 50.050781 47.539062 50.082031 47.445312 C 50.113281 47.355469 50.140625 47.261719 50.171875 47.167969 C 50.1875 47.121094 50.203125 47.074219 50.21875 47.03125 C 50.226562 47.007812 50.234375 46.980469 50.238281 46.957031 L 50.261719 46.878906 C 50.292969 46.78125 50.320312 46.679688 50.351562 46.578125 L 50.371094 46.503906 L 50.378906 46.484375 C 50.375 46.507812 50.378906 46.480469 50.378906 46.480469 L 50.386719 46.445312 C 50.402344 46.398438 50.414062 46.351562 50.425781 46.300781 C 50.453125 46.207031 50.476562 46.113281 50.5 46.019531 C 50.527344 45.921875 50.550781 45.832031 50.574219 45.738281 L 50.59375 45.664062 L 50.609375 45.59375 C 50.621094 45.546875 50.628906 45.5 50.640625 45.453125 C 50.683594 45.265625 50.722656 45.078125 50.765625 44.894531 C 50.910156 44.152344 51.03125 43.425781 51.097656 42.71875 C 51.105469 42.632812 51.117188 42.542969 51.125 42.457031 C 51.128906 42.414062 51.132812 42.371094 51.136719 42.324219 C 51.140625 42.28125 51.144531 42.238281 51.148438 42.195312 C 51.160156 42.023438 51.167969 41.851562 51.179688 41.683594 C 51.183594 41.640625 51.1875 41.597656 51.191406 41.554688 C 51.191406 41.511719 51.195312 41.46875 51.195312 41.429688 C 51.199219 41.34375 51.199219 41.261719 51.203125 41.179688 C 51.207031 41.011719 51.210938 40.847656 51.214844 40.683594 C 51.21875 40.644531 51.21875 40.605469 51.21875 40.5625 C 51.21875 40.523438 51.214844 40.484375 51.214844 40.441406 C 51.214844 40.363281 51.214844 40.28125 51.214844 40.203125 C 51.210938 40.125 51.210938 40.042969 51.210938 39.964844 C 51.210938 39.886719 51.210938 39.808594 51.207031 39.734375 C 51.199219 39.578125 51.191406 39.425781 51.183594 39.277344 C 51.175781 39.125 51.175781 38.976562 51.160156 38.832031 C 51.148438 38.6875 51.136719 38.542969 51.125 38.402344 C 51.113281 38.261719 51.101562 38.121094 51.085938 37.984375 C 51.066406 37.851562 51.050781 37.714844 51.035156 37.585938 C 51.027344 37.519531 51.019531 37.453125 51.011719 37.390625 C 51.007812 37.359375 51.003906 37.324219 51 37.292969 C 50.996094 37.261719 50.992188 37.230469 50.984375 37.199219 C 50.945312 36.945312 50.910156 36.703125 50.871094 36.472656 C 50.828125 36.242188 50.785156 36.023438 50.746094 35.816406 C 50.734375 35.761719 50.726562 35.710938 50.714844 35.660156 C 50.703125 35.609375 50.695312 35.558594 50.683594 35.511719 C 50.660156 35.410156 50.636719 35.316406 50.617188 35.222656 C 50.597656 35.128906 50.574219 35.039062 50.554688 34.953125 C 50.546875 34.910156 50.535156 34.867188 50.527344 34.824219 C 50.515625 34.785156 50.503906 34.742188 50.492188 34.703125 C 50.453125 34.542969 50.414062 34.394531 50.378906 34.257812 C 50.359375 34.1875 50.34375 34.121094 50.328125 34.058594 C 50.320312 34.03125 50.308594 34 50.300781 33.96875 C 50.292969 33.941406 50.285156 33.910156 50.277344 33.882812 C 50.140625 33.441406 50.074219 33.203125 50.074219 33.203125 " fill-opacity="1" fill-rule="nonzero"/></g></g></g><g clip-path="url(#ad27c61f2c)"><g clip-path="url(#6237c4c8da)"><g clip-path="url(#c6b9addc3f)"><path fill="#ffffff" d="M 49.734375 33.125 C 49.734375 33.125 49.820312 33.316406 49.96875 33.683594 C 49.988281 33.730469 50.007812 33.777344 50.027344 33.832031 C 50.046875 33.882812 50.066406 33.9375 50.085938 33.996094 C 50.125 34.113281 50.171875 34.238281 50.21875 34.375 C 50.230469 34.410156 50.242188 34.445312 50.257812 34.480469 C 50.265625 34.515625 50.277344 34.554688 50.289062 34.589844 C 50.3125 34.664062 50.335938 34.742188 50.359375 34.820312 C 50.382812 34.902344 50.40625 34.984375 50.433594 35.066406 C 50.445312 35.109375 50.457031 35.152344 50.46875 35.199219 C 50.480469 35.242188 50.492188 35.285156 50.503906 35.332031 C 50.546875 35.511719 50.597656 35.703125 50.644531 35.90625 C 50.6875 36.109375 50.730469 36.324219 50.773438 36.546875 C 50.777344 36.574219 50.785156 36.601562 50.789062 36.628906 C 50.792969 36.660156 50.796875 36.6875 50.804688 36.714844 C 50.8125 36.773438 50.820312 36.832031 50.832031 36.886719 C 50.847656 37.003906 50.867188 37.125 50.882812 37.246094 C 50.902344 37.367188 50.914062 37.492188 50.929688 37.621094 C 50.941406 37.746094 50.957031 37.875 50.96875 38.007812 C 50.984375 38.136719 50.992188 38.273438 51 38.40625 C 51.007812 38.542969 51.015625 38.683594 51.023438 38.824219 C 51.027344 38.894531 51.027344 38.964844 51.027344 39.035156 C 51.03125 39.105469 51.03125 39.179688 51.03125 39.25 C 51.035156 39.394531 51.039062 39.542969 51.035156 39.691406 C 51.03125 39.839844 51.027344 39.992188 51.023438 40.144531 C 51.019531 40.222656 51.015625 40.300781 51.011719 40.375 C 51.011719 40.414062 51.007812 40.453125 51.007812 40.492188 C 51.003906 40.53125 51 40.570312 50.996094 40.609375 C 50.984375 40.765625 50.972656 40.925781 50.960938 41.085938 C 50.957031 41.125 50.953125 41.167969 50.949219 41.207031 C 50.945312 41.246094 50.941406 41.289062 50.9375 41.328125 C 50.925781 41.40625 50.917969 41.488281 50.90625 41.570312 C 50.894531 41.652344 50.886719 41.734375 50.875 41.816406 C 50.867188 41.898438 50.855469 41.984375 50.839844 42.066406 C 50.8125 42.230469 50.785156 42.398438 50.753906 42.570312 C 50.746094 42.609375 50.742188 42.652344 50.734375 42.695312 L 50.722656 42.761719 L 50.707031 42.824219 C 50.691406 42.90625 50.671875 42.992188 50.652344 43.078125 C 50.632812 43.164062 50.617188 43.25 50.597656 43.335938 C 50.585938 43.378906 50.578125 43.421875 50.566406 43.46875 L 50.554688 43.53125 L 50.535156 43.597656 C 50.492188 43.769531 50.445312 43.945312 50.398438 44.117188 C 50.386719 44.164062 50.375 44.207031 50.363281 44.25 L 50.324219 44.382812 C 50.296875 44.46875 50.269531 44.558594 50.242188 44.644531 C 50.214844 44.734375 50.1875 44.824219 50.160156 44.910156 C 50.144531 44.957031 50.132812 45 50.117188 45.046875 L 50.105469 45.078125 C 50.101562 45.089844 50.109375 45.078125 50.097656 45.109375 L 50.089844 45.125 L 50.070312 45.1875 C 50.039062 45.269531 50.007812 45.355469 49.980469 45.4375 L 49.957031 45.5 C 49.949219 45.523438 49.945312 45.542969 49.933594 45.566406 C 49.917969 45.613281 49.898438 45.65625 49.882812 45.703125 C 49.847656 45.792969 49.808594 45.886719 49.773438 45.980469 C 49.757812 46.027344 49.738281 46.070312 49.71875 46.113281 C 49.703125 46.160156 49.683594 46.203125 49.664062 46.246094 C 49.625 46.335938 49.589844 46.425781 49.550781 46.515625 C 49.511719 46.605469 49.46875 46.695312 49.429688 46.785156 C 49.410156 46.828125 49.390625 46.871094 49.367188 46.917969 C 49.347656 46.960938 49.324219 47.007812 49.304688 47.050781 C 49.261719 47.140625 49.21875 47.230469 49.175781 47.320312 C 49.132812 47.410156 49.085938 47.496094 49.039062 47.585938 C 48.992188 47.675781 48.949219 47.765625 48.898438 47.851562 C 48.800781 48.027344 48.707031 48.207031 48.601562 48.382812 C 48.546875 48.472656 48.496094 48.558594 48.445312 48.648438 C 48.390625 48.734375 48.335938 48.820312 48.28125 48.910156 C 48.253906 48.953125 48.226562 48.996094 48.199219 49.039062 C 48.171875 49.085938 48.140625 49.128906 48.113281 49.171875 C 48.054688 49.257812 48 49.34375 47.941406 49.429688 C 47.882812 49.515625 47.820312 49.601562 47.761719 49.6875 C 47.699219 49.773438 47.640625 49.859375 47.578125 49.941406 C 46.585938 51.304688 45.355469 52.570312 43.945312 53.65625 C 43.855469 53.722656 43.765625 53.789062 43.675781 53.855469 C 43.589844 53.921875 43.496094 53.988281 43.40625 54.050781 L 43.269531 54.148438 C 43.222656 54.179688 43.175781 54.210938 43.128906 54.242188 C 43.039062 54.304688 42.945312 54.367188 42.851562 54.429688 C 42.476562 54.675781 42.09375 54.914062 41.699219 55.132812 C 40.910156 55.570312 40.089844 55.957031 39.242188 56.28125 L 38.921875 56.398438 C 38.816406 56.4375 38.710938 56.476562 38.601562 56.511719 C 38.386719 56.582031 38.171875 56.65625 37.953125 56.71875 C 37.738281 56.785156 37.519531 56.84375 37.300781 56.902344 C 37.191406 56.933594 37.082031 56.957031 36.972656 56.984375 L 36.808594 57.027344 L 36.640625 57.0625 C 35.761719 57.261719 34.867188 57.390625 33.980469 57.460938 C 32.199219 57.59375 30.433594 57.464844 28.78125 57.113281 C 28.675781 57.09375 28.574219 57.070312 28.472656 57.046875 C 28.371094 57.023438 28.269531 57 28.167969 56.972656 C 27.964844 56.921875 27.761719 56.871094 27.5625 56.8125 C 27.164062 56.703125 26.777344 56.570312 26.394531 56.4375 C 26.300781 56.402344 26.207031 56.367188 26.109375 56.332031 C 26.0625 56.316406 26.015625 56.296875 25.96875 56.277344 L 25.898438 56.253906 L 25.832031 56.226562 C 25.738281 56.1875 25.644531 56.148438 25.554688 56.113281 C 25.507812 56.09375 25.460938 56.074219 25.417969 56.054688 C 25.371094 56.035156 25.328125 56.015625 25.28125 55.996094 C 25.191406 55.957031 25.101562 55.917969 25.011719 55.878906 L 24.996094 55.871094 C 24.984375 55.867188 24.996094 55.871094 24.964844 55.859375 L 24.871094 55.8125 C 24.832031 55.792969 24.789062 55.773438 24.746094 55.753906 C 24.707031 55.734375 24.664062 55.714844 24.625 55.695312 L 24.5625 55.667969 L 24.496094 55.632812 C 24.40625 55.589844 24.316406 55.542969 24.230469 55.5 C 24.140625 55.457031 24.058594 55.410156 23.972656 55.367188 C 23.890625 55.320312 23.804688 55.277344 23.722656 55.230469 C 23.640625 55.183594 23.558594 55.140625 23.476562 55.09375 C 23.4375 55.070312 23.398438 55.046875 23.355469 55.023438 C 23.316406 55 23.277344 54.976562 23.238281 54.953125 C 23.15625 54.902344 23.078125 54.855469 23 54.808594 C 22.921875 54.761719 22.84375 54.710938 22.765625 54.664062 C 22.691406 54.613281 22.613281 54.566406 22.539062 54.515625 C 22.460938 54.464844 22.386719 54.414062 22.3125 54.363281 C 21.71875 53.964844 21.175781 53.539062 20.675781 53.105469 C 19.675781 52.238281 18.871094 51.335938 18.234375 50.492188 C 17.597656 49.644531 17.128906 48.859375 16.785156 48.191406 C 16.441406 47.527344 16.21875 46.984375 16.078125 46.613281 C 16.003906 46.425781 15.957031 46.28125 15.925781 46.183594 C 15.890625 46.085938 15.875 46.039062 15.875 46.039062 C 15.875 46.039062 15.90625 46.082031 15.964844 46.164062 C 16.023438 46.246094 16.113281 46.371094 16.230469 46.53125 C 16.464844 46.847656 16.8125 47.308594 17.285156 47.859375 C 17.757812 48.410156 18.355469 49.050781 19.089844 49.722656 C 19.828125 50.390625 20.703125 51.082031 21.71875 51.726562 C 22.222656 52.050781 22.761719 52.363281 23.335938 52.652344 C 23.480469 52.722656 23.625 52.796875 23.773438 52.867188 C 23.847656 52.898438 23.921875 52.9375 23.996094 52.96875 C 24.070312 53.003906 24.144531 53.039062 24.21875 53.070312 C 24.257812 53.089844 24.296875 53.105469 24.332031 53.121094 C 24.371094 53.136719 24.410156 53.15625 24.449219 53.171875 C 24.523438 53.203125 24.601562 53.234375 24.679688 53.269531 C 24.757812 53.300781 24.835938 53.332031 24.914062 53.363281 C 24.992188 53.394531 25.070312 53.425781 25.148438 53.453125 C 25.222656 53.484375 25.300781 53.511719 25.378906 53.539062 L 25.4375 53.5625 L 25.5 53.582031 C 25.542969 53.597656 25.585938 53.613281 25.628906 53.628906 C 25.671875 53.644531 25.714844 53.660156 25.757812 53.675781 L 25.824219 53.699219 L 25.855469 53.710938 C 25.835938 53.703125 25.859375 53.710938 25.859375 53.710938 L 25.875 53.714844 C 25.957031 53.742188 26.039062 53.769531 26.121094 53.796875 C 26.285156 53.851562 26.453125 53.898438 26.621094 53.949219 L 26.683594 53.96875 L 26.746094 53.984375 C 26.789062 53.996094 26.832031 54.007812 26.875 54.019531 C 26.960938 54.042969 27.042969 54.066406 27.128906 54.089844 C 27.214844 54.113281 27.300781 54.132812 27.386719 54.15625 C 27.429688 54.164062 27.472656 54.175781 27.515625 54.1875 C 27.558594 54.195312 27.605469 54.207031 27.648438 54.214844 C 27.734375 54.234375 27.820312 54.253906 27.910156 54.277344 C 27.996094 54.296875 28.085938 54.3125 28.171875 54.328125 C 28.523438 54.402344 28.882812 54.457031 29.242188 54.511719 C 30.6875 54.714844 32.199219 54.742188 33.710938 54.578125 C 34.085938 54.535156 34.464844 54.484375 34.839844 54.417969 C 34.9375 54.402344 35.03125 54.382812 35.125 54.367188 C 35.21875 54.347656 35.3125 54.328125 35.40625 54.308594 C 35.5 54.289062 35.59375 54.269531 35.6875 54.25 C 35.78125 54.226562 35.875 54.203125 35.964844 54.183594 L 36.246094 54.113281 C 36.339844 54.089844 36.433594 54.066406 36.523438 54.039062 C 36.710938 53.988281 36.894531 53.9375 37.078125 53.878906 C 37.261719 53.824219 37.445312 53.757812 37.628906 53.699219 L 37.898438 53.601562 L 38.035156 53.554688 L 38.167969 53.5 C 38.890625 53.226562 39.589844 52.90625 40.265625 52.542969 L 40.519531 52.40625 C 40.605469 52.359375 40.683594 52.3125 40.769531 52.265625 C 40.9375 52.171875 41.097656 52.070312 41.261719 51.972656 C 41.585938 51.769531 41.902344 51.558594 42.210938 51.335938 C 42.519531 51.117188 42.824219 50.886719 43.113281 50.648438 L 43.222656 50.5625 L 43.332031 50.46875 C 43.402344 50.410156 43.472656 50.347656 43.546875 50.289062 C 43.617188 50.226562 43.6875 50.164062 43.753906 50.101562 C 43.789062 50.070312 43.824219 50.039062 43.859375 50.007812 L 43.960938 49.914062 C 44.238281 49.664062 44.5 49.398438 44.757812 49.136719 C 44.882812 49 45.011719 48.867188 45.132812 48.730469 C 45.191406 48.664062 45.253906 48.59375 45.316406 48.527344 C 45.375 48.457031 45.433594 48.386719 45.492188 48.320312 C 45.964844 47.765625 46.390625 47.1875 46.78125 46.601562 C 46.832031 46.527344 46.875 46.453125 46.925781 46.378906 C 46.972656 46.304688 47.019531 46.230469 47.066406 46.15625 C 47.109375 46.082031 47.15625 46.007812 47.199219 45.933594 C 47.222656 45.898438 47.246094 45.859375 47.269531 45.824219 C 47.289062 45.785156 47.3125 45.75 47.332031 45.710938 C 47.375 45.636719 47.417969 45.5625 47.460938 45.488281 C 47.503906 45.414062 47.542969 45.335938 47.585938 45.261719 C 47.625 45.1875 47.667969 45.109375 47.707031 45.039062 C 47.746094 44.964844 47.785156 44.890625 47.820312 44.820312 C 47.839844 44.785156 47.859375 44.746094 47.878906 44.710938 C 47.886719 44.695312 47.898438 44.671875 47.90625 44.652344 L 47.9375 44.589844 C 47.976562 44.511719 48.011719 44.429688 48.050781 44.351562 L 48.082031 44.289062 L 48.085938 44.277344 C 48.078125 44.296875 48.089844 44.273438 48.089844 44.273438 L 48.101562 44.246094 C 48.117188 44.207031 48.136719 44.171875 48.152344 44.132812 C 48.1875 44.058594 48.222656 43.980469 48.253906 43.90625 C 48.289062 43.832031 48.324219 43.757812 48.355469 43.683594 L 48.382812 43.625 L 48.40625 43.570312 C 48.417969 43.53125 48.433594 43.492188 48.449219 43.457031 C 48.511719 43.304688 48.570312 43.15625 48.632812 43.007812 C 48.855469 42.40625 49.0625 41.820312 49.214844 41.238281 C 49.234375 41.167969 49.253906 41.097656 49.273438 41.023438 C 49.285156 40.988281 49.292969 40.953125 49.304688 40.917969 C 49.3125 40.882812 49.320312 40.847656 49.328125 40.808594 C 49.363281 40.667969 49.398438 40.523438 49.429688 40.386719 C 49.4375 40.351562 49.449219 40.316406 49.457031 40.28125 C 49.464844 40.246094 49.472656 40.210938 49.480469 40.175781 C 49.492188 40.105469 49.507812 40.039062 49.519531 39.96875 C 49.546875 39.828125 49.574219 39.691406 49.601562 39.558594 C 49.628906 39.421875 49.644531 39.289062 49.667969 39.15625 C 49.679688 39.089844 49.691406 39.023438 49.699219 38.957031 C 49.710938 38.890625 49.722656 38.828125 49.730469 38.761719 C 49.746094 38.632812 49.761719 38.503906 49.777344 38.378906 C 49.792969 38.25 49.8125 38.125 49.820312 38.003906 C 49.832031 37.878906 49.839844 37.757812 49.851562 37.636719 C 49.863281 37.519531 49.875 37.398438 49.878906 37.285156 C 49.882812 37.167969 49.890625 37.054688 49.894531 36.941406 C 49.898438 36.886719 49.902344 36.828125 49.90625 36.773438 C 49.90625 36.746094 49.910156 36.71875 49.910156 36.691406 C 49.910156 36.664062 49.910156 36.636719 49.910156 36.609375 C 49.914062 36.394531 49.917969 36.183594 49.921875 35.988281 C 49.917969 35.785156 49.914062 35.597656 49.910156 35.417969 C 49.910156 35.371094 49.910156 35.324219 49.910156 35.28125 C 49.90625 35.238281 49.90625 35.195312 49.902344 35.152344 C 49.898438 35.066406 49.894531 34.980469 49.890625 34.902344 C 49.886719 34.820312 49.882812 34.742188 49.878906 34.667969 C 49.875 34.628906 49.875 34.589844 49.875 34.554688 C 49.871094 34.519531 49.867188 34.480469 49.863281 34.445312 C 49.851562 34.304688 49.839844 34.175781 49.832031 34.054688 C 49.828125 33.996094 49.824219 33.9375 49.820312 33.882812 C 49.816406 33.828125 49.808594 33.777344 49.800781 33.726562 C 49.757812 33.335938 49.734375 33.125 49.734375 33.125 " fill-opacity="1" fill-rule="nonzero"/></g></g></g><g clip-path="url(#83ecd548fb)"><g clip-path="url(#c41b690d7f)"><g clip-path="url(#e82e50a6af)"><path fill="#ffffff" d="M 49.460938 33.023438 C 49.460938 33.023438 49.496094 33.183594 49.558594 33.488281 C 49.574219 33.5625 49.589844 33.648438 49.605469 33.746094 C 49.617188 33.839844 49.632812 33.945312 49.652344 34.058594 C 49.65625 34.085938 49.660156 34.113281 49.664062 34.144531 C 49.664062 34.171875 49.667969 34.203125 49.671875 34.234375 C 49.679688 34.292969 49.683594 34.355469 49.691406 34.421875 C 49.699219 34.484375 49.703125 34.554688 49.710938 34.621094 C 49.714844 34.65625 49.71875 34.691406 49.71875 34.726562 C 49.722656 34.761719 49.722656 34.800781 49.726562 34.835938 C 49.734375 34.980469 49.742188 35.136719 49.746094 35.300781 C 49.75 35.464844 49.75 35.632812 49.75 35.8125 C 49.75 35.902344 49.742188 35.992188 49.738281 36.085938 C 49.734375 36.179688 49.730469 36.273438 49.726562 36.371094 C 49.722656 36.46875 49.710938 36.566406 49.703125 36.664062 C 49.691406 36.765625 49.683594 36.867188 49.671875 36.96875 C 49.664062 37.074219 49.648438 37.179688 49.632812 37.285156 C 49.617188 37.390625 49.601562 37.5 49.585938 37.609375 C 49.578125 37.664062 49.566406 37.71875 49.558594 37.773438 C 49.546875 37.828125 49.535156 37.882812 49.523438 37.941406 C 49.503906 38.054688 49.480469 38.167969 49.457031 38.28125 C 49.429688 38.394531 49.402344 38.511719 49.375 38.628906 C 49.359375 38.6875 49.34375 38.746094 49.332031 38.808594 C 49.316406 38.867188 49.296875 38.925781 49.28125 38.984375 C 49.246094 39.105469 49.210938 39.226562 49.175781 39.347656 C 49.167969 39.378906 49.15625 39.40625 49.148438 39.4375 C 49.136719 39.46875 49.128906 39.5 49.117188 39.527344 C 49.097656 39.589844 49.078125 39.652344 49.054688 39.710938 C 49.035156 39.773438 49.011719 39.835938 48.992188 39.898438 C 48.96875 39.960938 48.949219 40.023438 48.925781 40.085938 C 48.875 40.207031 48.824219 40.332031 48.777344 40.460938 C 48.726562 40.585938 48.671875 40.710938 48.613281 40.839844 C 48.585938 40.902344 48.558594 40.964844 48.527344 41.027344 C 48.515625 41.0625 48.5 41.09375 48.484375 41.125 L 48.464844 41.171875 L 48.4375 41.21875 C 48.3125 41.472656 48.1875 41.730469 48.039062 41.984375 C 48.003906 42.046875 47.964844 42.113281 47.929688 42.175781 C 47.910156 42.207031 47.894531 42.238281 47.875 42.273438 L 47.863281 42.296875 C 47.855469 42.304688 47.863281 42.292969 47.847656 42.320312 L 47.839844 42.332031 L 47.8125 42.375 C 47.777344 42.433594 47.742188 42.492188 47.703125 42.550781 L 47.675781 42.597656 C 47.667969 42.613281 47.660156 42.625 47.648438 42.644531 C 47.628906 42.675781 47.605469 42.707031 47.585938 42.742188 C 47.542969 42.804688 47.5 42.871094 47.453125 42.9375 C 47.433594 42.972656 47.410156 43 47.390625 43.035156 C 47.367188 43.066406 47.347656 43.097656 47.324219 43.128906 C 47.28125 43.191406 47.238281 43.253906 47.191406 43.316406 C 47.144531 43.378906 47.097656 43.441406 47.050781 43.503906 C 47.03125 43.535156 47.007812 43.566406 46.984375 43.597656 C 46.960938 43.628906 46.933594 43.660156 46.910156 43.691406 C 46.863281 43.753906 46.816406 43.816406 46.765625 43.878906 C 46.71875 43.941406 46.664062 44 46.613281 44.0625 C 46.5625 44.121094 46.515625 44.183594 46.460938 44.242188 C 46.355469 44.363281 46.25 44.488281 46.140625 44.605469 C 46.085938 44.664062 46.03125 44.722656 45.976562 44.785156 C 45.917969 44.84375 45.859375 44.902344 45.804688 44.957031 L 45.71875 45.046875 L 45.628906 45.132812 C 45.570312 45.191406 45.511719 45.246094 45.453125 45.304688 C 45.390625 45.363281 45.328125 45.417969 45.269531 45.476562 C 45.207031 45.53125 45.144531 45.585938 45.082031 45.640625 C 44.078125 46.527344 42.90625 47.300781 41.621094 47.898438 C 41.539062 47.933594 41.460938 47.972656 41.378906 48.007812 C 41.300781 48.042969 41.214844 48.078125 41.132812 48.113281 C 40.972656 48.183594 40.804688 48.246094 40.636719 48.308594 C 40.304688 48.433594 39.964844 48.550781 39.621094 48.652344 C 38.929688 48.855469 38.226562 49.011719 37.511719 49.109375 L 37.375 49.128906 L 37.242188 49.148438 L 36.972656 49.179688 C 36.792969 49.195312 36.613281 49.214844 36.433594 49.222656 C 36.253906 49.238281 36.074219 49.246094 35.894531 49.25 C 35.804688 49.253906 35.714844 49.253906 35.625 49.257812 L 35.355469 49.257812 C 34.636719 49.253906 33.921875 49.195312 33.21875 49.089844 C 31.816406 48.875 30.472656 48.453125 29.257812 47.882812 C 29.183594 47.847656 29.109375 47.808594 29.035156 47.773438 C 28.957031 47.734375 28.882812 47.699219 28.808594 47.660156 C 28.664062 47.582031 28.515625 47.507812 28.375 47.425781 C 28.085938 47.269531 27.808594 47.097656 27.539062 46.921875 C 27.472656 46.878906 27.40625 46.832031 27.339844 46.789062 C 27.277344 46.746094 27.210938 46.703125 27.144531 46.65625 C 27.082031 46.609375 27.015625 46.5625 26.953125 46.515625 C 26.890625 46.472656 26.828125 46.425781 26.765625 46.375 C 26.703125 46.328125 26.640625 46.28125 26.578125 46.234375 L 26.554688 46.21875 C 26.507812 46.183594 26.535156 46.203125 26.523438 46.195312 L 26.511719 46.183594 L 26.472656 46.152344 C 26.445312 46.128906 26.417969 46.105469 26.390625 46.082031 C 26.277344 45.992188 26.171875 45.902344 26.0625 45.8125 L 26.023438 45.777344 C 26.007812 45.765625 25.992188 45.75 25.980469 45.738281 C 25.949219 45.710938 25.921875 45.6875 25.890625 45.660156 C 25.835938 45.609375 25.777344 45.554688 25.71875 45.503906 C 25.660156 45.453125 25.605469 45.398438 25.546875 45.347656 C 25.519531 45.324219 25.492188 45.296875 25.464844 45.269531 C 25.4375 45.246094 25.414062 45.21875 25.386719 45.191406 C 25.28125 45.085938 25.179688 44.984375 25.078125 44.882812 C 25.054688 44.855469 25.027344 44.832031 25.003906 44.804688 C 24.976562 44.777344 24.953125 44.753906 24.929688 44.726562 C 24.882812 44.671875 24.835938 44.621094 24.789062 44.566406 C 24.695312 44.460938 24.601562 44.355469 24.507812 44.253906 C 24.417969 44.144531 24.332031 44.039062 24.25 43.929688 C 24.207031 43.878906 24.164062 43.824219 24.121094 43.773438 C 24.101562 43.746094 24.078125 43.71875 24.058594 43.695312 C 24.039062 43.667969 24.019531 43.640625 24 43.613281 C 23.921875 43.503906 23.84375 43.398438 23.769531 43.292969 C 23.167969 42.4375 22.722656 41.597656 22.402344 40.828125 C 22.082031 40.058594 21.882812 39.363281 21.75 38.792969 C 21.691406 38.503906 21.632812 38.25 21.605469 38.023438 C 21.574219 37.796875 21.542969 37.609375 21.53125 37.453125 C 21.503906 37.140625 21.496094 36.976562 21.496094 36.976562 C 21.496094 36.976562 21.570312 37.128906 21.699219 37.40625 C 21.734375 37.476562 21.765625 37.554688 21.8125 37.636719 C 21.855469 37.722656 21.902344 37.8125 21.953125 37.910156 C 22.003906 38.011719 22.054688 38.117188 22.117188 38.226562 C 22.179688 38.335938 22.246094 38.453125 22.3125 38.578125 C 22.597656 39.066406 22.953125 39.648438 23.410156 40.265625 C 23.867188 40.882812 24.425781 41.539062 25.09375 42.179688 C 25.175781 42.257812 25.261719 42.339844 25.34375 42.421875 C 25.367188 42.441406 25.386719 42.460938 25.410156 42.480469 C 25.429688 42.5 25.453125 42.519531 25.476562 42.539062 C 25.519531 42.578125 25.566406 42.617188 25.609375 42.65625 C 25.699219 42.734375 25.792969 42.816406 25.882812 42.894531 C 25.976562 42.96875 26.074219 43.046875 26.167969 43.125 C 26.214844 43.164062 26.265625 43.203125 26.3125 43.242188 C 26.335938 43.261719 26.363281 43.28125 26.386719 43.296875 C 26.410156 43.316406 26.4375 43.335938 26.460938 43.351562 C 26.5625 43.425781 26.664062 43.503906 26.765625 43.578125 C 26.789062 43.597656 26.816406 43.613281 26.839844 43.632812 C 26.867188 43.652344 26.894531 43.667969 26.917969 43.683594 C 26.96875 43.71875 27.019531 43.753906 27.070312 43.789062 C 27.121094 43.820312 27.171875 43.855469 27.222656 43.890625 C 27.25 43.910156 27.273438 43.925781 27.300781 43.941406 C 27.3125 43.953125 27.324219 43.960938 27.339844 43.96875 L 27.382812 43.996094 C 27.503906 44.070312 27.625 44.144531 27.746094 44.222656 C 27.773438 44.242188 27.804688 44.261719 27.835938 44.28125 L 27.878906 44.308594 L 27.890625 44.316406 C 27.886719 44.3125 27.921875 44.335938 27.878906 44.308594 L 27.902344 44.320312 C 27.960938 44.351562 28.015625 44.386719 28.074219 44.417969 C 28.1875 44.484375 28.308594 44.546875 28.425781 44.613281 C 28.480469 44.644531 28.542969 44.671875 28.601562 44.707031 C 28.660156 44.734375 28.722656 44.765625 28.78125 44.796875 C 28.84375 44.828125 28.902344 44.855469 28.964844 44.886719 L 29.054688 44.929688 L 29.148438 44.972656 C 29.210938 45 29.273438 45.03125 29.332031 45.058594 C 29.394531 45.085938 29.457031 45.113281 29.523438 45.140625 C 29.773438 45.25 30.03125 45.351562 30.289062 45.449219 C 31.335938 45.832031 32.453125 46.09375 33.601562 46.222656 C 33.886719 46.25 34.175781 46.277344 34.464844 46.289062 C 34.539062 46.292969 34.609375 46.292969 34.683594 46.296875 C 34.757812 46.300781 34.828125 46.300781 34.902344 46.300781 L 35.121094 46.304688 C 35.191406 46.304688 35.265625 46.300781 35.339844 46.300781 L 35.449219 46.300781 L 35.558594 46.296875 C 35.628906 46.292969 35.703125 46.292969 35.777344 46.289062 C 35.921875 46.28125 36.066406 46.273438 36.214844 46.261719 C 36.359375 46.25 36.503906 46.234375 36.648438 46.222656 L 36.867188 46.195312 L 37.085938 46.164062 C 37.664062 46.085938 38.238281 45.964844 38.800781 45.8125 L 39.011719 45.753906 C 39.082031 45.734375 39.152344 45.710938 39.222656 45.691406 C 39.359375 45.652344 39.496094 45.605469 39.636719 45.558594 C 39.910156 45.464844 40.183594 45.363281 40.449219 45.253906 C 40.714844 45.144531 40.980469 45.027344 41.238281 44.902344 L 41.332031 44.855469 L 41.429688 44.808594 C 41.492188 44.773438 41.554688 44.742188 41.621094 44.710938 C 41.683594 44.675781 41.746094 44.644531 41.808594 44.609375 C 41.839844 44.59375 41.871094 44.578125 41.902344 44.558594 L 41.996094 44.507812 C 42.492188 44.230469 42.960938 43.921875 43.410156 43.597656 C 43.859375 43.269531 44.277344 42.917969 44.675781 42.554688 C 44.871094 42.371094 45.0625 42.183594 45.246094 41.992188 C 45.292969 41.945312 45.339844 41.898438 45.382812 41.851562 C 45.429688 41.804688 45.472656 41.753906 45.515625 41.707031 C 45.5625 41.65625 45.609375 41.609375 45.648438 41.5625 C 45.691406 41.515625 45.730469 41.46875 45.773438 41.421875 C 45.792969 41.398438 45.8125 41.375 45.835938 41.351562 C 45.84375 41.34375 45.855469 41.328125 45.867188 41.3125 L 45.898438 41.273438 C 45.945312 41.21875 45.988281 41.167969 46.03125 41.113281 L 46.066406 41.074219 L 46.074219 41.0625 C 46.0625 41.082031 46.074219 41.0625 46.074219 41.066406 L 46.089844 41.046875 C 46.109375 41.019531 46.128906 40.996094 46.148438 40.972656 C 46.1875 40.921875 46.226562 40.871094 46.265625 40.820312 C 46.304688 40.773438 46.34375 40.722656 46.382812 40.671875 L 46.410156 40.636719 L 46.4375 40.597656 C 46.457031 40.574219 46.476562 40.546875 46.492188 40.523438 C 46.566406 40.421875 46.640625 40.320312 46.714844 40.222656 C 46.992188 39.816406 47.253906 39.417969 47.480469 39.015625 C 47.507812 38.964844 47.535156 38.914062 47.566406 38.867188 C 47.578125 38.839844 47.59375 38.816406 47.605469 38.792969 C 47.621094 38.765625 47.632812 38.742188 47.648438 38.714844 C 47.699219 38.617188 47.75 38.515625 47.804688 38.417969 C 47.828125 38.371094 47.855469 38.320312 47.878906 38.273438 C 47.902344 38.222656 47.925781 38.171875 47.949219 38.125 C 47.996094 38.027344 48.042969 37.929688 48.089844 37.832031 C 48.132812 37.738281 48.175781 37.640625 48.214844 37.542969 C 48.257812 37.449219 48.300781 37.355469 48.339844 37.261719 C 48.375 37.167969 48.410156 37.074219 48.449219 36.984375 C 48.484375 36.890625 48.523438 36.800781 48.550781 36.710938 C 48.585938 36.621094 48.617188 36.53125 48.648438 36.445312 C 48.679688 36.355469 48.710938 36.269531 48.738281 36.183594 C 48.765625 36.097656 48.789062 36.011719 48.816406 35.929688 C 48.84375 35.847656 48.871094 35.765625 48.890625 35.683594 C 48.9375 35.523438 48.980469 35.367188 49.023438 35.21875 C 49.0625 35.066406 49.097656 34.921875 49.128906 34.785156 C 49.136719 34.753906 49.144531 34.71875 49.15625 34.683594 C 49.160156 34.652344 49.167969 34.617188 49.175781 34.585938 C 49.191406 34.519531 49.203125 34.457031 49.214844 34.394531 C 49.230469 34.332031 49.242188 34.273438 49.253906 34.214844 C 49.261719 34.1875 49.265625 34.160156 49.273438 34.128906 C 49.277344 34.101562 49.28125 34.074219 49.289062 34.046875 C 49.308594 33.9375 49.324219 33.839844 49.34375 33.746094 C 49.359375 33.652344 49.378906 33.570312 49.386719 33.492188 C 49.433594 33.183594 49.460938 33.023438 49.460938 33.023438 " fill-opacity="1" fill-rule="nonzero"/></g></g></g><g clip-path="url(#336069905d)"><g clip-path="url(#ec4a27349b)"><g clip-path="url(#bbcaf9ff4f)"><path fill="#ffffff" d="M 27.667969 28.753906 C 28.035156 28.511719 28.445312 28.496094 28.589844 28.710938 C 28.734375 28.929688 28.558594 29.300781 28.195312 29.539062 C 27.832031 29.78125 27.417969 29.796875 27.273438 29.582031 C 27.128906 29.363281 27.308594 28.992188 27.667969 28.753906 Z M 21.28125 28.933594 C 21.28125 29.761719 21.792969 30.503906 22.566406 30.804688 C 24.421875 31.523438 28.128906 31.875 34.074219 27.941406 C 37.613281 25.597656 41.425781 25.425781 44.996094 27.757812 C 45.035156 27.785156 45.074219 27.8125 45.117188 27.839844 C 45.15625 27.863281 45.199219 27.890625 45.238281 27.917969 C 45.316406 27.972656 45.394531 28.023438 45.472656 28.078125 C 45.511719 28.105469 45.550781 28.132812 45.589844 28.15625 C 45.628906 28.183594 45.664062 28.210938 45.703125 28.238281 C 45.78125 28.292969 45.855469 28.347656 45.929688 28.398438 C 46.003906 28.453125 46.078125 28.507812 46.148438 28.5625 C 46.21875 28.617188 46.292969 28.667969 46.363281 28.722656 C 46.433594 28.777344 46.503906 28.828125 46.570312 28.882812 C 46.640625 28.9375 46.710938 28.988281 46.773438 29.039062 C 46.839844 29.09375 46.90625 29.148438 46.96875 29.199219 C 47 29.226562 47.035156 29.25 47.066406 29.277344 C 47.097656 29.300781 47.128906 29.328125 47.160156 29.355469 C 47.222656 29.40625 47.28125 29.457031 47.339844 29.507812 C 47.402344 29.558594 47.464844 29.605469 47.519531 29.65625 C 47.574219 29.707031 47.632812 29.757812 47.6875 29.804688 C 47.742188 29.851562 47.800781 29.898438 47.851562 29.949219 C 47.953125 30.042969 48.058594 30.132812 48.15625 30.222656 C 48.253906 30.308594 48.34375 30.394531 48.429688 30.476562 C 48.515625 30.554688 48.601562 30.628906 48.671875 30.703125 C 48.75 30.777344 48.820312 30.84375 48.886719 30.90625 C 48.917969 30.9375 48.949219 30.964844 48.980469 30.996094 C 49.007812 31.023438 49.035156 31.050781 49.0625 31.078125 C 49.167969 31.179688 49.253906 31.257812 49.3125 31.3125 C 49.339844 31.339844 49.363281 31.359375 49.378906 31.375 C 49.394531 31.390625 49.402344 31.394531 49.402344 31.394531 C 49.402344 31.394531 49.402344 31.386719 49.40625 31.367188 C 49.410156 31.347656 49.414062 31.316406 49.421875 31.277344 C 49.433594 31.203125 49.453125 31.085938 49.472656 30.933594 C 49.492188 30.78125 49.5 30.597656 49.515625 30.378906 C 49.523438 30.269531 49.523438 30.152344 49.523438 30.023438 C 49.523438 29.960938 49.523438 29.898438 49.523438 29.828125 C 49.523438 29.796875 49.523438 29.761719 49.523438 29.726562 C 49.523438 29.691406 49.519531 29.65625 49.519531 29.621094 C 49.511719 29.480469 49.503906 29.332031 49.492188 29.175781 C 49.476562 29.019531 49.460938 28.855469 49.4375 28.683594 C 49.417969 28.511719 49.386719 28.339844 49.351562 28.152344 C 49.324219 27.96875 49.277344 27.78125 49.234375 27.585938 C 49.210938 27.488281 49.183594 27.390625 49.15625 27.289062 C 49.128906 27.191406 49.101562 27.085938 49.074219 26.984375 C 49.058594 26.933594 49.042969 26.882812 49.023438 26.828125 C 49.007812 26.777344 48.992188 26.726562 48.972656 26.675781 C 48.9375 26.570312 48.90625 26.460938 48.867188 26.355469 C 48.824219 26.25 48.785156 26.140625 48.742188 26.03125 C 48.71875 25.976562 48.699219 25.921875 48.675781 25.867188 C 48.65625 25.8125 48.628906 25.757812 48.605469 25.703125 C 48.558594 25.59375 48.511719 25.480469 48.460938 25.367188 C 48.40625 25.257812 48.351562 25.144531 48.296875 25.03125 C 47.847656 24.128906 47.234375 23.195312 46.457031 22.296875 C 46.359375 22.183594 46.257812 22.074219 46.15625 21.960938 C 46.105469 21.90625 46.054688 21.851562 46 21.796875 C 45.957031 21.753906 45.914062 21.710938 45.871094 21.667969 C 45.816406 21.617188 45.757812 21.566406 45.699219 21.515625 C 45.621094 21.449219 45.539062 21.382812 45.453125 21.3125 C 45.109375 21.03125 44.707031 20.738281 44.25 20.441406 C 44.136719 20.367188 44.019531 20.292969 43.898438 20.21875 C 43.773438 20.148438 43.648438 20.078125 43.523438 20.007812 C 43.492188 19.988281 43.460938 19.96875 43.425781 19.953125 C 43.394531 19.9375 43.359375 19.917969 43.328125 19.902344 C 43.261719 19.867188 43.195312 19.835938 43.128906 19.800781 C 42.996094 19.730469 42.855469 19.667969 42.710938 19.601562 C 42.144531 19.347656 41.527344 19.125 40.867188 18.960938 C 40.824219 18.949219 40.78125 18.9375 40.742188 18.929688 C 40.699219 18.917969 40.65625 18.910156 40.617188 18.902344 C 40.53125 18.882812 40.445312 18.863281 40.363281 18.847656 L 40.296875 18.832031 L 40.234375 18.820312 C 40.191406 18.816406 40.148438 18.808594 40.105469 18.800781 C 40.019531 18.785156 39.933594 18.769531 39.847656 18.753906 C 39.757812 18.746094 39.671875 18.734375 39.582031 18.722656 C 39.496094 18.710938 39.40625 18.699219 39.316406 18.691406 C 39.140625 18.675781 38.960938 18.65625 38.78125 18.652344 C 38.6875 18.648438 38.597656 18.644531 38.507812 18.640625 C 38.417969 18.640625 38.324219 18.636719 38.234375 18.636719 L 38.097656 18.636719 C 38.050781 18.636719 38.003906 18.636719 37.960938 18.640625 C 37.867188 18.640625 37.773438 18.644531 37.683594 18.648438 C 37.636719 18.648438 37.589844 18.652344 37.546875 18.65625 L 37.40625 18.664062 L 37.269531 18.671875 L 37.199219 18.675781 L 37.128906 18.683594 C 36.945312 18.703125 36.757812 18.71875 36.574219 18.746094 C 36.203125 18.792969 35.835938 18.863281 35.472656 18.941406 C 35.378906 18.960938 35.289062 18.984375 35.199219 19.003906 L 35.0625 19.035156 L 34.925781 19.070312 C 34.835938 19.09375 34.746094 19.121094 34.65625 19.144531 C 34.566406 19.167969 34.476562 19.195312 34.386719 19.222656 L 34.253906 19.261719 L 34.121094 19.304688 C 34.035156 19.332031 33.945312 19.359375 33.855469 19.390625 C 33.769531 19.417969 33.683594 19.449219 33.597656 19.480469 C 33.507812 19.511719 33.421875 19.539062 33.335938 19.574219 C 33.25 19.605469 33.167969 19.636719 33.082031 19.671875 C 32.996094 19.703125 32.914062 19.738281 32.828125 19.773438 C 32.660156 19.839844 32.496094 19.914062 32.332031 19.984375 C 31.675781 20.273438 31.058594 20.589844 30.484375 20.914062 C 29.914062 21.242188 29.382812 21.574219 28.90625 21.898438 C 28.425781 22.222656 28 22.535156 27.628906 22.824219 C 27.253906 23.113281 26.9375 23.375 26.683594 23.597656 C 26.167969 24.039062 25.894531 24.3125 25.894531 24.3125 C 25.894531 24.3125 26.144531 24.015625 26.617188 23.527344 C 26.855469 23.285156 27.148438 22.996094 27.496094 22.671875 C 27.84375 22.347656 28.246094 21.996094 28.703125 21.625 C 29.15625 21.257812 29.664062 20.871094 30.214844 20.488281 C 30.773438 20.105469 31.375 19.726562 32.023438 19.367188 C 32.1875 19.28125 32.351562 19.191406 32.519531 19.105469 C 32.601562 19.0625 32.6875 19.019531 32.769531 18.976562 C 32.855469 18.9375 32.941406 18.894531 33.027344 18.851562 C 33.113281 18.8125 33.203125 18.769531 33.289062 18.730469 C 33.378906 18.691406 33.464844 18.652344 33.554688 18.613281 C 33.644531 18.574219 33.734375 18.535156 33.824219 18.5 L 33.957031 18.441406 L 34.09375 18.390625 C 34.1875 18.351562 34.277344 18.316406 34.371094 18.28125 C 34.460938 18.246094 34.554688 18.214844 34.648438 18.179688 L 34.789062 18.128906 L 34.929688 18.082031 C 35.023438 18.050781 35.121094 18.023438 35.214844 17.992188 C 35.597656 17.875 35.984375 17.765625 36.378906 17.679688 C 36.578125 17.632812 36.777344 17.597656 36.972656 17.558594 L 37.050781 17.546875 L 37.125 17.535156 L 37.425781 17.488281 C 37.457031 17.484375 37.484375 17.476562 37.515625 17.472656 L 37.34375 17.449219 C 37.167969 17.425781 36.992188 17.402344 36.8125 17.382812 C 36.636719 17.363281 36.457031 17.351562 36.277344 17.335938 L 36.007812 17.316406 C 35.921875 17.3125 35.832031 17.308594 35.742188 17.308594 L 35.203125 17.296875 C 35.023438 17.296875 34.84375 17.304688 34.664062 17.308594 L 34.394531 17.316406 C 34.308594 17.320312 34.21875 17.328125 34.128906 17.335938 C 33.949219 17.347656 33.769531 17.359375 33.59375 17.378906 C 33.550781 17.382812 33.503906 17.386719 33.460938 17.390625 L 33.328125 17.410156 C 33.238281 17.421875 33.152344 17.433594 33.0625 17.445312 C 32.972656 17.457031 32.886719 17.46875 32.796875 17.480469 L 32.734375 17.492188 L 32.535156 17.527344 C 32.359375 17.558594 32.1875 17.59375 32.011719 17.625 L 31.949219 17.636719 L 31.882812 17.652344 L 31.753906 17.683594 C 31.667969 17.703125 31.585938 17.726562 31.5 17.746094 C 31.414062 17.765625 31.328125 17.789062 31.242188 17.808594 C 31.15625 17.828125 31.074219 17.855469 30.992188 17.882812 C 30.824219 17.929688 30.65625 17.980469 30.488281 18.03125 C 30.402344 18.058594 30.3125 18.089844 30.226562 18.121094 C 30.15625 18.144531 30.082031 18.171875 30.007812 18.199219 C 29.84375 18.257812 29.679688 18.316406 29.515625 18.382812 C 29.359375 18.449219 29.203125 18.515625 29.046875 18.582031 L 28.929688 18.632812 L 28.8125 18.6875 C 28.738281 18.722656 28.660156 18.761719 28.585938 18.796875 C 28.507812 18.832031 28.433594 18.871094 28.359375 18.90625 L 28.246094 18.960938 C 28.210938 18.980469 28.171875 19.003906 28.136719 19.023438 C 28.0625 19.0625 27.992188 19.101562 27.917969 19.140625 C 27.84375 19.179688 27.773438 19.222656 27.699219 19.261719 C 27.554688 19.339844 27.417969 19.425781 27.277344 19.511719 C 27.210938 19.558594 27.140625 19.601562 27.070312 19.644531 C 27.003906 19.6875 26.933594 19.726562 26.867188 19.773438 C 26.734375 19.863281 26.601562 19.957031 26.472656 20.046875 C 26.40625 20.09375 26.34375 20.140625 26.277344 20.1875 C 26.214844 20.234375 26.152344 20.28125 26.089844 20.328125 C 25.96875 20.425781 25.84375 20.523438 25.722656 20.617188 C 25.664062 20.667969 25.605469 20.71875 25.546875 20.769531 C 25.488281 20.820312 25.429688 20.867188 25.371094 20.917969 C 25.316406 20.96875 25.257812 21.019531 25.203125 21.070312 C 25.144531 21.121094 25.089844 21.167969 25.035156 21.222656 C 24.925781 21.328125 24.820312 21.433594 24.714844 21.535156 C 24.660156 21.585938 24.609375 21.640625 24.558594 21.691406 C 24.507812 21.742188 24.457031 21.796875 24.40625 21.851562 C 24.308594 21.957031 24.210938 22.066406 24.117188 22.171875 C 24.089844 22.195312 24.066406 22.222656 24.042969 22.25 C 24.019531 22.277344 24 22.304688 23.976562 22.332031 C 23.929688 22.386719 23.886719 22.441406 23.839844 22.496094 C 23.75 22.601562 23.664062 22.710938 23.578125 22.820312 C 23.496094 22.925781 23.414062 23.039062 23.335938 23.148438 C 23.257812 23.257812 23.179688 23.363281 23.105469 23.472656 C 23.03125 23.582031 22.960938 23.695312 22.890625 23.804688 C 22.855469 23.859375 22.824219 23.910156 22.789062 23.964844 C 22.753906 24.019531 22.71875 24.070312 22.691406 24.128906 C 22.625 24.238281 22.566406 24.347656 22.503906 24.453125 C 22.476562 24.507812 22.445312 24.5625 22.417969 24.613281 C 22.386719 24.667969 22.359375 24.71875 22.332031 24.773438 C 22.226562 24.988281 22.125 25.199219 22.027344 25.40625 C 21.941406 25.617188 21.855469 25.820312 21.777344 26.019531 C 21.386719 27.226562 21.28125 28.21875 21.28125 28.933594 " fill-opacity="1" fill-rule="nonzero"/></g></g></g><g clip-path="url(#5424950144)"><g clip-path="url(#3e58d65749)"><g clip-path="url(#a2ad7a476a)"><path fill="#ffffff" d="M 31.582031 30.070312 C 31.582031 30.070312 31.628906 30.085938 31.710938 30.117188 C 31.730469 30.125 31.753906 30.136719 31.777344 30.144531 C 31.800781 30.15625 31.828125 30.167969 31.859375 30.175781 C 31.914062 30.199219 31.980469 30.222656 32.054688 30.25 C 32.199219 30.308594 32.375 30.367188 32.570312 30.433594 C 32.765625 30.496094 32.984375 30.5625 33.21875 30.621094 C 33.457031 30.679688 33.707031 30.734375 33.972656 30.78125 C 34.234375 30.824219 34.511719 30.859375 34.792969 30.882812 C 35.074219 30.902344 35.363281 30.910156 35.652344 30.902344 C 35.941406 30.894531 36.230469 30.871094 36.515625 30.828125 C 36.660156 30.808594 36.800781 30.78125 36.941406 30.753906 L 37.042969 30.730469 L 37.070312 30.726562 L 37.078125 30.722656 C 37.074219 30.726562 37.089844 30.722656 37.070312 30.726562 L 37.074219 30.726562 L 37.214844 30.691406 L 37.265625 30.679688 C 37.296875 30.667969 37.332031 30.660156 37.367188 30.652344 C 37.660156 30.574219 37.96875 30.480469 38.285156 30.394531 C 38.367188 30.371094 38.445312 30.351562 38.527344 30.328125 C 38.566406 30.320312 38.609375 30.308594 38.648438 30.300781 C 38.6875 30.289062 38.730469 30.28125 38.769531 30.273438 C 38.851562 30.253906 38.933594 30.234375 39.015625 30.222656 C 39.097656 30.207031 39.179688 30.191406 39.261719 30.179688 C 39.304688 30.171875 39.34375 30.167969 39.386719 30.164062 L 39.414062 30.160156 L 39.421875 30.15625 C 39.414062 30.160156 39.4375 30.152344 39.4375 30.15625 L 39.441406 30.152344 L 39.453125 30.152344 C 39.472656 30.152344 39.492188 30.148438 39.507812 30.148438 C 39.546875 30.144531 39.585938 30.144531 39.625 30.140625 C 39.667969 30.136719 39.710938 30.132812 39.753906 30.132812 C 39.917969 30.125 40.070312 30.125 40.222656 30.140625 C 40.519531 30.164062 40.796875 30.222656 41.027344 30.304688 C 41.257812 30.390625 41.445312 30.492188 41.582031 30.59375 C 41.722656 30.699219 41.816406 30.792969 41.875 30.863281 C 41.929688 30.929688 41.957031 30.96875 41.957031 30.96875 C 41.957031 30.96875 41.90625 30.964844 41.824219 30.957031 C 41.800781 30.953125 41.777344 30.953125 41.753906 30.953125 C 41.726562 30.953125 41.699219 30.949219 41.667969 30.949219 C 41.640625 30.945312 41.605469 30.949219 41.574219 30.949219 C 41.539062 30.949219 41.503906 30.949219 41.46875 30.953125 C 41.320312 30.957031 41.144531 30.980469 40.957031 31.023438 C 40.769531 31.066406 40.5625 31.128906 40.347656 31.210938 C 40.242188 31.253906 40.128906 31.300781 40.019531 31.351562 C 39.996094 31.367188 39.96875 31.378906 39.941406 31.390625 C 39.910156 31.40625 39.878906 31.417969 39.847656 31.433594 C 39.832031 31.441406 39.816406 31.449219 39.800781 31.457031 L 39.785156 31.464844 C 39.78125 31.464844 39.800781 31.460938 39.789062 31.464844 L 39.785156 31.464844 L 39.761719 31.476562 C 39.734375 31.492188 39.703125 31.507812 39.671875 31.523438 C 39.550781 31.585938 39.425781 31.652344 39.300781 31.71875 C 39.265625 31.738281 39.234375 31.753906 39.199219 31.773438 C 39.167969 31.789062 39.132812 31.808594 39.101562 31.824219 C 39.03125 31.863281 38.960938 31.898438 38.890625 31.9375 C 38.75 32.011719 38.597656 32.085938 38.441406 32.160156 C 38.363281 32.195312 38.28125 32.230469 38.195312 32.269531 C 38.15625 32.285156 38.113281 32.304688 38.070312 32.320312 C 38.027344 32.339844 37.980469 32.355469 37.9375 32.371094 C 37.894531 32.390625 37.84375 32.40625 37.796875 32.421875 L 37.726562 32.449219 L 37.601562 32.488281 L 37.585938 32.492188 L 37.585938 32.496094 L 37.570312 32.5 L 37.558594 32.503906 L 37.523438 32.511719 C 37.476562 32.527344 37.425781 32.539062 37.378906 32.554688 C 37.183594 32.601562 36.984375 32.644531 36.785156 32.671875 C 36.386719 32.730469 35.984375 32.738281 35.589844 32.710938 C 35.199219 32.679688 34.820312 32.605469 34.464844 32.5 C 34.113281 32.390625 33.785156 32.253906 33.488281 32.09375 C 33.195312 31.933594 32.933594 31.753906 32.710938 31.570312 C 32.492188 31.386719 32.304688 31.199219 32.15625 31.019531 C 32.007812 30.839844 31.894531 30.675781 31.808594 30.535156 C 31.789062 30.5 31.769531 30.464844 31.75 30.433594 C 31.734375 30.402344 31.71875 30.371094 31.703125 30.339844 C 31.6875 30.3125 31.675781 30.285156 31.664062 30.261719 C 31.652344 30.238281 31.644531 30.214844 31.632812 30.195312 C 31.601562 30.113281 31.582031 30.070312 31.582031 30.070312 " fill-opacity="1" fill-rule="nonzero"/></g></g></g><g clip-path="url(#32f353b689)"><g clip-path="url(#596b05d504)"><g clip-path="url(#dc05ff8549)"><path fill="#ffffff" d="M 28.03125 18.316406 C 28.03125 18.316406 28.058594 18.277344 28.105469 18.207031 C 28.117188 18.1875 28.132812 18.167969 28.144531 18.144531 C 28.160156 18.121094 28.175781 18.097656 28.195312 18.074219 C 28.226562 18.023438 28.265625 17.964844 28.308594 17.902344 C 28.394531 17.773438 28.503906 17.621094 28.625 17.457031 C 28.75 17.292969 28.890625 17.113281 29.050781 16.929688 C 29.207031 16.746094 29.382812 16.558594 29.574219 16.371094 C 29.761719 16.183594 29.96875 15.996094 30.183594 15.816406 C 30.402344 15.640625 30.632812 15.46875 30.875 15.308594 C 31.117188 15.148438 31.367188 15.003906 31.625 14.875 C 31.753906 14.808594 31.882812 14.75 32.015625 14.691406 L 32.113281 14.652344 L 32.144531 14.636719 C 32.140625 14.640625 32.15625 14.632812 32.136719 14.640625 L 32.140625 14.640625 L 32.15625 14.632812 L 32.273438 14.585938 L 32.324219 14.570312 C 32.355469 14.554688 32.390625 14.542969 32.421875 14.53125 C 32.707031 14.429688 33.011719 14.328125 33.324219 14.21875 C 33.402344 14.191406 33.480469 14.160156 33.558594 14.132812 C 33.597656 14.117188 33.636719 14.101562 33.675781 14.085938 C 33.714844 14.070312 33.753906 14.054688 33.789062 14.039062 C 33.867188 14.007812 33.945312 13.976562 34.019531 13.941406 C 34.097656 13.90625 34.171875 13.871094 34.246094 13.832031 C 34.285156 13.8125 34.320312 13.796875 34.355469 13.777344 L 34.382812 13.761719 L 34.390625 13.757812 C 34.382812 13.761719 34.40625 13.753906 34.402344 13.753906 L 34.40625 13.75 L 34.417969 13.746094 C 34.433594 13.734375 34.449219 13.726562 34.464844 13.714844 C 34.5 13.695312 34.53125 13.675781 34.566406 13.65625 C 34.601562 13.636719 34.640625 13.613281 34.675781 13.589844 C 34.8125 13.503906 34.9375 13.414062 35.054688 13.316406 C 35.285156 13.125 35.476562 12.921875 35.617188 12.71875 C 35.757812 12.519531 35.851562 12.328125 35.902344 12.164062 C 35.957031 12 35.980469 11.871094 35.988281 11.78125 C 35.992188 11.691406 35.992188 11.644531 35.992188 11.644531 C 35.992188 11.644531 35.953125 11.675781 35.890625 11.730469 C 35.875 11.746094 35.855469 11.757812 35.835938 11.773438 C 35.8125 11.789062 35.792969 11.808594 35.769531 11.824219 C 35.746094 11.84375 35.71875 11.863281 35.691406 11.882812 C 35.660156 11.898438 35.632812 11.921875 35.601562 11.9375 C 35.476562 12.019531 35.320312 12.097656 35.144531 12.171875 C 34.964844 12.246094 34.761719 12.3125 34.535156 12.367188 C 34.425781 12.394531 34.304688 12.417969 34.1875 12.441406 C 34.160156 12.445312 34.128906 12.449219 34.101562 12.453125 C 34.066406 12.457031 34.035156 12.464844 34 12.472656 C 33.980469 12.472656 33.964844 12.476562 33.945312 12.480469 L 33.929688 12.484375 C 33.925781 12.484375 33.945312 12.476562 33.933594 12.480469 L 33.929688 12.480469 L 33.902344 12.484375 C 33.871094 12.488281 33.839844 12.496094 33.804688 12.5 C 33.667969 12.515625 33.527344 12.535156 33.382812 12.550781 C 33.347656 12.554688 33.3125 12.5625 33.273438 12.566406 C 33.234375 12.570312 33.199219 12.574219 33.160156 12.578125 C 33.085938 12.589844 33.003906 12.597656 32.925781 12.609375 C 32.765625 12.628906 32.601562 12.65625 32.429688 12.683594 C 32.34375 12.699219 32.253906 12.71875 32.164062 12.734375 C 32.121094 12.746094 32.074219 12.753906 32.03125 12.765625 C 31.984375 12.777344 31.941406 12.785156 31.894531 12.796875 C 31.851562 12.808594 31.796875 12.824219 31.75 12.835938 L 31.675781 12.859375 L 31.613281 12.875 L 31.550781 12.894531 L 31.535156 12.898438 L 31.53125 12.898438 L 31.519531 12.90625 L 31.507812 12.90625 L 31.472656 12.921875 C 31.425781 12.9375 31.378906 12.953125 31.332031 12.96875 C 31.144531 13.042969 30.957031 13.121094 30.777344 13.210938 C 30.417969 13.390625 30.082031 13.617188 29.78125 13.863281 C 29.476562 14.113281 29.210938 14.390625 28.980469 14.679688 C 28.753906 14.972656 28.566406 15.273438 28.417969 15.574219 C 28.269531 15.871094 28.160156 16.167969 28.085938 16.445312 C 28.011719 16.722656 27.96875 16.980469 27.949219 17.210938 C 27.933594 17.445312 27.933594 17.644531 27.945312 17.808594 C 27.949219 17.847656 27.953125 17.886719 27.957031 17.925781 C 27.960938 17.960938 27.96875 17.996094 27.972656 18.027344 C 27.976562 18.058594 27.980469 18.089844 27.984375 18.113281 C 27.992188 18.140625 27.996094 18.164062 28 18.1875 C 28.019531 18.273438 28.03125 18.316406 28.03125 18.316406 " fill-opacity="1" fill-rule="nonzero"/></g></g></g><g fill="#ffffff" fill-opacity="1"><g transform="translate(87.694985, 113.553651)"><g><path d="M 10.140625 0 C 8.347656 0 6.804688 -0.640625 5.515625 -1.921875 C 4.234375 -3.210938 3.59375 -4.753906 3.59375 -6.546875 L 3.59375 -38.421875 C 3.59375 -40.222656 4.234375 -41.75 5.515625 -43 C 6.804688 -44.257812 8.347656 -44.890625 10.140625 -44.890625 L 22.359375 -44.890625 C 24.210938 -44.890625 25.765625 -44.257812 27.015625 -43 C 28.273438 -41.75 28.90625 -40.222656 28.90625 -38.421875 L 28.90625 -24.78125 C 28.90625 -22.988281 28.273438 -21.445312 27.015625 -20.15625 C 25.765625 -18.863281 24.210938 -18.21875 22.359375 -18.21875 L 12.03125 -18.21875 L 12.03125 -11.671875 C 12.03125 -10.773438 12.34375 -10.007812 12.96875 -9.375 C 13.601562 -8.75 14.398438 -8.4375 15.359375 -8.4375 L 27.03125 -8.4375 L 28.90625 0 Z M 12.03125 -26.671875 L 17.234375 -26.671875 C 18.128906 -26.671875 18.890625 -26.984375 19.515625 -27.609375 C 20.148438 -28.234375 20.46875 -28.992188 20.46875 -29.890625 L 20.46875 -33.21875 C 20.46875 -34.113281 20.148438 -34.875 19.515625 -35.5 C 18.890625 -36.132812 18.128906 -36.453125 17.234375 -36.453125 L 15.359375 -36.453125 C 14.398438 -36.453125 13.601562 -36.132812 12.96875 -35.5 C 12.34375 -34.875 12.03125 -34.113281 12.03125 -33.21875 Z M 12.03125 -26.671875 "/></g></g></g><g fill="#ffffff" fill-opacity="1"><g transform="translate(117.944992, 113.553651)"><g><path d="M 3.59375 0 L 3.59375 -65.359375 L 12.03125 -67.25 L 12.03125 -44.890625 L 22.71875 -44.890625 L 20.734375 -36.453125 L 12.03125 -36.453125 L 12.03125 0 Z M 3.59375 0 "/></g></g></g><g fill="#ffffff" fill-opacity="1"><g transform="translate(139.308315, 113.553651)"><g><path d="M 3.59375 0 L 3.59375 -65.359375 L 12.03125 -67.25 L 12.03125 -44.890625 L 22.71875 -44.890625 L 20.734375 -36.453125 L 12.03125 -36.453125 L 12.03125 0 Z M 3.59375 0 "/></g></g></g><g fill="#ffffff" fill-opacity="1"><g transform="translate(160.67164, 113.553651)"><g><path d="M 10.140625 0 C 8.347656 0 6.804688 -0.625 5.515625 -1.875 C 4.234375 -3.132812 3.59375 -4.691406 3.59375 -6.546875 L 3.59375 -20.109375 C 3.59375 -21.898438 4.234375 -23.441406 5.515625 -24.734375 C 6.804688 -26.023438 8.347656 -26.671875 10.140625 -26.671875 L 17.140625 -26.671875 C 18.097656 -26.671875 18.890625 -26.984375 19.515625 -27.609375 C 20.148438 -28.234375 20.46875 -28.992188 20.46875 -29.890625 L 20.46875 -33.21875 C 20.46875 -34.113281 20.148438 -34.875 19.515625 -35.5 C 18.890625 -36.132812 18.097656 -36.453125 17.140625 -36.453125 L 7.453125 -36.453125 L 9.34375 -44.890625 L 22.359375 -44.890625 C 24.148438 -44.890625 25.6875 -44.242188 26.96875 -42.953125 C 28.257812 -41.671875 28.90625 -40.132812 28.90625 -38.34375 L 28.90625 0 Z M 15.265625 -8.4375 L 20.46875 -8.4375 L 20.46875 -18.21875 L 15.265625 -18.21875 C 14.367188 -18.21875 13.601562 -17.90625 12.96875 -17.28125 C 12.34375 -16.65625 12.03125 -15.894531 12.03125 -15 L 12.03125 -11.671875 C 12.03125 -10.773438 12.34375 -10.007812 12.96875 -9.375 C 13.601562 -8.75 14.367188 -8.4375 15.265625 -8.4375 Z M 15.265625 -8.4375 "/></g></g></g><g fill="#ffffff" fill-opacity="1"><g transform="translate(193.473667, 113.553651)"><g><path d="M 11.84375 0 C 10.050781 0 8.523438 -0.625 7.265625 -1.875 C 6.015625 -3.132812 5.390625 -4.664062 5.390625 -6.46875 L 5.390625 -20.375 L 13.734375 -18.5 L 13.734375 -11.578125 C 13.734375 -10.679688 14.046875 -9.914062 14.671875 -9.28125 C 15.304688 -8.65625 16.039062 -8.34375 16.875 -8.34375 L 27.109375 -8.34375 C 28.003906 -8.34375 28.765625 -8.65625 29.390625 -9.28125 C 30.023438 -9.914062 30.34375 -10.679688 30.34375 -11.578125 L 30.34375 -27.390625 C 30.34375 -28.285156 30.023438 -29.046875 29.390625 -29.671875 C 28.765625 -30.296875 28.003906 -30.609375 27.109375 -30.609375 L 11.84375 -30.609375 C 10.050781 -30.609375 8.523438 -31.238281 7.265625 -32.5 C 6.015625 -33.757812 5.390625 -35.285156 5.390625 -37.078125 L 5.390625 -56.375 C 5.390625 -58.175781 6.015625 -59.703125 7.265625 -60.953125 C 8.523438 -62.210938 10.050781 -62.84375 11.84375 -62.84375 L 32.234375 -62.84375 C 34.023438 -62.84375 35.550781 -62.210938 36.8125 -60.953125 C 38.070312 -59.703125 38.703125 -58.175781 38.703125 -56.375 L 38.703125 -46.6875 L 30.34375 -48.65625 L 30.34375 -51.265625 C 30.34375 -52.160156 30.023438 -52.921875 29.390625 -53.546875 C 28.765625 -54.179688 28.003906 -54.5 27.109375 -54.5 L 16.875 -54.5 C 16.039062 -54.5 15.304688 -54.179688 14.671875 -53.546875 C 14.046875 -52.921875 13.734375 -52.160156 13.734375 -51.265625 L 13.734375 -42.203125 C 13.734375 -41.296875 14.046875 -40.53125 14.671875 -39.90625 C 15.304688 -39.28125 16.039062 -38.96875 16.875 -38.96875 L 32.234375 -38.96875 C 34.023438 -38.96875 35.550781 -38.335938 36.8125 -37.078125 C 38.070312 -35.816406 38.703125 -34.289062 38.703125 -32.5 L 38.703125 -6.46875 C 38.703125 -4.664062 38.070312 -3.132812 36.8125 -1.875 C 35.550781 -0.625 34.023438 0 32.234375 0 Z M 11.84375 0 "/></g></g></g><g fill="#ffffff" fill-opacity="1"><g transform="translate(235.303283, 113.553651)"><g><path d="M 3.59375 0 L 3.59375 -65.359375 L 12.03125 -67.25 L 12.03125 -44.890625 L 22.71875 -44.890625 L 20.734375 -36.453125 L 12.03125 -36.453125 L 12.03125 0 Z M 3.59375 0 "/></g></g></g><g fill="#ffffff" fill-opacity="1"><g transform="translate(256.666608, 113.553651)"><g><path d="M 10.859375 0 C 9.003906 0 7.445312 -0.640625 6.1875 -1.921875 C 4.9375 -3.210938 4.3125 -4.753906 4.3125 -6.546875 L 4.3125 -38.34375 C 4.3125 -40.132812 4.9375 -41.671875 6.1875 -42.953125 C 7.445312 -44.242188 9.003906 -44.890625 10.859375 -44.890625 L 23.078125 -44.890625 C 24.867188 -44.890625 26.390625 -44.242188 27.640625 -42.953125 C 28.898438 -41.671875 29.53125 -40.132812 29.53125 -38.34375 L 29.53125 -6.546875 C 29.53125 -4.753906 28.898438 -3.210938 27.640625 -1.921875 C 26.390625 -0.640625 24.867188 0 23.078125 0 Z M 15.984375 -8.4375 L 17.859375 -8.4375 C 18.765625 -8.4375 19.546875 -8.75 20.203125 -9.375 C 20.859375 -10.007812 21.1875 -10.773438 21.1875 -11.671875 L 21.1875 -33.21875 C 21.1875 -34.113281 20.859375 -34.875 20.203125 -35.5 C 19.546875 -36.132812 18.765625 -36.453125 17.859375 -36.453125 L 15.984375 -36.453125 C 15.085938 -36.453125 14.320312 -36.132812 13.6875 -35.5 C 13.0625 -34.875 12.75 -34.113281 12.75 -33.21875 L 12.75 -11.671875 C 12.75 -10.773438 13.0625 -10.007812 13.6875 -9.375 C 14.320312 -8.75 15.085938 -8.4375 15.984375 -8.4375 Z M 15.984375 -8.4375 "/></g></g></g><g fill="#ffffff" fill-opacity="1"><g transform="translate(287.634725, 113.553651)"><g><path d="M 3.59375 0 L 3.59375 -44.890625 L 22.359375 -44.890625 C 24.148438 -44.890625 25.6875 -44.242188 26.96875 -42.953125 C 28.257812 -41.671875 28.90625 -40.132812 28.90625 -38.34375 L 28.90625 -28.546875 L 20.46875 -30.4375 L 20.46875 -33.125 C 20.46875 -34.019531 20.148438 -34.796875 19.515625 -35.453125 C 18.890625 -36.117188 18.128906 -36.453125 17.234375 -36.453125 L 12.03125 -36.453125 L 12.03125 0 Z M 3.59375 0 "/></g></g></g><g fill="#ffffff" fill-opacity="1"><g transform="translate(317.88473, 113.553651)"><g><path d="M 10.140625 0 C 8.347656 0 6.804688 -0.640625 5.515625 -1.921875 C 4.234375 -3.210938 3.59375 -4.753906 3.59375 -6.546875 L 3.59375 -38.421875 C 3.59375 -40.222656 4.234375 -41.75 5.515625 -43 C 6.804688 -44.257812 8.347656 -44.890625 10.140625 -44.890625 L 22.359375 -44.890625 C 24.210938 -44.890625 25.765625 -44.257812 27.015625 -43 C 28.273438 -41.75 28.90625 -40.222656 28.90625 -38.421875 L 28.90625 -24.78125 C 28.90625 -22.988281 28.273438 -21.445312 27.015625 -20.15625 C 25.765625 -18.863281 24.210938 -18.21875 22.359375 -18.21875 L 12.03125 -18.21875 L 12.03125 -11.671875 C 12.03125 -10.773438 12.34375 -10.007812 12.96875 -9.375 C 13.601562 -8.75 14.398438 -8.4375 15.359375 -8.4375 L 27.03125 -8.4375 L 28.90625 0 Z M 12.03125 -26.671875 L 17.234375 -26.671875 C 18.128906 -26.671875 18.890625 -26.984375 19.515625 -27.609375 C 20.148438 -28.234375 20.46875 -28.992188 20.46875 -29.890625 L 20.46875 -33.21875 C 20.46875 -34.113281 20.148438 -34.875 19.515625 -35.5 C 18.890625 -36.132812 18.128906 -36.453125 17.234375 -36.453125 L 15.359375 -36.453125 C 14.398438 -36.453125 13.601562 -36.132812 12.96875 -35.5 C 12.34375 -34.875 12.03125 -34.113281 12.03125 -33.21875 Z M 12.03125 -26.671875 "/></g></g></g></svg>