<svg xmlns="http://www.w3.org/2000/svg" xmlns:xlink="http://www.w3.org/1999/xlink" width="500" zoomAndPan="magnify" viewBox="0 0 375 149.999998" height="200" preserveAspectRatio="xMidYMid meet" version="1.0"><defs><g/><clipPath id="1af8511da4"><path d="M 21 29.640625 L 87.363281 29.640625 L 87.363281 111.390625 L 21 111.390625 Z M 21 29.640625 " clip-rule="nonzero"/></clipPath><clipPath id="316c11cbeb"><path d="M 19 27 L 54 27 L 54 32 L 19 32 Z M 19 27 " clip-rule="nonzero"/></clipPath><clipPath id="9c81887d96"><path d="M 24.636719 3.226562 L 53.875 9.933594 L 48.84375 31.863281 L 19.605469 25.15625 Z M 24.636719 3.226562 " clip-rule="nonzero"/></clipPath><clipPath id="30e0ebce4e"><path d="M 48.308594 63.0625 L 12.488281 54.847656 L 24.398438 2.945312 L 60.214844 11.164062 Z M 48.308594 63.0625 " clip-rule="nonzero"/></clipPath><clipPath id="ae1117d08e"><path d="M 19 27 L 52 27 L 52 32 L 19 32 Z M 19 27 " clip-rule="nonzero"/></clipPath><clipPath id="bf2748055f"><path d="M 24.636719 3.226562 L 53.875 9.933594 L 48.84375 31.863281 L 19.605469 25.15625 Z M 24.636719 3.226562 " clip-rule="nonzero"/></clipPath><clipPath id="eeb11967c8"><path d="M 48.308594 63.0625 L 12.488281 54.847656 L 24.398438 2.945312 L 60.214844 11.164062 Z M 48.308594 63.0625 " clip-rule="nonzero"/></clipPath><clipPath id="6f3230b27d"><path d="M 22 27 L 51 27 L 51 32 L 22 32 Z M 22 27 " clip-rule="nonzero"/></clipPath><clipPath id="06742b13e9"><path d="M 24.636719 3.226562 L 53.875 9.933594 L 48.84375 31.863281 L 19.605469 25.15625 Z M 24.636719 3.226562 " clip-rule="nonzero"/></clipPath><clipPath id="a48891a5d7"><path d="M 48.308594 63.0625 L 12.488281 54.847656 L 24.398438 2.945312 L 60.214844 11.164062 Z M 48.308594 63.0625 " clip-rule="nonzero"/></clipPath><clipPath id="6b9549be75"><path d="M 22 11 L 51 11 L 51 26 L 22 26 Z M 22 11 " clip-rule="nonzero"/></clipPath><clipPath id="060601b9b1"><path d="M 24.636719 3.226562 L 53.875 9.933594 L 48.84375 31.863281 L 19.605469 25.15625 Z M 24.636719 3.226562 " clip-rule="nonzero"/></clipPath><clipPath id="5f30ccaac7"><path d="M 48.308594 63.0625 L 12.488281 54.847656 L 24.398438 2.945312 L 60.214844 11.164062 Z M 48.308594 63.0625 " clip-rule="nonzero"/></clipPath><clipPath id="1f8ab17391"><path d="M 32 24 L 43 24 L 43 27 L 32 27 Z M 32 24 " clip-rule="nonzero"/></clipPath><clipPath id="6f0ff9dfd0"><path d="M 24.636719 3.226562 L 53.875 9.933594 L 48.84375 31.863281 L 19.605469 25.15625 Z M 24.636719 3.226562 " clip-rule="nonzero"/></clipPath><clipPath id="6c2512ae06"><path d="M 48.308594 63.0625 L 12.488281 54.847656 L 24.398438 2.945312 L 60.214844 11.164062 Z M 48.308594 63.0625 " clip-rule="nonzero"/></clipPath><clipPath id="a3c0a91e36"><path d="M 28 5 L 37 5 L 37 13 L 28 13 Z M 28 5 " clip-rule="nonzero"/></clipPath><clipPath id="37f7ac27c0"><path d="M 24.636719 3.226562 L 53.875 9.933594 L 48.84375 31.863281 L 19.605469 25.15625 Z M 24.636719 3.226562 " clip-rule="nonzero"/></clipPath><clipPath id="9292bc8fbf"><path d="M 48.308594 63.0625 L 12.488281 54.847656 L 24.398438 2.945312 L 60.214844 11.164062 Z M 48.308594 63.0625 " clip-rule="nonzero"/></clipPath></defs><g clip-path="url(#1af8511da4)"><path fill="#ffffff" d="M 21.851562 38.535156 L 21.851562 79.113281 C 24.980469 71.292969 29.75 64.835938 35.695312 59.351562 C 36.105469 58.976562 36.515625 58.601562 36.9375 58.242188 C 44.824219 51.332031 55.757812 46.382812 54.035156 33.867188 C 61.453125 40.4375 59.167969 48.515625 54.070312 55.335938 C 53.800781 55.695312 53.53125 56.058594 53.273438 56.433594 C 52.570312 57.390625 51.902344 58.371094 51.257812 59.351562 C 50.0625 61.171875 48.949219 63.015625 47.941406 64.929688 C 43.40625 73.488281 39.796875 84.878906 50.882812 90.507812 C 58.734375 94.488281 67.933594 88.894531 68.378906 80.316406 C 68.636719 75.390625 66.046875 71.128906 60.84375 67.5 C 76.828125 67.71875 82.664062 84.402344 72.996094 95.691406 C 70.875 98.164062 68.332031 99.996094 65.414062 101.28125 C 43.933594 110.75 25.871094 88.300781 39.796875 65.6875 C 19.882812 81.132812 31.871094 111.390625 58.195312 111.390625 C 74.296875 111.390625 87.34375 98.992188 87.34375 83.714844 C 87.34375 72.484375 80.296875 62.816406 70.183594 58.476562 C 75.9375 56.410156 80.074219 50.910156 80.074219 44.5 C 80.074219 36.332031 73.359375 29.640625 65.15625 29.640625 L 29.457031 29.640625 C 22.953125 29.640625 21.851562 33.15625 21.851562 38.535156 Z M 21.851562 38.535156 " fill-opacity="1" fill-rule="evenodd"/></g><g clip-path="url(#316c11cbeb)"><g clip-path="url(#9c81887d96)"><g clip-path="url(#30e0ebce4e)"><path fill="#ffffff" d="M 50.890625 27.347656 C 50.890625 27.347656 51.015625 27.558594 51.25 27.960938 C 51.261719 27.988281 51.277344 28.011719 51.292969 28.039062 C 51.308594 28.066406 51.324219 28.09375 51.339844 28.121094 C 51.367188 28.179688 51.398438 28.238281 51.433594 28.304688 C 51.5 28.429688 51.570312 28.570312 51.648438 28.722656 C 51.667969 28.761719 51.6875 28.796875 51.707031 28.839844 C 51.726562 28.878906 51.746094 28.917969 51.765625 28.960938 C 51.800781 29.042969 51.839844 29.128906 51.882812 29.214844 C 51.921875 29.304688 51.964844 29.398438 52.007812 29.492188 C 52.027344 29.539062 52.050781 29.585938 52.070312 29.632812 C 52.089844 29.683594 52.113281 29.734375 52.132812 29.785156 C 52.214844 29.988281 52.300781 30.203125 52.390625 30.429688 C 52.472656 30.65625 52.554688 30.894531 52.640625 31.148438 C 52.652344 31.179688 52.664062 31.210938 52.675781 31.242188 C 52.6875 31.273438 52.695312 31.304688 52.703125 31.339844 C 52.722656 31.402344 52.746094 31.46875 52.765625 31.535156 C 52.804688 31.667969 52.84375 31.800781 52.886719 31.9375 C 52.929688 32.078125 52.960938 32.21875 53 32.363281 C 53.035156 32.507812 53.074219 32.65625 53.109375 32.804688 C 53.148438 32.953125 53.179688 33.109375 53.210938 33.261719 C 53.242188 33.417969 53.273438 33.578125 53.308594 33.738281 C 53.324219 33.820312 53.335938 33.902344 53.351562 33.984375 C 53.363281 34.066406 53.375 34.148438 53.390625 34.234375 C 53.402344 34.316406 53.417969 34.398438 53.429688 34.484375 C 53.4375 34.527344 53.441406 34.570312 53.449219 34.613281 C 53.457031 34.65625 53.464844 34.699219 53.46875 34.742188 C 53.488281 34.914062 53.507812 35.089844 53.527344 35.265625 C 53.535156 35.355469 53.546875 35.445312 53.558594 35.535156 C 53.5625 35.582031 53.566406 35.625 53.570312 35.671875 C 53.570312 35.714844 53.574219 35.761719 53.578125 35.808594 C 53.589844 35.988281 53.601562 36.175781 53.617188 36.363281 C 53.617188 36.410156 53.621094 36.457031 53.625 36.503906 C 53.625 36.550781 53.625 36.597656 53.628906 36.644531 C 53.628906 36.738281 53.632812 36.835938 53.632812 36.929688 C 53.636719 37.027344 53.636719 37.125 53.640625 37.21875 C 53.644531 37.316406 53.644531 37.414062 53.640625 37.511719 C 53.636719 37.707031 53.632812 37.90625 53.628906 38.105469 C 53.628906 38.15625 53.625 38.207031 53.625 38.257812 L 53.625 38.332031 L 53.617188 38.410156 C 53.613281 38.507812 53.605469 38.609375 53.597656 38.710938 C 53.589844 38.816406 53.585938 38.917969 53.578125 39.019531 C 53.574219 39.070312 53.570312 39.121094 53.566406 39.175781 L 53.5625 39.25 L 53.554688 39.328125 C 53.53125 39.535156 53.507812 39.746094 53.484375 39.953125 C 53.476562 40.007812 53.472656 40.058594 53.464844 40.113281 L 53.457031 40.191406 L 53.441406 40.269531 C 53.425781 40.375 53.410156 40.480469 53.394531 40.589844 C 53.375 40.695312 53.359375 40.800781 53.34375 40.910156 C 53.335938 40.960938 53.328125 41.015625 53.316406 41.070312 L 53.3125 41.109375 C 53.308594 41.121094 53.3125 41.109375 53.304688 41.144531 L 53.300781 41.164062 L 53.285156 41.238281 C 53.265625 41.339844 53.246094 41.445312 53.226562 41.546875 L 53.210938 41.625 C 53.207031 41.648438 53.203125 41.675781 53.195312 41.703125 C 53.183594 41.757812 53.171875 41.8125 53.160156 41.867188 C 53.132812 41.980469 53.109375 42.089844 53.082031 42.203125 C 53.070312 42.261719 53.058594 42.3125 53.042969 42.367188 C 53.03125 42.421875 53.015625 42.476562 53.003906 42.53125 C 52.972656 42.640625 52.949219 42.75 52.917969 42.859375 C 52.886719 42.96875 52.855469 43.078125 52.824219 43.1875 C 52.808594 43.242188 52.792969 43.296875 52.777344 43.351562 C 52.761719 43.40625 52.746094 43.464844 52.726562 43.519531 C 52.695312 43.628906 52.660156 43.738281 52.625 43.847656 C 52.589844 43.960938 52.550781 44.070312 52.515625 44.179688 C 52.476562 44.289062 52.441406 44.398438 52.398438 44.511719 C 52.359375 44.621094 52.320312 44.730469 52.277344 44.839844 C 52.257812 44.894531 52.238281 44.953125 52.214844 45.007812 C 52.191406 45.0625 52.171875 45.117188 52.148438 45.171875 C 52.105469 45.28125 52.058594 45.390625 52.015625 45.503906 C 51.96875 45.613281 51.921875 45.722656 51.875 45.832031 C 51.851562 45.886719 51.824219 45.941406 51.800781 45.996094 C 51.777344 46.050781 51.75 46.105469 51.726562 46.160156 C 51.675781 46.269531 51.625 46.378906 51.574219 46.488281 C 51.523438 46.597656 51.46875 46.707031 51.414062 46.816406 C 51.359375 46.925781 51.304688 47.035156 51.246094 47.140625 C 50.34375 48.878906 49.15625 50.546875 47.726562 52.042969 C 47.636719 52.132812 47.546875 52.226562 47.457031 52.320312 C 47.414062 52.367188 47.367188 52.410156 47.320312 52.457031 L 47.179688 52.59375 L 47.042969 52.726562 C 46.996094 52.773438 46.945312 52.816406 46.898438 52.859375 C 46.804688 52.949219 46.710938 53.039062 46.613281 53.125 C 46.226562 53.472656 45.828125 53.8125 45.414062 54.132812 C 44.589844 54.777344 43.714844 55.367188 42.800781 55.886719 L 42.632812 55.988281 L 42.457031 56.082031 C 42.34375 56.144531 42.226562 56.207031 42.109375 56.269531 C 41.878906 56.390625 41.644531 56.511719 41.40625 56.621094 C 41.171875 56.738281 40.929688 56.84375 40.691406 56.953125 C 40.570312 57.003906 40.449219 57.054688 40.328125 57.105469 L 40.148438 57.179688 L 39.964844 57.253906 C 38.988281 57.640625 37.988281 57.949219 36.980469 58.1875 C 34.964844 58.667969 32.917969 58.839844 30.957031 58.742188 C 30.835938 58.738281 30.710938 58.726562 30.589844 58.71875 C 30.46875 58.710938 30.347656 58.707031 30.226562 58.695312 C 29.984375 58.671875 29.742188 58.652344 29.503906 58.621094 C 29.027344 58.566406 28.554688 58.488281 28.09375 58.40625 C 27.976562 58.386719 27.863281 58.359375 27.75 58.339844 C 27.691406 58.328125 27.632812 58.316406 27.578125 58.304688 L 27.40625 58.265625 C 27.292969 58.242188 27.179688 58.214844 27.066406 58.191406 C 27.011719 58.175781 26.957031 58.164062 26.898438 58.148438 C 26.84375 58.136719 26.789062 58.121094 26.734375 58.105469 C 26.621094 58.078125 26.511719 58.050781 26.402344 58.019531 L 26.347656 58.007812 L 26.230469 57.972656 C 26.179688 57.960938 26.125 57.945312 26.074219 57.929688 C 26.023438 57.914062 25.972656 57.898438 25.921875 57.886719 C 25.894531 57.878906 25.871094 57.871094 25.84375 57.863281 L 25.757812 57.835938 C 25.648438 57.800781 25.539062 57.769531 25.429688 57.734375 C 25.320312 57.699219 25.21875 57.664062 25.113281 57.628906 C 25.007812 57.59375 24.902344 57.558594 24.800781 57.519531 C 24.695312 57.484375 24.59375 57.445312 24.492188 57.40625 C 24.441406 57.386719 24.390625 57.371094 24.339844 57.351562 C 24.289062 57.332031 24.238281 57.3125 24.1875 57.289062 C 24.089844 57.25 23.988281 57.210938 23.886719 57.171875 C 23.789062 57.132812 23.691406 57.089844 23.59375 57.046875 C 23.542969 57.027344 23.496094 57.003906 23.445312 56.984375 C 23.398438 56.964844 23.351562 56.945312 23.300781 56.921875 C 23.207031 56.878906 23.109375 56.832031 23.015625 56.789062 C 22.257812 56.441406 21.550781 56.054688 20.894531 55.652344 C 19.578125 54.847656 18.476562 53.964844 17.578125 53.117188 C 16.683594 52.265625 15.984375 51.449219 15.453125 50.753906 C 14.925781 50.054688 14.558594 49.472656 14.320312 49.074219 C 14.199219 48.875 14.113281 48.714844 14.054688 48.613281 C 13.996094 48.507812 13.96875 48.453125 13.96875 48.453125 C 13.96875 48.453125 14.011719 48.496094 14.09375 48.585938 C 14.175781 48.671875 14.296875 48.800781 14.457031 48.96875 C 14.78125 49.300781 15.257812 49.777344 15.898438 50.347656 C 16.535156 50.914062 17.335938 51.5625 18.304688 52.222656 C 19.273438 52.882812 20.414062 53.546875 21.707031 54.128906 C 22.355469 54.421875 23.039062 54.699219 23.761719 54.9375 C 23.851562 54.96875 23.941406 55 24.035156 55.03125 C 24.125 55.058594 24.21875 55.085938 24.308594 55.117188 C 24.402344 55.144531 24.492188 55.175781 24.585938 55.199219 C 24.679688 55.226562 24.773438 55.253906 24.867188 55.28125 C 24.914062 55.292969 24.960938 55.308594 25.007812 55.320312 C 25.058594 55.332031 25.105469 55.34375 25.152344 55.359375 C 25.25 55.382812 25.34375 55.40625 25.441406 55.433594 C 25.535156 55.457031 25.632812 55.480469 25.730469 55.503906 C 25.828125 55.527344 25.925781 55.550781 26.019531 55.570312 C 26.117188 55.589844 26.210938 55.609375 26.308594 55.632812 L 26.378906 55.648438 L 26.457031 55.664062 C 26.511719 55.671875 26.5625 55.683594 26.617188 55.695312 C 26.667969 55.703125 26.722656 55.714844 26.773438 55.726562 L 26.851562 55.742188 L 26.894531 55.75 C 26.871094 55.742188 26.898438 55.75 26.898438 55.75 L 26.917969 55.75 C 27.019531 55.769531 27.121094 55.785156 27.21875 55.804688 C 27.269531 55.8125 27.320312 55.820312 27.371094 55.828125 C 27.421875 55.835938 27.476562 55.84375 27.527344 55.851562 C 27.628906 55.867188 27.730469 55.882812 27.832031 55.894531 L 27.988281 55.917969 C 28.039062 55.921875 28.089844 55.929688 28.144531 55.9375 C 28.246094 55.949219 28.351562 55.960938 28.457031 55.972656 C 28.558594 55.984375 28.664062 55.996094 28.769531 56.003906 C 28.820312 56.007812 28.875 56.015625 28.925781 56.019531 C 28.980469 56.023438 29.03125 56.027344 29.085938 56.03125 C 29.191406 56.039062 29.296875 56.046875 29.402344 56.054688 C 29.507812 56.0625 29.613281 56.066406 29.71875 56.074219 C 30.148438 56.097656 30.578125 56.101562 31.011719 56.097656 C 32.742188 56.082031 34.523438 55.847656 36.269531 55.382812 C 36.703125 55.261719 37.140625 55.136719 37.570312 54.988281 C 37.679688 54.957031 37.785156 54.914062 37.890625 54.878906 C 38 54.839844 38.105469 54.804688 38.214844 54.761719 C 38.320312 54.722656 38.425781 54.679688 38.53125 54.640625 C 38.640625 54.597656 38.742188 54.554688 38.851562 54.511719 L 39.164062 54.378906 C 39.269531 54.332031 39.375 54.289062 39.480469 54.242188 C 39.6875 54.144531 39.894531 54.050781 40.101562 53.949219 C 40.304688 53.851562 40.507812 53.742188 40.710938 53.640625 C 40.8125 53.585938 40.914062 53.53125 41.015625 53.476562 L 41.164062 53.394531 L 41.3125 53.308594 C 42.109375 52.855469 42.871094 52.347656 43.601562 51.796875 C 43.691406 51.726562 43.78125 51.65625 43.871094 51.589844 C 43.960938 51.519531 44.046875 51.445312 44.136719 51.375 C 44.316406 51.234375 44.488281 51.082031 44.660156 50.9375 C 44.746094 50.863281 44.832031 50.789062 44.914062 50.714844 C 44.957031 50.675781 45 50.636719 45.042969 50.601562 L 45.167969 50.484375 C 45.25 50.40625 45.332031 50.332031 45.414062 50.253906 C 45.496094 50.175781 45.578125 50.09375 45.65625 50.015625 C 45.976562 49.699219 46.289062 49.375 46.585938 49.042969 L 46.699219 48.917969 L 46.808594 48.789062 C 46.882812 48.703125 46.953125 48.621094 47.027344 48.535156 C 47.097656 48.449219 47.167969 48.363281 47.238281 48.277344 C 47.273438 48.234375 47.308594 48.191406 47.34375 48.148438 L 47.445312 48.015625 C 47.722656 47.671875 47.976562 47.3125 48.226562 46.953125 C 48.347656 46.773438 48.476562 46.59375 48.589844 46.410156 C 48.648438 46.316406 48.710938 46.226562 48.765625 46.132812 C 48.820312 46.042969 48.878906 45.949219 48.933594 45.855469 C 49.382812 45.117188 49.769531 44.359375 50.113281 43.597656 C 50.160156 43.503906 50.199219 43.40625 50.238281 43.3125 C 50.28125 43.214844 50.324219 43.121094 50.359375 43.023438 C 50.398438 42.929688 50.4375 42.832031 50.476562 42.738281 C 50.496094 42.691406 50.515625 42.640625 50.535156 42.59375 C 50.554688 42.546875 50.570312 42.5 50.589844 42.449219 C 50.625 42.355469 50.660156 42.257812 50.695312 42.164062 C 50.730469 42.070312 50.761719 41.972656 50.796875 41.875 C 50.828125 41.78125 50.867188 41.683594 50.894531 41.589844 C 50.925781 41.5 50.957031 41.40625 50.988281 41.3125 C 51 41.265625 51.015625 41.21875 51.03125 41.175781 C 51.039062 41.152344 51.046875 41.125 51.054688 41.101562 L 51.078125 41.023438 C 51.105469 40.925781 51.136719 40.824219 51.164062 40.722656 L 51.1875 40.648438 L 51.191406 40.628906 C 51.1875 40.652344 51.191406 40.625 51.195312 40.625 L 51.203125 40.589844 C 51.214844 40.542969 51.226562 40.496094 51.242188 40.445312 C 51.265625 40.351562 51.289062 40.257812 51.316406 40.164062 C 51.339844 40.070312 51.367188 39.976562 51.390625 39.882812 L 51.410156 39.8125 L 51.425781 39.738281 C 51.433594 39.691406 51.445312 39.644531 51.457031 39.597656 C 51.496094 39.410156 51.539062 39.222656 51.578125 39.039062 C 51.722656 38.296875 51.847656 37.570312 51.910156 36.863281 C 51.921875 36.777344 51.929688 36.6875 51.9375 36.601562 C 51.945312 36.558594 51.949219 36.515625 51.953125 36.46875 C 51.957031 36.425781 51.957031 36.382812 51.960938 36.339844 C 51.972656 36.167969 51.984375 35.996094 51.996094 35.828125 C 52 35.785156 52 35.742188 52.003906 35.699219 C 52.007812 35.65625 52.011719 35.613281 52.011719 35.574219 C 52.011719 35.488281 52.015625 35.40625 52.015625 35.324219 C 52.023438 35.15625 52.027344 34.992188 52.03125 34.828125 C 52.035156 34.789062 52.03125 34.75 52.03125 34.707031 C 52.03125 34.667969 52.03125 34.628906 52.03125 34.585938 C 52.03125 34.507812 52.027344 34.425781 52.027344 34.347656 C 52.027344 34.269531 52.027344 34.1875 52.027344 34.109375 C 52.023438 34.03125 52.027344 33.953125 52.019531 33.878906 C 52.015625 33.722656 52.007812 33.570312 52 33.421875 C 51.992188 33.269531 51.988281 33.121094 51.972656 32.976562 C 51.960938 32.832031 51.949219 32.6875 51.9375 32.546875 C 51.925781 32.40625 51.917969 32.265625 51.898438 32.132812 C 51.882812 31.996094 51.867188 31.859375 51.851562 31.730469 C 51.84375 31.664062 51.835938 31.597656 51.828125 31.535156 C 51.824219 31.503906 51.820312 31.46875 51.816406 31.4375 C 51.808594 31.40625 51.804688 31.375 51.800781 31.34375 C 51.761719 31.089844 51.722656 30.847656 51.6875 30.617188 C 51.644531 30.386719 51.601562 30.167969 51.558594 29.960938 C 51.550781 29.90625 51.539062 29.855469 51.53125 29.804688 C 51.519531 29.753906 51.507812 29.703125 51.496094 29.65625 C 51.472656 29.554688 51.453125 29.460938 51.429688 29.367188 C 51.410156 29.273438 51.390625 29.183594 51.371094 29.097656 C 51.359375 29.054688 51.351562 29.011719 51.339844 28.96875 C 51.328125 28.929688 51.320312 28.886719 51.308594 28.847656 C 51.265625 28.6875 51.226562 28.539062 51.191406 28.402344 C 51.175781 28.332031 51.15625 28.265625 51.140625 28.203125 C 51.132812 28.175781 51.125 28.144531 51.117188 28.113281 C 51.105469 28.085938 51.097656 28.054688 51.089844 28.027344 C 50.957031 27.585938 50.890625 27.347656 50.890625 27.347656 " fill-opacity="1" fill-rule="nonzero"/></g></g></g><g clip-path="url(#ae1117d08e)"><g clip-path="url(#bf2748055f)"><g clip-path="url(#eeb11967c8)"><path fill="#ffffff" d="M 50.550781 27.269531 C 50.550781 27.269531 50.632812 27.460938 50.785156 27.828125 C 50.800781 27.875 50.824219 27.921875 50.839844 27.976562 C 50.859375 28.027344 50.878906 28.082031 50.898438 28.140625 C 50.941406 28.257812 50.984375 28.382812 51.035156 28.519531 C 51.046875 28.554688 51.058594 28.589844 51.070312 28.625 C 51.082031 28.660156 51.09375 28.699219 51.105469 28.734375 C 51.125 28.808594 51.148438 28.886719 51.171875 28.964844 C 51.195312 29.046875 51.222656 29.128906 51.246094 29.210938 C 51.257812 29.253906 51.273438 29.296875 51.285156 29.34375 C 51.296875 29.386719 51.308594 29.429688 51.316406 29.476562 C 51.363281 29.65625 51.410156 29.847656 51.460938 30.050781 C 51.5 30.253906 51.542969 30.46875 51.585938 30.691406 C 51.59375 30.71875 51.597656 30.746094 51.605469 30.773438 C 51.609375 30.804688 51.613281 30.832031 51.617188 30.859375 C 51.625 30.917969 51.636719 30.976562 51.644531 31.03125 C 51.660156 31.148438 51.679688 31.269531 51.699219 31.390625 C 51.71875 31.511719 51.730469 31.636719 51.742188 31.765625 C 51.757812 31.890625 51.769531 32.019531 51.785156 32.152344 C 51.800781 32.28125 51.804688 32.417969 51.8125 32.554688 C 51.820312 32.6875 51.828125 32.828125 51.835938 32.96875 C 51.84375 33.039062 51.84375 33.109375 51.84375 33.179688 C 51.84375 33.25 51.847656 33.324219 51.847656 33.394531 C 51.847656 33.539062 51.851562 33.6875 51.851562 33.835938 C 51.84375 33.984375 51.839844 34.136719 51.835938 34.289062 C 51.832031 34.367188 51.832031 34.445312 51.828125 34.519531 C 51.828125 34.558594 51.824219 34.597656 51.820312 34.636719 C 51.816406 34.675781 51.816406 34.714844 51.8125 34.753906 C 51.800781 34.910156 51.789062 35.070312 51.773438 35.230469 C 51.773438 35.269531 51.769531 35.3125 51.765625 35.351562 C 51.761719 35.390625 51.753906 35.433594 51.75 35.472656 C 51.742188 35.550781 51.730469 35.632812 51.71875 35.714844 C 51.710938 35.796875 51.699219 35.878906 51.691406 35.960938 C 51.679688 36.042969 51.671875 36.128906 51.65625 36.210938 C 51.625 36.375 51.597656 36.542969 51.570312 36.714844 C 51.5625 36.753906 51.554688 36.796875 51.546875 36.839844 L 51.535156 36.90625 L 51.523438 36.96875 C 51.503906 37.054688 51.484375 37.136719 51.46875 37.222656 C 51.449219 37.308594 51.429688 37.394531 51.410156 37.480469 C 51.402344 37.523438 51.390625 37.566406 51.382812 37.613281 L 51.367188 37.675781 L 51.351562 37.742188 C 51.304688 37.914062 51.261719 38.089844 51.214844 38.265625 C 51.203125 38.308594 51.191406 38.351562 51.179688 38.394531 L 51.140625 38.527344 C 51.113281 38.613281 51.085938 38.703125 51.058594 38.789062 C 51.03125 38.878906 51 38.96875 50.972656 39.054688 C 50.960938 39.101562 50.945312 39.144531 50.933594 39.191406 L 50.921875 39.222656 C 50.917969 39.234375 50.921875 39.222656 50.910156 39.253906 L 50.90625 39.269531 L 50.882812 39.332031 C 50.851562 39.414062 50.824219 39.5 50.792969 39.582031 L 50.773438 39.644531 C 50.765625 39.667969 50.757812 39.6875 50.75 39.710938 C 50.730469 39.757812 50.714844 39.800781 50.695312 39.847656 C 50.660156 39.9375 50.625 40.03125 50.589844 40.125 C 50.570312 40.171875 50.550781 40.214844 50.535156 40.257812 C 50.515625 40.304688 50.496094 40.347656 50.476562 40.390625 C 50.441406 40.480469 50.402344 40.570312 50.363281 40.660156 C 50.324219 40.75 50.285156 40.839844 50.242188 40.929688 C 50.222656 40.972656 50.203125 41.019531 50.183594 41.0625 C 50.160156 41.105469 50.140625 41.152344 50.117188 41.195312 C 50.074219 41.285156 50.03125 41.375 49.988281 41.464844 C 49.945312 41.554688 49.898438 41.640625 49.851562 41.730469 C 49.804688 41.820312 49.761719 41.910156 49.710938 41.996094 C 49.613281 42.171875 49.519531 42.351562 49.414062 42.527344 C 49.363281 42.617188 49.3125 42.703125 49.257812 42.792969 C 49.203125 42.878906 49.148438 42.964844 49.09375 43.054688 C 49.066406 43.097656 49.039062 43.140625 49.011719 43.183594 C 48.984375 43.230469 48.957031 43.273438 48.925781 43.316406 C 48.871094 43.402344 48.8125 43.488281 48.753906 43.574219 C 48.695312 43.660156 48.636719 43.746094 48.574219 43.832031 C 48.515625 43.917969 48.457031 44.003906 48.390625 44.089844 C 47.398438 45.449219 46.171875 46.714844 44.757812 47.800781 C 44.667969 47.867188 44.582031 47.933594 44.492188 48 C 44.402344 48.066406 44.3125 48.132812 44.21875 48.195312 L 44.082031 48.292969 C 44.039062 48.324219 43.992188 48.355469 43.945312 48.386719 C 43.851562 48.449219 43.757812 48.511719 43.667969 48.574219 C 43.289062 48.820312 42.90625 49.058594 42.511719 49.277344 C 41.726562 49.714844 40.902344 50.101562 40.054688 50.425781 L 39.898438 50.484375 L 39.738281 50.542969 C 39.628906 50.582031 39.523438 50.621094 39.417969 50.65625 C 39.199219 50.726562 38.988281 50.800781 38.769531 50.863281 C 38.550781 50.929688 38.332031 50.988281 38.117188 51.046875 C 38.007812 51.078125 37.894531 51.101562 37.785156 51.128906 L 37.621094 51.171875 L 37.457031 51.207031 C 36.574219 51.40625 35.683594 51.535156 34.792969 51.605469 C 33.015625 51.738281 31.25 51.609375 29.59375 51.257812 C 29.492188 51.238281 29.390625 51.214844 29.285156 51.191406 C 29.183594 51.167969 29.082031 51.144531 28.980469 51.117188 C 28.777344 51.066406 28.578125 51.015625 28.378906 50.957031 C 27.980469 50.847656 27.589844 50.714844 27.207031 50.582031 C 27.113281 50.546875 27.019531 50.511719 26.925781 50.476562 C 26.878906 50.460938 26.832031 50.441406 26.785156 50.421875 L 26.714844 50.398438 L 26.644531 50.371094 C 26.550781 50.332031 26.460938 50.292969 26.367188 50.257812 C 26.324219 50.238281 26.277344 50.21875 26.230469 50.199219 C 26.1875 50.179688 26.140625 50.160156 26.09375 50.140625 C 26.003906 50.101562 25.914062 50.0625 25.828125 50.023438 L 25.808594 50.015625 C 25.796875 50.011719 25.8125 50.015625 25.78125 50.003906 L 25.6875 49.957031 C 25.644531 49.9375 25.605469 49.917969 25.5625 49.898438 C 25.519531 49.878906 25.480469 49.859375 25.4375 49.839844 L 25.375 49.8125 L 25.308594 49.777344 C 25.21875 49.734375 25.132812 49.6875 25.042969 49.644531 C 24.953125 49.601562 24.871094 49.554688 24.789062 49.511719 C 24.703125 49.464844 24.621094 49.421875 24.539062 49.375 C 24.457031 49.328125 24.375 49.285156 24.292969 49.238281 C 24.25 49.214844 24.210938 49.191406 24.171875 49.167969 C 24.132812 49.144531 24.089844 49.121094 24.050781 49.097656 C 23.972656 49.050781 23.890625 49 23.8125 48.953125 C 23.734375 48.90625 23.65625 48.855469 23.582031 48.808594 C 23.503906 48.757812 23.425781 48.710938 23.351562 48.660156 C 23.277344 48.609375 23.203125 48.558594 23.128906 48.507812 C 22.535156 48.109375 21.988281 47.683594 21.488281 47.25 C 20.492188 46.382812 19.683594 45.480469 19.050781 44.636719 C 18.414062 43.789062 17.941406 43.003906 17.597656 42.335938 C 17.253906 41.671875 17.03125 41.128906 16.890625 40.757812 C 16.820312 40.570312 16.773438 40.425781 16.738281 40.328125 C 16.707031 40.230469 16.6875 40.183594 16.6875 40.183594 C 16.6875 40.183594 16.71875 40.226562 16.78125 40.308594 C 16.839844 40.390625 16.925781 40.515625 17.042969 40.675781 C 17.277344 40.992188 17.628906 41.453125 18.097656 42.003906 C 18.570312 42.554688 19.171875 43.195312 19.90625 43.867188 C 20.640625 44.535156 21.515625 45.226562 22.53125 45.871094 C 23.039062 46.195312 23.578125 46.507812 24.152344 46.796875 C 24.296875 46.867188 24.441406 46.941406 24.585938 47.011719 C 24.660156 47.042969 24.734375 47.082031 24.808594 47.113281 C 24.882812 47.148438 24.960938 47.183594 25.035156 47.214844 C 25.074219 47.234375 25.109375 47.25 25.148438 47.265625 C 25.1875 47.28125 25.226562 47.300781 25.261719 47.316406 C 25.339844 47.347656 25.417969 47.378906 25.492188 47.414062 C 25.570312 47.445312 25.648438 47.476562 25.726562 47.507812 C 25.804688 47.539062 25.886719 47.570312 25.960938 47.597656 C 26.039062 47.628906 26.117188 47.65625 26.191406 47.683594 L 26.25 47.707031 L 26.3125 47.726562 C 26.355469 47.742188 26.398438 47.757812 26.441406 47.773438 C 26.484375 47.789062 26.527344 47.804688 26.574219 47.820312 L 26.667969 47.855469 C 26.648438 47.847656 26.671875 47.855469 26.671875 47.855469 L 26.6875 47.859375 C 26.769531 47.886719 26.851562 47.914062 26.933594 47.941406 C 27.097656 47.996094 27.265625 48.042969 27.433594 48.09375 L 27.496094 48.113281 L 27.5625 48.128906 C 27.601562 48.140625 27.644531 48.152344 27.6875 48.164062 C 27.773438 48.1875 27.859375 48.210938 27.945312 48.234375 C 28.03125 48.257812 28.117188 48.277344 28.203125 48.300781 C 28.246094 48.308594 28.289062 48.320312 28.332031 48.332031 C 28.375 48.339844 28.417969 48.351562 28.460938 48.359375 C 28.546875 48.378906 28.636719 48.398438 28.722656 48.421875 C 28.808594 48.441406 28.898438 48.457031 28.984375 48.472656 C 29.339844 48.546875 29.695312 48.601562 30.058594 48.65625 C 31.503906 48.859375 33.011719 48.886719 34.523438 48.722656 C 34.902344 48.679688 35.28125 48.628906 35.65625 48.5625 C 35.75 48.546875 35.84375 48.527344 35.9375 48.511719 C 36.03125 48.492188 36.125 48.476562 36.21875 48.453125 C 36.3125 48.433594 36.40625 48.414062 36.5 48.394531 C 36.59375 48.371094 36.6875 48.347656 36.78125 48.328125 L 36.921875 48.292969 L 37.058594 48.257812 C 37.152344 48.234375 37.246094 48.210938 37.339844 48.183594 C 37.523438 48.132812 37.710938 48.082031 37.890625 48.023438 C 38.078125 47.96875 38.257812 47.902344 38.441406 47.84375 L 38.714844 47.746094 L 38.847656 47.699219 L 38.984375 47.644531 C 39.703125 47.371094 40.40625 47.050781 41.082031 46.6875 L 41.332031 46.550781 C 41.417969 46.503906 41.5 46.457031 41.582031 46.410156 C 41.75 46.316406 41.910156 46.214844 42.074219 46.117188 C 42.398438 45.914062 42.714844 45.703125 43.027344 45.480469 C 43.332031 45.261719 43.636719 45.03125 43.925781 44.792969 L 44.039062 44.707031 L 44.144531 44.613281 C 44.21875 44.554688 44.289062 44.492188 44.359375 44.433594 C 44.429688 44.371094 44.5 44.308594 44.570312 44.246094 C 44.605469 44.214844 44.640625 44.183594 44.675781 44.152344 L 44.777344 44.058594 C 45.054688 43.808594 45.316406 43.542969 45.570312 43.28125 C 45.695312 43.144531 45.824219 43.011719 45.945312 42.875 C 46.007812 42.808594 46.070312 42.738281 46.128906 42.671875 C 46.1875 42.601562 46.246094 42.53125 46.304688 42.464844 C 46.777344 41.910156 47.203125 41.332031 47.597656 40.746094 C 47.644531 40.671875 47.691406 40.597656 47.738281 40.523438 C 47.785156 40.449219 47.835938 40.375 47.878906 40.300781 C 47.925781 40.226562 47.96875 40.152344 48.015625 40.078125 C 48.039062 40.042969 48.058594 40.003906 48.082031 39.96875 C 48.105469 39.929688 48.125 39.894531 48.148438 39.855469 C 48.191406 39.78125 48.234375 39.707031 48.277344 39.632812 C 48.320312 39.558594 48.359375 39.480469 48.398438 39.40625 C 48.441406 39.332031 48.484375 39.257812 48.523438 39.183594 C 48.558594 39.109375 48.597656 39.035156 48.636719 38.964844 C 48.65625 38.929688 48.671875 38.890625 48.691406 38.855469 C 48.703125 38.839844 48.710938 38.816406 48.722656 38.796875 L 48.75 38.734375 C 48.789062 38.65625 48.828125 38.574219 48.867188 38.496094 L 48.894531 38.4375 L 48.902344 38.421875 C 48.894531 38.441406 48.902344 38.417969 48.902344 38.417969 L 48.917969 38.390625 C 48.933594 38.351562 48.949219 38.316406 48.96875 38.277344 C 49 38.203125 49.035156 38.125 49.070312 38.050781 C 49.101562 37.976562 49.136719 37.902344 49.171875 37.828125 L 49.195312 37.769531 L 49.21875 37.714844 C 49.234375 37.675781 49.25 37.636719 49.265625 37.601562 C 49.324219 37.449219 49.386719 37.300781 49.445312 37.152344 C 49.667969 36.550781 49.875 35.964844 50.027344 35.382812 C 50.046875 35.3125 50.070312 35.242188 50.089844 35.167969 C 50.097656 35.132812 50.109375 35.097656 50.117188 35.0625 C 50.128906 35.027344 50.136719 34.992188 50.144531 34.953125 C 50.179688 34.8125 50.210938 34.671875 50.246094 34.53125 C 50.253906 34.496094 50.261719 34.460938 50.269531 34.425781 C 50.277344 34.390625 50.289062 34.355469 50.292969 34.320312 C 50.308594 34.25 50.320312 34.183594 50.335938 34.113281 C 50.363281 33.972656 50.390625 33.835938 50.417969 33.703125 C 50.441406 33.566406 50.460938 33.433594 50.484375 33.300781 C 50.492188 33.234375 50.503906 33.167969 50.515625 33.101562 C 50.523438 33.035156 50.539062 32.972656 50.542969 32.90625 C 50.558594 32.777344 50.574219 32.648438 50.589844 32.523438 C 50.605469 32.394531 50.625 32.269531 50.632812 32.148438 C 50.644531 32.023438 50.65625 31.902344 50.667969 31.78125 C 50.675781 31.664062 50.6875 31.542969 50.691406 31.429688 C 50.699219 31.3125 50.703125 31.199219 50.710938 31.085938 C 50.714844 31.03125 50.714844 30.972656 50.71875 30.917969 C 50.722656 30.890625 50.722656 30.863281 50.722656 30.835938 C 50.722656 30.808594 50.726562 30.78125 50.726562 30.753906 C 50.730469 30.539062 50.730469 30.332031 50.734375 30.132812 C 50.730469 29.929688 50.730469 29.742188 50.726562 29.5625 C 50.726562 29.515625 50.722656 29.46875 50.722656 29.425781 C 50.722656 29.382812 50.71875 29.339844 50.71875 29.296875 C 50.710938 29.210938 50.707031 29.125 50.703125 29.046875 C 50.699219 28.964844 50.695312 28.886719 50.691406 28.8125 C 50.691406 28.773438 50.6875 28.734375 50.6875 28.699219 C 50.683594 28.664062 50.679688 28.625 50.679688 28.589844 C 50.667969 28.449219 50.65625 28.320312 50.644531 28.199219 C 50.640625 28.140625 50.636719 28.082031 50.632812 28.027344 C 50.628906 27.972656 50.621094 27.921875 50.617188 27.871094 C 50.570312 27.480469 50.550781 27.269531 50.550781 27.269531 " fill-opacity="1" fill-rule="nonzero"/></g></g></g><g clip-path="url(#6f3230b27d)"><g clip-path="url(#06742b13e9)"><g clip-path="url(#a48891a5d7)"><path fill="#ffffff" d="M 50.273438 27.167969 C 50.273438 27.167969 50.3125 27.328125 50.375 27.632812 C 50.390625 27.707031 50.402344 27.792969 50.417969 27.890625 C 50.433594 27.984375 50.449219 28.089844 50.464844 28.203125 C 50.46875 28.230469 50.472656 28.257812 50.476562 28.289062 C 50.480469 28.316406 50.484375 28.347656 50.488281 28.378906 C 50.492188 28.4375 50.5 28.5 50.503906 28.566406 C 50.511719 28.628906 50.519531 28.699219 50.523438 28.765625 C 50.527344 28.800781 50.53125 28.835938 50.535156 28.871094 C 50.535156 28.90625 50.539062 28.945312 50.539062 28.980469 C 50.546875 29.125 50.554688 29.28125 50.5625 29.445312 C 50.5625 29.609375 50.5625 29.777344 50.5625 29.957031 C 50.5625 30.046875 50.558594 30.136719 50.554688 30.230469 C 50.550781 30.324219 50.542969 30.417969 50.539062 30.515625 C 50.535156 30.613281 50.527344 30.710938 50.515625 30.808594 C 50.507812 30.910156 50.496094 31.011719 50.488281 31.113281 C 50.476562 31.21875 50.460938 31.324219 50.445312 31.429688 C 50.429688 31.535156 50.414062 31.644531 50.398438 31.753906 C 50.394531 31.808594 50.382812 31.863281 50.371094 31.917969 C 50.359375 31.972656 50.351562 32.03125 50.339844 32.085938 C 50.316406 32.199219 50.296875 32.3125 50.269531 32.425781 C 50.246094 32.542969 50.21875 32.65625 50.1875 32.773438 C 50.175781 32.832031 50.160156 32.890625 50.144531 32.953125 C 50.128906 33.011719 50.113281 33.070312 50.09375 33.128906 C 50.0625 33.25 50.027344 33.371094 49.992188 33.492188 C 49.980469 33.523438 49.972656 33.550781 49.964844 33.582031 C 49.953125 33.613281 49.941406 33.644531 49.933594 33.671875 C 49.910156 33.734375 49.890625 33.796875 49.871094 33.855469 C 49.847656 33.917969 49.828125 33.980469 49.804688 34.042969 C 49.785156 34.105469 49.765625 34.167969 49.738281 34.230469 C 49.691406 34.351562 49.640625 34.476562 49.589844 34.605469 C 49.542969 34.730469 49.484375 34.855469 49.429688 34.984375 C 49.398438 35.046875 49.371094 35.109375 49.34375 35.171875 C 49.328125 35.207031 49.3125 35.238281 49.300781 35.269531 L 49.253906 35.363281 C 49.125 35.617188 49 35.875 48.851562 36.128906 C 48.816406 36.191406 48.78125 36.257812 48.746094 36.320312 C 48.726562 36.351562 48.707031 36.382812 48.691406 36.417969 L 48.675781 36.441406 C 48.671875 36.449219 48.679688 36.4375 48.660156 36.464844 L 48.65625 36.476562 L 48.628906 36.519531 C 48.589844 36.578125 48.554688 36.636719 48.519531 36.695312 L 48.492188 36.742188 C 48.480469 36.757812 48.472656 36.769531 48.464844 36.789062 C 48.441406 36.820312 48.421875 36.851562 48.398438 36.886719 C 48.355469 36.949219 48.3125 37.015625 48.269531 37.082031 C 48.246094 37.117188 48.226562 37.148438 48.203125 37.179688 C 48.183594 37.210938 48.160156 37.242188 48.136719 37.273438 C 48.09375 37.335938 48.050781 37.398438 48.003906 37.460938 C 47.960938 37.523438 47.914062 37.585938 47.867188 37.648438 C 47.84375 37.679688 47.820312 37.710938 47.796875 37.742188 C 47.773438 37.773438 47.75 37.804688 47.726562 37.835938 C 47.675781 37.898438 47.628906 37.960938 47.582031 38.023438 C 47.53125 38.085938 47.480469 38.144531 47.429688 38.207031 C 47.378906 38.265625 47.328125 38.328125 47.273438 38.386719 C 47.167969 38.507812 47.066406 38.632812 46.953125 38.75 C 46.898438 38.808594 46.84375 38.867188 46.789062 38.929688 C 46.730469 38.988281 46.675781 39.046875 46.617188 39.101562 L 46.53125 39.191406 L 46.441406 39.277344 C 46.382812 39.335938 46.324219 39.394531 46.265625 39.449219 C 46.207031 39.507812 46.144531 39.5625 46.082031 39.621094 C 46.019531 39.675781 45.960938 39.730469 45.894531 39.785156 C 44.894531 40.671875 43.722656 41.445312 42.4375 42.042969 C 42.355469 42.078125 42.273438 42.117188 42.195312 42.152344 C 42.113281 42.1875 42.03125 42.222656 41.949219 42.257812 C 41.785156 42.328125 41.617188 42.390625 41.453125 42.453125 C 41.117188 42.578125 40.777344 42.695312 40.433594 42.796875 C 39.746094 43 39.039062 43.15625 38.324219 43.253906 L 38.191406 43.273438 L 38.054688 43.292969 L 37.789062 43.324219 C 37.609375 43.339844 37.429688 43.359375 37.25 43.367188 C 37.070312 43.382812 36.890625 43.390625 36.710938 43.394531 C 36.621094 43.398438 36.527344 43.398438 36.4375 43.402344 L 36.167969 43.402344 C 35.449219 43.398438 34.734375 43.339844 34.035156 43.234375 C 32.628906 43.019531 31.285156 42.597656 30.074219 42.027344 C 29.996094 41.992188 29.921875 41.953125 29.847656 41.917969 C 29.773438 41.878906 29.699219 41.84375 29.625 41.804688 C 29.476562 41.726562 29.332031 41.652344 29.1875 41.570312 C 28.902344 41.414062 28.625 41.242188 28.355469 41.066406 C 28.289062 41.023438 28.222656 40.976562 28.15625 40.933594 C 28.089844 40.890625 28.023438 40.847656 27.960938 40.800781 C 27.894531 40.753906 27.832031 40.707031 27.765625 40.660156 C 27.703125 40.617188 27.640625 40.570312 27.578125 40.519531 C 27.515625 40.472656 27.453125 40.425781 27.394531 40.378906 L 27.371094 40.363281 C 27.324219 40.328125 27.351562 40.347656 27.335938 40.339844 L 27.328125 40.328125 L 27.285156 40.296875 C 27.257812 40.273438 27.230469 40.25 27.203125 40.226562 C 27.09375 40.136719 26.984375 40.046875 26.878906 39.957031 L 26.835938 39.921875 C 26.824219 39.910156 26.808594 39.894531 26.792969 39.882812 C 26.765625 39.855469 26.734375 39.832031 26.707031 39.804688 C 26.648438 39.753906 26.589844 39.699219 26.53125 39.648438 C 26.476562 39.597656 26.417969 39.542969 26.363281 39.492188 C 26.335938 39.46875 26.304688 39.441406 26.277344 39.414062 C 26.253906 39.390625 26.226562 39.363281 26.199219 39.335938 C 26.097656 39.230469 25.996094 39.128906 25.894531 39.027344 C 25.867188 39 25.84375 38.976562 25.816406 38.949219 C 25.792969 38.921875 25.765625 38.898438 25.742188 38.871094 C 25.695312 38.816406 25.648438 38.765625 25.601562 38.710938 C 25.507812 38.605469 25.414062 38.5 25.324219 38.398438 C 25.234375 38.289062 25.148438 38.183594 25.0625 38.074219 C 25.019531 38.023438 24.976562 37.96875 24.9375 37.917969 C 24.914062 37.890625 24.894531 37.863281 24.875 37.839844 C 24.851562 37.8125 24.832031 37.785156 24.8125 37.757812 C 24.734375 37.648438 24.660156 37.542969 24.582031 37.4375 C 23.980469 36.582031 23.539062 35.742188 23.21875 34.972656 C 22.894531 34.203125 22.699219 33.507812 22.566406 32.9375 C 22.503906 32.648438 22.449219 32.394531 22.421875 32.167969 C 22.386719 31.941406 22.359375 31.753906 22.347656 31.597656 C 22.320312 31.285156 22.308594 31.121094 22.308594 31.121094 C 22.308594 31.121094 22.382812 31.273438 22.515625 31.550781 C 22.546875 31.621094 22.582031 31.699219 22.625 31.78125 C 22.667969 31.867188 22.714844 31.957031 22.769531 32.054688 C 22.816406 32.15625 22.867188 32.261719 22.933594 32.371094 C 22.992188 32.484375 23.058594 32.601562 23.128906 32.722656 C 23.410156 33.210938 23.765625 33.792969 24.226562 34.410156 C 24.683594 35.027344 25.238281 35.683594 25.90625 36.324219 C 25.988281 36.402344 26.074219 36.484375 26.160156 36.566406 C 26.179688 36.585938 26.203125 36.605469 26.222656 36.625 C 26.246094 36.644531 26.269531 36.664062 26.289062 36.683594 C 26.335938 36.722656 26.378906 36.761719 26.425781 36.800781 C 26.515625 36.878906 26.605469 36.960938 26.695312 37.039062 C 26.792969 37.113281 26.886719 37.191406 26.984375 37.269531 C 27.03125 37.308594 27.078125 37.347656 27.128906 37.386719 C 27.152344 37.40625 27.175781 37.425781 27.203125 37.441406 C 27.226562 37.460938 27.25 37.480469 27.277344 37.496094 C 27.375 37.570312 27.476562 37.648438 27.578125 37.722656 C 27.605469 37.742188 27.628906 37.757812 27.65625 37.777344 C 27.679688 37.796875 27.707031 37.8125 27.730469 37.828125 C 27.785156 37.863281 27.832031 37.898438 27.886719 37.933594 C 27.933594 37.964844 27.988281 38 28.039062 38.035156 C 28.0625 38.054688 28.089844 38.070312 28.113281 38.085938 C 28.128906 38.097656 28.136719 38.105469 28.152344 38.113281 L 28.199219 38.140625 C 28.316406 38.214844 28.4375 38.289062 28.558594 38.367188 C 28.589844 38.386719 28.617188 38.40625 28.648438 38.425781 L 28.695312 38.453125 L 28.707031 38.460938 C 28.699219 38.457031 28.734375 38.480469 28.695312 38.453125 L 28.714844 38.464844 C 28.773438 38.496094 28.832031 38.53125 28.890625 38.5625 C 29.003906 38.628906 29.121094 38.691406 29.238281 38.757812 C 29.296875 38.789062 29.355469 38.816406 29.417969 38.851562 C 29.476562 38.878906 29.535156 38.910156 29.59375 38.941406 C 29.65625 38.972656 29.71875 39 29.777344 39.03125 L 29.871094 39.074219 L 29.960938 39.117188 C 30.023438 39.144531 30.085938 39.175781 30.148438 39.203125 C 30.210938 39.230469 30.273438 39.257812 30.335938 39.285156 C 30.585938 39.394531 30.84375 39.496094 31.105469 39.59375 C 32.148438 39.976562 33.265625 40.238281 34.414062 40.367188 C 34.703125 40.394531 34.988281 40.421875 35.28125 40.433594 C 35.351562 40.4375 35.425781 40.4375 35.5 40.441406 C 35.570312 40.445312 35.644531 40.445312 35.714844 40.445312 L 35.933594 40.449219 C 36.007812 40.449219 36.082031 40.445312 36.152344 40.445312 L 36.261719 40.445312 L 36.371094 40.441406 C 36.445312 40.4375 36.519531 40.4375 36.589844 40.433594 C 36.738281 40.425781 36.882812 40.417969 37.027344 40.40625 C 37.171875 40.394531 37.320312 40.378906 37.464844 40.367188 L 37.683594 40.339844 L 37.792969 40.324219 L 37.898438 40.308594 C 38.480469 40.230469 39.054688 40.109375 39.617188 39.957031 L 39.824219 39.898438 C 39.894531 39.878906 39.964844 39.855469 40.035156 39.835938 C 40.175781 39.796875 40.3125 39.75 40.449219 39.703125 C 40.726562 39.609375 40.996094 39.507812 41.261719 39.398438 C 41.53125 39.289062 41.792969 39.171875 42.050781 39.046875 L 42.148438 39 L 42.242188 38.953125 C 42.308594 38.921875 42.371094 38.886719 42.433594 38.855469 C 42.496094 38.820312 42.558594 38.789062 42.621094 38.753906 C 42.652344 38.738281 42.683594 38.722656 42.714844 38.703125 L 42.808594 38.652344 C 43.304688 38.375 43.777344 38.066406 44.226562 37.742188 C 44.675781 37.414062 45.09375 37.0625 45.492188 36.699219 C 45.6875 36.515625 45.878906 36.328125 46.0625 36.140625 C 46.109375 36.089844 46.152344 36.042969 46.199219 35.996094 C 46.246094 35.949219 46.289062 35.898438 46.332031 35.851562 C 46.375 35.800781 46.421875 35.753906 46.464844 35.707031 C 46.503906 35.660156 46.546875 35.613281 46.585938 35.566406 C 46.605469 35.542969 46.628906 35.519531 46.648438 35.496094 C 46.660156 35.488281 46.671875 35.472656 46.679688 35.460938 L 46.714844 35.417969 C 46.757812 35.363281 46.804688 35.3125 46.847656 35.257812 L 46.878906 35.21875 L 46.886719 35.207031 C 46.875 35.226562 46.890625 35.207031 46.886719 35.210938 L 46.902344 35.191406 C 46.921875 35.164062 46.941406 35.140625 46.960938 35.117188 C 47 35.066406 47.039062 35.015625 47.078125 34.964844 C 47.117188 34.917969 47.15625 34.867188 47.195312 34.816406 L 47.226562 34.78125 L 47.253906 34.742188 C 47.273438 34.71875 47.289062 34.691406 47.308594 34.667969 C 47.378906 34.566406 47.453125 34.464844 47.527344 34.367188 C 47.804688 33.960938 48.070312 33.5625 48.292969 33.160156 C 48.320312 33.109375 48.351562 33.058594 48.378906 33.011719 C 48.394531 32.984375 48.40625 32.960938 48.421875 32.9375 C 48.433594 32.910156 48.449219 32.886719 48.460938 32.859375 C 48.511719 32.761719 48.566406 32.660156 48.617188 32.5625 C 48.644531 32.515625 48.671875 32.464844 48.695312 32.417969 C 48.71875 32.367188 48.742188 32.316406 48.765625 32.269531 C 48.808594 32.171875 48.859375 32.074219 48.902344 31.976562 C 48.949219 31.882812 48.988281 31.785156 49.03125 31.6875 C 49.070312 31.59375 49.117188 31.5 49.152344 31.40625 C 49.191406 31.3125 49.226562 31.21875 49.261719 31.128906 C 49.296875 31.035156 49.335938 30.945312 49.367188 30.855469 C 49.398438 30.765625 49.429688 30.675781 49.460938 30.589844 C 49.492188 30.5 49.527344 30.414062 49.550781 30.328125 C 49.578125 30.242188 49.605469 30.15625 49.632812 30.074219 C 49.65625 29.992188 49.6875 29.910156 49.707031 29.828125 C 49.753906 29.667969 49.796875 29.511719 49.839844 29.363281 C 49.875 29.210938 49.910156 29.066406 49.945312 28.933594 C 49.953125 28.898438 49.960938 28.863281 49.96875 28.828125 C 49.976562 28.796875 49.984375 28.761719 49.988281 28.730469 C 50.003906 28.664062 50.015625 28.601562 50.03125 28.539062 C 50.042969 28.476562 50.054688 28.417969 50.070312 28.359375 C 50.074219 28.332031 50.082031 28.304688 50.085938 28.273438 C 50.09375 28.246094 50.097656 28.21875 50.101562 28.191406 C 50.121094 28.082031 50.140625 27.984375 50.15625 27.890625 C 50.175781 27.796875 50.191406 27.714844 50.199219 27.636719 C 50.246094 27.328125 50.273438 27.167969 50.273438 27.167969 " fill-opacity="1" fill-rule="nonzero"/></g></g></g><g clip-path="url(#6b9549be75)"><g clip-path="url(#060601b9b1)"><g clip-path="url(#5f30ccaac7)"><path fill="#ffffff" d="M 28.484375 22.898438 C 28.847656 22.65625 29.257812 22.640625 29.40625 22.855469 C 29.550781 23.074219 29.371094 23.445312 29.007812 23.683594 C 28.644531 23.925781 28.234375 23.941406 28.089844 23.726562 C 27.945312 23.507812 28.121094 23.136719 28.484375 22.898438 Z M 22.09375 23.078125 C 22.09375 23.90625 22.605469 24.648438 23.378906 24.949219 C 25.238281 25.667969 28.941406 26.019531 34.890625 22.085938 C 38.429688 19.742188 42.238281 19.570312 45.808594 21.902344 C 45.847656 21.929688 45.890625 21.957031 45.929688 21.984375 C 45.972656 22.007812 46.011719 22.035156 46.050781 22.0625 C 46.128906 22.117188 46.207031 22.167969 46.285156 22.222656 C 46.324219 22.25 46.363281 22.277344 46.402344 22.300781 C 46.441406 22.328125 46.480469 22.355469 46.515625 22.382812 C 46.59375 22.4375 46.667969 22.492188 46.742188 22.542969 C 46.816406 22.597656 46.890625 22.652344 46.960938 22.707031 C 47.035156 22.761719 47.109375 22.8125 47.175781 22.867188 C 47.246094 22.921875 47.316406 22.972656 47.386719 23.027344 C 47.453125 23.082031 47.523438 23.132812 47.589844 23.183594 C 47.65625 23.238281 47.71875 23.292969 47.78125 23.34375 C 47.816406 23.371094 47.847656 23.394531 47.878906 23.421875 C 47.914062 23.445312 47.941406 23.472656 47.972656 23.5 C 48.035156 23.550781 48.097656 23.601562 48.15625 23.652344 C 48.214844 23.703125 48.277344 23.75 48.332031 23.800781 C 48.390625 23.851562 48.445312 23.902344 48.5 23.949219 C 48.558594 23.996094 48.613281 24.042969 48.667969 24.09375 C 48.769531 24.1875 48.871094 24.277344 48.96875 24.367188 C 49.066406 24.453125 49.15625 24.539062 49.242188 24.621094 C 49.328125 24.699219 49.414062 24.773438 49.488281 24.847656 C 49.5625 24.921875 49.632812 24.988281 49.699219 25.050781 C 49.734375 25.082031 49.765625 25.109375 49.792969 25.140625 C 49.824219 25.167969 49.851562 25.195312 49.878906 25.222656 C 49.984375 25.324219 50.070312 25.402344 50.125 25.457031 C 50.15625 25.484375 50.175781 25.507812 50.191406 25.519531 C 50.207031 25.535156 50.214844 25.539062 50.214844 25.539062 C 50.214844 25.539062 50.21875 25.53125 50.21875 25.511719 C 50.222656 25.492188 50.230469 25.460938 50.234375 25.421875 C 50.246094 25.347656 50.265625 25.230469 50.285156 25.078125 C 50.304688 24.925781 50.316406 24.742188 50.332031 24.523438 C 50.335938 24.414062 50.335938 24.296875 50.339844 24.167969 C 50.339844 24.105469 50.339844 24.042969 50.335938 23.972656 C 50.335938 23.941406 50.335938 23.90625 50.335938 23.871094 C 50.335938 23.835938 50.335938 23.800781 50.332031 23.765625 C 50.324219 23.625 50.316406 23.476562 50.304688 23.320312 C 50.292969 23.164062 50.273438 23 50.25 22.828125 C 50.230469 22.65625 50.199219 22.484375 50.167969 22.296875 C 50.136719 22.113281 50.089844 21.925781 50.046875 21.730469 C 50.023438 21.632812 50 21.535156 49.972656 21.433594 C 49.945312 21.335938 49.917969 21.230469 49.886719 21.128906 C 49.871094 21.078125 49.855469 21.027344 49.839844 20.972656 C 49.820312 20.921875 49.804688 20.871094 49.789062 20.820312 C 49.753906 20.714844 49.71875 20.605469 49.679688 20.5 C 49.640625 20.394531 49.597656 20.285156 49.554688 20.175781 C 49.535156 20.121094 49.511719 20.066406 49.492188 20.011719 C 49.46875 19.957031 49.445312 19.902344 49.421875 19.847656 C 49.375 19.738281 49.324219 19.625 49.273438 19.515625 C 49.222656 19.402344 49.164062 19.289062 49.109375 19.175781 C 48.660156 18.273438 48.050781 17.339844 47.269531 16.441406 C 47.171875 16.328125 47.074219 16.21875 46.972656 16.105469 C 46.921875 16.050781 46.867188 15.996094 46.816406 15.941406 C 46.773438 15.898438 46.730469 15.855469 46.6875 15.8125 C 46.632812 15.761719 46.574219 15.710938 46.515625 15.660156 C 46.4375 15.59375 46.351562 15.527344 46.265625 15.457031 C 45.925781 15.175781 45.519531 14.882812 45.066406 14.585938 C 44.949219 14.511719 44.832031 14.4375 44.710938 14.363281 C 44.589844 14.296875 44.464844 14.222656 44.335938 14.152344 C 44.304688 14.132812 44.273438 14.113281 44.242188 14.097656 C 44.207031 14.082031 44.175781 14.0625 44.140625 14.046875 C 44.078125 14.011719 44.007812 13.980469 43.941406 13.945312 C 43.808594 13.875 43.667969 13.8125 43.527344 13.746094 C 42.960938 13.492188 42.339844 13.269531 41.679688 13.105469 C 41.636719 13.09375 41.597656 13.082031 41.554688 13.074219 C 41.515625 13.0625 41.472656 13.054688 41.429688 13.046875 C 41.347656 13.027344 41.261719 13.007812 41.175781 12.992188 L 41.113281 12.976562 L 41.046875 12.964844 C 41.003906 12.960938 40.964844 12.953125 40.921875 12.945312 C 40.832031 12.929688 40.746094 12.914062 40.660156 12.898438 C 40.574219 12.890625 40.484375 12.878906 40.398438 12.867188 C 40.308594 12.855469 40.222656 12.84375 40.132812 12.835938 C 39.953125 12.820312 39.773438 12.800781 39.59375 12.796875 C 39.503906 12.792969 39.414062 12.789062 39.320312 12.785156 C 39.230469 12.785156 39.140625 12.78125 39.046875 12.78125 L 38.910156 12.78125 C 38.867188 12.78125 38.820312 12.78125 38.773438 12.785156 C 38.683594 12.785156 38.589844 12.789062 38.496094 12.792969 C 38.453125 12.792969 38.40625 12.796875 38.359375 12.800781 L 38.222656 12.808594 L 38.011719 12.820312 L 37.945312 12.828125 C 37.757812 12.847656 37.574219 12.863281 37.390625 12.890625 C 37.019531 12.9375 36.652344 13.007812 36.285156 13.085938 C 36.195312 13.105469 36.101562 13.128906 36.011719 13.148438 L 35.875 13.179688 L 35.742188 13.214844 C 35.648438 13.238281 35.558594 13.265625 35.46875 13.289062 C 35.378906 13.3125 35.292969 13.339844 35.203125 13.367188 L 35.066406 13.40625 L 34.9375 13.449219 C 34.847656 13.476562 34.757812 13.503906 34.671875 13.535156 C 34.585938 13.5625 34.496094 13.59375 34.410156 13.625 C 34.324219 13.65625 34.238281 13.683594 34.152344 13.71875 C 34.066406 13.75 33.980469 13.78125 33.894531 13.816406 C 33.8125 13.847656 33.726562 13.882812 33.640625 13.917969 C 33.472656 13.984375 33.308594 14.058594 33.144531 14.128906 C 32.492188 14.417969 31.875 14.734375 31.300781 15.058594 C 30.726562 15.386719 30.199219 15.71875 29.71875 16.042969 C 29.242188 16.367188 28.8125 16.679688 28.441406 16.96875 C 28.070312 17.257812 27.753906 17.519531 27.496094 17.742188 C 26.984375 18.183594 26.710938 18.457031 26.710938 18.457031 C 26.710938 18.457031 26.957031 18.160156 27.433594 17.671875 C 27.667969 17.429688 27.964844 17.140625 28.3125 16.816406 C 28.660156 16.492188 29.0625 16.140625 29.515625 15.769531 C 29.96875 15.402344 30.476562 15.015625 31.03125 14.632812 C 31.585938 14.25 32.191406 13.871094 32.835938 13.511719 C 33 13.425781 33.164062 13.335938 33.332031 13.25 C 33.417969 13.207031 33.5 13.164062 33.585938 13.121094 C 33.671875 13.082031 33.757812 13.039062 33.84375 12.996094 C 33.929688 12.957031 34.015625 12.914062 34.105469 12.875 C 34.191406 12.835938 34.28125 12.796875 34.367188 12.757812 C 34.457031 12.71875 34.546875 12.679688 34.636719 12.644531 L 34.773438 12.585938 L 34.910156 12.535156 C 35 12.496094 35.09375 12.460938 35.183594 12.425781 C 35.277344 12.390625 35.371094 12.359375 35.464844 12.324219 L 35.601562 12.273438 L 35.746094 12.226562 C 35.839844 12.195312 35.933594 12.167969 36.027344 12.136719 C 36.410156 12.019531 36.800781 11.910156 37.195312 11.824219 C 37.390625 11.777344 37.589844 11.742188 37.789062 11.703125 L 37.9375 11.679688 L 38.238281 11.632812 C 38.269531 11.628906 38.300781 11.621094 38.332031 11.617188 L 38.160156 11.59375 C 37.980469 11.570312 37.804688 11.546875 37.628906 11.527344 C 37.449219 11.507812 37.269531 11.496094 37.09375 11.480469 L 36.824219 11.460938 C 36.734375 11.457031 36.644531 11.453125 36.554688 11.453125 L 36.015625 11.441406 C 35.839844 11.441406 35.660156 11.449219 35.480469 11.453125 L 35.210938 11.460938 C 35.121094 11.464844 35.03125 11.472656 34.941406 11.480469 C 34.765625 11.492188 34.585938 11.503906 34.40625 11.523438 C 34.363281 11.527344 34.320312 11.53125 34.273438 11.535156 L 34.140625 11.554688 C 34.054688 11.566406 33.964844 11.578125 33.875 11.589844 C 33.789062 11.601562 33.699219 11.613281 33.613281 11.625 L 33.480469 11.648438 L 33.351562 11.671875 C 33.175781 11.703125 33 11.738281 32.828125 11.769531 L 32.761719 11.78125 L 32.699219 11.796875 L 32.570312 11.828125 C 32.484375 11.847656 32.398438 11.871094 32.3125 11.890625 C 32.226562 11.910156 32.140625 11.933594 32.058594 11.953125 C 31.972656 11.972656 31.886719 12 31.804688 12.027344 C 31.636719 12.074219 31.46875 12.125 31.304688 12.175781 C 31.214844 12.203125 31.128906 12.234375 31.039062 12.265625 C 30.96875 12.289062 30.894531 12.316406 30.824219 12.34375 C 30.660156 12.402344 30.492188 12.460938 30.332031 12.527344 C 30.171875 12.59375 30.015625 12.660156 29.859375 12.726562 L 29.742188 12.777344 L 29.628906 12.832031 C 29.550781 12.867188 29.476562 12.90625 29.398438 12.941406 C 29.324219 12.976562 29.25 13.015625 29.171875 13.050781 L 29.0625 13.105469 C 29.023438 13.125 28.988281 13.148438 28.953125 13.167969 C 28.878906 13.207031 28.804688 13.246094 28.730469 13.285156 C 28.660156 13.324219 28.585938 13.367188 28.515625 13.40625 C 28.371094 13.484375 28.230469 13.570312 28.09375 13.65625 C 28.023438 13.703125 27.953125 13.746094 27.886719 13.789062 C 27.816406 13.832031 27.75 13.871094 27.679688 13.917969 C 27.546875 14.007812 27.417969 14.101562 27.285156 14.191406 C 27.222656 14.238281 27.15625 14.285156 27.09375 14.332031 C 27.03125 14.378906 26.96875 14.425781 26.90625 14.472656 C 26.78125 14.570312 26.660156 14.667969 26.539062 14.761719 C 26.476562 14.8125 26.417969 14.863281 26.359375 14.914062 C 26.300781 14.964844 26.246094 15.011719 26.1875 15.0625 C 26.128906 15.113281 26.074219 15.164062 26.015625 15.214844 C 25.960938 15.265625 25.902344 15.3125 25.847656 15.367188 C 25.738281 15.472656 25.632812 15.578125 25.527344 15.679688 C 25.476562 15.730469 25.421875 15.785156 25.371094 15.835938 C 25.320312 15.886719 25.269531 15.941406 25.222656 15.996094 C 25.121094 16.101562 25.027344 16.210938 24.929688 16.316406 C 24.90625 16.339844 24.882812 16.367188 24.859375 16.394531 C 24.835938 16.421875 24.8125 16.449219 24.789062 16.476562 C 24.746094 16.53125 24.699219 16.585938 24.65625 16.640625 C 24.566406 16.746094 24.480469 16.855469 24.394531 16.964844 C 24.308594 17.070312 24.230469 17.183594 24.148438 17.292969 C 24.070312 17.402344 23.992188 17.507812 23.917969 17.617188 C 23.84375 17.730469 23.773438 17.839844 23.707031 17.949219 C 23.671875 18.003906 23.636719 18.054688 23.601562 18.109375 C 23.570312 18.164062 23.535156 18.21875 23.503906 18.273438 C 23.441406 18.382812 23.378906 18.492188 23.320312 18.597656 C 23.289062 18.652344 23.261719 18.707031 23.230469 18.757812 C 23.203125 18.8125 23.171875 18.863281 23.144531 18.917969 C 23.039062 19.132812 22.9375 19.34375 22.84375 19.550781 C 22.753906 19.761719 22.671875 19.964844 22.59375 20.164062 C 22.199219 21.371094 22.097656 22.363281 22.09375 23.078125 " fill-opacity="1" fill-rule="nonzero"/></g></g></g><g clip-path="url(#1f8ab17391)"><g clip-path="url(#6f0ff9dfd0)"><g clip-path="url(#6c2512ae06)"><path fill="#ffffff" d="M 32.398438 24.214844 C 32.398438 24.214844 32.441406 24.230469 32.523438 24.261719 C 32.542969 24.269531 32.566406 24.28125 32.589844 24.289062 C 32.617188 24.300781 32.644531 24.3125 32.671875 24.320312 C 32.730469 24.34375 32.792969 24.367188 32.867188 24.394531 C 33.011719 24.453125 33.1875 24.511719 33.382812 24.578125 C 33.578125 24.640625 33.796875 24.707031 34.035156 24.765625 C 34.269531 24.824219 34.523438 24.878906 34.785156 24.925781 C 35.050781 24.96875 35.324219 25.003906 35.605469 25.027344 C 35.890625 25.046875 36.175781 25.054688 36.464844 25.046875 C 36.753906 25.039062 37.042969 25.015625 37.328125 24.972656 C 37.472656 24.953125 37.613281 24.925781 37.753906 24.898438 L 37.859375 24.875 L 37.882812 24.871094 L 37.890625 24.867188 C 37.886719 24.871094 37.902344 24.867188 37.882812 24.871094 L 37.886719 24.871094 L 38.027344 24.835938 L 38.078125 24.824219 C 38.113281 24.8125 38.148438 24.804688 38.179688 24.796875 C 38.472656 24.71875 38.78125 24.625 39.101562 24.539062 C 39.179688 24.515625 39.257812 24.496094 39.339844 24.472656 C 39.382812 24.464844 39.421875 24.453125 39.460938 24.445312 C 39.503906 24.433594 39.542969 24.425781 39.585938 24.417969 C 39.667969 24.398438 39.746094 24.378906 39.832031 24.367188 C 39.910156 24.351562 39.996094 24.335938 40.078125 24.324219 C 40.117188 24.316406 40.160156 24.3125 40.199219 24.308594 L 40.230469 24.304688 L 40.238281 24.300781 C 40.230469 24.304688 40.253906 24.296875 40.25 24.300781 L 40.253906 24.296875 L 40.269531 24.296875 C 40.289062 24.296875 40.304688 24.292969 40.324219 24.292969 C 40.363281 24.289062 40.402344 24.289062 40.4375 24.285156 C 40.480469 24.28125 40.523438 24.277344 40.566406 24.277344 C 40.730469 24.269531 40.882812 24.269531 41.035156 24.285156 C 41.335938 24.308594 41.609375 24.367188 41.839844 24.449219 C 42.070312 24.535156 42.257812 24.636719 42.398438 24.738281 C 42.539062 24.84375 42.628906 24.9375 42.6875 25.007812 C 42.746094 25.074219 42.773438 25.113281 42.773438 25.113281 C 42.773438 25.113281 42.722656 25.109375 42.636719 25.101562 C 42.617188 25.097656 42.59375 25.097656 42.566406 25.097656 C 42.542969 25.097656 42.511719 25.09375 42.484375 25.09375 C 42.453125 25.089844 42.421875 25.09375 42.386719 25.09375 C 42.351562 25.09375 42.320312 25.09375 42.28125 25.097656 C 42.132812 25.101562 41.960938 25.125 41.773438 25.167969 C 41.582031 25.210938 41.378906 25.273438 41.164062 25.359375 C 41.058594 25.398438 40.945312 25.445312 40.835938 25.496094 C 40.808594 25.511719 40.78125 25.523438 40.757812 25.535156 C 40.726562 25.550781 40.695312 25.5625 40.664062 25.578125 C 40.648438 25.585938 40.628906 25.59375 40.613281 25.601562 L 40.601562 25.609375 L 40.597656 25.609375 C 40.59375 25.609375 40.613281 25.605469 40.605469 25.609375 L 40.597656 25.609375 L 40.578125 25.621094 C 40.546875 25.636719 40.519531 25.652344 40.488281 25.667969 C 40.367188 25.730469 40.242188 25.796875 40.113281 25.863281 C 40.082031 25.882812 40.046875 25.898438 40.015625 25.917969 C 39.980469 25.933594 39.949219 25.953125 39.914062 25.96875 C 39.847656 26.007812 39.777344 26.042969 39.707031 26.082031 C 39.5625 26.15625 39.414062 26.230469 39.253906 26.304688 C 39.175781 26.339844 39.09375 26.375 39.011719 26.414062 C 38.96875 26.429688 38.925781 26.449219 38.882812 26.464844 C 38.839844 26.484375 38.796875 26.5 38.753906 26.515625 C 38.710938 26.535156 38.660156 26.550781 38.613281 26.566406 L 38.539062 26.59375 L 38.480469 26.613281 L 38.417969 26.632812 L 38.402344 26.640625 L 38.398438 26.640625 L 38.382812 26.644531 L 38.375 26.648438 L 38.339844 26.65625 C 38.289062 26.671875 38.242188 26.683594 38.191406 26.699219 C 37.996094 26.746094 37.800781 26.789062 37.601562 26.816406 C 37.199219 26.875 36.796875 26.882812 36.40625 26.855469 C 36.015625 26.824219 35.636719 26.75 35.28125 26.644531 C 34.925781 26.535156 34.597656 26.398438 34.304688 26.238281 C 34.007812 26.078125 33.75 25.898438 33.527344 25.714844 C 33.304688 25.53125 33.121094 25.34375 32.972656 25.164062 C 32.824219 24.984375 32.707031 24.820312 32.625 24.679688 C 32.601562 24.644531 32.582031 24.609375 32.566406 24.578125 C 32.546875 24.546875 32.53125 24.515625 32.515625 24.484375 C 32.503906 24.457031 32.488281 24.429688 32.476562 24.40625 C 32.464844 24.382812 32.457031 24.359375 32.449219 24.339844 C 32.414062 24.257812 32.398438 24.214844 32.398438 24.214844 " fill-opacity="1" fill-rule="nonzero"/></g></g></g><g clip-path="url(#a3c0a91e36)"><g clip-path="url(#37f7ac27c0)"><g clip-path="url(#9292bc8fbf)"><path fill="#ffffff" d="M 28.84375 12.460938 C 28.84375 12.460938 28.875 12.421875 28.921875 12.351562 C 28.933594 12.332031 28.945312 12.3125 28.960938 12.289062 C 28.972656 12.265625 28.992188 12.242188 29.007812 12.21875 C 29.042969 12.167969 29.082031 12.109375 29.125 12.046875 C 29.210938 11.917969 29.320312 11.765625 29.441406 11.601562 C 29.5625 11.4375 29.707031 11.257812 29.863281 11.074219 C 30.023438 10.890625 30.195312 10.703125 30.386719 10.515625 C 30.578125 10.328125 30.78125 10.140625 31 9.960938 C 31.21875 9.785156 31.449219 9.613281 31.6875 9.453125 C 31.929688 9.292969 32.179688 9.148438 32.4375 9.019531 C 32.566406 8.953125 32.699219 8.894531 32.828125 8.835938 L 32.925781 8.796875 L 32.953125 8.785156 L 32.957031 8.78125 C 32.953125 8.785156 32.96875 8.777344 32.949219 8.785156 L 32.953125 8.785156 L 32.96875 8.777344 L 33.03125 8.753906 L 33.089844 8.730469 L 33.136719 8.714844 C 33.171875 8.699219 33.203125 8.6875 33.238281 8.675781 C 33.519531 8.574219 33.828125 8.472656 34.136719 8.363281 C 34.21875 8.335938 34.292969 8.304688 34.371094 8.277344 C 34.410156 8.261719 34.449219 8.246094 34.488281 8.230469 C 34.527344 8.214844 34.566406 8.199219 34.605469 8.183594 C 34.683594 8.152344 34.757812 8.121094 34.835938 8.085938 C 34.910156 8.050781 34.988281 8.015625 35.0625 7.976562 C 35.097656 7.957031 35.132812 7.941406 35.171875 7.921875 L 35.199219 7.90625 L 35.203125 7.902344 C 35.199219 7.90625 35.21875 7.898438 35.21875 7.898438 L 35.222656 7.894531 L 35.234375 7.890625 C 35.25 7.878906 35.265625 7.871094 35.28125 7.859375 C 35.3125 7.839844 35.347656 7.820312 35.378906 7.800781 C 35.417969 7.78125 35.453125 7.757812 35.488281 7.734375 C 35.628906 7.648438 35.753906 7.558594 35.867188 7.460938 C 36.101562 7.269531 36.289062 7.066406 36.429688 6.863281 C 36.570312 6.664062 36.664062 6.472656 36.71875 6.308594 C 36.773438 6.144531 36.792969 6.015625 36.800781 5.925781 C 36.808594 5.835938 36.804688 5.789062 36.804688 5.789062 C 36.804688 5.789062 36.769531 5.820312 36.703125 5.875 C 36.6875 5.890625 36.667969 5.902344 36.648438 5.917969 C 36.628906 5.933594 36.605469 5.953125 36.582031 5.96875 C 36.558594 5.988281 36.53125 6.007812 36.503906 6.027344 C 36.476562 6.042969 36.449219 6.066406 36.414062 6.082031 C 36.292969 6.164062 36.136719 6.242188 35.957031 6.316406 C 35.78125 6.390625 35.574219 6.457031 35.351562 6.511719 C 35.242188 6.539062 35.121094 6.5625 35 6.585938 C 34.972656 6.589844 34.945312 6.59375 34.914062 6.597656 C 34.882812 6.601562 34.847656 6.609375 34.8125 6.617188 C 34.796875 6.617188 34.777344 6.621094 34.757812 6.625 L 34.746094 6.628906 L 34.742188 6.628906 C 34.738281 6.628906 34.757812 6.621094 34.75 6.625 L 34.742188 6.625 L 34.71875 6.628906 C 34.683594 6.632812 34.652344 6.640625 34.617188 6.644531 C 34.480469 6.660156 34.34375 6.679688 34.199219 6.695312 C 34.160156 6.699219 34.125 6.707031 34.085938 6.710938 C 34.050781 6.714844 34.011719 6.71875 33.972656 6.722656 C 33.898438 6.734375 33.820312 6.742188 33.742188 6.753906 C 33.582031 6.773438 33.414062 6.800781 33.242188 6.828125 C 33.15625 6.84375 33.070312 6.863281 32.980469 6.878906 C 32.933594 6.890625 32.890625 6.898438 32.84375 6.910156 C 32.800781 6.921875 32.753906 6.929688 32.707031 6.941406 C 32.664062 6.953125 32.613281 6.96875 32.5625 6.980469 L 32.488281 7.003906 L 32.429688 7.019531 L 32.367188 7.039062 L 32.351562 7.042969 L 32.347656 7.042969 L 32.324219 7.054688 L 32.289062 7.066406 C 32.242188 7.082031 32.191406 7.097656 32.144531 7.113281 C 31.957031 7.1875 31.769531 7.265625 31.59375 7.355469 C 31.230469 7.535156 30.898438 7.761719 30.59375 8.007812 C 30.292969 8.257812 30.023438 8.535156 29.796875 8.824219 C 29.570312 9.117188 29.382812 9.417969 29.234375 9.71875 C 29.082031 10.015625 28.976562 10.3125 28.898438 10.589844 C 28.824219 10.867188 28.78125 11.125 28.765625 11.355469 C 28.746094 11.589844 28.746094 11.789062 28.761719 11.953125 C 28.765625 11.992188 28.769531 12.03125 28.773438 12.070312 C 28.777344 12.105469 28.78125 12.140625 28.785156 12.171875 C 28.792969 12.203125 28.792969 12.234375 28.800781 12.257812 C 28.804688 12.285156 28.808594 12.308594 28.816406 12.332031 C 28.832031 12.417969 28.84375 12.460938 28.84375 12.460938 " fill-opacity="1" fill-rule="nonzero"/></g></g></g><g fill="#ffffff" fill-opacity="1"><g transform="translate(88.509322, 107.698246)"><g><path d="M 10.140625 0 C 8.347656 0 6.804688 -0.640625 5.515625 -1.921875 C 4.234375 -3.210938 3.59375 -4.753906 3.59375 -6.546875 L 3.59375 -38.421875 C 3.59375 -40.222656 4.234375 -41.75 5.515625 -43 C 6.804688 -44.257812 8.347656 -44.890625 10.140625 -44.890625 L 22.359375 -44.890625 C 24.210938 -44.890625 25.765625 -44.257812 27.015625 -43 C 28.273438 -41.75 28.90625 -40.222656 28.90625 -38.421875 L 28.90625 -24.78125 C 28.90625 -22.988281 28.273438 -21.445312 27.015625 -20.15625 C 25.765625 -18.863281 24.210938 -18.21875 22.359375 -18.21875 L 12.03125 -18.21875 L 12.03125 -11.671875 C 12.03125 -10.773438 12.34375 -10.007812 12.96875 -9.375 C 13.601562 -8.75 14.398438 -8.4375 15.359375 -8.4375 L 27.03125 -8.4375 L 28.90625 0 Z M 12.03125 -26.671875 L 17.234375 -26.671875 C 18.128906 -26.671875 18.890625 -26.984375 19.515625 -27.609375 C 20.148438 -28.234375 20.46875 -28.992188 20.46875 -29.890625 L 20.46875 -33.21875 C 20.46875 -34.113281 20.148438 -34.875 19.515625 -35.5 C 18.890625 -36.132812 18.128906 -36.453125 17.234375 -36.453125 L 15.359375 -36.453125 C 14.398438 -36.453125 13.601562 -36.132812 12.96875 -35.5 C 12.34375 -34.875 12.03125 -34.113281 12.03125 -33.21875 Z M 12.03125 -26.671875 "/></g></g></g><g fill="#ffffff" fill-opacity="1"><g transform="translate(118.759329, 107.698246)"><g><path d="M 3.59375 0 L 3.59375 -65.359375 L 12.03125 -67.25 L 12.03125 -44.890625 L 22.71875 -44.890625 L 20.734375 -36.453125 L 12.03125 -36.453125 L 12.03125 0 Z M 3.59375 0 "/></g></g></g><g fill="#ffffff" fill-opacity="1"><g transform="translate(140.122652, 107.698246)"><g><path d="M 3.59375 0 L 3.59375 -65.359375 L 12.03125 -67.25 L 12.03125 -44.890625 L 22.71875 -44.890625 L 20.734375 -36.453125 L 12.03125 -36.453125 L 12.03125 0 Z M 3.59375 0 "/></g></g></g><g fill="#ffffff" fill-opacity="1"><g transform="translate(161.485977, 107.698246)"><g><path d="M 10.140625 0 C 8.347656 0 6.804688 -0.625 5.515625 -1.875 C 4.234375 -3.132812 3.59375 -4.691406 3.59375 -6.546875 L 3.59375 -20.109375 C 3.59375 -21.898438 4.234375 -23.441406 5.515625 -24.734375 C 6.804688 -26.023438 8.347656 -26.671875 10.140625 -26.671875 L 17.140625 -26.671875 C 18.097656 -26.671875 18.890625 -26.984375 19.515625 -27.609375 C 20.148438 -28.234375 20.46875 -28.992188 20.46875 -29.890625 L 20.46875 -33.21875 C 20.46875 -34.113281 20.148438 -34.875 19.515625 -35.5 C 18.890625 -36.132812 18.097656 -36.453125 17.140625 -36.453125 L 7.453125 -36.453125 L 9.34375 -44.890625 L 22.359375 -44.890625 C 24.148438 -44.890625 25.6875 -44.242188 26.96875 -42.953125 C 28.257812 -41.671875 28.90625 -40.132812 28.90625 -38.34375 L 28.90625 0 Z M 15.265625 -8.4375 L 20.46875 -8.4375 L 20.46875 -18.21875 L 15.265625 -18.21875 C 14.367188 -18.21875 13.601562 -17.90625 12.96875 -17.28125 C 12.34375 -16.65625 12.03125 -15.894531 12.03125 -15 L 12.03125 -11.671875 C 12.03125 -10.773438 12.34375 -10.007812 12.96875 -9.375 C 13.601562 -8.75 14.367188 -8.4375 15.265625 -8.4375 Z M 15.265625 -8.4375 "/></g></g></g><g fill="#ffffff" fill-opacity="1"><g transform="translate(194.288001, 107.698246)"><g><path d="M 11.84375 0 C 10.050781 0 8.523438 -0.625 7.265625 -1.875 C 6.015625 -3.132812 5.390625 -4.664062 5.390625 -6.46875 L 5.390625 -20.375 L 13.734375 -18.5 L 13.734375 -11.578125 C 13.734375 -10.679688 14.046875 -9.914062 14.671875 -9.28125 C 15.304688 -8.65625 16.039062 -8.34375 16.875 -8.34375 L 27.109375 -8.34375 C 28.003906 -8.34375 28.765625 -8.65625 29.390625 -9.28125 C 30.023438 -9.914062 30.34375 -10.679688 30.34375 -11.578125 L 30.34375 -27.390625 C 30.34375 -28.285156 30.023438 -29.046875 29.390625 -29.671875 C 28.765625 -30.296875 28.003906 -30.609375 27.109375 -30.609375 L 11.84375 -30.609375 C 10.050781 -30.609375 8.523438 -31.238281 7.265625 -32.5 C 6.015625 -33.757812 5.390625 -35.285156 5.390625 -37.078125 L 5.390625 -56.375 C 5.390625 -58.175781 6.015625 -59.703125 7.265625 -60.953125 C 8.523438 -62.210938 10.050781 -62.84375 11.84375 -62.84375 L 32.234375 -62.84375 C 34.023438 -62.84375 35.550781 -62.210938 36.8125 -60.953125 C 38.070312 -59.703125 38.703125 -58.175781 38.703125 -56.375 L 38.703125 -46.6875 L 30.34375 -48.65625 L 30.34375 -51.265625 C 30.34375 -52.160156 30.023438 -52.921875 29.390625 -53.546875 C 28.765625 -54.179688 28.003906 -54.5 27.109375 -54.5 L 16.875 -54.5 C 16.039062 -54.5 15.304688 -54.179688 14.671875 -53.546875 C 14.046875 -52.921875 13.734375 -52.160156 13.734375 -51.265625 L 13.734375 -42.203125 C 13.734375 -41.296875 14.046875 -40.53125 14.671875 -39.90625 C 15.304688 -39.28125 16.039062 -38.96875 16.875 -38.96875 L 32.234375 -38.96875 C 34.023438 -38.96875 35.550781 -38.335938 36.8125 -37.078125 C 38.070312 -35.816406 38.703125 -34.289062 38.703125 -32.5 L 38.703125 -6.46875 C 38.703125 -4.664062 38.070312 -3.132812 36.8125 -1.875 C 35.550781 -0.625 34.023438 0 32.234375 0 Z M 11.84375 0 "/></g></g></g><g fill="#ffffff" fill-opacity="1"><g transform="translate(236.117618, 107.698246)"><g><path d="M 3.59375 0 L 3.59375 -65.359375 L 12.03125 -67.25 L 12.03125 -44.890625 L 22.71875 -44.890625 L 20.734375 -36.453125 L 12.03125 -36.453125 L 12.03125 0 Z M 3.59375 0 "/></g></g></g><g fill="#ffffff" fill-opacity="1"><g transform="translate(257.480942, 107.698246)"><g><path d="M 10.859375 0 C 9.003906 0 7.445312 -0.640625 6.1875 -1.921875 C 4.9375 -3.210938 4.3125 -4.753906 4.3125 -6.546875 L 4.3125 -38.34375 C 4.3125 -40.132812 4.9375 -41.671875 6.1875 -42.953125 C 7.445312 -44.242188 9.003906 -44.890625 10.859375 -44.890625 L 23.078125 -44.890625 C 24.867188 -44.890625 26.390625 -44.242188 27.640625 -42.953125 C 28.898438 -41.671875 29.53125 -40.132812 29.53125 -38.34375 L 29.53125 -6.546875 C 29.53125 -4.753906 28.898438 -3.210938 27.640625 -1.921875 C 26.390625 -0.640625 24.867188 0 23.078125 0 Z M 15.984375 -8.4375 L 17.859375 -8.4375 C 18.765625 -8.4375 19.546875 -8.75 20.203125 -9.375 C 20.859375 -10.007812 21.1875 -10.773438 21.1875 -11.671875 L 21.1875 -33.21875 C 21.1875 -34.113281 20.859375 -34.875 20.203125 -35.5 C 19.546875 -36.132812 18.765625 -36.453125 17.859375 -36.453125 L 15.984375 -36.453125 C 15.085938 -36.453125 14.320312 -36.132812 13.6875 -35.5 C 13.0625 -34.875 12.75 -34.113281 12.75 -33.21875 L 12.75 -11.671875 C 12.75 -10.773438 13.0625 -10.007812 13.6875 -9.375 C 14.320312 -8.75 15.085938 -8.4375 15.984375 -8.4375 Z M 15.984375 -8.4375 "/></g></g></g><g fill="#ffffff" fill-opacity="1"><g transform="translate(288.449059, 107.698246)"><g><path d="M 3.59375 0 L 3.59375 -44.890625 L 22.359375 -44.890625 C 24.148438 -44.890625 25.6875 -44.242188 26.96875 -42.953125 C 28.257812 -41.671875 28.90625 -40.132812 28.90625 -38.34375 L 28.90625 -28.546875 L 20.46875 -30.4375 L 20.46875 -33.125 C 20.46875 -34.019531 20.148438 -34.796875 19.515625 -35.453125 C 18.890625 -36.117188 18.128906 -36.453125 17.234375 -36.453125 L 12.03125 -36.453125 L 12.03125 0 Z M 3.59375 0 "/></g></g></g><g fill="#ffffff" fill-opacity="1"><g transform="translate(318.699064, 107.698246)"><g><path d="M 10.140625 0 C 8.347656 0 6.804688 -0.640625 5.515625 -1.921875 C 4.234375 -3.210938 3.59375 -4.753906 3.59375 -6.546875 L 3.59375 -38.421875 C 3.59375 -40.222656 4.234375 -41.75 5.515625 -43 C 6.804688 -44.257812 8.347656 -44.890625 10.140625 -44.890625 L 22.359375 -44.890625 C 24.210938 -44.890625 25.765625 -44.257812 27.015625 -43 C 28.273438 -41.75 28.90625 -40.222656 28.90625 -38.421875 L 28.90625 -24.78125 C 28.90625 -22.988281 28.273438 -21.445312 27.015625 -20.15625 C 25.765625 -18.863281 24.210938 -18.21875 22.359375 -18.21875 L 12.03125 -18.21875 L 12.03125 -11.671875 C 12.03125 -10.773438 12.34375 -10.007812 12.96875 -9.375 C 13.601562 -8.75 14.398438 -8.4375 15.359375 -8.4375 L 27.03125 -8.4375 L 28.90625 0 Z M 12.03125 -26.671875 L 17.234375 -26.671875 C 18.128906 -26.671875 18.890625 -26.984375 19.515625 -27.609375 C 20.148438 -28.234375 20.46875 -28.992188 20.46875 -29.890625 L 20.46875 -33.21875 C 20.46875 -34.113281 20.148438 -34.875 19.515625 -35.5 C 18.890625 -36.132812 18.128906 -36.453125 17.234375 -36.453125 L 15.359375 -36.453125 C 14.398438 -36.453125 13.601562 -36.132812 12.96875 -35.5 C 12.34375 -34.875 12.03125 -34.113281 12.03125 -33.21875 Z M 12.03125 -26.671875 "/></g></g></g><g fill="#ffffff" fill-opacity="1"><g transform="translate(90.510668, 137.633964)"><g><path d="M 7.578125 -5.671875 L 7.578125 0 L 5.6875 0 L 5.6875 -5.640625 L 0.53125 -13.96875 L 2.609375 -13.96875 L 6.65625 -7.140625 L 10.703125 -13.96875 L 12.75 -13.96875 Z M 7.578125 -5.671875 "/></g></g></g><g fill="#ffffff" fill-opacity="1"><g transform="translate(105.392442, 137.633964)"><g><path d="M 7.984375 0.328125 C 6.535156 0.328125 5.289062 0.00390625 4.25 -0.640625 C 3.21875 -1.296875 2.441406 -2.175781 1.921875 -3.28125 C 1.410156 -4.394531 1.15625 -5.617188 1.15625 -6.953125 C 1.15625 -8.296875 1.410156 -9.519531 1.921875 -10.625 C 2.441406 -11.726562 3.21875 -12.601562 4.25 -13.25 C 5.289062 -13.90625 6.535156 -14.234375 7.984375 -14.234375 C 9.429688 -14.234375 10.671875 -13.90625 11.703125 -13.25 C 12.742188 -12.601562 13.523438 -11.726562 14.046875 -10.625 C 14.566406 -9.519531 14.828125 -8.304688 14.828125 -6.984375 C 14.828125 -5.628906 14.566406 -4.394531 14.046875 -3.28125 C 13.523438 -2.175781 12.742188 -1.296875 11.703125 -0.640625 C 10.671875 0.00390625 9.429688 0.328125 7.984375 0.328125 Z M 7.984375 -1.15625 C 9.023438 -1.15625 9.914062 -1.40625 10.65625 -1.90625 C 11.394531 -2.40625 11.957031 -3.09375 12.34375 -3.96875 C 12.726562 -4.851562 12.921875 -5.847656 12.921875 -6.953125 C 12.921875 -8.066406 12.726562 -9.0625 12.34375 -9.9375 C 11.957031 -10.8125 11.390625 -11.5 10.640625 -12 C 9.898438 -12.507812 9.015625 -12.765625 7.984375 -12.765625 C 6.941406 -12.765625 6.046875 -12.507812 5.296875 -12 C 4.554688 -11.5 3.992188 -10.8125 3.609375 -9.9375 C 3.222656 -9.0625 3.03125 -8.066406 3.03125 -6.953125 C 3.03125 -5.847656 3.222656 -4.851562 3.609375 -3.96875 C 3.992188 -3.09375 4.554688 -2.40625 5.296875 -1.90625 C 6.046875 -1.40625 6.941406 -1.15625 7.984375 -1.15625 Z M 7.984375 -1.15625 "/></g></g></g><g fill="#ffffff" fill-opacity="1"><g transform="translate(122.942393, 137.633964)"><g><path d="M 7.734375 0.328125 C 5.921875 0.328125 4.523438 -0.175781 3.546875 -1.1875 C 2.566406 -2.195312 2.078125 -3.539062 2.078125 -5.21875 L 2.078125 -13.96875 L 3.96875 -13.96875 L 3.96875 -5.234375 C 3.96875 -3.929688 4.296875 -2.925781 4.953125 -2.21875 C 5.609375 -1.507812 6.535156 -1.15625 7.734375 -1.15625 C 8.941406 -1.15625 9.867188 -1.507812 10.515625 -2.21875 C 11.171875 -2.925781 11.5 -3.929688 11.5 -5.234375 L 11.5 -13.96875 L 13.390625 -13.96875 L 13.390625 -5.25 C 13.390625 -3.550781 12.898438 -2.195312 11.921875 -1.1875 C 10.953125 -0.175781 9.554688 0.328125 7.734375 0.328125 Z M 7.734375 0.328125 "/></g></g></g><g fill="#ffffff" fill-opacity="1"><g transform="translate(140.02028, 137.633964)"><g><path d="M 6.71875 -6.140625 L 4.171875 -6.140625 L 4.171875 0 L 2.28125 0 L 2.28125 -13.96875 L 6.953125 -13.96875 C 8.546875 -13.96875 9.753906 -13.625 10.578125 -12.9375 C 11.398438 -12.25 11.8125 -11.3125 11.8125 -10.125 C 11.8125 -9.125 11.539062 -8.304688 11 -7.671875 C 10.46875 -7.035156 9.679688 -6.613281 8.640625 -6.40625 L 13.203125 0 L 11 0 Z M 4.171875 -7.578125 L 6.953125 -7.578125 C 8.929688 -7.578125 9.921875 -8.40625 9.921875 -10.0625 C 9.921875 -10.84375 9.664062 -11.453125 9.15625 -11.890625 C 8.644531 -12.328125 7.910156 -12.546875 6.953125 -12.546875 L 4.171875 -12.546875 Z M 4.171875 -7.578125 "/></g></g></g><g fill="#ffffff" fill-opacity="1"><g transform="translate(155.59989, 137.633964)"><g/></g></g><g fill="#ffffff" fill-opacity="1"><g transform="translate(162.333487, 137.633964)"><g><path d="M 9.46875 -4.328125 L 3.859375 -4.328125 L 2.28125 0 L 0.390625 0 L 5.8125 -14.140625 L 7.5625 -14.140625 L 13 0 L 11.0625 0 Z M 8.953125 -5.75 L 6.671875 -11.953125 L 4.390625 -5.75 Z M 8.953125 -5.75 "/></g></g></g><g fill="#ffffff" fill-opacity="1"><g transform="translate(177.317884, 137.633964)"><g><path d="M 17.65625 4.03125 C 17.25 4.320312 16.847656 4.539062 16.453125 4.6875 C 16.066406 4.832031 15.664062 4.90625 15.25 4.90625 C 13.8125 4.90625 12.503906 4.210938 11.328125 2.828125 L 9.15625 0.25 C 8.832031 0.300781 8.441406 0.328125 7.984375 0.328125 C 6.535156 0.328125 5.289062 0.00390625 4.25 -0.640625 C 3.21875 -1.296875 2.441406 -2.175781 1.921875 -3.28125 C 1.410156 -4.394531 1.15625 -5.617188 1.15625 -6.953125 C 1.15625 -8.296875 1.410156 -9.519531 1.921875 -10.625 C 2.441406 -11.726562 3.21875 -12.601562 4.25 -13.25 C 5.289062 -13.90625 6.535156 -14.234375 7.984375 -14.234375 C 9.429688 -14.234375 10.671875 -13.90625 11.703125 -13.25 C 12.742188 -12.601562 13.523438 -11.726562 14.046875 -10.625 C 14.566406 -9.519531 14.828125 -8.304688 14.828125 -6.984375 C 14.828125 -5.453125 14.492188 -4.085938 13.828125 -2.890625 C 13.160156 -1.691406 12.207031 -0.816406 10.96875 -0.265625 L 12.546875 1.59375 C 13.546875 2.757812 14.484375 3.34375 15.359375 3.34375 C 16.054688 3.34375 16.710938 3.117188 17.328125 2.671875 Z M 3.03125 -6.953125 C 3.03125 -5.847656 3.222656 -4.851562 3.609375 -3.96875 C 3.992188 -3.09375 4.554688 -2.40625 5.296875 -1.90625 C 6.046875 -1.40625 6.941406 -1.15625 7.984375 -1.15625 C 9.023438 -1.15625 9.914062 -1.40625 10.65625 -1.90625 C 11.394531 -2.40625 11.957031 -3.09375 12.34375 -3.96875 C 12.726562 -4.851562 12.921875 -5.847656 12.921875 -6.953125 C 12.921875 -8.066406 12.726562 -9.0625 12.34375 -9.9375 C 11.957031 -10.8125 11.390625 -11.5 10.640625 -12 C 9.898438 -12.507812 9.015625 -12.765625 7.984375 -12.765625 C 6.941406 -12.765625 6.046875 -12.507812 5.296875 -12 C 4.554688 -11.5 3.992188 -10.8125 3.609375 -9.9375 C 3.222656 -9.0625 3.03125 -8.066406 3.03125 -6.953125 Z M 3.03125 -6.953125 "/></g></g></g><g fill="#ffffff" fill-opacity="1"><g transform="translate(194.867832, 137.633964)"><g><path d="M 7.734375 0.328125 C 5.921875 0.328125 4.523438 -0.175781 3.546875 -1.1875 C 2.566406 -2.195312 2.078125 -3.539062 2.078125 -5.21875 L 2.078125 -13.96875 L 3.96875 -13.96875 L 3.96875 -5.234375 C 3.96875 -3.929688 4.296875 -2.925781 4.953125 -2.21875 C 5.609375 -1.507812 6.535156 -1.15625 7.734375 -1.15625 C 8.941406 -1.15625 9.867188 -1.507812 10.515625 -2.21875 C 11.171875 -2.925781 11.5 -3.929688 11.5 -5.234375 L 11.5 -13.96875 L 13.390625 -13.96875 L 13.390625 -5.25 C 13.390625 -3.550781 12.898438 -2.195312 11.921875 -1.1875 C 10.953125 -0.175781 9.554688 0.328125 7.734375 0.328125 Z M 7.734375 0.328125 "/></g></g></g><g fill="#ffffff" fill-opacity="1"><g transform="translate(211.945717, 137.633964)"><g><path d="M 9.46875 -4.328125 L 3.859375 -4.328125 L 2.28125 0 L 0.390625 0 L 5.8125 -14.140625 L 7.5625 -14.140625 L 13 0 L 11.0625 0 Z M 8.953125 -5.75 L 6.671875 -11.953125 L 4.390625 -5.75 Z M 8.953125 -5.75 "/></g></g></g><g fill="#ffffff" fill-opacity="1"><g transform="translate(226.930114, 137.633964)"><g><path d="M 11.984375 -12.53125 L 7.28125 -12.53125 L 7.28125 0 L 5.40625 0 L 5.40625 -12.53125 L 0.703125 -12.53125 L 0.703125 -13.96875 L 11.984375 -13.96875 Z M 11.984375 -12.53125 "/></g></g></g><g fill="#ffffff" fill-opacity="1"><g transform="translate(241.216676, 137.633964)"><g><path d="M 2.28125 -13.96875 L 4.171875 -13.96875 L 4.171875 0 L 2.28125 0 Z M 2.28125 -13.96875 "/></g></g></g><g fill="#ffffff" fill-opacity="1"><g transform="translate(249.284348, 137.633964)"><g><path d="M 8.1875 0.3125 C 6.65625 0.3125 5.363281 -0.0195312 4.3125 -0.6875 C 3.257812 -1.363281 2.46875 -2.253906 1.9375 -3.359375 C 1.414062 -4.472656 1.15625 -5.6875 1.15625 -7 C 1.15625 -8.3125 1.425781 -9.515625 1.96875 -10.609375 C 2.519531 -11.703125 3.34375 -12.578125 4.4375 -13.234375 C 5.53125 -13.898438 6.863281 -14.234375 8.4375 -14.234375 C 9.351562 -14.234375 10.210938 -14.082031 11.015625 -13.78125 C 11.816406 -13.488281 12.5 -13.078125 13.0625 -12.546875 L 12.28125 -11.296875 C 11.84375 -11.742188 11.28125 -12.097656 10.59375 -12.359375 C 9.90625 -12.628906 9.1875 -12.765625 8.4375 -12.765625 C 7.289062 -12.765625 6.3125 -12.507812 5.5 -12 C 4.695312 -11.5 4.082031 -10.8125 3.65625 -9.9375 C 3.238281 -9.0625 3.03125 -8.078125 3.03125 -6.984375 C 3.03125 -5.859375 3.226562 -4.859375 3.625 -3.984375 C 4.03125 -3.109375 4.617188 -2.414062 5.390625 -1.90625 C 6.160156 -1.40625 7.09375 -1.15625 8.1875 -1.15625 C 9.875 -1.15625 11.332031 -1.796875 12.5625 -3.078125 L 13.265625 -1.84375 C 12.648438 -1.21875 11.910156 -0.703125 11.046875 -0.296875 C 10.179688 0.109375 9.226562 0.3125 8.1875 0.3125 Z M 8.1875 0.3125 "/></g></g></g><g fill="#ffffff" fill-opacity="1"><g transform="translate(265.110243, 137.633964)"><g/></g></g><g fill="#ffffff" fill-opacity="1"><g transform="translate(271.843845, 137.633964)"><g><path d="M 13.59375 -13.96875 L 13.59375 0 L 11.703125 0 L 11.703125 -6.671875 L 4.171875 -6.671875 L 4.171875 0 L 2.28125 0 L 2.28125 -13.96875 L 4.171875 -13.96875 L 4.171875 -8.109375 L 11.703125 -8.109375 L 11.703125 -13.96875 Z M 13.59375 -13.96875 "/></g></g></g><g fill="#ffffff" fill-opacity="1"><g transform="translate(289.33223, 137.633964)"><g><path d="M 9.46875 -4.328125 L 3.859375 -4.328125 L 2.28125 0 L 0.390625 0 L 5.8125 -14.140625 L 7.5625 -14.140625 L 13 0 L 11.0625 0 Z M 8.953125 -5.75 L 6.671875 -11.953125 L 4.390625 -5.75 Z M 8.953125 -5.75 "/></g></g></g><g fill="#ffffff" fill-opacity="1"><g transform="translate(304.316636, 137.633964)"><g><path d="M 13.21875 -13.96875 L 7.828125 0.171875 L 6 0.171875 L 0.578125 -13.96875 L 2.5 -13.96875 L 6.921875 -1.953125 L 11.328125 -13.96875 Z M 13.21875 -13.96875 "/></g></g></g><g fill="#ffffff" fill-opacity="1"><g transform="translate(319.691016, 137.633964)"><g><path d="M 10.84375 -1.421875 L 10.84375 0 L 2.28125 0 L 2.28125 -13.96875 L 10.4375 -13.96875 L 10.4375 -12.546875 L 4.171875 -12.546875 L 4.171875 -8.09375 L 9.609375 -8.09375 L 9.609375 -6.671875 L 4.171875 -6.671875 L 4.171875 -1.421875 Z M 10.84375 -1.421875 "/></g></g></g><g fill="#ffffff" fill-opacity="1"><g transform="translate(333.300288, 137.633964)"><g><path d="M 13.59375 -13.96875 L 13.59375 0 L 11.953125 0.015625 L 4.0625 -10.9375 L 4.171875 -6.078125 L 4.171875 0 L 2.28125 0 L 2.28125 -13.96875 L 3.921875 -13.96875 L 11.8125 -2.984375 L 11.703125 -8.421875 L 11.703125 -13.96875 Z M 13.59375 -13.96875 "/></g></g></g></svg>