<svg xmlns="http://www.w3.org/2000/svg" xmlns:xlink="http://www.w3.org/1999/xlink" width="500" zoomAndPan="magnify" viewBox="0 0 375 149.999998" height="200" preserveAspectRatio="xMidYMid meet" version="1.0"><defs><g/><clipPath id="06bf1c0318"><path d="M 17 32.839844 L 87.339844 32.839844 L 87.339844 119.839844 L 17 119.839844 Z M 17 32.839844 " clip-rule="nonzero"/></clipPath><clipPath id="7a602d41bd"><path d="M 15 30 L 52 30 L 52 36 L 15 36 Z M 15 30 " clip-rule="nonzero"/></clipPath><clipPath id="aec1ff8f6d"><path d="M 20.433594 4.648438 L 51.867188 11.859375 L 46.5 35.253906 L 15.066406 28.039062 Z M 20.433594 4.648438 " clip-rule="nonzero"/></clipPath><clipPath id="9099436b08"><path d="M 45.703125 68.503906 L 7.691406 59.78125 L 20.269531 4.957031 L 58.28125 13.679688 Z M 45.703125 68.503906 " clip-rule="nonzero"/></clipPath><clipPath id="4ad13710c2"><path d="M 15 30 L 50 30 L 50 36 L 15 36 Z M 15 30 " clip-rule="nonzero"/></clipPath><clipPath id="7e2e96155e"><path d="M 20.433594 4.648438 L 51.867188 11.859375 L 46.5 35.253906 L 15.066406 28.039062 Z M 20.433594 4.648438 " clip-rule="nonzero"/></clipPath><clipPath id="049f5b15f2"><path d="M 45.703125 68.503906 L 7.691406 59.78125 L 20.269531 4.957031 L 58.28125 13.679688 Z M 45.703125 68.503906 " clip-rule="nonzero"/></clipPath><clipPath id="c03acb1c62"><path d="M 18 30 L 49 30 L 49 36 L 18 36 Z M 18 30 " clip-rule="nonzero"/></clipPath><clipPath id="50f6c99463"><path d="M 20.433594 4.648438 L 51.867188 11.859375 L 46.5 35.253906 L 15.066406 28.039062 Z M 20.433594 4.648438 " clip-rule="nonzero"/></clipPath><clipPath id="5e5837c44e"><path d="M 45.703125 68.503906 L 7.691406 59.78125 L 20.269531 4.957031 L 58.28125 13.679688 Z M 45.703125 68.503906 " clip-rule="nonzero"/></clipPath><clipPath id="d8eeb59770"><path d="M 17 13 L 48 13 L 48 29 L 17 29 Z M 17 13 " clip-rule="nonzero"/></clipPath><clipPath id="2e23a1dc7d"><path d="M 20.433594 4.648438 L 51.867188 11.859375 L 46.5 35.253906 L 15.066406 28.039062 Z M 20.433594 4.648438 " clip-rule="nonzero"/></clipPath><clipPath id="b286c3fc9c"><path d="M 45.703125 68.503906 L 7.691406 59.78125 L 20.269531 4.957031 L 58.28125 13.679688 Z M 45.703125 68.503906 " clip-rule="nonzero"/></clipPath><clipPath id="ff789e31a0"><path d="M 28 27 L 40 27 L 40 31 L 28 31 Z M 28 27 " clip-rule="nonzero"/></clipPath><clipPath id="61c7c73f4b"><path d="M 20.433594 4.648438 L 51.867188 11.859375 L 46.5 35.253906 L 15.066406 28.039062 Z M 20.433594 4.648438 " clip-rule="nonzero"/></clipPath><clipPath id="f8bd781587"><path d="M 45.703125 68.503906 L 7.691406 59.78125 L 20.269531 4.957031 L 58.28125 13.679688 Z M 45.703125 68.503906 " clip-rule="nonzero"/></clipPath><clipPath id="f81849e0c4"><path d="M 24 7 L 34 7 L 34 16 L 24 16 Z M 24 7 " clip-rule="nonzero"/></clipPath><clipPath id="e09cc6e046"><path d="M 20.433594 4.648438 L 51.867188 11.859375 L 46.5 35.253906 L 15.066406 28.039062 Z M 20.433594 4.648438 " clip-rule="nonzero"/></clipPath><clipPath id="20e4c3bf3b"><path d="M 45.703125 68.503906 L 7.691406 59.78125 L 20.269531 4.957031 L 58.28125 13.679688 Z M 45.703125 68.503906 " clip-rule="nonzero"/></clipPath></defs><g clip-path="url(#06bf1c0318)"><path fill="#000000" d="M 17.464844 42.308594 L 17.464844 85.488281 C 20.800781 77.167969 25.890625 70.296875 32.226562 64.457031 C 32.664062 64.058594 33.101562 63.664062 33.550781 63.277344 C 41.964844 55.921875 53.628906 50.65625 51.789062 37.335938 C 59.703125 44.332031 57.265625 52.929688 51.828125 60.183594 C 51.539062 60.570312 51.253906 60.953125 50.976562 61.351562 C 50.226562 62.371094 49.515625 63.414062 48.828125 64.457031 C 47.550781 66.394531 46.363281 68.359375 45.289062 70.394531 C 40.453125 79.5 36.601562 91.628906 48.425781 97.613281 C 56.804688 101.851562 66.617188 95.902344 67.089844 86.769531 C 67.367188 81.527344 64.601562 76.992188 59.054688 73.128906 C 76.105469 73.363281 82.328125 91.117188 72.015625 103.132812 C 69.753906 105.765625 67.039062 107.714844 63.929688 109.082031 C 41.015625 119.15625 21.75 95.265625 36.601562 71.203125 C 15.363281 87.640625 28.152344 119.839844 56.226562 119.839844 C 73.402344 119.839844 87.316406 106.648438 87.316406 90.382812 C 87.316406 78.433594 79.804688 68.148438 69.015625 63.527344 C 75.152344 61.328125 79.566406 55.476562 79.566406 48.65625 C 79.566406 39.957031 72.402344 32.839844 63.652344 32.839844 L 25.578125 32.839844 C 18.640625 32.839844 17.464844 36.578125 17.464844 42.308594 Z M 17.464844 42.308594 " fill-opacity="1" fill-rule="evenodd"/></g><g clip-path="url(#7a602d41bd)"><g clip-path="url(#aec1ff8f6d)"><g clip-path="url(#9099436b08)"><path fill="#000000" d="M 48.402344 30.765625 C 48.402344 30.765625 48.539062 30.992188 48.785156 31.417969 C 48.800781 31.445312 48.816406 31.472656 48.832031 31.5 C 48.847656 31.527344 48.863281 31.554688 48.878906 31.585938 C 48.910156 31.648438 48.945312 31.710938 48.980469 31.777344 C 49.050781 31.914062 49.128906 32.0625 49.210938 32.222656 C 49.230469 32.261719 49.25 32.300781 49.273438 32.34375 C 49.292969 32.386719 49.3125 32.429688 49.332031 32.472656 C 49.371094 32.5625 49.414062 32.652344 49.457031 32.746094 C 49.5 32.839844 49.542969 32.933594 49.589844 33.035156 C 49.613281 33.085938 49.636719 33.136719 49.660156 33.1875 C 49.679688 33.238281 49.703125 33.292969 49.722656 33.34375 C 49.8125 33.558594 49.902344 33.785156 50 34.023438 C 50.085938 34.265625 50.175781 34.519531 50.265625 34.785156 C 50.277344 34.816406 50.289062 34.851562 50.300781 34.886719 C 50.3125 34.917969 50.324219 34.953125 50.332031 34.988281 C 50.355469 35.054688 50.375 35.125 50.394531 35.195312 C 50.4375 35.335938 50.480469 35.476562 50.523438 35.621094 C 50.570312 35.769531 50.609375 35.917969 50.648438 36.070312 C 50.6875 36.222656 50.726562 36.378906 50.765625 36.535156 C 50.808594 36.695312 50.835938 36.855469 50.871094 37.023438 C 50.90625 37.1875 50.941406 37.355469 50.976562 37.523438 C 50.996094 37.609375 51.007812 37.695312 51.019531 37.78125 C 51.035156 37.871094 51.050781 37.957031 51.0625 38.046875 C 51.078125 38.132812 51.089844 38.222656 51.105469 38.3125 C 51.113281 38.359375 51.121094 38.402344 51.125 38.449219 C 51.132812 38.492188 51.140625 38.539062 51.144531 38.582031 C 51.167969 38.765625 51.1875 38.953125 51.210938 39.140625 C 51.21875 39.234375 51.230469 39.328125 51.242188 39.421875 C 51.246094 39.46875 51.25 39.519531 51.253906 39.566406 C 51.257812 39.613281 51.261719 39.660156 51.265625 39.710938 C 51.277344 39.902344 51.292969 40.097656 51.304688 40.296875 C 51.308594 40.347656 51.3125 40.394531 51.3125 40.445312 C 51.316406 40.496094 51.316406 40.546875 51.316406 40.59375 C 51.320312 40.695312 51.324219 40.796875 51.324219 40.898438 C 51.328125 41 51.332031 41.101562 51.332031 41.203125 C 51.335938 41.304688 51.339844 41.410156 51.335938 41.511719 C 51.332031 41.71875 51.324219 41.929688 51.320312 42.140625 C 51.320312 42.191406 51.320312 42.246094 51.316406 42.300781 L 51.316406 42.378906 L 51.308594 42.457031 C 51.304688 42.566406 51.296875 42.671875 51.289062 42.78125 C 51.28125 42.886719 51.273438 42.996094 51.265625 43.105469 C 51.265625 43.15625 51.261719 43.210938 51.257812 43.265625 L 51.242188 43.429688 C 51.21875 43.648438 51.191406 43.871094 51.167969 44.09375 C 51.160156 44.148438 51.15625 44.203125 51.148438 44.257812 L 51.140625 44.34375 L 51.125 44.425781 C 51.109375 44.539062 51.089844 44.648438 51.074219 44.761719 C 51.054688 44.875 51.039062 44.984375 51.019531 45.101562 C 51.011719 45.15625 51.003906 45.214844 50.992188 45.269531 L 50.988281 45.3125 C 50.984375 45.324219 50.988281 45.3125 50.980469 45.347656 L 50.976562 45.367188 L 50.960938 45.449219 C 50.941406 45.554688 50.917969 45.664062 50.898438 45.773438 L 50.882812 45.855469 C 50.875 45.882812 50.871094 45.910156 50.863281 45.9375 C 50.851562 45.996094 50.839844 46.054688 50.824219 46.113281 C 50.800781 46.230469 50.773438 46.347656 50.746094 46.46875 C 50.734375 46.527344 50.71875 46.582031 50.703125 46.640625 C 50.691406 46.699219 50.675781 46.757812 50.660156 46.8125 C 50.632812 46.929688 50.605469 47.046875 50.570312 47.160156 C 50.539062 47.277344 50.507812 47.390625 50.472656 47.507812 C 50.457031 47.566406 50.441406 47.625 50.425781 47.683594 C 50.40625 47.738281 50.390625 47.796875 50.371094 47.855469 C 50.335938 47.972656 50.300781 48.089844 50.261719 48.207031 C 50.226562 48.324219 50.183594 48.4375 50.144531 48.554688 C 50.105469 48.671875 50.066406 48.789062 50.023438 48.902344 C 49.980469 49.019531 49.9375 49.136719 49.894531 49.253906 C 49.871094 49.3125 49.851562 49.371094 49.828125 49.429688 C 49.804688 49.484375 49.78125 49.542969 49.757812 49.601562 C 49.710938 49.71875 49.664062 49.835938 49.617188 49.953125 C 49.566406 50.066406 49.515625 50.183594 49.464844 50.300781 C 49.441406 50.355469 49.417969 50.414062 49.390625 50.472656 C 49.363281 50.53125 49.335938 50.589844 49.3125 50.648438 C 49.257812 50.761719 49.203125 50.878906 49.148438 50.996094 C 49.09375 51.109375 49.035156 51.222656 48.980469 51.339844 C 48.921875 51.453125 48.863281 51.570312 48.800781 51.683594 C 47.847656 53.515625 46.589844 55.28125 45.074219 56.855469 C 44.980469 56.953125 44.882812 57.050781 44.789062 57.148438 C 44.742188 57.199219 44.691406 57.246094 44.644531 57.292969 L 44.347656 57.582031 C 44.296875 57.628906 44.246094 57.675781 44.195312 57.722656 C 44.097656 57.816406 43.996094 57.90625 43.894531 58 C 43.484375 58.367188 43.0625 58.726562 42.625 59.066406 C 41.75 59.742188 40.820312 60.367188 39.851562 60.914062 L 39.671875 61.019531 L 39.488281 61.121094 C 39.367188 61.183594 39.242188 61.253906 39.121094 61.316406 C 38.871094 61.445312 38.625 61.574219 38.371094 61.691406 C 38.121094 61.8125 37.867188 61.921875 37.613281 62.035156 C 37.484375 62.09375 37.355469 62.144531 37.230469 62.199219 L 37.035156 62.277344 L 36.84375 62.355469 C 35.808594 62.761719 34.75 63.085938 33.679688 63.339844 C 31.542969 63.84375 29.367188 64.023438 27.289062 63.917969 C 27.160156 63.914062 27.027344 63.902344 26.898438 63.894531 C 26.769531 63.886719 26.640625 63.878906 26.511719 63.867188 C 26.257812 63.84375 26 63.820312 25.746094 63.789062 C 25.238281 63.730469 24.742188 63.648438 24.25 63.5625 C 24.125 63.539062 24.003906 63.511719 23.882812 63.488281 C 23.824219 63.476562 23.761719 63.464844 23.703125 63.453125 L 23.609375 63.433594 L 23.519531 63.414062 C 23.402344 63.386719 23.28125 63.359375 23.160156 63.332031 C 23.101562 63.316406 23.042969 63.304688 22.984375 63.289062 C 22.921875 63.273438 22.863281 63.257812 22.804688 63.242188 C 22.6875 63.210938 22.570312 63.183594 22.453125 63.152344 L 22.394531 63.136719 L 22.355469 63.125 L 22.273438 63.101562 C 22.21875 63.085938 22.164062 63.070312 22.109375 63.054688 C 22.054688 63.039062 21.996094 63.023438 21.945312 63.007812 C 21.914062 63 21.890625 62.992188 21.859375 62.984375 L 21.773438 62.957031 C 21.65625 62.917969 21.539062 62.882812 21.425781 62.847656 C 21.308594 62.8125 21.199219 62.773438 21.085938 62.734375 C 20.976562 62.695312 20.863281 62.660156 20.753906 62.621094 C 20.644531 62.582031 20.535156 62.539062 20.429688 62.5 C 20.375 62.480469 20.320312 62.460938 20.265625 62.441406 C 20.210938 62.421875 20.160156 62.398438 20.105469 62.378906 C 20 62.335938 19.890625 62.292969 19.789062 62.25 C 19.679688 62.207031 19.578125 62.164062 19.472656 62.121094 C 19.421875 62.097656 19.371094 62.074219 19.316406 62.054688 C 19.265625 62.03125 19.214844 62.011719 19.164062 61.984375 C 19.0625 61.941406 18.960938 61.894531 18.859375 61.847656 C 18.054688 61.476562 17.304688 61.070312 16.605469 60.644531 C 15.210938 59.789062 14.042969 58.859375 13.089844 57.960938 C 12.136719 57.0625 11.394531 56.199219 10.832031 55.460938 C 10.269531 54.71875 9.878906 54.109375 9.625 53.683594 C 9.496094 53.472656 9.40625 53.308594 9.34375 53.195312 C 9.285156 53.085938 9.25 53.027344 9.25 53.027344 C 9.25 53.027344 9.296875 53.074219 9.386719 53.167969 C 9.472656 53.261719 9.601562 53.398438 9.773438 53.574219 C 10.113281 53.925781 10.621094 54.429688 11.300781 55.03125 C 11.976562 55.628906 12.832031 56.320312 13.859375 57.015625 C 14.886719 57.714844 16.097656 58.417969 17.46875 59.035156 C 18.15625 59.347656 18.882812 59.636719 19.652344 59.894531 C 19.746094 59.925781 19.84375 59.957031 19.9375 59.988281 C 20.035156 60.019531 20.132812 60.046875 20.230469 60.078125 C 20.328125 60.109375 20.425781 60.140625 20.527344 60.167969 C 20.625 60.199219 20.726562 60.226562 20.824219 60.253906 C 20.875 60.269531 20.925781 60.28125 20.976562 60.296875 C 21.023438 60.308594 21.078125 60.324219 21.125 60.335938 C 21.226562 60.363281 21.328125 60.390625 21.429688 60.417969 C 21.53125 60.441406 21.636719 60.464844 21.738281 60.492188 C 21.839844 60.515625 21.945312 60.542969 22.046875 60.5625 C 22.148438 60.582031 22.25 60.605469 22.351562 60.628906 L 22.429688 60.644531 L 22.511719 60.660156 C 22.566406 60.671875 22.621094 60.683594 22.679688 60.691406 C 22.734375 60.703125 22.789062 60.714844 22.847656 60.726562 L 22.929688 60.742188 L 22.972656 60.75 C 22.953125 60.746094 22.980469 60.75 22.980469 60.75 L 23 60.753906 C 23.105469 60.773438 23.214844 60.789062 23.320312 60.808594 C 23.375 60.816406 23.429688 60.828125 23.480469 60.835938 C 23.535156 60.847656 23.589844 60.851562 23.644531 60.859375 C 23.753906 60.875 23.863281 60.894531 23.972656 60.910156 L 24.054688 60.921875 L 24.136719 60.929688 C 24.191406 60.9375 24.246094 60.945312 24.300781 60.953125 C 24.410156 60.964844 24.519531 60.980469 24.632812 60.992188 C 24.742188 61 24.851562 61.011719 24.964844 61.023438 C 25.019531 61.027344 25.074219 61.035156 25.128906 61.039062 C 25.1875 61.042969 25.242188 61.046875 25.296875 61.050781 C 25.410156 61.0625 25.523438 61.070312 25.636719 61.078125 C 25.746094 61.085938 25.859375 61.089844 25.972656 61.097656 C 26.425781 61.121094 26.882812 61.128906 27.34375 61.125 C 29.179688 61.109375 31.070312 60.863281 32.921875 60.375 C 33.382812 60.25 33.84375 60.117188 34.300781 59.960938 C 34.417969 59.925781 34.527344 59.882812 34.644531 59.84375 C 34.757812 59.800781 34.871094 59.765625 34.984375 59.71875 C 35.097656 59.675781 35.207031 59.632812 35.320312 59.59375 C 35.433594 59.546875 35.546875 59.5 35.65625 59.457031 L 35.828125 59.386719 L 35.992188 59.316406 C 36.105469 59.269531 36.214844 59.222656 36.324219 59.171875 C 36.546875 59.070312 36.765625 58.972656 36.984375 58.863281 C 37.203125 58.761719 37.417969 58.648438 37.632812 58.539062 C 37.742188 58.480469 37.847656 58.421875 37.953125 58.363281 L 38.113281 58.277344 L 38.269531 58.1875 C 39.113281 57.710938 39.925781 57.171875 40.695312 56.59375 C 40.789062 56.519531 40.886719 56.445312 40.980469 56.375 C 41.078125 56.300781 41.171875 56.222656 41.265625 56.148438 C 41.453125 56 41.636719 55.839844 41.820312 55.6875 C 41.910156 55.609375 42 55.53125 42.089844 55.449219 C 42.136719 55.410156 42.179688 55.371094 42.222656 55.332031 L 42.355469 55.207031 C 42.445312 55.125 42.53125 55.046875 42.617188 54.964844 C 42.703125 54.882812 42.789062 54.796875 42.875 54.714844 C 43.214844 54.378906 43.546875 54.039062 43.859375 53.683594 L 43.980469 53.554688 L 44.097656 53.417969 C 44.171875 53.332031 44.25 53.242188 44.328125 53.152344 C 44.402344 53.0625 44.476562 52.96875 44.550781 52.878906 C 44.585938 52.832031 44.625 52.789062 44.660156 52.742188 L 44.769531 52.605469 C 45.0625 52.238281 45.335938 51.859375 45.601562 51.480469 C 45.730469 51.289062 45.863281 51.101562 45.984375 50.90625 C 46.046875 50.808594 46.109375 50.714844 46.167969 50.617188 C 46.230469 50.519531 46.289062 50.421875 46.347656 50.324219 C 46.824219 49.542969 47.234375 48.742188 47.597656 47.9375 C 47.644531 47.835938 47.6875 47.734375 47.730469 47.636719 C 47.773438 47.535156 47.816406 47.433594 47.859375 47.332031 C 47.898438 47.230469 47.941406 47.128906 47.980469 47.03125 C 48.003906 46.980469 48.023438 46.929688 48.042969 46.878906 C 48.0625 46.828125 48.082031 46.777344 48.101562 46.726562 C 48.136719 46.625 48.175781 46.523438 48.214844 46.421875 C 48.25 46.324219 48.285156 46.21875 48.320312 46.121094 C 48.355469 46.019531 48.394531 45.917969 48.425781 45.820312 C 48.457031 45.71875 48.488281 45.621094 48.519531 45.523438 C 48.535156 45.476562 48.554688 45.425781 48.570312 45.378906 C 48.578125 45.355469 48.585938 45.324219 48.59375 45.300781 L 48.617188 45.21875 C 48.648438 45.113281 48.679688 45.007812 48.707031 44.902344 L 48.730469 44.824219 L 48.738281 44.804688 C 48.734375 44.824219 48.738281 44.796875 48.738281 44.796875 L 48.75 44.761719 C 48.761719 44.710938 48.777344 44.660156 48.789062 44.609375 C 48.816406 44.507812 48.84375 44.410156 48.867188 44.308594 C 48.894531 44.210938 48.921875 44.109375 48.949219 44.011719 L 48.96875 43.9375 L 48.984375 43.863281 C 48.996094 43.8125 49.003906 43.761719 49.015625 43.714844 C 49.0625 43.515625 49.105469 43.316406 49.148438 43.121094 C 49.300781 42.335938 49.429688 41.570312 49.496094 40.824219 C 49.507812 40.730469 49.515625 40.640625 49.527344 40.546875 C 49.53125 40.5 49.535156 40.457031 49.539062 40.410156 C 49.542969 40.363281 49.546875 40.316406 49.550781 40.273438 C 49.5625 40.089844 49.574219 39.90625 49.585938 39.730469 C 49.589844 39.683594 49.589844 39.640625 49.59375 39.59375 C 49.597656 39.550781 49.601562 39.503906 49.601562 39.460938 C 49.601562 39.371094 49.605469 39.285156 49.609375 39.195312 C 49.613281 39.019531 49.617188 38.847656 49.621094 38.675781 C 49.625 38.632812 49.621094 38.589844 49.621094 38.546875 C 49.621094 38.503906 49.621094 38.460938 49.621094 38.417969 C 49.621094 38.335938 49.617188 38.25 49.617188 38.164062 C 49.617188 38.082031 49.617188 38 49.617188 37.914062 C 49.613281 37.832031 49.617188 37.75 49.609375 37.667969 C 49.601562 37.507812 49.59375 37.34375 49.585938 37.1875 C 49.578125 37.027344 49.574219 36.871094 49.558594 36.71875 C 49.546875 36.5625 49.535156 36.414062 49.519531 36.261719 C 49.507812 36.113281 49.5 35.96875 49.476562 35.824219 C 49.460938 35.679688 49.445312 35.539062 49.425781 35.398438 C 49.417969 35.332031 49.410156 35.261719 49.402344 35.195312 C 49.398438 35.160156 49.394531 35.125 49.390625 35.089844 C 49.382812 35.058594 49.378906 35.023438 49.375 34.992188 C 49.332031 34.726562 49.292969 34.46875 49.253906 34.226562 C 49.207031 33.980469 49.160156 33.75 49.117188 33.527344 C 49.105469 33.472656 49.097656 33.417969 49.085938 33.363281 C 49.074219 33.3125 49.0625 33.257812 49.050781 33.207031 C 49.027344 33.101562 49.003906 33.003906 48.980469 32.90625 C 48.957031 32.804688 48.9375 32.710938 48.914062 32.617188 C 48.902344 32.574219 48.894531 32.527344 48.882812 32.484375 C 48.871094 32.4375 48.859375 32.394531 48.847656 32.355469 C 48.804688 32.183594 48.761719 32.027344 48.722656 31.882812 C 48.707031 31.808594 48.6875 31.742188 48.671875 31.675781 C 48.664062 31.640625 48.652344 31.609375 48.644531 31.578125 C 48.632812 31.546875 48.625 31.519531 48.617188 31.488281 C 48.472656 31.019531 48.402344 30.765625 48.402344 30.765625 " fill-opacity="1" fill-rule="nonzero"/></g></g></g><g clip-path="url(#4ad13710c2)"><g clip-path="url(#7e2e96155e)"><g clip-path="url(#049f5b15f2)"><path fill="#000000" d="M 48.042969 30.683594 C 48.042969 30.683594 48.132812 30.890625 48.289062 31.277344 C 48.308594 31.328125 48.332031 31.375 48.351562 31.433594 C 48.371094 31.488281 48.394531 31.546875 48.414062 31.605469 C 48.457031 31.730469 48.507812 31.863281 48.558594 32.007812 C 48.570312 32.042969 48.582031 32.082031 48.597656 32.117188 C 48.609375 32.15625 48.621094 32.195312 48.632812 32.234375 C 48.65625 32.3125 48.679688 32.394531 48.707031 32.480469 C 48.730469 32.5625 48.757812 32.652344 48.785156 32.738281 C 48.796875 32.785156 48.8125 32.832031 48.824219 32.875 C 48.835938 32.921875 48.847656 32.96875 48.859375 33.019531 C 48.90625 33.210938 48.960938 33.414062 49.011719 33.625 C 49.054688 33.839844 49.101562 34.066406 49.148438 34.300781 C 49.152344 34.332031 49.160156 34.359375 49.164062 34.390625 C 49.171875 34.421875 49.175781 34.449219 49.179688 34.480469 C 49.1875 34.542969 49.199219 34.601562 49.207031 34.664062 C 49.226562 34.789062 49.246094 34.914062 49.265625 35.042969 C 49.285156 35.171875 49.300781 35.300781 49.3125 35.4375 C 49.328125 35.570312 49.34375 35.707031 49.355469 35.84375 C 49.375 35.984375 49.378906 36.125 49.390625 36.269531 C 49.398438 36.414062 49.40625 36.558594 49.414062 36.707031 C 49.421875 36.78125 49.417969 36.855469 49.421875 36.933594 C 49.421875 37.007812 49.425781 37.082031 49.425781 37.160156 C 49.425781 37.3125 49.429688 37.46875 49.429688 37.625 C 49.425781 37.785156 49.417969 37.945312 49.414062 38.105469 C 49.410156 38.1875 49.410156 38.269531 49.40625 38.347656 C 49.40625 38.390625 49.402344 38.429688 49.398438 38.472656 C 49.394531 38.515625 49.394531 38.554688 49.390625 38.597656 C 49.378906 38.761719 49.363281 38.929688 49.351562 39.097656 C 49.347656 39.140625 49.34375 39.183594 49.339844 39.226562 C 49.335938 39.269531 49.332031 39.3125 49.324219 39.351562 C 49.316406 39.4375 49.304688 39.523438 49.292969 39.609375 C 49.28125 39.699219 49.273438 39.785156 49.261719 39.871094 C 49.25 39.957031 49.242188 40.046875 49.222656 40.132812 C 49.195312 40.308594 49.164062 40.484375 49.132812 40.664062 C 49.125 40.710938 49.117188 40.753906 49.109375 40.800781 L 49.085938 40.933594 C 49.066406 41.023438 49.046875 41.113281 49.027344 41.203125 C 49.007812 41.292969 48.988281 41.386719 48.96875 41.476562 C 48.957031 41.523438 48.945312 41.566406 48.9375 41.613281 L 48.921875 41.683594 L 48.902344 41.75 C 48.855469 41.933594 48.808594 42.117188 48.757812 42.304688 C 48.746094 42.347656 48.734375 42.394531 48.722656 42.441406 L 48.703125 42.511719 L 48.679688 42.582031 C 48.652344 42.675781 48.621094 42.765625 48.59375 42.859375 C 48.5625 42.953125 48.535156 43.046875 48.503906 43.140625 C 48.488281 43.1875 48.476562 43.234375 48.460938 43.28125 L 48.449219 43.316406 C 48.445312 43.328125 48.449219 43.316406 48.4375 43.347656 L 48.433594 43.363281 L 48.410156 43.429688 C 48.378906 43.519531 48.347656 43.609375 48.316406 43.695312 L 48.292969 43.761719 C 48.28125 43.785156 48.277344 43.804688 48.265625 43.832031 C 48.246094 43.878906 48.230469 43.925781 48.210938 43.976562 C 48.171875 44.074219 48.136719 44.167969 48.097656 44.265625 C 48.078125 44.316406 48.058594 44.363281 48.039062 44.410156 C 48.019531 44.457031 48 44.503906 47.980469 44.550781 C 47.941406 44.644531 47.902344 44.738281 47.859375 44.835938 C 47.816406 44.929688 47.773438 45.023438 47.730469 45.117188 C 47.710938 45.164062 47.691406 45.210938 47.667969 45.257812 C 47.644531 45.304688 47.621094 45.351562 47.601562 45.398438 C 47.554688 45.492188 47.507812 45.589844 47.464844 45.683594 C 47.417969 45.777344 47.367188 45.871094 47.320312 45.964844 C 47.269531 46.058594 47.222656 46.152344 47.171875 46.246094 C 47.066406 46.433594 46.964844 46.621094 46.855469 46.804688 C 46.800781 46.898438 46.746094 46.992188 46.6875 47.085938 C 46.632812 47.175781 46.574219 47.269531 46.515625 47.363281 C 46.488281 47.40625 46.457031 47.453125 46.429688 47.5 C 46.398438 47.546875 46.367188 47.589844 46.339844 47.636719 C 46.277344 47.730469 46.214844 47.820312 46.15625 47.910156 C 46.09375 48.003906 46.03125 48.09375 45.964844 48.183594 C 45.902344 48.273438 45.839844 48.363281 45.769531 48.453125 C 44.71875 49.890625 43.417969 51.230469 41.917969 52.371094 C 41.824219 52.441406 41.730469 52.511719 41.636719 52.582031 C 41.542969 52.65625 41.445312 52.722656 41.347656 52.789062 L 41.203125 52.890625 C 41.15625 52.925781 41.105469 52.957031 41.058594 52.992188 C 40.957031 53.058594 40.859375 53.125 40.761719 53.191406 C 40.363281 53.449219 39.957031 53.699219 39.539062 53.929688 C 38.703125 54.390625 37.832031 54.800781 36.933594 55.140625 L 36.765625 55.203125 L 36.59375 55.265625 C 36.480469 55.304688 36.367188 55.34375 36.253906 55.382812 C 36.027344 55.457031 35.800781 55.535156 35.570312 55.601562 C 35.339844 55.671875 35.105469 55.734375 34.875 55.796875 C 34.757812 55.828125 34.640625 55.855469 34.527344 55.882812 L 34.351562 55.925781 L 34.175781 55.964844 C 33.242188 56.171875 32.292969 56.308594 31.351562 56.378906 C 29.464844 56.523438 27.589844 56.382812 25.835938 56.011719 C 25.726562 55.988281 25.617188 55.960938 25.507812 55.9375 C 25.398438 55.914062 25.289062 55.890625 25.183594 55.859375 C 24.96875 55.804688 24.753906 55.75 24.542969 55.691406 C 24.121094 55.574219 23.707031 55.433594 23.304688 55.292969 C 23.203125 55.257812 23.101562 55.21875 23.003906 55.179688 C 22.953125 55.164062 22.902344 55.144531 22.851562 55.125 L 22.777344 55.097656 L 22.703125 55.066406 C 22.605469 55.027344 22.507812 54.988281 22.410156 54.949219 C 22.363281 54.929688 22.3125 54.910156 22.265625 54.886719 C 22.21875 54.867188 22.167969 54.847656 22.121094 54.824219 C 22.027344 54.78125 21.929688 54.742188 21.835938 54.699219 L 21.816406 54.691406 C 21.804688 54.6875 21.820312 54.691406 21.785156 54.679688 L 21.753906 54.664062 L 21.6875 54.632812 C 21.644531 54.609375 21.597656 54.589844 21.554688 54.570312 C 21.511719 54.546875 21.46875 54.527344 21.421875 54.507812 L 21.355469 54.476562 L 21.285156 54.441406 C 21.191406 54.394531 21.097656 54.347656 21.003906 54.300781 C 20.910156 54.253906 20.824219 54.207031 20.734375 54.15625 C 20.644531 54.109375 20.554688 54.0625 20.46875 54.015625 C 20.378906 53.964844 20.292969 53.917969 20.207031 53.871094 C 20.164062 53.84375 20.121094 53.820312 20.078125 53.796875 C 20.035156 53.769531 19.992188 53.746094 19.953125 53.71875 C 19.867188 53.667969 19.78125 53.617188 19.699219 53.570312 C 19.617188 53.519531 19.535156 53.464844 19.453125 53.414062 C 19.371094 53.363281 19.289062 53.3125 19.207031 53.257812 C 19.128906 53.203125 19.050781 53.152344 18.96875 53.097656 C 18.339844 52.671875 17.761719 52.222656 17.230469 51.765625 C 16.171875 50.847656 15.316406 49.894531 14.640625 49.003906 C 13.964844 48.105469 13.464844 47.273438 13.097656 46.570312 C 12.734375 45.867188 12.496094 45.292969 12.347656 44.898438 C 12.269531 44.703125 12.21875 44.550781 12.183594 44.449219 C 12.148438 44.347656 12.128906 44.292969 12.128906 44.292969 C 12.128906 44.292969 12.164062 44.339844 12.226562 44.425781 C 12.289062 44.515625 12.382812 44.644531 12.507812 44.8125 C 12.757812 45.148438 13.128906 45.636719 13.628906 46.21875 C 14.128906 46.800781 14.765625 47.480469 15.546875 48.1875 C 16.328125 48.894531 17.257812 49.628906 18.335938 50.3125 C 18.871094 50.652344 19.445312 50.984375 20.054688 51.289062 C 20.207031 51.367188 20.359375 51.441406 20.519531 51.515625 C 20.597656 51.550781 20.675781 51.589844 20.753906 51.628906 C 20.832031 51.664062 20.914062 51.699219 20.992188 51.734375 C 21.03125 51.75 21.074219 51.769531 21.113281 51.789062 C 21.152344 51.804688 21.195312 51.820312 21.234375 51.839844 C 21.316406 51.875 21.398438 51.90625 21.480469 51.941406 C 21.5625 51.976562 21.644531 52.007812 21.726562 52.042969 C 21.8125 52.074219 21.894531 52.109375 21.976562 52.140625 C 22.058594 52.167969 22.140625 52.199219 22.222656 52.230469 L 22.285156 52.253906 L 22.351562 52.277344 C 22.394531 52.292969 22.441406 52.308594 22.488281 52.324219 C 22.535156 52.339844 22.578125 52.359375 22.625 52.375 L 22.695312 52.398438 L 22.726562 52.410156 C 22.707031 52.402344 22.730469 52.410156 22.730469 52.410156 L 22.746094 52.414062 C 22.835938 52.445312 22.921875 52.472656 23.007812 52.5 C 23.183594 52.558594 23.363281 52.609375 23.539062 52.664062 L 23.605469 52.683594 L 23.675781 52.703125 C 23.71875 52.714844 23.765625 52.726562 23.808594 52.738281 C 23.898438 52.765625 23.988281 52.789062 24.078125 52.8125 C 24.171875 52.835938 24.261719 52.859375 24.355469 52.882812 C 24.398438 52.894531 24.445312 52.90625 24.492188 52.914062 C 24.535156 52.925781 24.582031 52.9375 24.628906 52.945312 C 24.722656 52.96875 24.8125 52.988281 24.90625 53.011719 C 25 53.03125 25.09375 53.046875 25.1875 53.066406 C 25.558594 53.144531 25.941406 53.203125 26.324219 53.261719 C 27.855469 53.476562 29.460938 53.507812 31.0625 53.335938 C 31.460938 53.289062 31.863281 53.238281 32.261719 53.167969 C 32.363281 53.152344 32.460938 53.128906 32.5625 53.113281 C 32.660156 53.09375 32.761719 53.074219 32.859375 53.054688 C 32.960938 53.03125 33.058594 53.011719 33.160156 52.992188 C 33.257812 52.96875 33.355469 52.945312 33.457031 52.921875 L 33.605469 52.886719 L 33.753906 52.847656 C 33.851562 52.820312 33.949219 52.796875 34.046875 52.769531 C 34.242188 52.714844 34.441406 52.660156 34.636719 52.597656 C 34.832031 52.542969 35.023438 52.472656 35.21875 52.410156 L 35.503906 52.308594 L 35.648438 52.257812 L 35.792969 52.203125 C 36.554688 51.914062 37.300781 51.574219 38.015625 51.195312 L 38.285156 51.046875 C 38.375 51 38.460938 50.949219 38.550781 50.898438 C 38.726562 50.800781 38.898438 50.691406 39.070312 50.589844 C 39.414062 50.375 39.75 50.152344 40.078125 49.921875 C 40.40625 49.6875 40.726562 49.445312 41.035156 49.195312 L 41.152344 49.101562 L 41.265625 49.003906 C 41.34375 48.941406 41.417969 48.878906 41.492188 48.8125 C 41.566406 48.746094 41.640625 48.683594 41.714844 48.617188 C 41.753906 48.585938 41.789062 48.550781 41.828125 48.519531 L 41.933594 48.417969 C 42.226562 48.152344 42.503906 47.875 42.777344 47.597656 C 42.910156 47.453125 43.046875 47.316406 43.175781 47.167969 C 43.238281 47.097656 43.304688 47.027344 43.367188 46.953125 C 43.429688 46.878906 43.492188 46.808594 43.554688 46.734375 C 44.058594 46.148438 44.507812 45.539062 44.921875 44.921875 C 44.976562 44.84375 45.023438 44.765625 45.074219 44.6875 C 45.125 44.609375 45.175781 44.53125 45.222656 44.453125 C 45.269531 44.375 45.320312 44.296875 45.367188 44.21875 C 45.390625 44.179688 45.414062 44.140625 45.4375 44.101562 C 45.460938 44.0625 45.484375 44.019531 45.507812 43.980469 C 45.554688 43.902344 45.597656 43.824219 45.644531 43.746094 C 45.6875 43.667969 45.730469 43.585938 45.773438 43.507812 C 45.816406 43.429688 45.863281 43.347656 45.902344 43.269531 C 45.945312 43.195312 45.984375 43.117188 46.023438 43.039062 C 46.042969 43.003906 46.0625 42.964844 46.082031 42.925781 C 46.09375 42.90625 46.105469 42.882812 46.113281 42.863281 L 46.144531 42.800781 C 46.1875 42.714844 46.226562 42.628906 46.269531 42.546875 L 46.296875 42.480469 L 46.304688 42.464844 C 46.296875 42.488281 46.308594 42.464844 46.308594 42.464844 L 46.320312 42.433594 C 46.339844 42.394531 46.355469 42.355469 46.375 42.316406 C 46.410156 42.234375 46.445312 42.15625 46.484375 42.074219 C 46.519531 41.996094 46.554688 41.917969 46.589844 41.839844 L 46.617188 41.777344 L 46.640625 41.71875 C 46.65625 41.679688 46.671875 41.640625 46.691406 41.601562 C 46.753906 41.441406 46.820312 41.28125 46.882812 41.125 C 47.117188 40.492188 47.335938 39.871094 47.496094 39.257812 C 47.519531 39.183594 47.539062 39.109375 47.5625 39.03125 C 47.570312 38.996094 47.582031 38.957031 47.59375 38.917969 C 47.601562 38.878906 47.609375 38.84375 47.621094 38.804688 C 47.65625 38.65625 47.691406 38.503906 47.726562 38.355469 C 47.734375 38.320312 47.746094 38.285156 47.753906 38.246094 C 47.761719 38.210938 47.773438 38.171875 47.777344 38.136719 C 47.792969 38.0625 47.808594 37.988281 47.820312 37.914062 C 47.851562 37.769531 47.878906 37.625 47.910156 37.484375 C 47.933594 37.339844 47.953125 37.199219 47.976562 37.058594 C 47.988281 36.988281 48 36.917969 48.011719 36.847656 C 48.023438 36.777344 48.035156 36.710938 48.042969 36.640625 C 48.058594 36.503906 48.078125 36.367188 48.09375 36.234375 C 48.109375 36.101562 48.128906 35.96875 48.136719 35.839844 C 48.148438 35.707031 48.160156 35.582031 48.171875 35.453125 C 48.183594 35.328125 48.195312 35.203125 48.199219 35.082031 C 48.207031 34.957031 48.210938 34.835938 48.21875 34.71875 C 48.21875 34.660156 48.222656 34.601562 48.226562 34.542969 C 48.226562 34.511719 48.230469 34.484375 48.230469 34.453125 C 48.230469 34.425781 48.230469 34.398438 48.230469 34.367188 C 48.234375 34.140625 48.238281 33.917969 48.242188 33.710938 C 48.238281 33.5 48.234375 33.296875 48.230469 33.105469 C 48.230469 33.058594 48.230469 33.011719 48.230469 32.964844 C 48.226562 32.917969 48.226562 32.871094 48.222656 32.828125 C 48.21875 32.738281 48.210938 32.648438 48.207031 32.5625 C 48.203125 32.476562 48.199219 32.394531 48.195312 32.316406 C 48.195312 32.273438 48.191406 32.234375 48.191406 32.195312 C 48.1875 32.15625 48.183594 32.121094 48.179688 32.082031 C 48.167969 31.933594 48.15625 31.796875 48.144531 31.667969 C 48.140625 31.605469 48.136719 31.542969 48.132812 31.488281 C 48.128906 31.429688 48.121094 31.375 48.113281 31.320312 C 48.066406 30.90625 48.042969 30.683594 48.042969 30.683594 " fill-opacity="1" fill-rule="nonzero"/></g></g></g><g clip-path="url(#c03acb1c62)"><g clip-path="url(#50f6c99463)"><g clip-path="url(#5e5837c44e)"><path fill="#000000" d="M 47.75 30.578125 C 47.75 30.578125 47.789062 30.746094 47.855469 31.070312 C 47.875 31.148438 47.886719 31.238281 47.902344 31.339844 C 47.917969 31.441406 47.933594 31.550781 47.953125 31.671875 C 47.957031 31.699219 47.960938 31.730469 47.964844 31.761719 C 47.96875 31.792969 47.972656 31.824219 47.976562 31.855469 C 47.984375 31.921875 47.988281 31.988281 47.996094 32.054688 C 48.003906 32.125 48.011719 32.195312 48.019531 32.269531 C 48.019531 32.304688 48.023438 32.339844 48.027344 32.378906 C 48.03125 32.417969 48.03125 32.457031 48.035156 32.492188 C 48.042969 32.648438 48.050781 32.8125 48.058594 32.984375 C 48.058594 33.15625 48.058594 33.335938 48.058594 33.527344 C 48.058594 33.621094 48.054688 33.714844 48.050781 33.8125 C 48.042969 33.914062 48.039062 34.011719 48.035156 34.113281 C 48.03125 34.21875 48.019531 34.320312 48.011719 34.425781 C 48 34.53125 47.992188 34.640625 47.980469 34.75 C 47.972656 34.859375 47.953125 34.96875 47.9375 35.082031 C 47.921875 35.191406 47.90625 35.308594 47.886719 35.421875 C 47.878906 35.480469 47.867188 35.539062 47.859375 35.597656 C 47.847656 35.65625 47.835938 35.714844 47.824219 35.773438 C 47.800781 35.890625 47.777344 36.011719 47.753906 36.132812 C 47.722656 36.253906 47.695312 36.378906 47.664062 36.5 C 47.648438 36.5625 47.632812 36.625 47.621094 36.6875 C 47.605469 36.75 47.585938 36.8125 47.566406 36.875 C 47.53125 37.003906 47.492188 37.128906 47.457031 37.257812 C 47.445312 37.292969 47.4375 37.324219 47.425781 37.355469 C 47.414062 37.386719 47.40625 37.417969 47.394531 37.453125 C 47.371094 37.515625 47.351562 37.582031 47.328125 37.644531 C 47.304688 37.710938 47.285156 37.777344 47.261719 37.84375 C 47.238281 37.90625 47.214844 37.972656 47.1875 38.039062 C 47.136719 38.167969 47.085938 38.300781 47.03125 38.433594 C 46.980469 38.570312 46.921875 38.699219 46.859375 38.835938 C 46.832031 38.902344 46.800781 38.96875 46.769531 39.035156 C 46.753906 39.070312 46.738281 39.101562 46.722656 39.136719 L 46.675781 39.238281 C 46.542969 39.503906 46.410156 39.777344 46.25 40.042969 C 46.214844 40.109375 46.175781 40.179688 46.136719 40.246094 C 46.117188 40.28125 46.097656 40.316406 46.078125 40.347656 L 46.0625 40.375 C 46.058594 40.382812 46.066406 40.371094 46.046875 40.398438 L 46.042969 40.410156 L 46.011719 40.457031 C 45.972656 40.519531 45.9375 40.582031 45.898438 40.644531 L 45.867188 40.691406 C 45.859375 40.707031 45.851562 40.722656 45.839844 40.742188 C 45.816406 40.773438 45.792969 40.808594 45.769531 40.84375 C 45.726562 40.914062 45.679688 40.980469 45.632812 41.050781 C 45.609375 41.085938 45.585938 41.121094 45.5625 41.152344 C 45.542969 41.1875 45.519531 41.21875 45.496094 41.253906 C 45.449219 41.316406 45.402344 41.386719 45.355469 41.453125 C 45.304688 41.515625 45.257812 41.582031 45.207031 41.648438 C 45.183594 41.683594 45.15625 41.714844 45.132812 41.75 C 45.109375 41.78125 45.082031 41.8125 45.058594 41.847656 C 45.007812 41.910156 44.953125 41.976562 44.902344 42.042969 C 44.851562 42.109375 44.796875 42.171875 44.742188 42.238281 C 44.6875 42.300781 44.636719 42.367188 44.582031 42.429688 C 44.46875 42.558594 44.359375 42.6875 44.242188 42.8125 C 44.183594 42.875 44.125 42.9375 44.066406 43 C 44.003906 43.0625 43.945312 43.125 43.882812 43.183594 L 43.792969 43.277344 L 43.699219 43.367188 C 43.636719 43.429688 43.574219 43.492188 43.511719 43.550781 C 43.445312 43.613281 43.382812 43.671875 43.316406 43.730469 C 43.25 43.789062 43.1875 43.847656 43.117188 43.90625 C 42.054688 44.84375 40.8125 45.65625 39.449219 46.285156 C 39.363281 46.324219 39.277344 46.363281 39.191406 46.402344 C 39.105469 46.441406 39.019531 46.476562 38.933594 46.511719 C 38.761719 46.585938 38.582031 46.652344 38.40625 46.722656 C 38.050781 46.851562 37.691406 46.976562 37.328125 47.082031 C 36.597656 47.292969 35.847656 47.457031 35.089844 47.5625 L 34.945312 47.585938 L 34.804688 47.601562 L 34.519531 47.632812 C 34.328125 47.652344 34.136719 47.671875 33.949219 47.683594 C 33.757812 47.695312 33.566406 47.703125 33.375 47.710938 C 33.28125 47.714844 33.183594 47.714844 33.089844 47.714844 L 32.945312 47.71875 L 32.800781 47.714844 C 32.039062 47.710938 31.28125 47.648438 30.535156 47.535156 C 29.046875 47.308594 27.621094 46.863281 26.332031 46.257812 C 26.253906 46.21875 26.171875 46.179688 26.09375 46.140625 C 26.015625 46.101562 25.933594 46.0625 25.855469 46.023438 C 25.699219 45.941406 25.542969 45.859375 25.394531 45.773438 C 25.089844 45.605469 24.796875 45.425781 24.507812 45.242188 C 24.4375 45.195312 24.367188 45.144531 24.296875 45.097656 C 24.226562 45.050781 24.15625 45.007812 24.089844 44.957031 C 24.019531 44.90625 23.953125 44.859375 23.882812 44.8125 C 23.816406 44.761719 23.75 44.714844 23.683594 44.664062 C 23.617188 44.613281 23.554688 44.5625 23.488281 44.511719 L 23.464844 44.496094 C 23.414062 44.457031 23.441406 44.480469 23.429688 44.46875 L 23.417969 44.460938 L 23.375 44.421875 C 23.34375 44.398438 23.316406 44.375 23.285156 44.351562 C 23.167969 44.257812 23.054688 44.160156 22.941406 44.0625 L 22.898438 44.027344 C 22.882812 44.015625 22.867188 44 22.851562 43.988281 C 22.820312 43.960938 22.789062 43.933594 22.757812 43.90625 C 22.695312 43.847656 22.636719 43.792969 22.574219 43.738281 C 22.515625 43.683594 22.453125 43.628906 22.394531 43.574219 C 22.363281 43.546875 22.332031 43.519531 22.304688 43.492188 C 22.277344 43.464844 22.25 43.4375 22.222656 43.410156 C 22.113281 43.300781 22.003906 43.191406 21.894531 43.082031 C 21.867188 43.054688 21.839844 43.027344 21.816406 43 C 21.789062 42.972656 21.761719 42.945312 21.734375 42.917969 C 21.6875 42.859375 21.636719 42.804688 21.585938 42.75 C 21.484375 42.636719 21.386719 42.527344 21.289062 42.414062 C 21.195312 42.304688 21.101562 42.1875 21.011719 42.078125 C 20.96875 42.019531 20.921875 41.964844 20.878906 41.910156 C 20.855469 41.878906 20.832031 41.851562 20.8125 41.824219 C 20.789062 41.796875 20.769531 41.769531 20.75 41.738281 C 20.664062 41.625 20.582031 41.511719 20.503906 41.398438 C 19.863281 40.5 19.390625 39.605469 19.050781 38.796875 C 18.710938 37.980469 18.5 37.25 18.359375 36.644531 C 18.292969 36.339844 18.234375 36.070312 18.203125 35.832031 C 18.167969 35.59375 18.136719 35.394531 18.125 35.226562 C 18.09375 34.898438 18.082031 34.726562 18.082031 34.726562 C 18.082031 34.726562 18.164062 34.882812 18.300781 35.179688 C 18.335938 35.253906 18.375 35.335938 18.421875 35.425781 C 18.46875 35.511719 18.515625 35.609375 18.570312 35.714844 C 18.625 35.820312 18.679688 35.929688 18.746094 36.046875 C 18.8125 36.164062 18.882812 36.289062 18.953125 36.417969 C 19.253906 36.9375 19.632812 37.550781 20.121094 38.203125 C 20.605469 38.855469 21.199219 39.550781 21.90625 40.226562 C 21.996094 40.3125 22.085938 40.394531 22.175781 40.480469 C 22.195312 40.503906 22.21875 40.523438 22.242188 40.546875 C 22.265625 40.566406 22.289062 40.585938 22.3125 40.609375 C 22.359375 40.648438 22.410156 40.691406 22.457031 40.730469 C 22.550781 40.816406 22.648438 40.898438 22.746094 40.984375 C 22.847656 41.0625 22.945312 41.144531 23.050781 41.226562 C 23.101562 41.265625 23.152344 41.308594 23.203125 41.347656 C 23.226562 41.371094 23.253906 41.390625 23.28125 41.410156 C 23.308594 41.429688 23.335938 41.449219 23.359375 41.46875 C 23.46875 41.546875 23.574219 41.625 23.683594 41.707031 C 23.710938 41.726562 23.738281 41.746094 23.765625 41.765625 C 23.789062 41.78125 23.816406 41.800781 23.84375 41.820312 C 23.898438 41.855469 23.953125 41.890625 24.007812 41.925781 C 24.058594 41.964844 24.113281 42 24.167969 42.035156 C 24.195312 42.054688 24.222656 42.074219 24.25 42.09375 C 24.265625 42.101562 24.277344 42.109375 24.292969 42.121094 L 24.339844 42.148438 C 24.464844 42.230469 24.59375 42.308594 24.722656 42.386719 C 24.753906 42.40625 24.785156 42.429688 24.816406 42.449219 L 24.867188 42.480469 L 24.878906 42.488281 C 24.871094 42.480469 24.910156 42.507812 24.867188 42.476562 L 24.890625 42.492188 C 24.949219 42.523438 25.011719 42.558594 25.074219 42.59375 C 25.191406 42.667969 25.320312 42.730469 25.445312 42.800781 C 25.503906 42.835938 25.570312 42.867188 25.632812 42.898438 C 25.695312 42.929688 25.757812 42.964844 25.824219 42.996094 C 25.886719 43.027344 25.953125 43.058594 26.015625 43.089844 L 26.210938 43.183594 C 26.277344 43.210938 26.34375 43.242188 26.410156 43.273438 C 26.472656 43.304688 26.542969 43.332031 26.609375 43.359375 C 26.875 43.476562 27.148438 43.582031 27.425781 43.6875 C 28.535156 44.089844 29.71875 44.371094 30.9375 44.507812 C 31.242188 44.535156 31.546875 44.566406 31.855469 44.578125 C 31.933594 44.585938 32.011719 44.585938 32.085938 44.585938 C 32.164062 44.589844 32.242188 44.59375 32.320312 44.59375 L 32.550781 44.59375 C 32.628906 44.59375 32.703125 44.59375 32.78125 44.59375 L 32.898438 44.59375 L 33.015625 44.589844 C 33.089844 44.585938 33.167969 44.582031 33.246094 44.578125 C 33.402344 44.570312 33.554688 44.566406 33.710938 44.550781 C 33.863281 44.539062 34.019531 44.523438 34.171875 44.507812 L 34.40625 44.480469 L 34.519531 44.46875 L 34.636719 44.449219 C 35.25 44.367188 35.859375 44.242188 36.453125 44.082031 L 36.679688 44.019531 C 36.753906 44 36.824219 43.972656 36.898438 43.953125 C 37.046875 43.910156 37.195312 43.859375 37.339844 43.8125 C 37.632812 43.714844 37.917969 43.605469 38.203125 43.492188 C 38.484375 43.375 38.765625 43.253906 39.039062 43.121094 L 39.242188 43.019531 C 39.308594 42.988281 39.378906 42.953125 39.445312 42.917969 C 39.511719 42.882812 39.578125 42.847656 39.644531 42.8125 C 39.675781 42.792969 39.710938 42.777344 39.742188 42.757812 L 39.839844 42.703125 C 40.367188 42.410156 40.867188 42.085938 41.34375 41.742188 C 41.820312 41.398438 42.265625 41.027344 42.683594 40.644531 C 42.890625 40.449219 43.097656 40.253906 43.289062 40.050781 C 43.339844 40 43.386719 39.953125 43.433594 39.902344 C 43.484375 39.851562 43.53125 39.800781 43.578125 39.75 C 43.621094 39.695312 43.671875 39.644531 43.714844 39.597656 C 43.757812 39.546875 43.804688 39.5 43.847656 39.449219 C 43.867188 39.425781 43.890625 39.398438 43.910156 39.375 C 43.921875 39.363281 43.933594 39.347656 43.945312 39.335938 L 43.980469 39.292969 C 44.027344 39.234375 44.074219 39.179688 44.121094 39.121094 L 44.15625 39.082031 L 44.164062 39.070312 C 44.152344 39.089844 44.167969 39.070312 44.164062 39.070312 L 44.179688 39.050781 C 44.203125 39.023438 44.222656 39 44.242188 38.972656 C 44.285156 38.917969 44.328125 38.867188 44.367188 38.816406 C 44.410156 38.761719 44.453125 38.710938 44.492188 38.65625 L 44.554688 38.578125 C 44.574219 38.550781 44.589844 38.527344 44.609375 38.5 C 44.6875 38.390625 44.765625 38.285156 44.84375 38.183594 C 45.136719 37.753906 45.417969 37.332031 45.65625 36.90625 C 45.683594 36.855469 45.714844 36.800781 45.746094 36.75 C 45.761719 36.722656 45.777344 36.695312 45.789062 36.671875 C 45.804688 36.644531 45.816406 36.617188 45.832031 36.589844 C 45.886719 36.484375 45.941406 36.378906 45.996094 36.277344 C 46.023438 36.226562 46.054688 36.175781 46.078125 36.121094 C 46.101562 36.070312 46.128906 36.015625 46.152344 35.964844 C 46.203125 35.863281 46.253906 35.761719 46.300781 35.660156 C 46.347656 35.554688 46.390625 35.453125 46.433594 35.355469 C 46.476562 35.253906 46.523438 35.15625 46.5625 35.054688 C 46.601562 34.957031 46.640625 34.859375 46.679688 34.761719 C 46.71875 34.664062 46.757812 34.570312 46.792969 34.472656 C 46.824219 34.378906 46.859375 34.285156 46.890625 34.191406 C 46.925781 34.097656 46.960938 34.007812 46.984375 33.917969 C 47.015625 33.824219 47.042969 33.734375 47.070312 33.648438 C 47.097656 33.5625 47.128906 33.476562 47.152344 33.390625 C 47.199219 33.21875 47.246094 33.054688 47.289062 32.898438 C 47.328125 32.738281 47.367188 32.585938 47.402344 32.441406 C 47.410156 32.40625 47.417969 32.367188 47.429688 32.335938 C 47.433594 32.296875 47.441406 32.261719 47.449219 32.230469 C 47.464844 32.160156 47.480469 32.09375 47.492188 32.027344 C 47.507812 31.960938 47.519531 31.898438 47.535156 31.835938 C 47.539062 31.808594 47.546875 31.777344 47.554688 31.746094 C 47.558594 31.71875 47.5625 31.6875 47.566406 31.660156 C 47.589844 31.546875 47.609375 31.4375 47.625 31.34375 C 47.644531 31.242188 47.664062 31.15625 47.671875 31.074219 C 47.722656 30.75 47.75 30.578125 47.75 30.578125 " fill-opacity="1" fill-rule="nonzero"/></g></g></g><g clip-path="url(#d8eeb59770)"><g clip-path="url(#2e23a1dc7d)"><g clip-path="url(#b286c3fc9c)"><path fill="#000000" d="M 24.625 26.042969 C 25.011719 25.789062 25.449219 25.769531 25.601562 26 C 25.757812 26.230469 25.570312 26.621094 25.183594 26.875 C 24.800781 27.128906 24.363281 27.148438 24.207031 26.917969 C 24.054688 26.6875 24.242188 26.296875 24.625 26.042969 Z M 17.847656 26.226562 C 17.847656 27.101562 18.390625 27.886719 19.214844 28.203125 C 21.183594 28.964844 25.117188 29.34375 31.421875 25.191406 C 35.175781 22.722656 39.21875 22.539062 43.007812 25.011719 C 43.050781 25.039062 43.09375 25.066406 43.136719 25.09375 C 43.179688 25.121094 43.222656 25.148438 43.265625 25.179688 C 43.347656 25.234375 43.429688 25.292969 43.515625 25.347656 C 43.554688 25.378906 43.597656 25.40625 43.636719 25.433594 C 43.679688 25.460938 43.71875 25.492188 43.757812 25.519531 C 43.839844 25.578125 43.921875 25.632812 44 25.6875 C 44.078125 25.746094 44.15625 25.804688 44.230469 25.859375 C 44.308594 25.917969 44.386719 25.972656 44.460938 26.03125 C 44.535156 26.085938 44.609375 26.144531 44.679688 26.199219 C 44.753906 26.257812 44.828125 26.308594 44.894531 26.367188 C 44.964844 26.425781 45.035156 26.480469 45.101562 26.535156 C 45.136719 26.5625 45.171875 26.589844 45.207031 26.617188 C 45.242188 26.644531 45.273438 26.671875 45.304688 26.699219 C 45.371094 26.753906 45.433594 26.808594 45.5 26.859375 C 45.5625 26.914062 45.628906 26.964844 45.6875 27.019531 C 45.746094 27.074219 45.804688 27.125 45.867188 27.175781 C 45.925781 27.226562 45.984375 27.277344 46.039062 27.328125 C 46.148438 27.429688 46.257812 27.523438 46.363281 27.617188 C 46.464844 27.707031 46.5625 27.800781 46.652344 27.882812 C 46.746094 27.96875 46.835938 28.050781 46.914062 28.125 C 46.992188 28.203125 47.070312 28.273438 47.136719 28.339844 C 47.171875 28.371094 47.207031 28.40625 47.238281 28.433594 C 47.269531 28.464844 47.300781 28.492188 47.328125 28.519531 C 47.4375 28.628906 47.53125 28.714844 47.589844 28.773438 C 47.621094 28.800781 47.644531 28.820312 47.660156 28.835938 C 47.675781 28.851562 47.683594 28.859375 47.683594 28.859375 C 47.683594 28.859375 47.6875 28.847656 47.691406 28.828125 C 47.695312 28.804688 47.699219 28.773438 47.707031 28.734375 C 47.71875 28.652344 47.742188 28.53125 47.757812 28.371094 C 47.78125 28.210938 47.792969 28.015625 47.808594 27.785156 C 47.8125 27.667969 47.8125 27.542969 47.816406 27.410156 C 47.816406 27.34375 47.8125 27.273438 47.8125 27.203125 C 47.8125 27.167969 47.8125 27.132812 47.8125 27.09375 C 47.8125 27.058594 47.808594 27.023438 47.808594 26.984375 C 47.800781 26.835938 47.792969 26.679688 47.78125 26.511719 C 47.765625 26.347656 47.746094 26.175781 47.722656 25.992188 C 47.699219 25.8125 47.664062 25.628906 47.632812 25.433594 C 47.597656 25.238281 47.550781 25.039062 47.503906 24.832031 C 47.480469 24.730469 47.453125 24.625 47.421875 24.519531 C 47.394531 24.414062 47.363281 24.304688 47.332031 24.195312 C 47.316406 24.144531 47.300781 24.089844 47.28125 24.035156 C 47.261719 23.980469 47.246094 23.925781 47.226562 23.867188 C 47.191406 23.757812 47.152344 23.644531 47.113281 23.53125 C 47.070312 23.421875 47.027344 23.304688 46.980469 23.191406 C 46.957031 23.132812 46.933594 23.074219 46.914062 23.015625 C 46.886719 22.957031 46.863281 22.902344 46.835938 22.84375 C 46.785156 22.726562 46.734375 22.609375 46.679688 22.488281 C 46.625 22.371094 46.566406 22.253906 46.507812 22.132812 C 46.027344 21.175781 45.378906 20.191406 44.550781 19.242188 C 44.449219 19.125 44.34375 19.003906 44.234375 18.886719 C 44.179688 18.828125 44.125 18.769531 44.066406 18.714844 C 44.023438 18.667969 43.976562 18.621094 43.933594 18.574219 C 43.871094 18.523438 43.8125 18.46875 43.75 18.414062 C 43.664062 18.34375 43.574219 18.273438 43.484375 18.199219 C 43.121094 17.902344 42.691406 17.59375 42.210938 17.277344 C 42.085938 17.203125 41.960938 17.125 41.835938 17.042969 C 41.703125 16.972656 41.574219 16.894531 41.4375 16.820312 C 41.402344 16.800781 41.371094 16.78125 41.335938 16.761719 C 41.300781 16.746094 41.265625 16.726562 41.230469 16.707031 C 41.160156 16.671875 41.089844 16.636719 41.019531 16.601562 C 40.875 16.523438 40.726562 16.460938 40.578125 16.390625 C 39.976562 16.121094 39.316406 15.886719 38.617188 15.710938 C 38.574219 15.699219 38.527344 15.6875 38.484375 15.675781 C 38.441406 15.667969 38.394531 15.65625 38.351562 15.648438 C 38.261719 15.628906 38.171875 15.609375 38.082031 15.589844 L 38.015625 15.574219 L 37.945312 15.5625 C 37.902344 15.554688 37.855469 15.546875 37.808594 15.539062 C 37.71875 15.523438 37.625 15.507812 37.535156 15.492188 C 37.441406 15.480469 37.347656 15.46875 37.253906 15.457031 C 37.164062 15.445312 37.066406 15.429688 36.972656 15.425781 C 36.785156 15.410156 36.59375 15.386719 36.402344 15.382812 C 36.308594 15.378906 36.210938 15.375 36.113281 15.367188 C 36.019531 15.367188 35.921875 15.367188 35.824219 15.367188 L 35.679688 15.363281 C 35.628906 15.363281 35.582031 15.367188 35.53125 15.367188 C 35.433594 15.371094 35.335938 15.375 35.238281 15.375 C 35.191406 15.375 35.140625 15.382812 35.09375 15.382812 L 34.945312 15.394531 L 34.800781 15.402344 L 34.726562 15.40625 L 34.652344 15.414062 C 34.457031 15.433594 34.257812 15.453125 34.0625 15.480469 C 33.671875 15.527344 33.28125 15.605469 32.894531 15.683594 C 32.796875 15.707031 32.699219 15.726562 32.601562 15.75 L 32.457031 15.785156 L 32.316406 15.820312 C 32.21875 15.847656 32.125 15.871094 32.027344 15.898438 C 31.933594 15.925781 31.839844 15.953125 31.742188 15.980469 L 31.601562 16.019531 L 31.460938 16.066406 C 31.367188 16.09375 31.273438 16.125 31.179688 16.15625 C 31.089844 16.1875 30.996094 16.21875 30.90625 16.25 C 30.8125 16.285156 30.71875 16.316406 30.628906 16.351562 C 30.539062 16.386719 30.449219 16.417969 30.359375 16.453125 C 30.269531 16.488281 30.179688 16.523438 30.089844 16.558594 C 29.910156 16.628906 29.738281 16.707031 29.5625 16.78125 C 28.871094 17.085938 28.214844 17.421875 27.605469 17.765625 C 27 18.109375 26.4375 18.460938 25.929688 18.800781 C 25.421875 19.144531 24.96875 19.476562 24.574219 19.78125 C 24.179688 20.085938 23.84375 20.359375 23.574219 20.59375 C 23.027344 21.058594 22.738281 21.351562 22.738281 21.351562 C 22.738281 21.351562 23.003906 21.035156 23.503906 20.519531 C 23.757812 20.265625 24.066406 19.957031 24.4375 19.617188 C 24.804688 19.277344 25.234375 18.90625 25.714844 18.515625 C 26.195312 18.125 26.730469 17.71875 27.320312 17.3125 C 27.910156 16.910156 28.546875 16.507812 29.234375 16.132812 C 29.410156 16.039062 29.582031 15.945312 29.761719 15.855469 C 29.847656 15.8125 29.9375 15.765625 30.027344 15.71875 C 30.121094 15.675781 30.210938 15.632812 30.300781 15.589844 C 30.394531 15.542969 30.484375 15.503906 30.578125 15.460938 C 30.671875 15.417969 30.765625 15.375 30.859375 15.335938 C 30.953125 15.296875 31.050781 15.253906 31.144531 15.214844 L 31.433594 15.097656 C 31.53125 15.0625 31.625 15.023438 31.722656 14.984375 C 31.824219 14.949219 31.921875 14.914062 32.019531 14.878906 L 32.167969 14.828125 L 32.320312 14.777344 C 32.417969 14.746094 32.519531 14.710938 32.621094 14.679688 C 33.027344 14.558594 33.4375 14.441406 33.855469 14.351562 C 34.0625 14.304688 34.277344 14.265625 34.488281 14.226562 L 34.566406 14.210938 L 34.644531 14.199219 L 34.964844 14.148438 C 34.996094 14.144531 35.03125 14.140625 35.0625 14.136719 L 34.878906 14.109375 C 34.691406 14.082031 34.503906 14.058594 34.316406 14.039062 C 34.125 14.019531 33.9375 14.003906 33.746094 13.988281 L 33.460938 13.96875 C 33.367188 13.964844 33.273438 13.960938 33.175781 13.957031 L 32.605469 13.945312 C 32.417969 13.945312 32.226562 13.953125 32.035156 13.957031 L 31.75 13.964844 C 31.65625 13.96875 31.5625 13.976562 31.464844 13.984375 C 31.277344 14 31.089844 14.011719 30.898438 14.03125 C 30.851562 14.035156 30.804688 14.039062 30.757812 14.046875 L 30.617188 14.0625 C 30.523438 14.074219 30.429688 14.089844 30.335938 14.101562 C 30.242188 14.113281 30.148438 14.125 30.054688 14.140625 L 29.984375 14.148438 L 29.917969 14.160156 L 29.777344 14.1875 C 29.589844 14.21875 29.40625 14.253906 29.222656 14.289062 L 29.15625 14.304688 L 29.085938 14.320312 L 28.949219 14.351562 C 28.859375 14.375 28.769531 14.394531 28.675781 14.417969 C 28.585938 14.441406 28.496094 14.460938 28.40625 14.484375 C 28.316406 14.503906 28.226562 14.535156 28.136719 14.558594 C 27.960938 14.613281 27.78125 14.664062 27.605469 14.71875 C 27.511719 14.746094 27.421875 14.78125 27.328125 14.8125 C 27.25 14.839844 27.175781 14.867188 27.097656 14.894531 C 26.921875 14.957031 26.746094 15.015625 26.574219 15.089844 C 26.40625 15.160156 26.242188 15.230469 26.074219 15.296875 L 25.953125 15.351562 L 25.828125 15.410156 C 25.75 15.449219 25.667969 15.484375 25.585938 15.523438 C 25.507812 15.5625 25.425781 15.601562 25.347656 15.640625 L 25.226562 15.699219 C 25.1875 15.71875 25.152344 15.742188 25.113281 15.761719 C 25.035156 15.804688 24.957031 15.84375 24.878906 15.886719 C 24.800781 15.929688 24.726562 15.972656 24.648438 16.015625 C 24.496094 16.097656 24.347656 16.1875 24.203125 16.28125 C 24.128906 16.324219 24.054688 16.371094 23.980469 16.417969 C 23.910156 16.460938 23.835938 16.507812 23.765625 16.554688 C 23.625 16.652344 23.484375 16.746094 23.347656 16.84375 C 23.277344 16.894531 23.210938 16.941406 23.140625 16.988281 C 23.074219 17.039062 23.007812 17.089844 22.941406 17.140625 C 22.8125 17.242188 22.683594 17.34375 22.550781 17.445312 C 22.488281 17.496094 22.425781 17.550781 22.363281 17.605469 C 22.304688 17.65625 22.242188 17.710938 22.179688 17.761719 C 22.121094 17.816406 22.058594 17.871094 22 17.921875 C 21.941406 17.976562 21.878906 18.027344 21.820312 18.082031 C 21.707031 18.195312 21.59375 18.304688 21.480469 18.414062 C 21.425781 18.46875 21.371094 18.523438 21.316406 18.578125 C 21.261719 18.632812 21.210938 18.691406 21.15625 18.746094 C 21.050781 18.859375 20.949219 18.972656 20.847656 19.085938 C 20.824219 19.113281 20.796875 19.140625 20.773438 19.167969 C 20.746094 19.195312 20.722656 19.226562 20.699219 19.253906 C 20.652344 19.3125 20.605469 19.371094 20.558594 19.425781 C 20.460938 19.539062 20.371094 19.65625 20.28125 19.769531 C 20.191406 19.882812 20.105469 20 20.023438 20.117188 C 19.9375 20.230469 19.855469 20.34375 19.777344 20.460938 C 19.699219 20.578125 19.625 20.695312 19.550781 20.808594 C 19.515625 20.867188 19.476562 20.921875 19.441406 20.980469 C 19.40625 21.035156 19.371094 21.09375 19.335938 21.152344 C 19.269531 21.265625 19.207031 21.382812 19.144531 21.496094 C 19.109375 21.550781 19.078125 21.609375 19.050781 21.664062 C 19.019531 21.722656 18.988281 21.777344 18.960938 21.832031 C 18.847656 22.0625 18.738281 22.285156 18.636719 22.5 C 18.542969 22.722656 18.457031 22.9375 18.375 23.148438 C 17.957031 24.421875 17.847656 25.472656 17.847656 26.226562 " fill-opacity="1" fill-rule="nonzero"/></g></g></g><g clip-path="url(#ff789e31a0)"><g clip-path="url(#61c7c73f4b)"><g clip-path="url(#f8bd781587)"><path fill="#000000" d="M 28.78125 27.4375 C 28.78125 27.4375 28.828125 27.457031 28.914062 27.488281 C 28.9375 27.5 28.960938 27.507812 28.984375 27.519531 C 29.011719 27.53125 29.039062 27.539062 29.070312 27.550781 C 29.132812 27.574219 29.199219 27.601562 29.277344 27.628906 C 29.433594 27.691406 29.617188 27.753906 29.828125 27.824219 C 30.035156 27.890625 30.265625 27.960938 30.515625 28.023438 C 30.765625 28.085938 31.035156 28.144531 31.316406 28.191406 C 31.59375 28.238281 31.886719 28.277344 32.1875 28.300781 C 32.484375 28.320312 32.789062 28.332031 33.097656 28.324219 C 33.402344 28.3125 33.710938 28.289062 34.015625 28.246094 C 34.164062 28.226562 34.316406 28.195312 34.464844 28.167969 L 34.574219 28.144531 L 34.601562 28.136719 L 34.609375 28.136719 C 34.605469 28.136719 34.625 28.132812 34.601562 28.136719 L 34.605469 28.136719 L 34.621094 28.132812 L 34.753906 28.101562 L 34.808594 28.085938 C 34.84375 28.078125 34.878906 28.070312 34.917969 28.058594 C 35.226562 27.976562 35.554688 27.878906 35.890625 27.789062 C 35.976562 27.765625 36.0625 27.742188 36.148438 27.722656 C 36.191406 27.710938 36.234375 27.699219 36.277344 27.6875 C 36.320312 27.679688 36.363281 27.667969 36.40625 27.660156 C 36.492188 27.640625 36.578125 27.621094 36.667969 27.605469 C 36.753906 27.589844 36.839844 27.574219 36.925781 27.5625 C 36.972656 27.554688 37.015625 27.550781 37.058594 27.542969 L 37.089844 27.539062 L 37.097656 27.539062 C 37.089844 27.542969 37.113281 27.535156 37.113281 27.535156 L 37.132812 27.535156 C 37.152344 27.535156 37.171875 27.53125 37.191406 27.53125 C 37.230469 27.527344 37.269531 27.523438 37.3125 27.519531 C 37.355469 27.519531 37.402344 27.515625 37.449219 27.511719 C 37.621094 27.503906 37.785156 27.507812 37.945312 27.519531 C 38.261719 27.546875 38.554688 27.609375 38.800781 27.699219 C 39.042969 27.785156 39.242188 27.894531 39.390625 28.003906 C 39.539062 28.113281 39.636719 28.214844 39.699219 28.285156 C 39.761719 28.359375 39.789062 28.402344 39.789062 28.402344 C 39.789062 28.402344 39.734375 28.398438 39.644531 28.386719 C 39.625 28.382812 39.597656 28.382812 39.570312 28.382812 C 39.542969 28.382812 39.511719 28.378906 39.480469 28.378906 C 39.449219 28.375 39.414062 28.378906 39.378906 28.378906 C 39.34375 28.378906 39.308594 28.378906 39.265625 28.382812 C 39.109375 28.386719 38.925781 28.414062 38.726562 28.457031 C 38.527344 28.5 38.308594 28.566406 38.082031 28.65625 C 37.96875 28.699219 37.851562 28.75 37.734375 28.800781 C 37.707031 28.816406 37.679688 28.832031 37.652344 28.84375 C 37.617188 28.859375 37.585938 28.875 37.550781 28.890625 C 37.535156 28.898438 37.515625 28.90625 37.5 28.914062 L 37.484375 28.917969 L 37.480469 28.921875 C 37.476562 28.921875 37.5 28.917969 37.488281 28.917969 L 37.484375 28.921875 L 37.460938 28.933594 C 37.429688 28.949219 37.398438 28.964844 37.367188 28.980469 C 37.234375 29.050781 37.105469 29.121094 36.96875 29.191406 C 36.933594 29.207031 36.898438 29.226562 36.863281 29.246094 C 36.828125 29.265625 36.792969 29.285156 36.757812 29.300781 C 36.683594 29.339844 36.609375 29.378906 36.535156 29.417969 C 36.386719 29.496094 36.226562 29.574219 36.058594 29.652344 C 35.972656 29.691406 35.886719 29.730469 35.800781 29.769531 C 35.753906 29.785156 35.710938 29.804688 35.664062 29.824219 C 35.617188 29.84375 35.570312 29.859375 35.523438 29.878906 C 35.480469 29.898438 35.425781 29.914062 35.375 29.933594 L 35.300781 29.957031 L 35.234375 29.980469 L 35.167969 30 L 35.152344 30.007812 L 35.148438 30.007812 L 35.132812 30.011719 L 35.125 30.015625 L 35.085938 30.027344 C 35.035156 30.039062 34.984375 30.054688 34.929688 30.066406 C 34.722656 30.121094 34.515625 30.164062 34.300781 30.195312 C 33.878906 30.257812 33.449219 30.265625 33.035156 30.230469 C 32.621094 30.199219 32.21875 30.121094 31.839844 30.007812 C 31.464844 29.894531 31.117188 29.746094 30.804688 29.578125 C 30.492188 29.410156 30.214844 29.21875 29.980469 29.023438 C 29.742188 28.828125 29.546875 28.628906 29.390625 28.441406 C 29.230469 28.253906 29.109375 28.082031 29.019531 27.929688 C 29 27.890625 28.976562 27.859375 28.957031 27.824219 C 28.941406 27.789062 28.921875 27.753906 28.90625 27.726562 C 28.890625 27.695312 28.878906 27.667969 28.863281 27.640625 C 28.855469 27.617188 28.84375 27.59375 28.835938 27.570312 C 28.796875 27.484375 28.78125 27.4375 28.78125 27.4375 " fill-opacity="1" fill-rule="nonzero"/></g></g></g><g clip-path="url(#f81849e0c4)"><g clip-path="url(#e09cc6e046)"><g clip-path="url(#20e4c3bf3b)"><path fill="#000000" d="M 25 15.019531 C 25 15.019531 25.027344 14.976562 25.078125 14.898438 C 25.089844 14.878906 25.105469 14.859375 25.121094 14.835938 C 25.136719 14.8125 25.152344 14.785156 25.171875 14.757812 C 25.207031 14.707031 25.246094 14.644531 25.292969 14.578125 C 25.386719 14.441406 25.5 14.285156 25.628906 14.109375 C 25.761719 13.933594 25.910156 13.746094 26.078125 13.554688 C 26.246094 13.359375 26.429688 13.160156 26.632812 12.960938 C 26.832031 12.765625 27.050781 12.566406 27.28125 12.378906 C 27.511719 12.191406 27.757812 12.007812 28.011719 11.839844 C 28.269531 11.675781 28.535156 11.519531 28.808594 11.382812 C 28.941406 11.3125 29.082031 11.253906 29.222656 11.191406 L 29.324219 11.148438 L 29.351562 11.136719 L 29.359375 11.132812 C 29.355469 11.136719 29.371094 11.128906 29.351562 11.136719 L 29.355469 11.136719 L 29.371094 11.128906 L 29.496094 11.082031 L 29.546875 11.0625 C 29.582031 11.046875 29.621094 11.035156 29.652344 11.023438 C 29.957031 10.914062 30.28125 10.808594 30.609375 10.691406 C 30.695312 10.660156 30.773438 10.632812 30.859375 10.601562 C 30.898438 10.582031 30.941406 10.570312 30.980469 10.550781 C 31.023438 10.535156 31.0625 10.519531 31.105469 10.503906 C 31.1875 10.46875 31.269531 10.4375 31.347656 10.398438 C 31.429688 10.363281 31.511719 10.324219 31.589844 10.285156 C 31.628906 10.265625 31.667969 10.246094 31.707031 10.226562 L 31.734375 10.210938 L 31.742188 10.207031 C 31.734375 10.210938 31.757812 10.203125 31.753906 10.203125 L 31.757812 10.199219 L 31.769531 10.191406 C 31.789062 10.183594 31.804688 10.171875 31.820312 10.164062 C 31.855469 10.140625 31.890625 10.121094 31.925781 10.101562 C 31.964844 10.078125 32.003906 10.054688 32.042969 10.03125 C 32.1875 9.9375 32.320312 9.84375 32.445312 9.742188 C 32.691406 9.539062 32.890625 9.324219 33.039062 9.109375 C 33.1875 8.898438 33.289062 8.695312 33.34375 8.523438 C 33.402344 8.351562 33.425781 8.214844 33.433594 8.117188 C 33.4375 8.023438 33.4375 7.976562 33.4375 7.976562 C 33.4375 7.976562 33.398438 8.007812 33.332031 8.066406 C 33.3125 8.082031 33.292969 8.097656 33.269531 8.113281 C 33.25 8.128906 33.226562 8.148438 33.199219 8.167969 C 33.175781 8.1875 33.148438 8.203125 33.117188 8.226562 C 33.085938 8.246094 33.058594 8.265625 33.023438 8.285156 C 32.890625 8.371094 32.726562 8.453125 32.539062 8.53125 C 32.347656 8.609375 32.132812 8.679688 31.894531 8.734375 C 31.777344 8.765625 31.648438 8.789062 31.523438 8.8125 C 31.492188 8.816406 31.460938 8.824219 31.433594 8.828125 C 31.398438 8.832031 31.359375 8.839844 31.324219 8.847656 C 31.304688 8.847656 31.285156 8.851562 31.265625 8.855469 L 31.253906 8.859375 L 31.25 8.859375 C 31.246094 8.859375 31.265625 8.851562 31.257812 8.855469 L 31.25 8.855469 L 31.222656 8.859375 C 31.1875 8.867188 31.152344 8.871094 31.117188 8.875 C 30.972656 8.894531 30.824219 8.914062 30.671875 8.929688 C 30.632812 8.9375 30.59375 8.941406 30.554688 8.945312 C 30.515625 8.949219 30.472656 8.953125 30.433594 8.960938 C 30.355469 8.96875 30.269531 8.980469 30.1875 8.992188 C 30.015625 9.011719 29.839844 9.039062 29.65625 9.070312 C 29.566406 9.085938 29.472656 9.105469 29.378906 9.125 C 29.332031 9.132812 29.285156 9.144531 29.238281 9.15625 C 29.1875 9.167969 29.140625 9.179688 29.089844 9.1875 C 29.042969 9.199219 28.988281 9.214844 28.9375 9.230469 L 28.859375 9.253906 L 28.792969 9.273438 L 28.730469 9.289062 L 28.710938 9.296875 L 28.707031 9.296875 L 28.691406 9.300781 L 28.683594 9.304688 L 28.644531 9.320312 C 28.59375 9.335938 28.546875 9.355469 28.496094 9.371094 C 28.292969 9.445312 28.097656 9.527344 27.90625 9.625 C 27.523438 9.816406 27.171875 10.054688 26.847656 10.316406 C 26.527344 10.578125 26.246094 10.871094 26.003906 11.175781 C 25.761719 11.484375 25.5625 11.800781 25.40625 12.117188 C 25.25 12.433594 25.132812 12.746094 25.054688 13.039062 C 24.976562 13.332031 24.929688 13.605469 24.910156 13.851562 C 24.894531 14.09375 24.894531 14.304688 24.910156 14.480469 C 24.914062 14.523438 24.914062 14.5625 24.921875 14.601562 C 24.925781 14.640625 24.929688 14.675781 24.933594 14.710938 C 24.941406 14.746094 24.945312 14.773438 24.949219 14.804688 C 24.957031 14.832031 24.960938 14.855469 24.964844 14.878906 C 24.984375 14.96875 25 15.019531 25 15.019531 " fill-opacity="1" fill-rule="nonzero"/></g></g></g><g fill="#000000" fill-opacity="1"><g transform="translate(88.602867, 116.146158)"><g><path d="M 10.828125 0 C 8.910156 0 7.265625 -0.6875 5.890625 -2.0625 C 4.515625 -3.4375 3.828125 -5.082031 3.828125 -7 L 3.828125 -41.015625 C 3.828125 -42.929688 4.515625 -44.554688 5.890625 -45.890625 C 7.265625 -47.234375 8.910156 -47.90625 10.828125 -47.90625 L 23.859375 -47.90625 C 25.835938 -47.90625 27.5 -47.234375 28.84375 -45.890625 C 30.1875 -44.554688 30.859375 -42.929688 30.859375 -41.015625 L 30.859375 -26.453125 C 30.859375 -24.535156 30.1875 -22.890625 28.84375 -21.515625 C 27.5 -20.140625 25.835938 -19.453125 23.859375 -19.453125 L 12.84375 -19.453125 L 12.84375 -12.453125 C 12.84375 -11.492188 13.175781 -10.679688 13.84375 -10.015625 C 14.519531 -9.347656 15.367188 -9.015625 16.390625 -9.015625 L 28.84375 -9.015625 L 30.859375 0 Z M 12.84375 -28.453125 L 18.40625 -28.453125 C 19.363281 -28.453125 20.175781 -28.785156 20.84375 -29.453125 C 21.507812 -30.128906 21.84375 -30.945312 21.84375 -31.90625 L 21.84375 -35.453125 C 21.84375 -36.410156 21.507812 -37.222656 20.84375 -37.890625 C 20.175781 -38.566406 19.363281 -38.90625 18.40625 -38.90625 L 16.390625 -38.90625 C 15.367188 -38.90625 14.519531 -38.566406 13.84375 -37.890625 C 13.175781 -37.222656 12.84375 -36.410156 12.84375 -35.453125 Z M 12.84375 -28.453125 "/></g></g></g><g fill="#000000" fill-opacity="1"><g transform="translate(120.88701, 116.146158)"><g><path d="M 3.828125 0 L 3.828125 -69.765625 L 12.84375 -71.78125 L 12.84375 -47.90625 L 24.25 -47.90625 L 22.140625 -38.90625 L 12.84375 -38.90625 L 12.84375 0 Z M 3.828125 0 "/></g></g></g><g fill="#000000" fill-opacity="1"><g transform="translate(143.686891, 116.146158)"><g><path d="M 3.828125 0 L 3.828125 -69.765625 L 12.84375 -71.78125 L 12.84375 -47.90625 L 24.25 -47.90625 L 22.140625 -38.90625 L 12.84375 -38.90625 L 12.84375 0 Z M 3.828125 0 "/></g></g></g><g fill="#000000" fill-opacity="1"><g transform="translate(166.486774, 116.146158)"><g><path d="M 10.828125 0 C 8.910156 0 7.265625 -0.671875 5.890625 -2.015625 C 4.515625 -3.359375 3.828125 -5.019531 3.828125 -7 L 3.828125 -21.46875 C 3.828125 -23.382812 4.515625 -25.023438 5.890625 -26.390625 C 7.265625 -27.765625 8.910156 -28.453125 10.828125 -28.453125 L 18.296875 -28.453125 C 19.328125 -28.453125 20.175781 -28.785156 20.84375 -29.453125 C 21.507812 -30.128906 21.84375 -30.945312 21.84375 -31.90625 L 21.84375 -35.453125 C 21.84375 -36.410156 21.507812 -37.222656 20.84375 -37.890625 C 20.175781 -38.566406 19.328125 -38.90625 18.296875 -38.90625 L 7.953125 -38.90625 L 9.96875 -47.90625 L 23.859375 -47.90625 C 25.773438 -47.90625 27.421875 -47.21875 28.796875 -45.84375 C 30.171875 -44.476562 30.859375 -42.835938 30.859375 -40.921875 L 30.859375 0 Z M 16.296875 -9.015625 L 21.84375 -9.015625 L 21.84375 -19.453125 L 16.296875 -19.453125 C 15.335938 -19.453125 14.519531 -19.113281 13.84375 -18.4375 C 13.175781 -17.769531 12.84375 -16.957031 12.84375 -16 L 12.84375 -12.453125 C 12.84375 -11.492188 13.175781 -10.679688 13.84375 -10.015625 C 14.519531 -9.347656 15.335938 -9.015625 16.296875 -9.015625 Z M 16.296875 -9.015625 "/></g></g></g><g fill="#000000" fill-opacity="1"><g transform="translate(201.494518, 116.146158)"><g><path d="M 12.65625 0 C 10.738281 0 9.109375 -0.671875 7.765625 -2.015625 C 6.421875 -3.359375 5.75 -4.988281 5.75 -6.90625 L 5.75 -21.75 L 14.65625 -19.734375 L 14.65625 -12.359375 C 14.65625 -11.398438 14.988281 -10.582031 15.65625 -9.90625 C 16.332031 -9.238281 17.117188 -8.90625 18.015625 -8.90625 L 28.9375 -8.90625 C 29.894531 -8.90625 30.707031 -9.238281 31.375 -9.90625 C 32.050781 -10.582031 32.390625 -11.398438 32.390625 -12.359375 L 32.390625 -29.234375 C 32.390625 -30.191406 32.050781 -31.003906 31.375 -31.671875 C 30.707031 -32.335938 29.894531 -32.671875 28.9375 -32.671875 L 12.65625 -32.671875 C 10.738281 -32.671875 9.109375 -33.34375 7.765625 -34.6875 C 6.421875 -36.03125 5.75 -37.660156 5.75 -39.578125 L 5.75 -60.1875 C 5.75 -62.101562 6.421875 -63.726562 7.765625 -65.0625 C 9.109375 -66.40625 10.738281 -67.078125 12.65625 -67.078125 L 34.40625 -67.078125 C 36.320312 -67.078125 37.945312 -66.40625 39.28125 -65.0625 C 40.625 -63.726562 41.296875 -62.101562 41.296875 -60.1875 L 41.296875 -49.828125 L 32.390625 -51.9375 L 32.390625 -54.71875 C 32.390625 -55.675781 32.050781 -56.488281 31.375 -57.15625 C 30.707031 -57.832031 29.894531 -58.171875 28.9375 -58.171875 L 18.015625 -58.171875 C 17.117188 -58.171875 16.332031 -57.832031 15.65625 -57.15625 C 14.988281 -56.488281 14.65625 -55.675781 14.65625 -54.71875 L 14.65625 -45.046875 C 14.65625 -44.085938 14.988281 -43.269531 15.65625 -42.59375 C 16.332031 -41.925781 17.117188 -41.59375 18.015625 -41.59375 L 34.40625 -41.59375 C 36.320312 -41.59375 37.945312 -40.921875 39.28125 -39.578125 C 40.625 -38.234375 41.296875 -36.601562 41.296875 -34.6875 L 41.296875 -6.90625 C 41.296875 -4.988281 40.625 -3.359375 39.28125 -2.015625 C 37.945312 -0.671875 36.320312 0 34.40625 0 Z M 12.65625 0 "/></g></g></g><g fill="#000000" fill-opacity="1"><g transform="translate(246.136932, 116.146158)"><g><path d="M 3.828125 0 L 3.828125 -69.765625 L 12.84375 -71.78125 L 12.84375 -47.90625 L 24.25 -47.90625 L 22.140625 -38.90625 L 12.84375 -38.90625 L 12.84375 0 Z M 3.828125 0 "/></g></g></g><g fill="#000000" fill-opacity="1"><g transform="translate(268.936815, 116.146158)"><g><path d="M 11.59375 0 C 9.613281 0 7.953125 -0.6875 6.609375 -2.0625 C 5.265625 -3.4375 4.59375 -5.082031 4.59375 -7 L 4.59375 -40.921875 C 4.59375 -42.835938 5.265625 -44.476562 6.609375 -45.84375 C 7.953125 -47.21875 9.613281 -47.90625 11.59375 -47.90625 L 24.625 -47.90625 C 26.539062 -47.90625 28.171875 -47.21875 29.515625 -45.84375 C 30.859375 -44.476562 31.53125 -42.835938 31.53125 -40.921875 L 31.53125 -7 C 31.53125 -5.082031 30.859375 -3.4375 29.515625 -2.0625 C 28.171875 -0.6875 26.539062 0 24.625 0 Z M 17.0625 -9.015625 L 19.0625 -9.015625 C 20.019531 -9.015625 20.847656 -9.347656 21.546875 -10.015625 C 22.253906 -10.679688 22.609375 -11.492188 22.609375 -12.453125 L 22.609375 -35.453125 C 22.609375 -36.410156 22.253906 -37.222656 21.546875 -37.890625 C 20.847656 -38.566406 20.019531 -38.90625 19.0625 -38.90625 L 17.0625 -38.90625 C 16.101562 -38.90625 15.285156 -38.566406 14.609375 -37.890625 C 13.941406 -37.222656 13.609375 -36.410156 13.609375 -35.453125 L 13.609375 -12.453125 C 13.609375 -11.492188 13.941406 -10.679688 14.609375 -10.015625 C 15.285156 -9.347656 16.101562 -9.015625 17.0625 -9.015625 Z M 17.0625 -9.015625 "/></g></g></g><g fill="#000000" fill-opacity="1"><g transform="translate(301.987356, 116.146158)"><g><path d="M 3.828125 0 L 3.828125 -47.90625 L 23.859375 -47.90625 C 25.773438 -47.90625 27.421875 -47.21875 28.796875 -45.84375 C 30.171875 -44.476562 30.859375 -42.835938 30.859375 -40.921875 L 30.859375 -30.46875 L 21.84375 -32.484375 L 21.84375 -35.359375 C 21.84375 -36.316406 21.507812 -37.144531 20.84375 -37.84375 C 20.175781 -38.550781 19.363281 -38.90625 18.40625 -38.90625 L 12.84375 -38.90625 L 12.84375 0 Z M 3.828125 0 "/></g></g></g><g fill="#000000" fill-opacity="1"><g transform="translate(334.271497, 116.146158)"><g><path d="M 10.828125 0 C 8.910156 0 7.265625 -0.6875 5.890625 -2.0625 C 4.515625 -3.4375 3.828125 -5.082031 3.828125 -7 L 3.828125 -41.015625 C 3.828125 -42.929688 4.515625 -44.554688 5.890625 -45.890625 C 7.265625 -47.234375 8.910156 -47.90625 10.828125 -47.90625 L 23.859375 -47.90625 C 25.835938 -47.90625 27.5 -47.234375 28.84375 -45.890625 C 30.1875 -44.554688 30.859375 -42.929688 30.859375 -41.015625 L 30.859375 -26.453125 C 30.859375 -24.535156 30.1875 -22.890625 28.84375 -21.515625 C 27.5 -20.140625 25.835938 -19.453125 23.859375 -19.453125 L 12.84375 -19.453125 L 12.84375 -12.453125 C 12.84375 -11.492188 13.175781 -10.679688 13.84375 -10.015625 C 14.519531 -9.347656 15.367188 -9.015625 16.390625 -9.015625 L 28.84375 -9.015625 L 30.859375 0 Z M 12.84375 -28.453125 L 18.40625 -28.453125 C 19.363281 -28.453125 20.175781 -28.785156 20.84375 -29.453125 C 21.507812 -30.128906 21.84375 -30.945312 21.84375 -31.90625 L 21.84375 -35.453125 C 21.84375 -36.410156 21.507812 -37.222656 20.84375 -37.890625 C 20.175781 -38.566406 19.363281 -38.90625 18.40625 -38.90625 L 16.390625 -38.90625 C 15.367188 -38.90625 14.519531 -38.566406 13.84375 -37.890625 C 13.175781 -37.222656 12.84375 -36.410156 12.84375 -35.453125 Z M 12.84375 -28.453125 "/></g></g></g></svg>