<svg xmlns="http://www.w3.org/2000/svg" xmlns:xlink="http://www.w3.org/1999/xlink" width="500" zoomAndPan="magnify" viewBox="0 0 375 374.999991" height="500" preserveAspectRatio="xMidYMid meet" version="1.0"><defs><clipPath id="8bfd795f81"><path d="M 107 108.714844 L 284 108.714844 L 284 329.214844 L 107 329.214844 Z M 107 108.714844 " clip-rule="nonzero"/></clipPath><clipPath id="d81b833f81"><path d="M 101 102 L 194 102 L 194 116 L 101 116 Z M 101 102 " clip-rule="nonzero"/></clipPath><clipPath id="6fb9d55697"><path d="M 115.367188 37.5 L 194.316406 55.613281 L 180.5625 115.554688 L 101.613281 97.441406 Z M 115.367188 37.5 " clip-rule="nonzero"/></clipPath><clipPath id="2014656eb6"><path d="M 179.195312 198.820312 L 83.433594 176.851562 L 115.464844 37.226562 L 211.226562 59.199219 Z M 179.195312 198.820312 " clip-rule="nonzero"/></clipPath><clipPath id="6d38615be2"><path d="M 101 102 L 189 102 L 189 116 L 101 116 Z M 101 102 " clip-rule="nonzero"/></clipPath><clipPath id="54e9e09f02"><path d="M 115.367188 37.5 L 194.316406 55.613281 L 180.5625 115.554688 L 101.613281 97.441406 Z M 115.367188 37.5 " clip-rule="nonzero"/></clipPath><clipPath id="85709a37ca"><path d="M 179.195312 198.820312 L 83.433594 176.851562 L 115.464844 37.226562 L 211.226562 59.199219 Z M 179.195312 198.820312 " clip-rule="nonzero"/></clipPath><clipPath id="599ffe87b6"><path d="M 109 102 L 186 102 L 186 116 L 109 116 Z M 109 102 " clip-rule="nonzero"/></clipPath><clipPath id="ce35ead24e"><path d="M 115.367188 37.5 L 194.316406 55.613281 L 180.5625 115.554688 L 101.613281 97.441406 Z M 115.367188 37.5 " clip-rule="nonzero"/></clipPath><clipPath id="38b39291a6"><path d="M 179.195312 198.820312 L 83.433594 176.851562 L 115.464844 37.226562 L 211.226562 59.199219 Z M 179.195312 198.820312 " clip-rule="nonzero"/></clipPath><clipPath id="54637655ed"><path d="M 109 60 L 185 60 L 185 98 L 109 98 Z M 109 60 " clip-rule="nonzero"/></clipPath><clipPath id="40990ca093"><path d="M 115.367188 37.5 L 194.316406 55.613281 L 180.5625 115.554688 L 101.613281 97.441406 Z M 115.367188 37.5 " clip-rule="nonzero"/></clipPath><clipPath id="71741fa1c0"><path d="M 179.195312 198.820312 L 83.433594 176.851562 L 115.464844 37.226562 L 211.226562 59.199219 Z M 179.195312 198.820312 " clip-rule="nonzero"/></clipPath><clipPath id="1ba889588a"><path d="M 136 94 L 165 94 L 165 102 L 136 102 Z M 136 94 " clip-rule="nonzero"/></clipPath><clipPath id="385b44f720"><path d="M 115.367188 37.5 L 194.316406 55.613281 L 180.5625 115.554688 L 101.613281 97.441406 Z M 115.367188 37.5 " clip-rule="nonzero"/></clipPath><clipPath id="af10e3bf2e"><path d="M 179.195312 198.820312 L 83.433594 176.851562 L 115.464844 37.226562 L 211.226562 59.199219 Z M 179.195312 198.820312 " clip-rule="nonzero"/></clipPath><clipPath id="888a3301ae"><path d="M 127 44 L 149 44 L 149 63 L 127 63 Z M 127 44 " clip-rule="nonzero"/></clipPath><clipPath id="955f967902"><path d="M 115.367188 37.5 L 194.316406 55.613281 L 180.5625 115.554688 L 101.613281 97.441406 Z M 115.367188 37.5 " clip-rule="nonzero"/></clipPath><clipPath id="3bf29a4051"><path d="M 179.195312 198.820312 L 83.433594 176.851562 L 115.464844 37.226562 L 211.226562 59.199219 Z M 179.195312 198.820312 " clip-rule="nonzero"/></clipPath></defs><g clip-path="url(#8bfd795f81)"><path fill="#000000" d="M 107.855469 132.707031 L 107.855469 242.15625 C 116.269531 221.058594 129.09375 203.648438 145.070312 188.847656 C 146.171875 187.839844 147.277344 186.832031 148.410156 185.859375 C 169.617188 167.21875 199.015625 153.867188 194.382812 120.113281 C 214.328125 137.839844 208.183594 159.628906 194.476562 178.019531 C 193.753906 178.992188 193.027344 179.96875 192.335938 180.976562 C 190.445312 183.558594 188.648438 186.203125 186.914062 188.847656 C 183.703125 193.761719 180.707031 198.734375 178 203.898438 C 165.804688 226.980469 156.097656 257.710938 185.90625 272.886719 C 207.019531 283.625 231.753906 268.542969 232.953125 245.398438 C 233.644531 232.113281 226.679688 220.617188 212.691406 210.828125 C 255.671875 211.425781 271.363281 256.417969 245.367188 286.867188 C 239.664062 293.542969 232.824219 298.484375 224.980469 301.949219 C 167.222656 327.484375 118.664062 266.933594 156.097656 205.945312 C 102.5625 247.601562 134.796875 329.214844 205.570312 329.214844 C 248.863281 329.214844 283.933594 295.777344 283.933594 254.5625 C 283.933594 224.269531 264.996094 198.199219 237.804688 186.488281 C 253.277344 180.914062 264.398438 166.085938 264.398438 148.796875 C 264.398438 126.757812 246.34375 108.714844 224.285156 108.714844 L 128.308594 108.714844 C 110.820312 108.714844 107.855469 118.191406 107.855469 132.707031 Z M 107.855469 132.707031 " fill-opacity="1" fill-rule="evenodd"/></g><g clip-path="url(#d81b833f81)"><g clip-path="url(#6fb9d55697)"><g clip-path="url(#2014656eb6)"><path fill="#000000" d="M 186.230469 102.753906 C 186.230469 102.753906 186.570312 103.328125 187.1875 104.410156 C 187.222656 104.476562 187.265625 104.542969 187.304688 104.617188 C 187.347656 104.6875 187.386719 104.761719 187.425781 104.839844 C 187.507812 104.996094 187.589844 105.15625 187.679688 105.328125 C 187.855469 105.671875 188.046875 106.046875 188.253906 106.453125 C 188.304688 106.554688 188.359375 106.660156 188.410156 106.765625 C 188.460938 106.871094 188.511719 106.980469 188.5625 107.09375 C 188.664062 107.316406 188.765625 107.546875 188.875 107.78125 C 188.984375 108.019531 189.09375 108.265625 189.207031 108.519531 C 189.265625 108.644531 189.324219 108.773438 189.382812 108.90625 C 189.433594 109.039062 189.488281 109.171875 189.542969 109.308594 C 189.761719 109.855469 189.992188 110.433594 190.230469 111.039062 C 190.445312 111.652344 190.671875 112.292969 190.902344 112.96875 C 190.929688 113.054688 190.960938 113.140625 190.988281 113.226562 C 191.019531 113.308594 191.042969 113.398438 191.070312 113.484375 C 191.121094 113.660156 191.175781 113.832031 191.226562 114.011719 C 191.332031 114.367188 191.441406 114.730469 191.550781 115.101562 C 191.664062 115.472656 191.757812 115.851562 191.855469 116.242188 C 191.949219 116.628906 192.046875 117.023438 192.148438 117.425781 C 192.253906 117.828125 192.328125 118.242188 192.417969 118.660156 C 192.5 119.082031 192.585938 119.507812 192.671875 119.941406 C 192.71875 120.15625 192.75 120.375 192.785156 120.597656 C 192.820312 120.820312 192.855469 121.042969 192.890625 121.265625 C 192.925781 121.492188 192.960938 121.714844 192.996094 121.945312 C 193.011719 122.058594 193.03125 122.171875 193.046875 122.289062 C 193.066406 122.402344 193.085938 122.519531 193.097656 122.632812 C 193.148438 123.101562 193.203125 123.570312 193.253906 124.046875 C 193.28125 124.285156 193.308594 124.527344 193.332031 124.769531 C 193.347656 124.890625 193.355469 125.011719 193.363281 125.132812 C 193.371094 125.253906 193.378906 125.378906 193.386719 125.5 C 193.421875 125.992188 193.453125 126.488281 193.488281 126.992188 C 193.492188 127.117188 193.503906 127.246094 193.507812 127.371094 C 193.511719 127.496094 193.515625 127.625 193.519531 127.75 C 193.523438 128.007812 193.527344 128.265625 193.535156 128.519531 C 193.539062 128.78125 193.546875 129.039062 193.550781 129.300781 C 193.558594 129.5625 193.566406 129.824219 193.554688 130.085938 C 193.542969 130.613281 193.53125 131.148438 193.515625 131.683594 C 193.511719 131.820312 193.511719 131.957031 193.507812 132.089844 L 193.5 132.292969 L 193.488281 132.496094 C 193.46875 132.769531 193.453125 133.039062 193.433594 133.3125 C 193.414062 133.585938 193.394531 133.863281 193.375 134.140625 C 193.367188 134.277344 193.355469 134.414062 193.347656 134.554688 L 193.332031 134.761719 L 193.308594 134.972656 C 193.246094 135.527344 193.183594 136.089844 193.121094 136.652344 C 193.105469 136.796875 193.085938 136.9375 193.070312 137.078125 L 193.046875 137.292969 L 193.011719 137.503906 C 192.96875 137.789062 192.921875 138.070312 192.878906 138.359375 C 192.832031 138.644531 192.789062 138.929688 192.742188 139.21875 C 192.71875 139.363281 192.695312 139.507812 192.671875 139.652344 L 192.65625 139.761719 C 192.648438 139.796875 192.660156 139.761719 192.636719 139.851562 L 192.628906 139.902344 L 192.589844 140.109375 C 192.535156 140.382812 192.480469 140.660156 192.425781 140.9375 L 192.386719 141.144531 C 192.371094 141.214844 192.363281 141.28125 192.34375 141.355469 C 192.3125 141.503906 192.277344 141.65625 192.246094 141.804688 C 192.179688 142.101562 192.109375 142.402344 192.042969 142.703125 C 192.011719 142.855469 191.972656 142.996094 191.9375 143.144531 C 191.898438 143.292969 191.863281 143.4375 191.824219 143.585938 C 191.75 143.878906 191.679688 144.175781 191.597656 144.46875 C 191.515625 144.761719 191.433594 145.058594 191.347656 145.351562 C 191.308594 145.5 191.265625 145.648438 191.222656 145.796875 C 191.179688 145.945312 191.132812 146.09375 191.085938 146.242188 C 190.996094 146.535156 190.90625 146.832031 190.8125 147.128906 C 190.722656 147.425781 190.613281 147.722656 190.515625 148.019531 C 190.414062 148.3125 190.316406 148.613281 190.207031 148.910156 C 190.097656 149.203125 189.988281 149.5 189.878906 149.796875 C 189.824219 149.945312 189.769531 150.097656 189.710938 150.246094 C 189.652344 150.390625 189.59375 150.539062 189.535156 150.6875 C 189.414062 150.984375 189.296875 151.28125 189.175781 151.578125 C 189.050781 151.871094 188.921875 152.167969 188.792969 152.464844 C 188.730469 152.613281 188.664062 152.761719 188.601562 152.910156 C 188.535156 153.054688 188.464844 153.203125 188.398438 153.351562 C 188.261719 153.644531 188.125 153.941406 187.988281 154.234375 C 187.851562 154.527344 187.703125 154.820312 187.558594 155.113281 C 187.414062 155.40625 187.269531 155.703125 187.113281 155.992188 C 184.691406 160.664062 181.511719 165.160156 177.683594 169.179688 C 177.445312 169.429688 177.203125 169.679688 176.960938 169.929688 C 176.84375 170.054688 176.71875 170.175781 176.59375 170.296875 L 176.21875 170.664062 L 175.847656 171.027344 C 175.722656 171.148438 175.59375 171.265625 175.464844 171.386719 C 175.210938 171.625 174.957031 171.863281 174.699219 172.101562 C 173.664062 173.035156 172.597656 173.949219 171.492188 174.816406 C 169.28125 176.546875 166.941406 178.140625 164.496094 179.542969 L 164.039062 179.808594 L 163.578125 180.0625 C 163.265625 180.230469 162.957031 180.402344 162.648438 180.570312 C 162.019531 180.890625 161.398438 181.222656 160.761719 181.519531 C 160.128906 181.832031 159.484375 182.121094 158.84375 182.410156 C 158.523438 182.550781 158.199219 182.6875 157.875 182.824219 L 157.390625 183.027344 L 156.898438 183.222656 C 154.292969 184.265625 151.617188 185.097656 148.921875 185.753906 C 143.53125 187.042969 138.050781 187.515625 132.808594 187.261719 C 132.480469 187.25 132.152344 187.222656 131.828125 187.203125 C 131.5 187.179688 131.175781 187.167969 130.851562 187.132812 C 130.203125 187.074219 129.558594 187.019531 128.921875 186.9375 C 127.644531 186.796875 126.386719 186.589844 125.148438 186.371094 C 124.839844 186.3125 124.53125 186.246094 124.226562 186.1875 C 124.074219 186.15625 123.917969 186.125 123.765625 186.09375 L 123.539062 186.046875 L 123.308594 185.996094 C 123.007812 185.925781 122.707031 185.859375 122.40625 185.789062 C 122.253906 185.753906 122.105469 185.71875 121.957031 185.683594 C 121.808594 185.644531 121.65625 185.605469 121.511719 185.566406 C 121.214844 185.492188 120.917969 185.414062 120.625 185.335938 L 120.476562 185.300781 L 120.375 185.269531 L 120.164062 185.210938 C 120.027344 185.171875 119.890625 185.132812 119.753906 185.09375 C 119.613281 185.054688 119.476562 185.011719 119.339844 184.972656 C 119.269531 184.953125 119.203125 184.933594 119.128906 184.914062 L 118.910156 184.84375 C 118.617188 184.75 118.324219 184.660156 118.03125 184.566406 C 117.738281 184.476562 117.460938 184.378906 117.179688 184.285156 C 116.898438 184.1875 116.621094 184.097656 116.34375 183.996094 C 116.070312 183.894531 115.792969 183.792969 115.519531 183.691406 C 115.382812 183.644531 115.246094 183.59375 115.113281 183.542969 C 114.976562 183.488281 114.84375 183.433594 114.707031 183.382812 C 114.441406 183.273438 114.171875 183.167969 113.90625 183.0625 C 113.640625 182.953125 113.378906 182.839844 113.117188 182.726562 C 112.988281 182.671875 112.855469 182.617188 112.726562 182.5625 C 112.597656 182.507812 112.464844 182.453125 112.339844 182.390625 C 112.082031 182.273438 111.828125 182.15625 111.574219 182.039062 C 109.546875 181.101562 107.65625 180.066406 105.898438 178.988281 C 102.390625 176.824219 99.445312 174.460938 97.046875 172.179688 C 94.652344 169.894531 92.785156 167.707031 91.371094 165.828125 C 89.957031 163.949219 88.980469 162.390625 88.34375 161.316406 C 88.019531 160.78125 87.796875 160.359375 87.636719 160.078125 C 87.484375 159.796875 87.402344 159.648438 87.402344 159.648438 C 87.402344 159.648438 87.519531 159.769531 87.738281 160.003906 C 87.957031 160.242188 88.28125 160.589844 88.714844 161.035156 C 89.574219 161.925781 90.851562 163.210938 92.558594 164.734375 C 94.261719 166.257812 96.40625 168.003906 98.996094 169.773438 C 101.582031 171.542969 104.625 173.324219 108.085938 174.890625 C 109.816406 175.675781 111.648438 176.414062 113.578125 177.058594 C 113.816406 177.140625 114.058594 177.21875 114.304688 177.300781 C 114.546875 177.382812 114.792969 177.453125 115.039062 177.53125 C 115.285156 177.605469 115.53125 177.6875 115.78125 177.757812 C 116.03125 177.832031 116.28125 177.902344 116.535156 177.972656 C 116.660156 178.007812 116.789062 178.042969 116.914062 178.082031 C 117.039062 178.113281 117.167969 178.144531 117.296875 178.179688 C 117.550781 178.246094 117.804688 178.3125 118.0625 178.382812 C 118.320312 178.445312 118.578125 178.503906 118.839844 178.570312 C 119.097656 178.628906 119.363281 178.699219 119.613281 178.746094 C 119.871094 178.804688 120.125 178.859375 120.382812 178.914062 L 120.574219 178.953125 L 120.785156 178.996094 C 120.921875 179.023438 121.0625 179.050781 121.207031 179.078125 C 121.347656 179.105469 121.488281 179.132812 121.628906 179.160156 L 121.839844 179.203125 L 121.945312 179.226562 C 121.894531 179.210938 121.960938 179.226562 121.960938 179.222656 L 122.011719 179.234375 C 122.28125 179.277344 122.554688 179.324219 122.824219 179.371094 C 122.957031 179.394531 123.09375 179.417969 123.230469 179.441406 C 123.367188 179.460938 123.503906 179.480469 123.640625 179.5 C 123.914062 179.539062 124.1875 179.578125 124.464844 179.617188 L 124.667969 179.648438 L 124.875 179.675781 C 125.015625 179.691406 125.152344 179.710938 125.292969 179.726562 C 125.570312 179.757812 125.847656 179.796875 126.125 179.824219 C 126.402344 179.851562 126.683594 179.878906 126.964844 179.90625 C 127.105469 179.917969 127.242188 179.933594 127.382812 179.945312 C 127.527344 179.957031 127.667969 179.96875 127.808594 179.976562 C 128.089844 180 128.371094 180.019531 128.65625 180.042969 C 128.941406 180.0625 129.222656 180.070312 129.507812 180.085938 C 130.648438 180.148438 131.800781 180.15625 132.957031 180.152344 C 137.59375 180.101562 142.355469 179.464844 147.027344 178.207031 C 148.191406 177.882812 149.355469 177.546875 150.507812 177.148438 C 150.796875 177.054688 151.082031 176.945312 151.371094 176.84375 C 151.65625 176.738281 151.945312 176.640625 152.226562 176.527344 C 152.511719 176.421875 152.796875 176.308594 153.082031 176.199219 C 153.367188 176.089844 153.648438 175.96875 153.929688 175.855469 L 154.355469 175.679688 L 154.773438 175.496094 C 155.054688 175.375 155.335938 175.253906 155.617188 175.128906 C 156.171875 174.867188 156.730469 174.617188 157.277344 174.339844 C 157.828125 174.074219 158.367188 173.785156 158.914062 173.503906 C 159.183594 173.359375 159.453125 173.207031 159.722656 173.0625 L 160.125 172.839844 L 160.523438 172.609375 C 162.652344 171.386719 164.699219 170.019531 166.644531 168.535156 C 166.886719 168.347656 167.128906 168.160156 167.371094 167.976562 C 167.613281 167.789062 167.84375 167.589844 168.082031 167.398438 C 168.5625 167.019531 169.019531 166.617188 169.488281 166.226562 C 169.714844 166.023438 169.941406 165.820312 170.167969 165.617188 C 170.28125 165.515625 170.398438 165.417969 170.507812 165.3125 L 170.839844 165 C 171.0625 164.792969 171.285156 164.589844 171.503906 164.378906 C 171.722656 164.164062 171.9375 163.953125 172.15625 163.742188 C 173.011719 162.886719 173.851562 162.019531 174.644531 161.117188 L 174.945312 160.78125 L 175.238281 160.4375 C 175.433594 160.210938 175.625 159.980469 175.820312 159.753906 C 176.007812 159.523438 176.199219 159.292969 176.386719 159.058594 C 176.480469 158.945312 176.574219 158.828125 176.667969 158.714844 L 176.941406 158.359375 C 177.679688 157.429688 178.371094 156.464844 179.042969 155.496094 C 179.367188 155.007812 179.703125 154.527344 180.011719 154.03125 C 180.167969 153.78125 180.328125 153.539062 180.480469 153.289062 C 180.632812 153.042969 180.78125 152.792969 180.933594 152.542969 C 182.132812 150.554688 183.171875 148.511719 184.097656 146.464844 C 184.21875 146.210938 184.320312 145.949219 184.433594 145.691406 C 184.539062 145.433594 184.65625 145.179688 184.757812 144.921875 C 184.863281 144.664062 184.964844 144.40625 185.070312 144.152344 C 185.121094 144.023438 185.171875 143.894531 185.226562 143.765625 C 185.273438 143.636719 185.320312 143.507812 185.371094 143.378906 C 185.464844 143.121094 185.5625 142.863281 185.660156 142.605469 C 185.753906 142.347656 185.839844 142.089844 185.929688 141.832031 C 186.015625 141.578125 186.113281 141.316406 186.195312 141.066406 C 186.277344 140.816406 186.359375 140.566406 186.4375 140.316406 C 186.480469 140.191406 186.519531 140.066406 186.558594 139.941406 C 186.582031 139.882812 186.601562 139.808594 186.621094 139.742188 L 186.679688 139.539062 C 186.757812 139.269531 186.835938 139 186.914062 138.730469 L 186.976562 138.53125 L 186.988281 138.480469 C 186.976562 138.535156 186.992188 138.464844 186.992188 138.464844 L 187.019531 138.371094 C 187.054688 138.242188 187.085938 138.113281 187.121094 137.984375 C 187.1875 137.730469 187.253906 137.476562 187.320312 137.222656 C 187.390625 136.96875 187.457031 136.714844 187.523438 136.464844 L 187.574219 136.273438 L 187.613281 136.082031 C 187.640625 135.957031 187.667969 135.832031 187.699219 135.703125 C 187.808594 135.199219 187.921875 134.695312 188.035156 134.199219 C 188.417969 132.199219 188.753906 130.246094 188.925781 128.347656 C 188.953125 128.113281 188.976562 127.875 189.003906 127.640625 C 189.015625 127.523438 189.027344 127.40625 189.039062 127.289062 C 189.050781 127.175781 189.054688 127.058594 189.0625 126.941406 C 189.09375 126.476562 189.125 126.011719 189.15625 125.558594 C 189.164062 125.445312 189.171875 125.328125 189.179688 125.214844 C 189.1875 125.101562 189.195312 124.988281 189.195312 124.875 C 189.203125 124.652344 189.207031 124.425781 189.214844 124.203125 C 189.226562 123.753906 189.242188 123.3125 189.253906 122.875 C 189.261719 122.765625 189.257812 122.65625 189.257812 122.546875 C 189.253906 122.4375 189.253906 122.332031 189.253906 122.222656 C 189.25 122.007812 189.25 121.792969 189.246094 121.582031 C 189.246094 121.367188 189.246094 121.152344 189.242188 120.945312 C 189.238281 120.734375 189.246094 120.523438 189.230469 120.316406 C 189.210938 119.902344 189.195312 119.492188 189.175781 119.089844 C 189.152344 118.683594 189.148438 118.285156 189.109375 117.894531 C 189.078125 117.503906 189.042969 117.117188 189.011719 116.738281 C 188.984375 116.359375 188.960938 115.984375 188.910156 115.621094 C 188.867188 115.253906 188.824219 114.894531 188.78125 114.542969 C 188.761719 114.367188 188.742188 114.191406 188.71875 114.015625 C 188.710938 113.929688 188.703125 113.84375 188.691406 113.757812 C 188.675781 113.671875 188.664062 113.585938 188.648438 113.5 C 188.546875 112.824219 188.445312 112.175781 188.351562 111.550781 C 188.230469 110.933594 188.121094 110.339844 188.011719 109.78125 C 187.984375 109.640625 187.960938 109.5 187.933594 109.363281 C 187.902344 109.226562 187.875 109.09375 187.84375 108.960938 C 187.785156 108.699219 187.726562 108.441406 187.667969 108.191406 C 187.613281 107.941406 187.558594 107.699219 187.507812 107.464844 C 187.480469 107.347656 187.457031 107.234375 187.429688 107.121094 C 187.398438 107.007812 187.371094 106.898438 187.34375 106.792969 C 187.230469 106.359375 187.128906 105.957031 187.03125 105.59375 C 186.984375 105.40625 186.941406 105.230469 186.898438 105.0625 C 186.878906 104.980469 186.855469 104.898438 186.828125 104.820312 C 186.804688 104.742188 186.785156 104.664062 186.761719 104.589844 C 186.40625 103.398438 186.230469 102.753906 186.230469 102.753906 " fill-opacity="1" fill-rule="nonzero"/></g></g></g><g clip-path="url(#6d38615be2)"><g clip-path="url(#54e9e09f02)"><g clip-path="url(#85709a37ca)"><path fill="#000000" d="M 185.320312 102.546875 C 185.320312 102.546875 185.546875 103.070312 185.941406 104.054688 C 185.992188 104.179688 186.046875 104.308594 186.097656 104.449219 C 186.148438 104.589844 186.199219 104.738281 186.253906 104.890625 C 186.363281 105.203125 186.480469 105.542969 186.609375 105.910156 C 186.640625 106.003906 186.675781 106.097656 186.707031 106.195312 C 186.738281 106.289062 186.765625 106.390625 186.796875 106.488281 C 186.855469 106.6875 186.917969 106.894531 186.980469 107.109375 C 187.042969 107.324219 187.109375 107.546875 187.175781 107.773438 C 187.210938 107.886719 187.242188 108.003906 187.277344 108.121094 C 187.308594 108.238281 187.335938 108.359375 187.367188 108.480469 C 187.488281 108.96875 187.617188 109.484375 187.746094 110.027344 C 187.855469 110.574219 187.96875 111.144531 188.082031 111.746094 C 188.097656 111.820312 188.113281 111.898438 188.128906 111.972656 C 188.140625 112.050781 188.152344 112.125 188.164062 112.203125 C 188.1875 112.355469 188.210938 112.511719 188.234375 112.667969 C 188.28125 112.984375 188.328125 113.304688 188.375 113.628906 C 188.429688 113.957031 188.460938 114.292969 188.496094 114.632812 C 188.53125 114.972656 188.566406 115.320312 188.605469 115.675781 C 188.644531 116.027344 188.660156 116.386719 188.683594 116.753906 C 188.703125 117.121094 188.722656 117.492188 188.742188 117.871094 C 188.757812 118.058594 188.753906 118.25 188.757812 118.441406 C 188.761719 118.632812 188.765625 118.828125 188.765625 119.023438 C 188.769531 119.410156 188.777344 119.808594 188.773438 120.207031 C 188.761719 120.609375 188.75 121.015625 188.734375 121.425781 C 188.726562 121.632812 188.71875 121.839844 188.710938 122.046875 C 188.710938 122.152344 188.703125 122.257812 188.695312 122.359375 C 188.683594 122.464844 188.675781 122.570312 188.667969 122.675781 C 188.636719 123.097656 188.601562 123.523438 188.570312 123.957031 C 188.558594 124.0625 188.550781 124.171875 188.542969 124.28125 C 188.527344 124.386719 188.515625 124.496094 188.5 124.605469 C 188.476562 124.820312 188.449219 125.039062 188.421875 125.257812 C 188.394531 125.480469 188.367188 125.699219 188.339844 125.921875 C 188.3125 126.144531 188.285156 126.371094 188.242188 126.589844 C 188.167969 127.039062 188.089844 127.488281 188.011719 127.945312 C 187.992188 128.058594 187.972656 128.171875 187.953125 128.285156 L 187.925781 128.460938 L 187.886719 128.628906 C 187.839844 128.855469 187.789062 129.085938 187.738281 129.316406 C 187.6875 129.546875 187.636719 129.777344 187.585938 130.011719 C 187.5625 130.128906 187.535156 130.242188 187.511719 130.359375 L 187.472656 130.535156 L 187.425781 130.710938 C 187.304688 131.171875 187.183594 131.644531 187.054688 132.113281 C 187.023438 132.234375 186.992188 132.351562 186.960938 132.46875 L 186.910156 132.648438 L 186.855469 132.824219 C 186.785156 133.058594 186.710938 133.296875 186.636719 133.53125 C 186.5625 133.769531 186.488281 134.007812 186.410156 134.246094 C 186.375 134.367188 186.335938 134.488281 186.300781 134.609375 L 186.269531 134.699219 C 186.257812 134.726562 186.273438 134.695312 186.242188 134.777344 L 186.226562 134.816406 L 186.167969 134.988281 C 186.089844 135.210938 186.007812 135.4375 185.929688 135.664062 L 185.867188 135.835938 C 185.847656 135.894531 185.832031 135.945312 185.804688 136.007812 C 185.757812 136.128906 185.710938 136.253906 185.664062 136.375 C 185.570312 136.625 185.476562 136.871094 185.378906 137.117188 C 185.332031 137.246094 185.28125 137.363281 185.230469 137.480469 C 185.183594 137.601562 185.132812 137.722656 185.082031 137.84375 C 184.980469 138.082031 184.882812 138.324219 184.777344 138.5625 C 184.667969 138.804688 184.5625 139.042969 184.453125 139.285156 C 184.398438 139.402344 184.34375 139.523438 184.289062 139.644531 C 184.234375 139.765625 184.175781 139.886719 184.117188 140.003906 C 184.003906 140.246094 183.886719 140.484375 183.773438 140.726562 C 183.65625 140.96875 183.527344 141.203125 183.40625 141.445312 C 183.28125 141.683594 183.160156 141.925781 183.027344 142.160156 C 182.765625 142.636719 182.511719 143.117188 182.230469 143.589844 C 182.089844 143.828125 181.949219 144.0625 181.8125 144.300781 C 181.664062 144.535156 181.519531 144.769531 181.371094 145.003906 C 181.300781 145.121094 181.226562 145.238281 181.152344 145.359375 C 181.078125 145.476562 181 145.589844 180.921875 145.707031 C 180.769531 145.941406 180.617188 146.171875 180.460938 146.40625 C 180.304688 146.640625 180.144531 146.871094 179.980469 147.101562 C 179.820312 147.332031 179.660156 147.5625 179.488281 147.789062 C 176.828125 151.449219 173.539062 154.867188 169.757812 157.78125 C 169.519531 157.964844 169.28125 158.144531 169.042969 158.324219 C 168.804688 158.507812 168.558594 158.675781 168.316406 158.851562 L 167.949219 159.113281 C 167.828125 159.203125 167.703125 159.285156 167.578125 159.367188 C 167.332031 159.535156 167.082031 159.707031 166.832031 159.875 C 165.828125 160.535156 164.800781 161.171875 163.746094 161.761719 C 161.636719 162.945312 159.4375 163.988281 157.167969 164.859375 L 156.746094 165.023438 L 156.316406 165.179688 C 156.03125 165.28125 155.746094 165.386719 155.460938 165.484375 C 154.882812 165.675781 154.308594 165.871094 153.726562 166.042969 C 153.148438 166.222656 152.5625 166.382812 151.980469 166.542969 C 151.6875 166.621094 151.390625 166.691406 151.097656 166.765625 L 150.660156 166.875 L 150.214844 166.972656 C 147.859375 167.511719 145.472656 167.859375 143.09375 168.050781 C 138.332031 168.421875 133.609375 168.074219 129.191406 167.140625 C 128.914062 167.085938 128.640625 167.019531 128.367188 166.957031 C 128.09375 166.894531 127.820312 166.835938 127.546875 166.765625 C 127.007812 166.625 126.46875 166.488281 125.9375 166.332031 C 124.871094 166.039062 123.828125 165.6875 122.8125 165.328125 C 122.554688 165.238281 122.304688 165.140625 122.054688 165.046875 C 121.925781 165 121.800781 164.953125 121.675781 164.90625 L 121.488281 164.835938 L 121.300781 164.757812 C 121.058594 164.660156 120.808594 164.558594 120.5625 164.457031 C 120.441406 164.40625 120.320312 164.359375 120.199219 164.304688 C 120.074219 164.253906 119.957031 164.199219 119.835938 164.144531 C 119.59375 164.039062 119.355469 163.933594 119.117188 163.828125 L 119.070312 163.808594 C 119.039062 163.796875 119.074219 163.808594 118.992188 163.773438 L 118.90625 163.734375 L 118.742188 163.65625 C 118.628906 163.601562 118.519531 163.550781 118.410156 163.5 C 118.300781 163.445312 118.191406 163.394531 118.078125 163.34375 L 117.910156 163.261719 L 117.734375 163.171875 C 117.496094 163.054688 117.261719 162.933594 117.023438 162.816406 C 116.785156 162.699219 116.566406 162.574219 116.339844 162.457031 C 116.117188 162.335938 115.894531 162.21875 115.671875 162.09375 C 115.453125 161.972656 115.234375 161.847656 115.015625 161.726562 C 114.90625 161.660156 114.800781 161.601562 114.691406 161.539062 C 114.585938 161.472656 114.476562 161.410156 114.371094 161.34375 C 114.15625 161.21875 113.945312 161.089844 113.734375 160.960938 C 113.527344 160.832031 113.320312 160.699219 113.113281 160.570312 C 112.910156 160.4375 112.703125 160.3125 112.5 160.175781 C 112.300781 160.039062 112.101562 159.902344 111.902344 159.769531 C 110.316406 158.691406 108.859375 157.546875 107.527344 156.386719 C 104.859375 154.058594 102.707031 151.640625 101.011719 149.367188 C 99.3125 147.09375 98.058594 144.976562 97.140625 143.1875 C 96.222656 141.398438 95.628906 139.941406 95.253906 138.941406 C 95.058594 138.445312 94.933594 138.054688 94.84375 137.792969 C 94.757812 137.53125 94.710938 137.398438 94.710938 137.398438 C 94.710938 137.398438 94.792969 137.511719 94.953125 137.738281 C 95.113281 137.960938 95.347656 138.292969 95.660156 138.71875 C 96.289062 139.570312 97.21875 140.808594 98.476562 142.289062 C 99.738281 143.773438 101.339844 145.496094 103.304688 147.292969 C 105.269531 149.085938 107.609375 150.945312 110.316406 152.679688 C 111.671875 153.542969 113.113281 154.382812 114.648438 155.160156 C 115.03125 155.351562 115.417969 155.546875 115.8125 155.734375 C 116.011719 155.824219 116.207031 155.921875 116.40625 156.015625 C 116.605469 156.101562 116.808594 156.195312 117.007812 156.285156 C 117.109375 156.328125 117.210938 156.375 117.3125 156.421875 C 117.414062 156.464844 117.515625 156.507812 117.617188 156.550781 C 117.824219 156.636719 118.027344 156.726562 118.234375 156.8125 C 118.441406 156.898438 118.652344 156.980469 118.859375 157.066406 C 119.070312 157.148438 119.28125 157.238281 119.484375 157.308594 C 119.691406 157.386719 119.898438 157.464844 120.105469 157.539062 L 120.257812 157.597656 L 120.429688 157.65625 C 120.542969 157.699219 120.65625 157.738281 120.773438 157.78125 C 120.886719 157.820312 121.003906 157.863281 121.121094 157.902344 L 121.378906 157.996094 C 121.324219 157.972656 121.386719 158 121.386719 157.996094 L 121.429688 158.011719 C 121.648438 158.082031 121.867188 158.152344 122.089844 158.226562 C 122.527344 158.375 122.976562 158.496094 123.425781 158.636719 L 123.59375 158.6875 L 123.761719 158.734375 C 123.875 158.765625 123.988281 158.796875 124.101562 158.828125 C 124.328125 158.890625 124.554688 158.953125 124.785156 159.015625 C 125.015625 159.070312 125.242188 159.128906 125.472656 159.1875 C 125.589844 159.214844 125.703125 159.242188 125.820312 159.273438 C 125.933594 159.296875 126.050781 159.324219 126.167969 159.351562 C 126.398438 159.402344 126.632812 159.457031 126.867188 159.507812 C 127.101562 159.5625 127.335938 159.605469 127.570312 159.652344 C 128.515625 159.847656 129.472656 160 130.4375 160.140625 C 134.300781 160.675781 138.339844 160.75 142.382812 160.304688 C 143.390625 160.179688 144.402344 160.050781 145.410156 159.867188 C 145.664062 159.828125 145.914062 159.773438 146.164062 159.726562 C 146.414062 159.675781 146.667969 159.628906 146.917969 159.574219 C 147.167969 159.519531 147.417969 159.464844 147.671875 159.410156 C 147.921875 159.355469 148.167969 159.289062 148.417969 159.234375 L 148.792969 159.144531 L 149.167969 159.042969 C 149.414062 158.976562 149.664062 158.914062 149.914062 158.84375 C 150.40625 158.703125 150.902344 158.566406 151.394531 158.40625 C 151.886719 158.257812 152.371094 158.085938 152.863281 157.925781 L 153.589844 157.660156 L 153.953125 157.53125 L 154.3125 157.390625 C 156.238281 156.652344 158.117188 155.785156 159.925781 154.808594 L 160.601562 154.4375 C 160.828125 154.316406 161.046875 154.179688 161.269531 154.054688 C 161.71875 153.800781 162.148438 153.527344 162.589844 153.261719 C 163.453125 152.714844 164.304688 152.148438 165.132812 151.554688 C 165.957031 150.960938 166.765625 150.347656 167.546875 149.703125 L 167.839844 149.464844 L 168.128906 149.21875 C 168.320312 149.058594 168.511719 148.894531 168.703125 148.730469 C 168.890625 148.5625 169.078125 148.394531 169.265625 148.226562 C 169.359375 148.144531 169.453125 148.0625 169.546875 147.976562 L 169.820312 147.722656 C 170.558594 147.046875 171.261719 146.335938 171.949219 145.625 C 172.28125 145.261719 172.628906 144.90625 172.953125 144.535156 C 173.113281 144.351562 173.28125 144.171875 173.441406 143.984375 C 173.601562 143.796875 173.757812 143.613281 173.917969 143.425781 C 175.183594 141.933594 176.324219 140.378906 177.371094 138.800781 C 177.503906 138.605469 177.625 138.402344 177.753906 138.203125 C 177.878906 138.003906 178.011719 137.808594 178.128906 137.609375 C 178.253906 137.40625 178.375 137.207031 178.496094 137.007812 C 178.554688 136.910156 178.617188 136.808594 178.675781 136.710938 C 178.734375 136.609375 178.792969 136.507812 178.851562 136.40625 C 178.964844 136.207031 179.082031 136.003906 179.195312 135.804688 C 179.3125 135.605469 179.417969 135.398438 179.527344 135.199219 C 179.632812 134.996094 179.753906 134.792969 179.855469 134.597656 C 179.957031 134.398438 180.058594 134.203125 180.15625 134.007812 C 180.210938 133.910156 180.257812 133.8125 180.308594 133.714844 C 180.335938 133.671875 180.363281 133.609375 180.386719 133.558594 L 180.464844 133.394531 C 180.570312 133.179688 180.671875 132.964844 180.777344 132.746094 L 180.855469 132.585938 L 180.875 132.546875 C 180.851562 132.601562 180.878906 132.539062 180.878906 132.542969 L 180.910156 132.464844 C 180.957031 132.363281 181.003906 132.261719 181.046875 132.160156 C 181.140625 131.957031 181.230469 131.753906 181.320312 131.550781 C 181.414062 131.347656 181.503906 131.148438 181.59375 130.945312 L 181.660156 130.792969 L 181.722656 130.640625 C 181.765625 130.539062 181.804688 130.4375 181.84375 130.335938 C 182.007812 129.929688 182.171875 129.53125 182.335938 129.128906 C 182.933594 127.515625 183.484375 125.933594 183.894531 124.375 C 183.949219 124.183594 184.003906 123.988281 184.058594 123.796875 C 184.085938 123.699219 184.113281 123.605469 184.140625 123.507812 C 184.164062 123.410156 184.183594 123.316406 184.207031 123.21875 C 184.300781 122.835938 184.390625 122.453125 184.480469 122.078125 C 184.503906 121.984375 184.523438 121.890625 184.546875 121.796875 C 184.570312 121.703125 184.59375 121.609375 184.609375 121.515625 C 184.648438 121.328125 184.683594 121.140625 184.71875 120.953125 C 184.796875 120.582031 184.867188 120.214844 184.941406 119.851562 C 185.007812 119.488281 185.058594 119.125 185.117188 118.769531 C 185.148438 118.589844 185.175781 118.414062 185.207031 118.234375 C 185.234375 118.058594 185.269531 117.886719 185.285156 117.710938 C 185.328125 117.359375 185.371094 117.015625 185.414062 116.675781 C 185.453125 116.335938 185.507812 115.996094 185.527344 115.667969 C 185.558594 115.335938 185.585938 115.007812 185.613281 114.683594 C 185.644531 114.363281 185.679688 114.046875 185.6875 113.734375 C 185.703125 113.421875 185.722656 113.113281 185.734375 112.8125 C 185.746094 112.664062 185.753906 112.511719 185.761719 112.363281 C 185.765625 112.289062 185.769531 112.214844 185.773438 112.144531 C 185.773438 112.070312 185.773438 111.996094 185.777344 111.921875 C 185.789062 111.339844 185.796875 110.78125 185.808594 110.246094 C 185.800781 109.707031 185.789062 109.199219 185.78125 108.710938 C 185.78125 108.589844 185.777344 108.46875 185.777344 108.351562 C 185.773438 108.230469 185.765625 108.113281 185.761719 108 C 185.75 107.769531 185.738281 107.542969 185.726562 107.328125 C 185.71875 107.109375 185.707031 106.898438 185.695312 106.695312 C 185.691406 106.59375 185.6875 106.492188 185.683594 106.394531 C 185.675781 106.296875 185.667969 106.199219 185.660156 106.105469 C 185.628906 105.726562 185.601562 105.375 185.574219 105.050781 C 185.5625 104.890625 185.550781 104.734375 185.539062 104.589844 C 185.53125 104.441406 185.507812 104.300781 185.496094 104.167969 C 185.375 103.113281 185.320312 102.546875 185.320312 102.546875 " fill-opacity="1" fill-rule="nonzero"/></g></g></g><g clip-path="url(#599ffe87b6)"><g clip-path="url(#ce35ead24e)"><g clip-path="url(#38b39291a6)"><path fill="#000000" d="M 184.585938 102.273438 C 184.585938 102.273438 184.683594 102.710938 184.847656 103.527344 C 184.890625 103.730469 184.925781 103.960938 184.964844 104.21875 C 185.003906 104.472656 185.042969 104.753906 185.089844 105.058594 C 185.101562 105.132812 185.109375 105.210938 185.121094 105.289062 C 185.128906 105.367188 185.136719 105.449219 185.148438 105.53125 C 185.164062 105.691406 185.179688 105.863281 185.199219 106.035156 C 185.214844 106.210938 185.230469 106.390625 185.25 106.578125 C 185.257812 106.671875 185.265625 106.765625 185.273438 106.859375 C 185.277344 106.957031 185.285156 107.054688 185.289062 107.152344 C 185.308594 107.546875 185.328125 107.964844 185.347656 108.402344 C 185.347656 108.839844 185.347656 109.296875 185.34375 109.777344 C 185.347656 110.019531 185.328125 110.261719 185.320312 110.511719 C 185.308594 110.761719 185.292969 111.019531 185.28125 111.277344 C 185.269531 111.539062 185.242188 111.800781 185.21875 112.070312 C 185.191406 112.339844 185.164062 112.613281 185.136719 112.890625 C 185.113281 113.171875 185.070312 113.449219 185.03125 113.738281 C 184.988281 114.023438 184.945312 114.3125 184.902344 114.609375 C 184.882812 114.757812 184.851562 114.902344 184.824219 115.054688 C 184.796875 115.203125 184.769531 115.351562 184.738281 115.5 C 184.679688 115.804688 184.625 116.109375 184.558594 116.421875 C 184.484375 116.726562 184.410156 117.039062 184.335938 117.355469 C 184.296875 117.515625 184.257812 117.671875 184.21875 117.832031 C 184.179688 117.992188 184.128906 118.152344 184.085938 118.3125 C 183.992188 118.632812 183.898438 118.957031 183.800781 119.285156 C 183.777344 119.367188 183.753906 119.449219 183.726562 119.53125 C 183.699219 119.613281 183.671875 119.695312 183.644531 119.777344 C 183.589844 119.941406 183.535156 120.105469 183.476562 120.269531 C 183.421875 120.433594 183.363281 120.601562 183.308594 120.769531 C 183.25 120.9375 183.195312 121.105469 183.125 121.269531 C 182.996094 121.605469 182.863281 121.941406 182.726562 122.28125 C 182.597656 122.621094 182.445312 122.957031 182.292969 123.296875 C 182.21875 123.46875 182.140625 123.640625 182.0625 123.808594 C 182.023438 123.894531 181.984375 123.980469 181.945312 124.070312 L 181.886719 124.199219 L 181.824219 124.324219 C 181.484375 125.003906 181.148438 125.703125 180.75 126.378906 C 180.652344 126.550781 180.554688 126.722656 180.460938 126.898438 C 180.410156 126.984375 180.363281 127.070312 180.3125 127.15625 L 180.277344 127.222656 C 180.261719 127.246094 180.285156 127.214844 180.234375 127.285156 L 180.21875 127.3125 L 180.144531 127.433594 C 180.046875 127.59375 179.953125 127.75 179.855469 127.910156 L 179.78125 128.03125 C 179.753906 128.074219 179.734375 128.109375 179.703125 128.15625 C 179.648438 128.242188 179.589844 128.332031 179.53125 128.417969 C 179.417969 128.59375 179.300781 128.769531 179.183594 128.949219 C 179.125 129.039062 179.070312 129.121094 179.011719 129.207031 C 178.953125 129.289062 178.894531 129.375 178.835938 129.460938 C 178.71875 129.628906 178.601562 129.800781 178.476562 129.96875 C 178.355469 130.136719 178.230469 130.304688 178.109375 130.472656 C 178.046875 130.558594 177.984375 130.640625 177.921875 130.726562 C 177.855469 130.808594 177.792969 130.890625 177.726562 130.976562 C 177.597656 131.140625 177.46875 131.308594 177.339844 131.476562 C 177.207031 131.644531 177.070312 131.804688 176.933594 131.972656 C 176.796875 132.136719 176.664062 132.304688 176.523438 132.464844 C 176.238281 132.789062 175.960938 133.117188 175.664062 133.4375 C 175.515625 133.597656 175.367188 133.757812 175.21875 133.917969 C 175.066406 134.074219 174.914062 134.230469 174.761719 134.390625 L 174.53125 134.625 L 174.292969 134.859375 C 174.136719 135.011719 173.976562 135.167969 173.816406 135.324219 C 173.65625 135.476562 173.492188 135.628906 173.328125 135.78125 C 173.164062 135.929688 173 136.082031 172.828125 136.230469 C 170.144531 138.617188 167.007812 140.703125 163.566406 142.308594 C 163.351562 142.40625 163.136719 142.503906 162.917969 142.605469 C 162.703125 142.703125 162.480469 142.792969 162.261719 142.886719 C 161.824219 143.078125 161.378906 143.242188 160.933594 143.421875 C 160.039062 143.757812 159.132812 144.070312 158.210938 144.34375 C 156.367188 144.890625 154.480469 145.3125 152.566406 145.585938 L 152.207031 145.640625 L 151.851562 145.683594 L 151.128906 145.769531 C 150.648438 145.816406 150.171875 145.863281 149.6875 145.894531 C 149.207031 145.929688 148.726562 145.949219 148.246094 145.96875 C 148.003906 145.976562 147.765625 145.980469 147.523438 145.984375 L 147.164062 145.992188 L 146.800781 145.988281 C 144.878906 145.984375 142.96875 145.824219 141.089844 145.542969 C 137.339844 144.972656 133.746094 143.84375 130.503906 142.3125 C 130.300781 142.21875 130.101562 142.117188 129.898438 142.019531 C 129.699219 141.917969 129.5 141.824219 129.304688 141.71875 C 128.910156 141.511719 128.519531 141.308594 128.136719 141.085938 C 127.367188 140.664062 126.628906 140.203125 125.910156 139.734375 C 125.730469 139.617188 125.554688 139.496094 125.378906 139.378906 C 125.203125 139.257812 125.023438 139.140625 124.851562 139.015625 C 124.683594 138.894531 124.511719 138.769531 124.339844 138.644531 C 124.167969 138.523438 124 138.398438 123.835938 138.269531 C 123.671875 138.144531 123.507812 138.015625 123.339844 137.890625 L 123.277344 137.84375 C 123.152344 137.753906 123.226562 137.804688 123.191406 137.78125 L 123.054688 137.664062 C 122.980469 137.605469 122.90625 137.542969 122.832031 137.480469 C 122.539062 137.238281 122.25 136.992188 121.960938 136.75 L 121.855469 136.660156 C 121.820312 136.628906 121.777344 136.589844 121.738281 136.558594 C 121.660156 136.488281 121.582031 136.417969 121.503906 136.347656 C 121.351562 136.207031 121.195312 136.066406 121.042969 135.925781 C 120.890625 135.789062 120.738281 135.648438 120.585938 135.511719 C 120.511719 135.441406 120.4375 135.371094 120.363281 135.300781 C 120.292969 135.230469 120.222656 135.160156 120.152344 135.089844 C 119.878906 134.808594 119.605469 134.53125 119.332031 134.257812 C 119.265625 134.1875 119.199219 134.117188 119.132812 134.050781 C 119.0625 133.980469 118.996094 133.914062 118.933594 133.839844 C 118.808594 133.695312 118.679688 133.554688 118.554688 133.410156 C 118.304688 133.125 118.054688 132.84375 117.808594 132.566406 C 117.570312 132.28125 117.34375 131.988281 117.117188 131.703125 C 117.003906 131.558594 116.890625 131.417969 116.777344 131.277344 C 116.722656 131.207031 116.667969 131.136719 116.609375 131.066406 C 116.558594 130.992188 116.503906 130.917969 116.453125 130.847656 C 116.242188 130.558594 116.035156 130.269531 115.835938 129.984375 C 114.230469 127.695312 113.042969 125.429688 112.191406 123.363281 C 111.335938 121.296875 110.808594 119.429688 110.457031 117.890625 C 110.296875 117.117188 110.144531 116.433594 110.070312 115.824219 C 109.984375 115.21875 109.902344 114.710938 109.875 114.289062 C 109.800781 113.453125 109.777344 113.011719 109.777344 113.011719 C 109.777344 113.011719 109.976562 113.414062 110.324219 114.164062 C 110.410156 114.351562 110.503906 114.5625 110.625 114.785156 C 110.738281 115.011719 110.863281 115.257812 111 115.523438 C 111.132812 115.789062 111.269531 116.074219 111.441406 116.371094 C 111.605469 116.667969 111.777344 116.984375 111.960938 117.316406 C 112.714844 118.632812 113.667969 120.1875 114.890625 121.847656 C 116.109375 123.507812 117.597656 125.269531 119.378906 126.992188 C 119.601562 127.203125 119.828125 127.417969 120.054688 127.636719 C 120.109375 127.691406 120.167969 127.746094 120.222656 127.800781 C 120.285156 127.851562 120.34375 127.90625 120.40625 127.957031 C 120.523438 128.0625 120.644531 128.167969 120.765625 128.273438 C 121.003906 128.484375 121.246094 128.695312 121.492188 128.910156 C 121.742188 129.113281 121.996094 129.320312 122.253906 129.527344 C 122.382812 129.632812 122.511719 129.734375 122.640625 129.839844 C 122.703125 129.890625 122.769531 129.941406 122.839844 129.992188 C 122.902344 130.039062 122.972656 130.089844 123.039062 130.140625 C 123.308594 130.339844 123.578125 130.539062 123.847656 130.742188 C 123.917969 130.792969 123.984375 130.84375 124.054688 130.894531 C 124.121094 130.941406 124.1875 130.984375 124.257812 131.03125 C 124.394531 131.121094 124.527344 131.214844 124.664062 131.304688 C 124.800781 131.398438 124.9375 131.492188 125.070312 131.582031 C 125.140625 131.632812 125.207031 131.675781 125.277344 131.722656 C 125.3125 131.75 125.339844 131.769531 125.382812 131.792969 L 125.503906 131.871094 C 125.820312 132.070312 126.144531 132.269531 126.464844 132.472656 C 126.546875 132.527344 126.625 132.578125 126.707031 132.628906 L 126.828125 132.703125 L 126.859375 132.726562 C 126.84375 132.710938 126.9375 132.777344 126.828125 132.703125 L 126.886719 132.734375 C 127.039062 132.820312 127.191406 132.910156 127.347656 133 C 127.652344 133.179688 127.96875 133.34375 128.28125 133.519531 C 128.4375 133.605469 128.597656 133.683594 128.757812 133.769531 C 128.914062 133.851562 129.074219 133.9375 129.238281 134.015625 C 129.398438 134.097656 129.5625 134.175781 129.722656 134.253906 L 129.96875 134.375 L 130.21875 134.488281 C 130.382812 134.566406 130.546875 134.640625 130.710938 134.71875 C 130.878906 134.796875 131.046875 134.867188 131.214844 134.9375 C 131.886719 135.234375 132.574219 135.5 133.269531 135.761719 C 136.0625 136.785156 139.046875 137.492188 142.117188 137.832031 C 142.886719 137.90625 143.65625 137.980469 144.433594 138.007812 C 144.628906 138.023438 144.824219 138.023438 145.015625 138.027344 C 145.210938 138.03125 145.40625 138.042969 145.601562 138.039062 L 146.183594 138.046875 C 146.378906 138.046875 146.574219 138.042969 146.769531 138.039062 L 147.0625 138.035156 L 147.355469 138.023438 C 147.546875 138.015625 147.742188 138.011719 147.9375 138.003906 C 148.328125 137.976562 148.71875 137.960938 149.109375 137.925781 C 149.5 137.898438 149.886719 137.855469 150.277344 137.816406 L 150.859375 137.746094 L 151.152344 137.707031 L 151.441406 137.667969 C 152.992188 137.445312 154.527344 137.125 156.03125 136.714844 L 156.59375 136.554688 C 156.78125 136.5 156.96875 136.441406 157.152344 136.382812 C 157.527344 136.277344 157.894531 136.148438 158.265625 136.027344 C 159 135.769531 159.726562 135.496094 160.441406 135.203125 C 161.152344 134.90625 161.859375 134.59375 162.546875 134.253906 L 162.808594 134.128906 L 163.0625 134 C 163.234375 133.910156 163.402344 133.824219 163.574219 133.738281 C 163.742188 133.644531 163.910156 133.554688 164.078125 133.464844 C 164.160156 133.417969 164.246094 133.375 164.328125 133.328125 L 164.574219 133.1875 C 165.90625 132.441406 167.167969 131.613281 168.367188 130.734375 C 169.570312 129.855469 170.691406 128.90625 171.753906 127.925781 C 172.28125 127.429688 172.792969 126.929688 173.285156 126.417969 C 173.40625 126.289062 173.53125 126.160156 173.652344 126.035156 C 173.773438 125.90625 173.890625 125.773438 174.007812 125.644531 C 174.125 125.511719 174.25 125.382812 174.359375 125.257812 C 174.46875 125.132812 174.582031 125.003906 174.691406 124.878906 C 174.746094 124.816406 174.800781 124.753906 174.855469 124.691406 C 174.882812 124.664062 174.914062 124.625 174.945312 124.589844 L 175.03125 124.480469 C 175.152344 124.335938 175.269531 124.191406 175.386719 124.046875 L 175.476562 123.941406 L 175.5 123.914062 C 175.464844 123.964844 175.5 123.914062 175.496094 123.917969 L 175.535156 123.867188 C 175.589844 123.800781 175.640625 123.730469 175.695312 123.664062 C 175.800781 123.53125 175.90625 123.394531 176.011719 123.261719 C 176.117188 123.128906 176.21875 122.996094 176.324219 122.863281 L 176.402344 122.761719 L 176.476562 122.660156 C 176.527344 122.59375 176.574219 122.523438 176.625 122.457031 C 176.820312 122.183594 177.015625 121.914062 177.210938 121.648438 C 177.957031 120.558594 178.664062 119.480469 179.261719 118.398438 C 179.339844 118.265625 179.417969 118.128906 179.492188 117.996094 C 179.53125 117.929688 179.570312 117.863281 179.609375 117.796875 C 179.644531 117.730469 179.679688 117.664062 179.714844 117.59375 C 179.851562 117.324219 179.992188 117.058594 180.132812 116.792969 C 180.199219 116.660156 180.273438 116.53125 180.335938 116.398438 C 180.398438 116.265625 180.464844 116.132812 180.523438 116 C 180.648438 115.738281 180.777344 115.476562 180.902344 115.21875 C 181.019531 114.957031 181.128906 114.699219 181.242188 114.441406 C 181.347656 114.183594 181.46875 113.933594 181.566406 113.683594 C 181.667969 113.429688 181.765625 113.179688 181.863281 112.929688 C 181.957031 112.683594 182.0625 112.441406 182.144531 112.199219 C 182.230469 111.957031 182.3125 111.714844 182.398438 111.480469 C 182.480469 111.242188 182.570312 111.011719 182.636719 110.78125 C 182.710938 110.550781 182.78125 110.320312 182.851562 110.097656 C 182.921875 109.875 183 109.65625 183.054688 109.4375 C 183.179688 109 183.296875 108.582031 183.410156 108.183594 C 183.507812 107.777344 183.601562 107.390625 183.695312 107.023438 C 183.714844 106.929688 183.738281 106.839844 183.761719 106.75 C 183.78125 106.660156 183.800781 106.570312 183.816406 106.480469 C 183.855469 106.304688 183.890625 106.132812 183.925781 105.96875 C 183.960938 105.804688 183.996094 105.640625 184.03125 105.484375 C 184.046875 105.40625 184.0625 105.332031 184.078125 105.253906 C 184.09375 105.179688 184.105469 105.105469 184.121094 105.03125 C 184.171875 104.742188 184.222656 104.46875 184.265625 104.222656 C 184.316406 103.972656 184.359375 103.746094 184.386719 103.539062 C 184.507812 102.714844 184.585938 102.273438 184.585938 102.273438 " fill-opacity="1" fill-rule="nonzero"/></g></g></g><g clip-path="url(#54637655ed)"><g clip-path="url(#40990ca093)"><g clip-path="url(#71741fa1c0)"><path fill="#000000" d="M 126.320312 90.871094 C 127.292969 90.222656 128.394531 90.175781 128.78125 90.757812 C 129.167969 91.34375 128.695312 92.339844 127.722656 92.988281 C 126.75 93.636719 125.648438 93.683594 125.261719 93.101562 C 124.875 92.515625 125.347656 91.519531 126.320312 90.871094 Z M 109.234375 91.382812 C 109.226562 93.605469 110.59375 95.597656 112.664062 96.402344 C 117.628906 98.332031 127.539062 99.265625 143.453125 88.667969 C 152.929688 82.355469 163.121094 81.871094 172.660156 88.136719 C 172.769531 88.207031 172.875 88.277344 172.984375 88.347656 C 173.09375 88.417969 173.203125 88.488281 173.308594 88.5625 C 173.515625 88.707031 173.726562 88.851562 173.9375 88.992188 C 174.042969 89.0625 174.144531 89.136719 174.25 89.207031 C 174.351562 89.277344 174.453125 89.351562 174.554688 89.425781 C 174.757812 89.570312 174.960938 89.710938 175.160156 89.855469 C 175.355469 90.003906 175.550781 90.148438 175.742188 90.289062 C 175.933594 90.4375 176.132812 90.574219 176.316406 90.722656 C 176.5 90.867188 176.6875 91.007812 176.871094 91.152344 C 177.054688 91.296875 177.242188 91.433594 177.414062 91.578125 C 177.589844 91.722656 177.765625 91.863281 177.933594 92.003906 C 178.023438 92.074219 178.109375 92.140625 178.195312 92.207031 C 178.28125 92.277344 178.363281 92.347656 178.445312 92.417969 C 178.609375 92.558594 178.769531 92.695312 178.929688 92.832031 C 179.09375 92.964844 179.253906 93.097656 179.40625 93.230469 C 179.558594 93.367188 179.703125 93.5 179.855469 93.628906 C 180.003906 93.757812 180.152344 93.886719 180.292969 94.011719 C 180.570312 94.269531 180.84375 94.511719 181.101562 94.75 C 181.367188 94.980469 181.601562 95.214844 181.835938 95.429688 C 182.066406 95.644531 182.292969 95.847656 182.488281 96.042969 C 182.691406 96.238281 182.878906 96.421875 183.054688 96.585938 C 183.140625 96.667969 183.226562 96.75 183.308594 96.824219 C 183.386719 96.902344 183.457031 96.976562 183.53125 97.042969 C 183.8125 97.324219 184.042969 97.535156 184.195312 97.683594 C 184.269531 97.753906 184.332031 97.808594 184.371094 97.847656 C 184.410156 97.882812 184.429688 97.902344 184.429688 97.902344 C 184.429688 97.902344 184.4375 97.875 184.445312 97.820312 C 184.453125 97.769531 184.472656 97.6875 184.484375 97.585938 C 184.515625 97.378906 184.570312 97.066406 184.621094 96.660156 C 184.675781 96.25 184.703125 95.757812 184.742188 95.164062 C 184.761719 94.867188 184.761719 94.550781 184.765625 94.214844 C 184.765625 94.042969 184.765625 93.867188 184.765625 93.6875 C 184.765625 93.597656 184.765625 93.503906 184.765625 93.414062 C 184.761719 93.320312 184.753906 93.226562 184.75 93.132812 C 184.730469 92.753906 184.714844 92.351562 184.683594 91.929688 C 184.644531 91.507812 184.597656 91.070312 184.539062 90.609375 C 184.484375 90.148438 184.402344 89.679688 184.316406 89.183594 C 184.234375 88.683594 184.113281 88.183594 183.996094 87.65625 C 183.9375 87.390625 183.867188 87.128906 183.796875 86.859375 C 183.722656 86.589844 183.648438 86.316406 183.570312 86.039062 C 183.53125 85.898438 183.484375 85.761719 183.441406 85.625 C 183.394531 85.484375 183.351562 85.34375 183.304688 85.203125 C 183.210938 84.921875 183.121094 84.632812 183.015625 84.347656 C 182.910156 84.0625 182.800781 83.773438 182.6875 83.480469 C 182.632812 83.332031 182.574219 83.183594 182.515625 83.035156 C 182.457031 82.886719 182.390625 82.742188 182.328125 82.59375 C 182.199219 82.300781 182.070312 82 181.933594 81.695312 C 181.796875 81.394531 181.648438 81.097656 181.496094 80.792969 C 180.300781 78.359375 178.667969 75.851562 176.589844 73.4375 C 176.328125 73.140625 176.0625 72.839844 175.789062 72.542969 C 175.652344 72.386719 175.511719 72.246094 175.371094 72.097656 C 175.257812 71.980469 175.144531 71.863281 175.03125 71.75 C 174.882812 71.617188 174.730469 71.480469 174.570312 71.34375 C 174.359375 71.164062 174.132812 70.988281 173.90625 70.796875 C 172.992188 70.039062 171.914062 69.253906 170.695312 68.457031 C 170.390625 68.265625 170.074219 68.066406 169.753906 67.867188 C 169.425781 67.679688 169.09375 67.488281 168.753906 67.292969 C 168.667969 67.246094 168.582031 67.195312 168.496094 67.148438 C 168.40625 67.105469 168.320312 67.058594 168.230469 67.015625 C 168.054688 66.925781 167.875 66.832031 167.695312 66.742188 C 167.339844 66.546875 166.964844 66.386719 166.585938 66.210938 C 165.070312 65.527344 163.414062 64.929688 161.648438 64.488281 C 161.539062 64.460938 161.425781 64.429688 161.316406 64.402344 C 161.203125 64.378906 161.09375 64.355469 160.980469 64.332031 C 160.753906 64.28125 160.53125 64.234375 160.304688 64.183594 L 160.132812 64.148438 L 159.960938 64.121094 C 159.847656 64.101562 159.730469 64.078125 159.617188 64.0625 C 159.386719 64.019531 159.15625 63.980469 158.921875 63.941406 C 158.6875 63.914062 158.453125 63.882812 158.21875 63.851562 C 157.984375 63.824219 157.746094 63.789062 157.507812 63.773438 C 157.03125 63.734375 156.554688 63.679688 156.070312 63.667969 C 155.828125 63.65625 155.585938 63.644531 155.34375 63.636719 C 155.101562 63.632812 154.855469 63.632812 154.613281 63.628906 L 154.246094 63.625 C 154.121094 63.625 154 63.632812 153.878906 63.636719 C 153.632812 63.644531 153.382812 63.652344 153.140625 63.660156 C 153.015625 63.660156 152.890625 63.671875 152.769531 63.679688 L 152.027344 63.726562 L 151.84375 63.742188 L 151.65625 63.761719 C 151.164062 63.8125 150.667969 63.855469 150.175781 63.929688 C 149.183594 64.058594 148.199219 64.25 147.222656 64.453125 C 146.976562 64.511719 146.734375 64.570312 146.492188 64.625 L 146.125 64.714844 L 145.761719 64.808594 C 145.519531 64.875 145.28125 64.9375 145.039062 65.003906 C 144.800781 65.074219 144.5625 65.144531 144.324219 65.214844 L 143.964844 65.320312 L 143.609375 65.433594 C 143.375 65.511719 143.140625 65.589844 142.902344 65.667969 C 142.671875 65.746094 142.4375 65.832031 142.203125 65.914062 C 141.972656 65.996094 141.742188 66.078125 141.511719 66.164062 C 141.28125 66.253906 141.054688 66.339844 140.828125 66.429688 C 140.597656 66.515625 140.375 66.609375 140.148438 66.703125 C 139.699219 66.882812 139.261719 67.078125 138.820312 67.269531 C 137.070312 68.050781 135.417969 68.90625 133.882812 69.78125 C 132.347656 70.664062 130.929688 71.558594 129.648438 72.433594 C 128.371094 73.308594 127.222656 74.152344 126.230469 74.929688 C 125.234375 75.707031 124.382812 76.410156 123.699219 77.007812 C 122.324219 78.195312 121.589844 78.9375 121.589844 78.9375 C 121.589844 78.9375 122.257812 78.136719 123.527344 76.824219 C 124.160156 76.167969 124.949219 75.386719 125.882812 74.519531 C 126.8125 73.648438 127.890625 72.699219 129.105469 71.703125 C 130.320312 70.707031 131.679688 69.671875 133.164062 68.636719 C 134.648438 67.609375 136.265625 66.582031 138 65.617188 C 138.433594 65.382812 138.871094 65.136719 139.324219 64.910156 C 139.546875 64.796875 139.773438 64.675781 140 64.5625 C 140.230469 64.453125 140.460938 64.339844 140.6875 64.230469 C 140.917969 64.113281 141.152344 64.007812 141.386719 63.902344 C 141.625 63.796875 141.859375 63.683594 142.09375 63.578125 C 142.332031 63.476562 142.574219 63.375 142.8125 63.273438 L 143.175781 63.121094 L 143.542969 62.976562 C 143.789062 62.878906 144.03125 62.78125 144.277344 62.683594 C 144.527344 62.59375 144.777344 62.503906 145.023438 62.414062 L 145.398438 62.277344 L 145.777344 62.152344 C 146.03125 62.070312 146.285156 61.984375 146.539062 61.902344 C 147.5625 61.589844 148.597656 61.292969 149.65625 61.0625 C 150.179688 60.933594 150.714844 60.839844 151.246094 60.734375 L 151.644531 60.664062 L 152.449219 60.539062 C 152.53125 60.527344 152.617188 60.515625 152.699219 60.503906 L 152.238281 60.4375 C 151.765625 60.371094 151.289062 60.3125 150.816406 60.257812 C 150.339844 60.214844 149.863281 60.175781 149.382812 60.140625 L 148.667969 60.085938 C 148.425781 60.078125 148.1875 60.070312 147.949219 60.0625 L 146.507812 60.03125 C 146.03125 60.035156 145.550781 60.054688 145.070312 60.066406 L 144.351562 60.085938 C 144.113281 60.097656 143.875 60.121094 143.636719 60.140625 C 143.15625 60.179688 142.679688 60.214844 142.203125 60.257812 C 142.085938 60.269531 141.96875 60.285156 141.847656 60.300781 L 141.492188 60.347656 C 141.257812 60.378906 141.019531 60.410156 140.785156 60.4375 C 140.546875 60.472656 140.3125 60.507812 140.078125 60.539062 L 139.902344 60.566406 L 139.726562 60.597656 L 139.375 60.664062 C 138.90625 60.75 138.441406 60.839844 137.976562 60.933594 L 137.804688 60.964844 L 137.632812 61.007812 L 137.289062 61.089844 C 137.058594 61.144531 136.828125 61.203125 136.601562 61.257812 C 136.371094 61.3125 136.144531 61.371094 135.917969 61.425781 C 135.6875 61.480469 135.464844 61.554688 135.242188 61.621094 C 134.792969 61.757812 134.34375 61.886719 133.902344 62.027344 C 133.664062 62.097656 133.433594 62.1875 133.195312 62.269531 C 133.003906 62.335938 132.8125 62.40625 132.617188 62.476562 C 132.175781 62.644531 131.730469 62.792969 131.296875 62.980469 C 130.875 63.15625 130.453125 63.335938 130.035156 63.515625 L 129.722656 63.648438 L 129.417969 63.800781 C 129.210938 63.898438 129.007812 63.996094 128.804688 64.09375 C 128.601562 64.191406 128.402344 64.289062 128.199219 64.390625 L 127.898438 64.539062 C 127.800781 64.59375 127.703125 64.648438 127.605469 64.699219 C 127.410156 64.808594 127.214844 64.914062 127.019531 65.019531 C 126.824219 65.128906 126.632812 65.238281 126.4375 65.347656 C 126.050781 65.558594 125.679688 65.792969 125.308594 66.027344 C 125.121094 66.140625 124.9375 66.257812 124.753906 66.375 C 124.570312 66.488281 124.386719 66.601562 124.207031 66.726562 C 123.851562 66.972656 123.5 67.21875 123.152344 67.464844 C 122.976562 67.589844 122.804688 67.714844 122.632812 67.835938 C 122.460938 67.964844 122.296875 68.09375 122.128906 68.222656 C 121.800781 68.484375 121.46875 68.746094 121.144531 69.003906 C 120.980469 69.132812 120.828125 69.269531 120.667969 69.40625 C 120.515625 69.542969 120.359375 69.675781 120.203125 69.8125 C 120.050781 69.949219 119.898438 70.085938 119.746094 70.21875 C 119.597656 70.355469 119.445312 70.484375 119.300781 70.628906 C 119.007812 70.910156 118.722656 71.195312 118.441406 71.472656 C 118.300781 71.609375 118.160156 71.75 118.019531 71.890625 C 117.882812 72.03125 117.753906 72.179688 117.621094 72.320312 C 117.351562 72.609375 117.09375 72.898438 116.839844 73.183594 C 116.773438 73.253906 116.710938 73.324219 116.648438 73.394531 C 116.585938 73.46875 116.523438 73.542969 116.464844 73.617188 C 116.34375 73.761719 116.222656 73.910156 116.101562 74.054688 C 115.863281 74.347656 115.632812 74.640625 115.402344 74.925781 C 115.175781 75.21875 114.964844 75.523438 114.75 75.8125 C 114.539062 76.109375 114.328125 76.398438 114.128906 76.691406 C 113.933594 76.988281 113.746094 77.285156 113.558594 77.578125 C 113.464844 77.722656 113.375 77.867188 113.28125 78.015625 C 113.191406 78.160156 113.101562 78.300781 113.019531 78.449219 C 112.847656 78.746094 112.683594 79.039062 112.523438 79.328125 C 112.445312 79.472656 112.367188 79.617188 112.285156 79.761719 C 112.210938 79.90625 112.128906 80.042969 112.058594 80.191406 C 111.773438 80.773438 111.5 81.335938 111.246094 81.890625 C 111.007812 82.457031 110.785156 83.007812 110.574219 83.542969 C 109.523438 86.785156 109.238281 89.460938 109.234375 91.382812 " fill-opacity="1" fill-rule="nonzero"/></g></g></g><g clip-path="url(#1ba889588a)"><g clip-path="url(#385b44f720)"><g clip-path="url(#af10e3bf2e)"><path fill="#000000" d="M 136.78125 94.398438 C 136.78125 94.398438 136.902344 94.441406 137.121094 94.527344 C 137.175781 94.550781 137.234375 94.578125 137.300781 94.605469 C 137.367188 94.628906 137.441406 94.65625 137.515625 94.6875 C 137.671875 94.746094 137.84375 94.8125 138.039062 94.882812 C 138.425781 95.035156 138.894531 95.195312 139.417969 95.371094 C 139.941406 95.542969 140.527344 95.714844 141.160156 95.875 C 141.789062 96.035156 142.460938 96.183594 143.167969 96.300781 C 143.875 96.417969 144.609375 96.511719 145.363281 96.570312 C 146.117188 96.621094 146.886719 96.644531 147.660156 96.625 C 148.433594 96.601562 149.207031 96.539062 149.972656 96.421875 C 150.355469 96.371094 150.730469 96.296875 151.105469 96.222656 L 151.457031 96.144531 L 151.472656 96.140625 C 151.464844 96.140625 151.507812 96.132812 151.453125 96.148438 L 151.464844 96.144531 L 151.507812 96.132812 L 151.671875 96.09375 L 151.839844 96.050781 L 151.972656 96.015625 C 152.066406 95.992188 152.15625 95.96875 152.25 95.945312 C 153.027344 95.734375 153.855469 95.480469 154.707031 95.246094 C 154.921875 95.183594 155.132812 95.128906 155.351562 95.074219 C 155.460938 95.046875 155.570312 95.019531 155.675781 94.992188 C 155.785156 94.96875 155.894531 94.941406 156.003906 94.917969 C 156.222656 94.867188 156.441406 94.820312 156.660156 94.777344 C 156.878906 94.734375 157.101562 94.699219 157.320312 94.664062 C 157.429688 94.648438 157.539062 94.636719 157.648438 94.621094 L 157.730469 94.609375 L 157.75 94.605469 C 157.730469 94.613281 157.789062 94.597656 157.789062 94.597656 L 157.796875 94.597656 L 157.832031 94.59375 C 157.882812 94.589844 157.933594 94.585938 157.980469 94.582031 C 158.085938 94.574219 158.1875 94.566406 158.289062 94.558594 C 158.402344 94.550781 158.519531 94.542969 158.632812 94.535156 C 159.070312 94.519531 159.480469 94.519531 159.886719 94.554688 C 160.6875 94.617188 161.417969 94.773438 162.035156 95 C 162.65625 95.222656 163.15625 95.5 163.527344 95.777344 C 163.898438 96.050781 164.148438 96.308594 164.304688 96.492188 C 164.457031 96.679688 164.523438 96.78125 164.523438 96.78125 C 164.523438 96.78125 164.394531 96.773438 164.167969 96.75 C 164.113281 96.742188 164.046875 96.738281 163.976562 96.738281 C 163.910156 96.734375 163.835938 96.730469 163.753906 96.730469 C 163.675781 96.722656 163.585938 96.730469 163.496094 96.730469 C 163.40625 96.730469 163.316406 96.726562 163.214844 96.738281 C 162.820312 96.753906 162.351562 96.816406 161.851562 96.929688 C 161.347656 97.042969 160.800781 97.214844 160.222656 97.441406 C 159.9375 97.550781 159.636719 97.683594 159.34375 97.816406 C 159.273438 97.855469 159.207031 97.886719 159.136719 97.921875 C 159.054688 97.960938 158.96875 98 158.886719 98.039062 C 158.839844 98.058594 158.796875 98.082031 158.75 98.101562 L 158.710938 98.121094 C 158.699219 98.125 158.753906 98.109375 158.730469 98.117188 L 158.714844 98.125 L 158.65625 98.15625 C 158.574219 98.195312 158.496094 98.238281 158.414062 98.277344 C 158.089844 98.453125 157.753906 98.628906 157.414062 98.808594 C 157.324219 98.855469 157.238281 98.90625 157.148438 98.953125 C 157.058594 99 156.96875 99.046875 156.878906 99.09375 C 156.699219 99.191406 156.511719 99.292969 156.320312 99.390625 C 155.941406 99.589844 155.539062 99.792969 155.113281 99.992188 C 154.90625 100.089844 154.683594 100.191406 154.460938 100.289062 C 154.351562 100.335938 154.234375 100.382812 154.121094 100.429688 C 154.003906 100.476562 153.886719 100.523438 153.769531 100.570312 C 153.660156 100.617188 153.523438 100.660156 153.394531 100.707031 L 153.199219 100.773438 L 153.039062 100.828125 L 152.875 100.882812 L 152.832031 100.898438 L 152.824219 100.898438 L 152.78125 100.914062 L 152.757812 100.917969 L 152.660156 100.945312 C 152.53125 100.984375 152.402344 101.019531 152.273438 101.054688 C 151.75 101.191406 151.222656 101.308594 150.6875 101.378906 C 149.621094 101.539062 148.539062 101.5625 147.492188 101.484375 C 146.445312 101.40625 145.433594 101.203125 144.484375 100.921875 C 143.539062 100.632812 142.660156 100.261719 141.875 99.832031 C 141.085938 99.40625 140.390625 98.921875 139.796875 98.429688 C 139.203125 97.933594 138.710938 97.429688 138.3125 96.949219 C 137.917969 96.472656 137.609375 96.03125 137.386719 95.648438 C 137.332031 95.554688 137.277344 95.464844 137.230469 95.375 C 137.1875 95.289062 137.140625 95.207031 137.101562 95.128906 C 137.0625 95.050781 137.027344 94.984375 136.996094 94.917969 C 136.96875 94.851562 136.941406 94.789062 136.917969 94.734375 C 136.828125 94.519531 136.78125 94.398438 136.78125 94.398438 " fill-opacity="1" fill-rule="nonzero"/></g></g></g><g clip-path="url(#888a3301ae)"><g clip-path="url(#955f967902)"><g clip-path="url(#3bf29a4051)"><path fill="#000000" d="M 127.324219 62.808594 C 127.324219 62.808594 127.398438 62.703125 127.527344 62.503906 C 127.558594 62.457031 127.59375 62.402344 127.632812 62.339844 C 127.671875 62.28125 127.714844 62.21875 127.761719 62.148438 C 127.851562 62.011719 127.953125 61.855469 128.074219 61.683594 C 128.300781 61.339844 128.59375 60.933594 128.921875 60.492188 C 129.25 60.046875 129.632812 59.566406 130.054688 59.074219 C 130.476562 58.578125 130.945312 58.070312 131.457031 57.5625 C 131.964844 57.058594 132.511719 56.558594 133.09375 56.074219 C 133.679688 55.597656 134.296875 55.132812 134.941406 54.703125 C 135.585938 54.277344 136.257812 53.878906 136.945312 53.535156 C 137.289062 53.355469 137.640625 53.199219 137.992188 53.042969 L 138.253906 52.929688 L 138.320312 52.90625 L 138.339844 52.898438 C 138.328125 52.898438 138.371094 52.882812 138.316406 52.902344 L 138.328125 52.898438 L 138.367188 52.882812 L 138.6875 52.757812 L 138.816406 52.707031 C 138.90625 52.675781 138.996094 52.644531 139.082031 52.609375 C 139.84375 52.332031 140.664062 52.058594 141.496094 51.761719 C 141.707031 51.6875 141.910156 51.609375 142.121094 51.527344 C 142.226562 51.488281 142.328125 51.445312 142.433594 51.40625 C 142.539062 51.363281 142.640625 51.320312 142.742188 51.28125 C 142.953125 51.191406 143.15625 51.105469 143.359375 51.011719 C 143.5625 50.921875 143.765625 50.824219 143.964844 50.722656 C 144.0625 50.671875 144.160156 50.621094 144.261719 50.570312 L 144.332031 50.53125 L 144.347656 50.523438 C 144.332031 50.53125 144.386719 50.507812 144.386719 50.507812 L 144.394531 50.503906 L 144.425781 50.484375 C 144.46875 50.460938 144.507812 50.433594 144.550781 50.410156 C 144.640625 50.355469 144.730469 50.304688 144.816406 50.253906 C 144.917969 50.195312 145.015625 50.132812 145.109375 50.074219 C 145.480469 49.832031 145.8125 49.59375 146.125 49.332031 C 146.746094 48.820312 147.253906 48.265625 147.628906 47.726562 C 148.003906 47.183594 148.257812 46.667969 148.402344 46.230469 C 148.546875 45.789062 148.605469 45.4375 148.625 45.195312 C 148.644531 44.953125 148.640625 44.832031 148.640625 44.832031 C 148.640625 44.832031 148.539062 44.914062 148.367188 45.0625 C 148.324219 45.101562 148.273438 45.140625 148.21875 45.183594 C 148.164062 45.226562 148.105469 45.269531 148.039062 45.320312 C 147.980469 45.371094 147.90625 45.417969 147.832031 45.46875 C 147.753906 45.519531 147.683594 45.574219 147.59375 45.625 C 147.261719 45.839844 146.84375 46.058594 146.367188 46.253906 C 145.894531 46.453125 145.347656 46.628906 144.746094 46.777344 C 144.449219 46.851562 144.128906 46.917969 143.808594 46.976562 C 143.734375 46.988281 143.65625 47 143.582031 47.011719 C 143.492188 47.027344 143.398438 47.046875 143.308594 47.0625 C 143.261719 47.070312 143.210938 47.078125 143.164062 47.085938 L 143.125 47.09375 L 143.117188 47.09375 C 143.109375 47.097656 143.160156 47.078125 143.136719 47.085938 L 143.117188 47.089844 L 143.054688 47.097656 C 142.964844 47.113281 142.875 47.125 142.785156 47.136719 C 142.421875 47.183594 142.046875 47.234375 141.664062 47.28125 C 141.5625 47.292969 141.464844 47.304688 141.363281 47.316406 C 141.265625 47.332031 141.164062 47.34375 141.0625 47.355469 C 140.859375 47.382812 140.648438 47.40625 140.4375 47.4375 C 140.011719 47.496094 139.566406 47.5625 139.105469 47.644531 C 138.875 47.683594 138.640625 47.730469 138.402344 47.777344 C 138.28125 47.804688 138.160156 47.832031 138.042969 47.859375 C 137.921875 47.886719 137.796875 47.917969 137.675781 47.949219 C 137.558594 47.972656 137.417969 48.015625 137.289062 48.050781 L 137.09375 48.109375 L 136.925781 48.160156 L 136.761719 48.207031 L 136.71875 48.222656 L 136.710938 48.222656 L 136.667969 48.238281 L 136.644531 48.246094 L 136.550781 48.28125 C 136.425781 48.324219 136.296875 48.371094 136.171875 48.414062 C 135.664062 48.605469 135.167969 48.816406 134.6875 49.066406 C 133.722656 49.550781 132.828125 50.15625 132.015625 50.824219 C 131.207031 51.496094 130.492188 52.246094 129.882812 53.023438 C 129.273438 53.804688 128.769531 54.617188 128.371094 55.425781 C 127.972656 56.226562 127.679688 57.023438 127.480469 57.769531 C 127.273438 58.519531 127.164062 59.214844 127.113281 59.835938 C 127.0625 60.457031 127.066406 60.996094 127.101562 61.4375 C 127.109375 61.546875 127.117188 61.648438 127.128906 61.75 C 127.144531 61.847656 127.15625 61.941406 127.167969 62.027344 C 127.179688 62.113281 127.1875 62.191406 127.203125 62.261719 C 127.214844 62.332031 127.230469 62.394531 127.242188 62.453125 C 127.289062 62.683594 127.324219 62.808594 127.324219 62.808594 " fill-opacity="1" fill-rule="nonzero"/></g></g></g></svg>