<svg width="44" height="40" viewBox="0 0 44 40" fill="none" xmlns="http://www.w3.org/2000/svg">
<path d="M43.2674 25.5012C46.1972 14.9701 40.0755 3.9177 29.594 0.814959C19.1104 -2.28658 8.23696 3.7361 5.30714 14.2672L-0.000202972 33.3353L18.9805 38.9534C29.462 42.0561 40.3354 36.0334 43.2674 25.5012ZM18.5477 23.0618C17.7404 21.6042 17.5499 19.9217 18.0082 18.3191C18.9573 15.0131 22.4181 13.0962 25.7241 14.0454C27.3245 14.5048 28.6509 15.5609 29.4583 17.0186C30.2657 18.4762 30.4573 20.1609 29.9979 21.7613C29.0487 25.0673 25.5857 26.9854 22.2819 26.0351C20.6815 25.5756 19.3551 24.5195 18.5477 23.0618Z" fill="black"/>
</svg>
