<svg width="30" height="30" viewBox="0 0 30 30" fill="none" xmlns="http://www.w3.org/2000/svg">
<path fill-rule="evenodd" clip-rule="evenodd" d="M19.9502 0.572826C16.6942 -0.190942 13.3055 -0.190942 10.0495 0.572826C5.34731 1.67581 1.67581 5.3473 0.572828 10.0495C-0.190943 13.3055 -0.190943 16.6942 0.572828 19.9502C1.67581 24.6524 5.34731 28.3239 10.0495 29.4269C13.3055 30.1907 16.6942 30.1907 19.9502 29.4269C24.6524 28.3239 28.3239 24.6524 29.4269 19.9502C30.1907 16.6942 30.1907 13.3055 29.4269 10.0495C28.3239 5.34731 24.6524 1.67581 19.9502 0.572826Z" fill="#E87D00"/>
<path d="M6.35211 11.9498C7.00363 9.17233 9.17233 7.00362 11.9498 6.35211C13.9557 5.88159 16.0433 5.88159 18.0492 6.35211C20.8267 7.00362 22.9954 9.17233 23.6469 11.9498C24.1174 13.9557 24.1174 16.0433 23.6469 18.0492C22.9954 20.8267 20.8267 22.9954 18.0492 23.6469C16.0433 24.1174 13.9557 24.1174 11.9498 23.6469C9.17233 22.9954 7.00363 20.8267 6.35211 18.0492C5.88159 16.0433 5.88159 13.9557 6.35211 11.9498Z" stroke="white" stroke-width="1.5"/>
<path d="M12.2494 14.7495L14.2495 16.7496L17.7496 12.9994" stroke="white" stroke-width="1.5" stroke-linecap="round" stroke-linejoin="round"/>
</svg>
