<svg width="20" height="24" viewBox="0 0 20 24" fill="none" xmlns="http://www.w3.org/2000/svg">
<path fill-rule="evenodd" clip-rule="evenodd" d="M8.54788 5.64893H15.2417C18.8357 5.64893 20.1886 7.48891 19.9795 10.1921C19.634 14.6549 16.9661 17.1239 13.4274 17.1239H11.6408C11.1553 17.1239 10.8287 17.4489 10.6974 18.3296L9.93882 23.4494C9.88871 23.7814 9.71593 23.9736 9.45674 23.9998H5.25107C4.85539 23.9998 4.71543 23.694 4.8191 23.0318L7.38328 6.61872C7.4835 5.96171 7.83944 5.64893 8.54788 5.64893Z" fill="#009EE3"/>
<path fill-rule="evenodd" clip-rule="evenodd" d="M4.36088 0H11.0616C12.9485 0 15.1878 0.061158 16.6841 1.3979C17.6846 2.2908 18.2099 3.71142 18.0889 5.24211C17.6777 10.4161 14.6176 13.315 10.5121 13.315H7.20843C6.64514 13.315 6.27365 13.6924 6.11468 14.7129L5.192 20.6539C5.13152 21.0384 4.96737 21.2655 4.67363 21.2935H0.538809C0.0809201 21.2935 -0.0815024 20.944 0.0377215 20.1717L3.00968 1.1288C3.1289 0.363452 3.54532 0 4.36088 0Z" fill="#113984"/>
<path fill-rule="evenodd" clip-rule="evenodd" d="M6.21094 14.11L7.38071 6.619C7.48266 5.96199 7.8386 5.64746 8.54704 5.64746H15.2409C16.3484 5.64746 17.2452 5.8222 17.9467 6.14546C17.2746 10.7515 14.3285 13.3097 10.4719 13.3097H7.17337C6.73103 13.3114 6.40619 13.5351 6.21094 14.11Z" fill="#172C70"/>
</svg>
