<svg width="20" height="23" viewBox="0 0 20 23" fill="none" xmlns="http://www.w3.org/2000/svg">
<path fill-rule="evenodd" clip-rule="evenodd" d="M11.0347 2.00144C12.6468 0.00944611 14.8876 0 14.8876 0C14.8876 0 15.2209 1.8726 13.6197 3.6768C11.9097 5.60305 9.9663 5.28793 9.9663 5.28793C9.9663 5.28793 9.60157 3.7724 11.0347 2.00144Z" fill="#999999"/>
<path fill-rule="evenodd" clip-rule="evenodd" d="M10.1715 6.59931C11.0009 6.59931 12.5396 5.53076 14.5431 5.53076C17.9913 5.53076 19.3479 7.83108 19.3479 7.83108C19.3479 7.83108 16.6948 9.1029 16.6948 12.1888C16.6948 15.6698 20 16.8695 20 16.8695C20 16.8695 17.6895 22.9664 14.5689 22.9664C13.1353 22.9664 12.0214 22.0607 10.5108 22.0607C8.97169 22.0607 7.44464 23 6.44998 23C3.6002 23 0 17.2167 0 12.5677C0 7.99393 3.04725 5.59462 5.90549 5.59462C7.76343 5.59462 9.20544 6.59931 10.1715 6.59931Z" fill="#999999"/>
</svg>
