<svg width="191" height="191" viewBox="0 0 191 191" fill="none" xmlns="http://www.w3.org/2000/svg">
<path d="M68.9724 21.217C54.345 21.217 42.4658 33.0168 42.4658 47.5858V76.8881C42.4658 77.5917 42.7453 78.2662 43.2428 78.7637C43.7403 79.2612 44.415 79.5409 45.1186 79.5409C45.8222 79.5409 46.4969 79.2612 46.9944 78.7637C47.4919 78.2662 47.7714 77.5917 47.7714 76.8881V47.58C47.7714 35.8812 57.1728 26.5226 68.9724 26.5226C80.7719 26.5226 90.1734 35.8818 90.1734 47.5858V76.8881C90.1734 77.5917 90.4529 78.2662 90.9504 78.7637C91.4479 79.2612 92.1226 79.5409 92.8262 79.5409C93.5297 79.5409 94.2045 79.2612 94.702 78.7637C95.1994 78.2662 95.4789 77.5917 95.4789 76.8881V47.58C95.4789 33.0162 83.5998 21.217 68.9724 21.217Z" fill="black"/>
<path d="M37.1391 58.3665H122.028C124.967 58.3665 127.333 60.7327 127.333 63.672V169.783C127.333 172.722 124.967 175.089 122.028 175.089H37.1391C34.1998 175.089 31.8335 172.722 31.8335 169.783V63.672C31.8335 60.7327 34.1998 58.3665 37.1391 58.3665Z" fill="#E42C34"/>
<path d="M32.1305 58.3665H121.731C124.834 58.3665 127.333 60.7327 127.333 63.672V169.783C127.333 172.722 124.84 175.089 121.731 175.089H32.1305C29.0268 175.089 26.5278 172.722 26.5278 169.783V63.672C26.5278 60.7327 29.0214 58.3665 32.1305 58.3665Z" fill="#B9864B"/>
<path d="M61.0139 76.9359C61.0139 78.343 60.455 79.6925 59.46 80.6875C58.465 81.6825 57.1155 82.2415 55.7084 82.2415C54.3013 82.2415 52.9518 81.6825 51.9568 80.6875C50.9618 79.6925 50.4028 78.343 50.4028 76.9359C50.4028 75.5288 50.9618 74.1793 51.9568 73.1843C52.9518 72.1893 54.3013 71.6304 55.7084 71.6304C57.1155 71.6304 58.465 72.1893 59.46 73.1843C60.455 74.1793 61.0139 75.5288 61.0139 76.9359ZM108.764 76.9359C108.764 78.343 108.205 79.6925 107.21 80.6875C106.215 81.6825 104.866 82.2415 103.458 82.2415C102.051 82.2415 100.702 81.6825 99.7068 80.6875C98.7118 79.6925 98.1528 78.343 98.1528 76.9359C98.1528 75.5288 98.7118 74.1793 99.7068 73.1843C100.702 72.1893 102.051 71.6304 103.458 71.6304C104.866 71.6304 106.215 72.1893 107.21 73.1843C108.205 74.1793 108.764 75.5288 108.764 76.9359Z" fill="#E6E6E6"/>
<path d="M79.5832 21.238C64.9558 21.238 53.0767 33.0376 53.0767 47.6013V76.8933C53.0767 77.5968 53.3562 78.2714 53.8536 78.7689C54.3511 79.2663 55.0259 79.546 55.7294 79.546C56.433 79.546 57.1077 79.2663 57.6052 78.7689C58.1027 78.2714 58.3822 77.5968 58.3822 76.8933V47.6013C58.3822 35.9026 67.7837 26.5436 79.5832 26.5436C91.3828 26.5436 100.784 35.9026 100.784 47.6013V76.8933C100.784 77.5968 101.064 78.2714 101.561 78.7689C102.059 79.2663 102.733 79.546 103.437 79.546C104.141 79.546 104.815 79.2663 105.313 78.7689C105.81 78.2714 106.09 77.5968 106.09 76.8933V47.6013C106.09 33.0376 94.2106 21.238 79.5832 21.238Z" fill="black"/>
<path d="M21.2221 58.3665C18.2828 58.3665 15.9165 60.7327 15.9165 63.672V169.783C15.9165 172.722 18.2828 175.089 21.2221 175.089H37.1387C34.1994 175.089 31.8332 172.722 31.8332 169.783V63.672C31.8332 60.7327 34.1994 58.3665 37.1387 58.3665H21.2221Z" fill="#896830"/>
<path d="M21.2221 58.3665C18.2828 58.3665 15.9165 60.7327 15.9165 63.672V63.7251C15.9253 64.8663 16.2972 65.9859 16.9953 66.9725C17.6933 67.959 18.6932 68.7783 19.8957 69.349C21.1055 69.9231 22.4779 70.2254 23.8748 70.2254C25.2718 70.2254 26.6442 69.9231 27.854 69.349C29.0565 68.7783 30.0564 67.959 30.7544 66.9725C31.4525 65.9859 31.8244 64.8663 31.8332 63.7251C31.8333 63.7074 31.8333 63.6897 31.8332 63.672C31.8332 60.7327 34.1994 58.3665 37.1387 58.3665H21.2221Z" fill="#312621"/>
<path d="M82.2362 100.811H167.125C170.064 100.811 172.431 103.177 172.431 106.116V169.783C172.431 172.722 170.064 175.089 167.125 175.089H82.2362C79.2969 175.089 76.9307 172.722 76.9307 169.783V106.116C76.9307 103.177 79.2969 100.811 82.2362 100.811Z" fill="#F7CC9B"/>
<path d="M106.111 114.075C106.111 115.482 105.552 116.831 104.557 117.826C103.562 118.821 102.213 119.38 100.806 119.38C99.3984 119.38 98.0489 118.821 97.054 117.826C96.059 116.831 95.5 115.482 95.5 114.075C95.5 112.668 96.059 111.318 97.054 110.323C98.0489 109.328 99.3984 108.769 100.806 108.769C102.213 108.769 103.562 109.328 104.557 110.323C105.552 111.318 106.111 112.668 106.111 114.075ZM153.861 114.075C153.861 115.482 153.302 116.831 152.307 117.826C151.312 118.821 149.963 119.38 148.556 119.38C147.148 119.38 145.799 118.821 144.804 117.826C143.809 116.831 143.25 115.482 143.25 114.075C143.25 112.668 143.809 111.318 144.804 110.323C145.799 109.328 147.148 108.769 148.556 108.769C149.963 108.769 151.312 109.328 152.307 110.323C153.302 111.318 153.861 112.668 153.861 114.075Z" fill="#E6E6E6"/>
<path d="M100.785 111.422C100.436 111.428 100.092 111.501 99.7725 111.64C99.4528 111.778 99.1634 111.979 98.921 112.229C98.6786 112.479 98.4879 112.775 98.3598 113.099C98.2316 113.423 98.1686 113.768 98.1742 114.117V132.803C98.1742 147.367 110.053 159.161 124.681 159.161C139.308 159.161 151.187 147.367 151.187 132.803V114.117C151.187 113.413 150.908 112.739 150.41 112.241C149.913 111.744 149.238 111.464 148.535 111.464C147.831 111.464 147.156 111.744 146.659 112.241C146.161 112.739 145.882 113.413 145.882 114.117V132.803C145.882 144.502 136.48 153.855 124.681 153.855C112.881 153.855 103.48 144.502 103.48 132.803V114.117C103.485 113.761 103.42 113.408 103.286 113.079C103.153 112.749 102.955 112.45 102.703 112.199C102.452 111.947 102.152 111.748 101.823 111.615C101.493 111.482 101.14 111.416 100.785 111.422Z" fill="black"/>
<path d="M66.3192 100.811C63.3799 100.811 61.0137 103.177 61.0137 106.116V169.783C61.0137 172.722 63.3799 175.089 66.3192 175.089H82.2359C79.2966 175.089 76.9303 172.722 76.9303 169.783V106.116C76.9303 103.177 79.2966 100.811 82.2359 100.811H66.3192Z" fill="#BE8F5A"/>
<path d="M66.3192 100.811C63.3799 100.811 61.0137 103.177 61.0137 106.116V106.169C61.0225 107.311 61.3944 108.43 62.0924 109.417C62.7905 110.403 63.7904 111.223 64.9928 111.793C66.2027 112.367 67.575 112.67 68.972 112.67C70.369 112.67 71.7414 112.367 72.9512 111.793C74.1536 111.223 75.1535 110.403 75.8516 109.417C76.5496 108.43 76.9215 107.311 76.9303 106.169C76.9304 106.152 76.9304 106.134 76.9303 106.116C76.9303 103.177 79.2966 100.811 82.2359 100.811H66.3192Z" fill="#967044"/>
<path d="M68.9724 15.9167C51.4906 15.9167 37.1603 30.1356 37.1603 47.5856V53.0662H21.2224C15.4394 53.0662 10.6113 57.8943 10.6113 63.6774V169.788C10.6113 175.572 15.4394 180.4 21.2224 180.4H167.125C172.908 180.4 177.736 175.572 177.736 169.788V106.122C177.736 100.339 172.908 95.5107 167.125 95.5107H132.639V63.6774C132.639 57.8943 127.811 53.0662 122.028 53.0662H111.396V47.6015C111.396 30.1569 97.0654 15.938 79.5835 15.938C77.8009 15.938 76.0607 16.1714 74.3523 16.4579C72.5777 16.1242 70.7779 15.9431 68.9724 15.9167ZM68.9724 21.2223C70.8082 21.2223 72.5961 21.408 74.3311 21.7635C76.0288 21.4186 77.7797 21.2435 79.5835 21.2435C94.211 21.2435 106.09 33.0378 106.09 47.6068V58.3718H122.028C124.967 58.3718 127.334 60.7381 127.334 63.6774V100.816H167.125C170.064 100.816 172.431 103.183 172.431 106.122V169.788C172.431 172.728 170.064 175.094 167.125 175.094H21.2224C18.2832 175.094 15.9169 172.728 15.9169 169.788V63.6774C15.9169 60.7381 18.2832 58.3718 21.2224 58.3718H42.4659V47.5856C42.4659 33.0166 54.345 21.2223 68.9724 21.2223ZM74.3098 27.2653C65.1153 29.5786 58.3825 37.7226 58.3825 47.6068V58.3718H90.1734V47.5856C90.1734 37.7279 83.4672 29.5998 74.3098 27.2653ZM62.4784 27.6261C53.9259 30.3372 47.7714 38.1523 47.7714 47.5856V58.3718H53.077V47.6015C53.077 39.5689 56.775 32.4595 62.4731 27.6261H62.4784ZM86.1624 27.6686C91.8182 32.4966 95.479 39.5848 95.479 47.5856V58.3718H100.785V47.6015C100.785 38.2054 94.6725 30.4062 86.1624 27.6686ZM74.2992 33.2394C80.3847 35.4518 84.8679 40.7043 84.8679 47.5856V53.0662H63.6881V47.6015C63.6881 40.7043 68.1872 35.4359 74.2992 33.2447V33.2394Z" fill="#E9EDED"/>
</svg>
