<svg width="23" height="23" viewBox="0 0 23 23" fill="none" xmlns="http://www.w3.org/2000/svg">
<path fill-rule="evenodd" clip-rule="evenodd" d="M1.26465 6.34342C1.74316 5.31178 2.41963 4.41111 3.21337 3.5963C5.00889 1.75294 7.18205 0.572429 9.75492 0.169658C13.3561 -0.393727 16.5789 0.43776 19.3642 2.78767C19.5401 2.93593 19.5836 3.02303 19.3926 3.2065C18.4097 4.1498 17.442 5.10854 16.4686 6.06173C16.369 6.15933 16.3015 6.27855 16.1244 6.11979C13.6725 3.91814 9.66981 3.94347 7.06416 6.31809C6.16955 7.13352 5.53343 8.11017 5.11733 9.23015C5.05681 9.19123 4.9925 9.15664 4.93513 9.11339C3.71079 8.18986 2.48835 7.26695 1.26465 6.34342Z" fill="#D7282A"/>
<path fill-rule="evenodd" clip-rule="evenodd" d="M5.08802 13.7256C5.43981 14.6003 5.87608 15.4275 6.52545 16.1299C8.17596 17.9164 10.2224 18.6867 12.6736 18.4371C13.8128 18.321 14.8505 17.9429 15.8202 17.3623C15.9135 17.4438 16.0017 17.5309 16.1001 17.6063C17.2349 18.4742 18.3716 19.3409 19.507 20.2076C18.2543 21.3733 16.7753 22.1492 15.1115 22.5612C11.1889 23.5329 7.57325 22.9189 4.36237 20.4362C3.03527 19.4095 1.99062 18.1419 1.25488 16.6414C2.53344 15.6696 3.81073 14.6979 5.08802 13.7256Z" fill="#45AC43"/>
<path fill-rule="evenodd" clip-rule="evenodd" d="M19.508 20.2085C18.372 19.3418 17.2359 18.4751 16.1011 17.6072C16.0027 17.5318 15.9145 17.4447 15.8212 17.3632C16.5903 16.788 17.2321 16.1079 17.6533 15.2437C17.8216 14.899 17.9395 14.5382 18.0511 14.1737C18.128 13.9223 18.104 13.8247 17.7869 13.8272C15.8962 13.8426 14.0055 13.8352 12.1147 13.8352C11.7144 13.8352 11.7138 13.8352 11.7138 13.4294C11.7138 12.1735 11.7201 10.9182 11.7081 9.66234C11.7056 9.42018 11.7491 9.3269 12.0277 9.32814C15.5148 9.33802 19.0024 9.33617 22.4894 9.33123C22.6779 9.33123 22.7958 9.34482 22.8286 9.56906C23.2624 12.5577 22.915 15.4129 21.3181 18.0507C20.8301 18.8575 20.2431 19.5945 19.508 20.2085Z" fill="#5D7FBE"/>
<path fill-rule="evenodd" clip-rule="evenodd" d="M5.08783 13.7253C3.81054 14.6971 2.53261 15.6688 1.25532 16.6411C0.631175 15.5044 0.271819 14.2838 0.103489 13.0118C-0.187149 10.8083 0.132489 8.68823 1.08636 6.66696C1.13869 6.55577 1.20489 6.45137 1.26478 6.34326C2.48785 7.26618 3.71092 8.18971 4.93463 9.112C4.992 9.15524 5.05568 9.18984 5.11683 9.22876C4.60427 10.7249 4.63012 12.2242 5.08783 13.7253Z" fill="#F4C300"/>
</svg>
