<svg width="40" height="40" viewBox="0 0 40 40" fill="none" xmlns="http://www.w3.org/2000/svg">
<path fill-rule="evenodd" clip-rule="evenodd" d="M0.763774 13.3994C-0.254592 17.7409 -0.254591 22.2591 0.763776 26.6006C2.23443 32.8702 7.1298 37.7656 13.3994 39.2362C17.7409 40.2546 22.2591 40.2546 26.6006 39.2362C32.8702 37.7656 37.7656 32.8702 39.2362 26.6005C40.2546 22.2591 40.2546 17.7409 39.2362 13.3994C37.7656 7.12981 32.8702 2.23443 26.6006 0.763772C22.2591 -0.254593 17.7409 -0.254589 13.3994 0.763773C7.12981 2.23443 2.23443 7.1298 0.763774 13.3994Z" fill="#E9E9E9"/>
<path fill-rule="evenodd" clip-rule="evenodd" d="M19.8349 26.7251C19.4731 27.1849 18.8435 27.2327 18.4286 26.8319L12.331 20.9417C12.1139 20.732 11.9893 20.4284 11.9893 20.1093C11.9893 19.7901 12.1139 19.4866 12.331 19.2768L18.4286 13.3867C18.8435 12.9859 19.4731 13.0337 19.8349 13.4934C20.1966 13.9532 20.1535 14.6508 19.7385 15.0516L15.646 19.0049L27.6045 19.0049C28.155 19.0049 28.6013 19.4993 28.6013 20.1093C28.6013 20.7192 28.155 21.2137 27.6045 21.2137L15.646 21.2137L19.7385 25.1669C20.1535 25.5677 20.1966 26.2654 19.8349 26.7251Z" fill="black"/>
</svg>
