<svg width="15" height="17" viewBox="0 0 15 17" fill="none" xmlns="http://www.w3.org/2000/svg">
<path d="M7.4697 1.71717C7.04293 1.71717 6.69697 2.06313 6.69697 2.4899C6.69697 2.91666 7.04293 3.26263 7.4697 3.26263V1.71717ZM14.1667 3.26263C14.5934 3.26263 14.9394 2.91667 14.9394 2.4899C14.9394 2.06313 14.5934 1.71717 14.1667 1.71717V3.26263ZM7.4697 13.7374C7.04293 13.7374 6.69697 14.0833 6.69697 14.5101C6.69697 14.9369 7.04293 15.2828 7.4697 15.2828V13.7374ZM14.1667 15.2828C14.5934 15.2828 14.9394 14.9369 14.9394 14.5101C14.9394 14.0833 14.5934 13.7374 14.1667 13.7374V15.2828ZM7.4697 9.27273C7.89646 9.27273 8.24242 8.92677 8.24242 8.5C8.24242 8.07323 7.89646 7.72727 7.4697 7.72727V9.27273ZM0.772727 7.72727C0.345962 7.72727 6.14115e-08 8.07323 0 8.5C-6.14102e-08 8.92676 0.345962 9.27273 0.772727 9.27273L0.772727 7.72727ZM7.4697 3.26263L14.1667 3.26263V1.71717L7.4697 1.71717V3.26263ZM7.4697 15.2828H14.1667V13.7374H7.4697V15.2828ZM7.4697 7.72727L0.772727 7.72727L0.772727 9.27273L7.4697 9.27273V7.72727ZM0 2.4899C0 3.84647 1.07722 4.9798 2.44697 4.9798V3.43434C1.9674 3.43434 1.54545 3.03006 1.54545 2.4899H0ZM2.44697 4.9798C3.81672 4.9798 4.89394 3.84647 4.89394 2.4899H3.34848C3.34848 3.03006 2.92654 3.43434 2.44697 3.43434V4.9798ZM4.89394 2.4899C4.89394 1.13332 3.81672 0 2.44697 0V1.54545C2.92654 1.54545 3.34848 1.94974 3.34848 2.4899H4.89394ZM2.44697 0C1.07722 0 0 1.13332 0 2.4899H1.54545C1.54545 1.94974 1.9674 1.54545 2.44697 1.54545V0ZM0 14.5101C0 15.8667 1.07722 17 2.44697 17V15.4545C1.9674 15.4545 1.54545 15.0503 1.54545 14.5101H0ZM2.44697 17C3.81672 17 4.89394 15.8667 4.89394 14.5101H3.34848C3.34848 15.0503 2.92654 15.4545 2.44697 15.4545V17ZM4.89394 14.5101C4.89394 13.1535 3.81672 12.0202 2.44697 12.0202V13.5657C2.92654 13.5657 3.34848 13.9699 3.34848 14.5101H4.89394ZM2.44697 12.0202C1.07722 12.0202 0 13.1535 0 14.5101H1.54545C1.54545 13.9699 1.9674 13.5657 2.44697 13.5657V12.0202ZM14.9394 8.5C14.9394 7.14343 13.8622 6.0101 12.4924 6.0101V7.55556C12.972 7.55556 13.3939 7.95984 13.3939 8.5L14.9394 8.5ZM12.4924 6.0101C11.1227 6.0101 10.0455 7.14343 10.0455 8.5L11.5909 8.5C11.5909 7.95984 12.0129 7.55556 12.4924 7.55556V6.0101ZM10.0455 8.5C10.0455 9.85657 11.1227 10.9899 12.4924 10.9899V9.44444C12.0129 9.44444 11.5909 9.04016 11.5909 8.5L10.0455 8.5ZM12.4924 10.9899C13.8622 10.9899 14.9394 9.85657 14.9394 8.5L13.3939 8.5C13.3939 9.04016 12.972 9.44444 12.4924 9.44444V10.9899Z" fill="white"/>
</svg>
